<?xml version="1.0" encoding="UTF-8"?>
<svg id="Layer_2" data-name="Layer 2" xmlns="http://www.w3.org/2000/svg" viewBox="0 0 562.7 111.49">
  <g id="_Слой_1" data-name="Слой 1">
    <g>
      <path d="M54.8,90.86v20.64l-8.51-8.52h-21.94c-4.34-4.34-6.78-6.77-11.12-11.12v-10.28l.04-67.72L0,.58h49.53v18.6h-17.06v31.29h17.06v19.29h-17.06v13.99h17.23v2.01l1.5,1.49,3.6,3.6Z"/>
      <g>
        <path d="M327.15,23.56v46.21h-34.59l-9.62-9.62,9.62-9.62h15.36v-18.15c-5.14-5.14-8.02-8.02-13.15-13.14h-26.9c-5.14,5.13-8.02,8.01-13.14,13.14v18.15h15.35l9.62,9.62-9.62,9.62h-34.58V23.56L259.06,0h44.54l23.56,23.56Z"/>
        <path d="M230.39,24.5v45.33h.12V24.5h-.12Z"/>
      </g>
      <g>
        <path d="M230.52,24.5v45.33h-43.84c-1.91-1.91-2.98-2.98-4.88-4.89,5.65-5.65,8.81-8.81,14.46-14.46h14.91v-7.22h-14.59l-65.4,65.41h-27.21L188.05,24.58l.08-.08h42.39Z"/>
        <path d="M186.02,19.39l-.08.08h45.75l.08-.08h-45.75Z"/>
      </g>
      <path d="M110.79,50.47h-31.91v19.35h22.33l14.46-14.46c-1.91-1.91-2.98-2.98-4.89-4.89Z"/>
      <g>
        <path d="M246.15,5.01c-2.82,2.83-5.02,5.02-7.23,7.23-2.19,2.19-4.37,4.36-7.16,7.15l-.08.08h-63.98v.09c-2.39,2.39-1.81,1.81-4.2,4.2v3.29l.07,14.6-67.01,67.02h-16.75c-7.94-7.94-13.04-13.05-19.91-19.92-1.59-1.58-3.27-3.27-5.11-5.1V.46h87.53c-3.76,3.75-6.69,6.69-9.62,9.61-2.93,2.94-5.86,5.86-9.62,9.62h-49.05v55.78l14.25,14.25,14.8-14.8,19.69-19.69,21.48-21.48.2-27.25c2.37-2.37,3.72-3.72,6.1-6.08V.13h90.69c1.91,1.91,2.98,2.97,4.89,4.88Z"/>
        <path d="M188.13,24.5l-.08.08h42.47v-.08h-42.39Z"/>
      </g>
      <path d="M507.9,90.83v20.64s8.51-8.52,8.51-8.52h21.94c4.34-4.34,6.78-6.77,11.12-11.12v-10.28s-.04-67.72-.04-67.72l13.27-13.27h-49.53s0,18.6,0,18.6h17.06v31.29h-17.06s0,19.29,0,19.29h17.06v13.99h-17.23s0,2.01,0,2.01l-1.5,1.49-3.6,3.6Z"/>
      <path d="M332.19,24.47v45.33s43.84,0,43.84,0c1.91-1.91,2.98-2.98,4.88-4.89-5.65-5.65-8.81-8.81-14.46-14.46h-14.91v-7.22h14.59s65.4,65.41,65.4,65.41h27.21s-84.09-84.09-84.09-84.09l-.08-.08h-42.39Z"/>
      <path d="M451.91,50.45h31.91v19.35h-22.33c-5.65-5.65-8.81-8.81-14.46-14.46,1.91-1.91,2.98-2.98,4.89-4.89Z"/>
      <g>
        <path d="M316.55,4.99c2.82,2.83,5.02,5.02,7.23,7.23,2.19,2.19,4.37,4.36,7.16,7.15l.08.08h63.98v.09c2.39,2.39,1.81,1.81,4.2,4.2v3.29s-.07,14.6-.07,14.6l67.01,67.02h16.75c7.94-7.94,13.04-13.05,19.91-19.92,1.59-1.58,3.27-3.27,5.11-5.1V.43s-87.53,0-87.53,0c3.76,3.75,6.69,6.69,9.62,9.61,2.93,2.94,5.86,5.86,9.62,9.62h49.05v55.78s-14.25,14.25-14.25,14.25l-14.8-14.8-19.69-19.69-21.48-21.48-.2-27.25c-2.37-2.37-3.72-3.72-6.1-6.08V.11s-90.69,0-90.69,0c-1.91,1.91-2.98,2.97-4.89,4.88Z"/>
        <path d="M332.19,24.47v.08s42.47,0,42.47,0l-.08-.08h-42.39Z"/>
      </g>
    </g>
  </g>
</svg>