<?xml version="1.0" encoding="UTF-8"?>
<svg id="Layer_2" data-name="Layer 2" xmlns="http://www.w3.org/2000/svg" viewBox="0 0 614.64 92.16">
  <g id="_Слой_1" data-name="Слой 1">
    <g>
      <path d="M614.64,12.05h-36.32l-13.34,13.34h-28.39l-19.06-19.06c-4.08-4.08-9.51-6.33-15.28-6.33h-151.43v1.72h0l-23.98,24.18h-5.1c-.52,0-1,0-1.48.07v3.44c.48-.03.96-.07,1.48-.07h46.72c2.47,1.81,4.1,4.71,4.1,8.01v7.61l-13.45,13.45h-28.2l-8.06,8.06h-21.34v-16.89c0-6.74,3.34-12.73,8.43-16.41v-4.1c-7.09,4.1-11.87,11.77-11.87,20.51v16.89h0v25.7s55.92,0,55.92,0h0s38.59,0,38.59,0v-30.92l2.08-2.08h0l10.63-10.63v-9.72c0-16.59-10.89-30.63-25.92-35.37h122.88c4.85,0,9.42,1.89,12.85,5.32l18.43,18.43-10.13,10.13h-38.76l-19.99-19.99c-3.13-3.13-7.3-4.86-11.73-4.86s-8.6,1.73-11.73,4.86l-45.06,45.06h-.09s0,29.76,0,29.76h109.18c-10.03-10.03-15.65-15.65-25.68-25.68h-26.38c-5.2-5.2-9.04-9.04-15.01-15.01h-16.09l-5.07-5.07,26.63-26.63c4.97-4.97,13.63-4.97,18.6,0l18.35,18.35v24.49l3.87,3.87,25.47,25.68h9.47s36.1.01,36.1.01c-.62-2.82-.96-5.78-.96-8.78v-11.18l5.75-5.75h-39.5l-14.5-14.5v-6.51l4.69-4.69h22.2v22.26h30.4c2.77-2.77,5.2-5.2,7.49-7.49v.14l43.63-43.63Z"/>
      <path d="M246.43,64.54c-2.47-1.81-4.09-4.7-4.09-8v-7.61l13.45-13.45h28.2l8.06-8.06h21.33v16.88c0,6.74-3.34,12.73-8.43,16.38v4.09c7.09-4.06,11.87-11.7,11.87-20.47v-16.88h0V1.72h-55.92s0,0,0,0h-38.59v30.92l-2.07,2.08h0l-10.63,10.63v9.72c0,14.93,8.84,27.77,21.56,33.65h-120.01c-4.85,0-9.41-1.89-12.85-5.32l-17.17-17.17,9.67-9.67h39.44l19.99,19.99c3.13,3.13,7.3,4.86,11.73,4.86s8.6-1.73,11.73-4.86l45.06-45.06h.09s0-29.76,0-29.76h-41.47s0,0,0,0h-67.7c10.03,10.03,15.65,15.65,25.68,25.68h26.38c5.2,5.2,9.04,9.04,15.01,15.01h16.09l5.07,5.07-26.63,26.63c-4.97,4.97-13.63,4.97-18.6,0l-18.35-18.35v-24.49l-3.87-3.87L105.02,1.73h-9.47s-36.1-.01-36.1-.01c.62,2.82.96,5.78.96,8.77v11.18l-5.75,5.75h39.5l14.5,14.5v6.51l-4.69,4.69h-22.2v-22.26h-30.4c-2.77,2.77-5.2,5.2-7.49,7.48v-.14L0,82.09h36.32l15.63-15.63h24.57l19.37,19.37c4.08,4.08,9.51,6.33,15.28,6.33h152.91l23.98-24.18h5.08c.52,0,1,0,1.48-.07v-3.44c-.48.03-.96.07-1.48.07h-46.73Z"/>
    </g>
  </g>
</svg>