<?xml version="1.0" encoding="UTF-8"?>
<svg id="Layer_2" data-name="Layer 2" xmlns="http://www.w3.org/2000/svg" viewBox="0 0 576.3 118.9">
  <g id="_Слой_1" data-name="Слой 1">
    <g>
      <path d="M207.06,88.8l21.53-21.53-31.73-31.73H0c11.89,11.89,18.56,18.56,30.46,30.46h153.79l22.81,22.81Z"/>
      <path d="M232.04,63.53l21.54-21.53L211.59,0H68.53c-11.89,11.89-18.56,18.56-30.46,30.46h160.9l33.07,33.07Z"/>
      <path d="M182.16,71.04h-.41l-10.71,10.71h-43.91c2.94,4.32,4.72,9.59,4.72,15.23s-1.78,10.91-4.72,15.23h56.5l19.85-19.85-21.32-21.32Z"/>
      <path d="M104.86,75.06c-12.11,0-21.92,9.81-21.92,21.92s9.81,21.92,21.92,21.92,21.92-9.81,21.92-21.92-9.81-21.92-21.92-21.92Z"/>
      <path d="M288.35,14.4l-.2.2-.2-.2v.4l-103.84,103.84h43.07l60.98-60.98,60.98,60.98h43.07L288.35,14.81v-.4Z"/>
      <path d="M379.43,35.54l-31.73,31.73,21.53,21.53,22.81-22.81h153.79c11.89-11.89,18.56-18.56,30.46-30.46h-196.86Z"/>
      <path d="M377.33,30.46h160.9c-11.89-11.89-18.56-18.56-30.46-30.46h-143.06l-42,42,21.54,21.53,33.07-33.07Z"/>
      <path d="M405.25,81.75l-10.71-10.71h-.41l-21.32,21.32,19.85,19.85h56.5c-2.94-4.31-4.72-9.59-4.72-15.23s1.78-10.91,4.72-15.23h-43.91Z"/>
      <path d="M471.43,75.06c-12.11,0-21.92,9.81-21.92,21.92s9.81,21.92,21.92,21.92,21.92-9.81,21.92-21.92-9.81-21.92-21.92-21.92Z"/>
    </g>
  </g>
</svg>