<?xml version="1.0" encoding="UTF-8"?>
<svg id="Layer_2" data-name="Layer 2" xmlns="http://www.w3.org/2000/svg" viewBox="0 0 506.88 184.07">
  <g id="_Слой_1" data-name="Слой 1">
    <g>
      <path d="M43.36,73.81c-1.27,1.27-1.98,2.99-1.98,4.78v12.63c0,1.79.71,3.51,1.98,4.78l37.7,37.7h10.59v-21.37h-1.74l-22.45-22.46c-2.61-2.61-2.64-6.84-.06-9.49l14.09-14.49,7.36-7.36h52.44v22.78l-31.02,31.02h-14.36v21.37h23.21l43.54-43.54v-31.63h10.66v-21.37h-93.34l-36.63,36.65Z"/>
      <path d="M21.44,146.68c.7-7.44,7.24-12.97,14.71-12.97h39.28c-8.35-8.35-13.03-13.03-21.37-21.37h-18.33C16.23,112.33.33,128.03,0,147.45c-.34,19.98,16.55,36.34,36.53,36.34h100.49v-21.37H35.72c-8.37,0-15.09-7.2-14.29-15.74Z"/>
      <path d="M344.21,58.54v31.63l43.54,43.54h23.21v-21.37h-14.36l-31.02-31.02v-22.78h52.44l7.36,7.36,14.09,14.49c2.58,2.65,2.55,6.88-.06,9.49l-22.45,22.46h-1.74v21.37h10.59l37.7-37.7c1.27-1.27,1.98-2.99,1.98-4.78v-12.63c0-1.79-.71-3.51-1.98-4.78l-36.63-36.65h-93.34v21.37h10.66Z"/>
      <path d="M471.16,112.33h-18.33c-8.35,8.35-13.03,13.03-21.37,21.37h39.28c7.47,0,14.01,5.53,14.71,12.97.8,8.53-5.92,15.74-14.29,15.74h-101.31v21.37h100.49c19.99,0,36.87-16.36,36.53-36.34-.33-19.42-16.22-35.11-35.72-35.11Z"/>
      <path d="M365.61,123.37c0-3.86-1.53-7.56-4.26-10.29-4.51-4.51-10.99-10.99-11.01-11.01l6.99,6.98-60.03-60.03,9.69-9.69c1.38-1.38,3.26-2.16,5.22-2.16h21.35V0l-18.44,15.79h-14.82l-46.85,46.85-46.85-46.85h-14.82L173.33,0v37.16h21.35c1.96,0,3.83.78,5.22,2.16l9.69,9.69-60.03,60.03,6.99-6.98s-6.5,6.5-11.01,11.01c-2.73,2.73-4.26,6.43-4.26,10.29v59.27h0v.98s0,.3,0,.3h0v.14l110.05-.28v-.62s0-20.75,0-20.75h-9.74l-2.34-2.34v-78.2h-21.37v87.05l7.71,7.71c2.13,2.13.63,5.78-2.39,5.79l-57.15.15c-1.88,0-3.4-1.51-3.4-3.39v-79.81c0-.9.36-1.76.99-2.4l44.56-44.56c1.32-1.32,3.47-1.32,4.8,0l24.17,24.17c1.38,1.38,2.16,3.26,2.16,5.22h3.06l.07.07.07-.07h21.83l.07.07.07-.07h3.06c0-1.96.78-3.83,2.16-5.22l24.17-24.17c1.32-1.32,3.47-1.32,4.8,0l44.56,44.56c.64.64.99,1.5.99,2.4v79.81c0,1.88-1.52,3.4-3.4,3.39l-57.15-.15c-3.02,0-4.52-3.66-2.39-5.79l7.71-7.71v-87.05h-21.37v78.2l-2.34,2.34h-9.74v21.37s110.05.28,110.05.28v-.14h0v-1.28s0,0,0,0v-59.27Z"/>
    </g>
  </g>
</svg>