<?xml version="1.0" encoding="UTF-8"?>
<svg id="Layer_2" data-name="Layer 2" xmlns="http://www.w3.org/2000/svg" viewBox="0 0 491.31 118.24">
  <g id="_Слой_1" data-name="Слой 1">
    <g>
      <path d="M172.33,34.1l9.9-9.9h44.93l15.61,15.61V0h-70.57l-24.31,24.31v33.98h57.15l13.56,13.56v22.19h-46.3v-5.7h40.62v-14.16c-3.92-3.92-6.11-6.11-10.03-10.03h-54.78v54.09h94.68v-56.41l-27.73-27.73h-42.75Z"/>
      <path d="M118.12,94.04h-5.58v-29.72L52.87,4.49h-25.1c-14.68,0-27.19,11.39-27.75,26.06-.58,15.42,11.79,28.15,27.08,28.15h3.39l27.94,27.83v15.73l-15.7,15.7h39.81v-.02s.08,0,.08,0v-41.46l-42.14-41.97h-13.21c-1.52,0-2.91-1.09-3.07-2.61-.18-1.74,1.19-3.21,2.89-3.21h15.72l45.52,45.65v43.91h53.97v-54.33h-12.04c-4.75,4.75-7.41,7.41-12.16,12.16v17.98Z"/>
      <path d="M248.53,0v39.81l15.61-15.61h44.93l9.9,9.9h-42.75l-27.73,27.73v56.41h94.68v-54.09h-54.78c-3.92,3.92-6.11,6.11-10.03,10.03v14.16h40.62v5.7h-46.3v-22.19l13.56-13.56h57.15V24.31L319.09,0h-70.57Z"/>
      <path d="M463.54,4.49h-25.1s-59.68,59.84-59.68,59.84v29.72h-5.58v-17.98c-4.75-4.75-7.41-7.41-12.16-12.16h-12.04v54.33h53.97v-43.91l45.52-45.65h15.55c1.52,0,2.91,1.09,3.07,2.61.18,1.74-1.19,3.21-2.89,3.21h-13.38l-42.14,41.97v41.46h.1l-.02.02h39.81l-15.7-15.7v-15.73l27.94-27.83h3.39c15.29,0,27.67-12.73,27.08-28.15-.55-14.67-13.07-26.06-27.75-26.06Z"/>
    </g>
  </g>
</svg>