<?xml version="1.0" encoding="UTF-8"?>
<svg id="Layer_2" data-name="Layer 2" xmlns="http://www.w3.org/2000/svg" viewBox="0 0 762.43 188.58">
  <g id="_Слой_1" data-name="Слой 1">
    <g>
      <path d="M124.72,149.38h30.77c2.4,0,4.7-.95,6.4-2.65l67.55-67.55c1.69-1.69,3.99-2.64,6.38-2.65l65.53-.13c2.39,0,4.69-.96,6.38-2.65l28.38-28.38h-125.46c-2.4,0-4.7.95-6.4,2.65l-85.93,85.93c-5.7,5.7-1.66,15.44,6.4,15.44Z"/>
      <path d="M257.53,157.55l-137.37-.13c-2.39,0-4.69-.96-6.38-2.65L46.23,87.22c-1.7-1.7-4-2.65-6.4-2.65H9.06c-8.06,0-12.09,9.74-6.4,15.44l85.93,85.93c1.7,1.7,4,2.65,6.4,2.65h197.3l-28.38-28.38c-1.69-1.69-3.99-2.64-6.38-2.65Z"/>
      <path d="M97.21,94.54h30.77c2.4,0,4.7-.95,6.4-2.65l12.71-12.71c1.69-1.69,3.99-2.64,6.38-2.65l9.22-.13c2.39,0,4.69-.96,6.38-2.65l28.38-28.38h-69.14c-2.4,0-4.7.95-6.4,2.65l-31.09,31.09c-5.7,5.7-1.66,15.44,6.4,15.44Z"/>
      <path d="M753.37,84.57h-30.77c-2.4,0-4.7.95-6.4,2.65l-67.55,67.55c-1.69,1.69-3.99,2.64-6.38,2.65l-137.37.13c-2.39,0-4.69.96-6.38,2.65l-28.38,28.38h197.3c2.4,0,4.7-.95,6.4-2.65l85.93-85.93c5.7-5.7,1.66-15.44-6.4-15.44Z"/>
      <path d="M599.75,76.4l9.22.13c2.39,0,4.69.96,6.38,2.65l12.71,12.71c1.7,1.7,4,2.65,6.4,2.65h30.77c8.06,0,12.09-9.74,6.4-15.44l-31.09-31.09c-1.7-1.7-4-2.65-6.4-2.65h-69.14l28.38,28.38c1.69,1.69,3.99,2.64,6.38,2.65Z"/>
      <path d="M469.44,116.01h11.34c1.71.36,3.3,1.2,4.56,2.46l12.71,12.71c1.7,1.7,4,2.65,6.4,2.65h30.77c8.06,0,12.09-9.74,6.4-15.44l-31.09-31.09c-1.7-1.7-4-2.65-6.4-2.65h-122.22c2.95-22.01,21.67-39.02,44.44-39.28l28.37,28.37c1.69,1.69,3.99,2.64,6.38,2.65l65.53.13c2.39,0,4.69.96,6.38,2.65l67.55,67.55c1.7,1.7,4,2.65,6.4,2.65h30.77c8.06,0,12.09-9.74,6.4-15.44l-85.93-85.93c-1.7-1.7-4-2.65-6.4-2.65h-124.94c-25.05,0-45.36-20.31-45.36-45.37h0c0,25.05-20.31,45.37-45.37,45.37,22.99,0,41.98,17.11,44.95,39.29h-122.77c-2.4,0-4.7.95-6.4,2.65l-31.09,31.09c-5.7,5.7-1.66,15.44,6.4,15.44h30.77c2.4,0,4.7-.95,6.4-2.65l12.71-12.71c1.26-1.26,2.85-2.1,4.56-2.46h11.34c-.44,1.08-.7,2.24-.7,3.43v69.14l28.38-28.38c1.69-1.69,2.64-3.99,2.65-6.38l.13-9.22c0-2.39.96-4.69,2.65-6.38l7.36-7.36c1.7-1.7,2.65-4,2.65-6.4v-8.46h90.19v8.46c0,2.4.95,4.7,2.65,6.4l7.36,7.36c1.69,1.69,2.64,3.99,2.65,6.38l.13,9.22c0,2.39.96,4.69,2.65,6.38l28.38,28.38v-69.14c0-1.19-.25-2.35-.7-3.43Z"/>
      <path d="M381.49,143.22h0c0,25.05-20.31,45.37-45.37,45.37h90.73c-25.05,0-45.37-20.31-45.37-45.37Z"/>
    </g>
  </g>
</svg>