<?xml version="1.0" encoding="UTF-8"?>
<svg id="Layer_2" data-name="Layer 2" xmlns="http://www.w3.org/2000/svg" viewBox="0 0 753.15 111.74">
  <g id="_Слой_1" data-name="Слой 1">
    <g>
      <path d="M332.13,0c-16.42,0-25.62,0-42.04,0l45.89,45.89h10.86c11.61-11.61,18.12-18.12,29.73-29.73h-28.27L332.13,0Z"/>
      <path d="M198.72,61.88h-37.21l6.19-6.19s45.7,0,53.03,0l11.64-11.64-18.08-18.09h0l-3.02-3.02-3.02,3.02h-52.86l-35.92,35.92h-16l-19.92,19.92h-21.24v29.73h33.55l19.92-19.92h68.6l-20.14,20.13h42.04l.12-.12.06.06,21.02-21.02-28.75-28.78Z"/>
      <polygon points="29.58 29.96 75.48 75.86 78.72 75.86 98.1 56.44 43.85 2.19 43.82 2.22 15.34 2.22 0 17.59 0 51.03 26.67 77.7 26.67 111.74 56.39 111.74 56.39 65.39 25.27 34.27 29.58 29.96"/>
      <polygon points="283.88 .24 233.87 .24 215.3 18.81 236.32 39.83 246.18 29.97 271.58 29.97 317.84 76.24 317.84 81.84 287.34 81.84 301.12 68.07 280.1 47.05 238.54 88.61 238.61 88.68 236.85 90.44 236.91 90.5 215.84 111.57 317.84 111.57 327.84 111.57 327.84 111.74 347.57 111.74 347.57 111.57 347.57 63.93 347.57 63.86 347.5 63.86 283.88 .24"/>
      <path d="M417.16,45.89L463.05,0c-16.42,0-25.62,0-42.04,0l-16.17,16.17h-28.27c11.61,11.61,18.12,18.12,29.73,29.73h10.86Z"/>
      <path d="M649.68,61.88h-16l-35.92-35.92h-52.86l-3.02-3.02-3.02,3.02h0l-18.08,18.09,11.64,11.64c7.33,0,53.03,0,53.03,0l6.19,6.19h-37.21l-28.75,28.78,21.02,21.02.06-.06.12.12h42.04l-20.14-20.13h68.6l19.92,19.92h33.55v-29.73h-21.24l-19.92-19.92Z"/>
      <polygon points="737.81 2.22 709.33 2.22 709.3 2.19 655.05 56.44 674.43 75.86 677.67 75.86 723.57 29.96 727.88 34.27 696.76 65.39 696.76 111.74 726.48 111.74 726.48 77.7 753.15 51.03 753.15 17.59 737.81 2.22"/>
      <polygon points="516.3 90.44 514.54 88.68 514.61 88.61 473.05 47.05 452.04 68.07 465.81 81.84 435.31 81.84 435.31 76.24 481.58 29.97 506.97 29.97 516.83 39.83 537.85 18.81 519.28 .24 469.27 .24 405.65 63.86 405.58 63.86 405.58 63.93 405.58 111.57 405.58 111.74 425.31 111.74 425.31 111.57 435.31 111.57 537.32 111.57 516.24 90.5 516.3 90.44"/>
    </g>
  </g>
</svg>