<?xml version="1.0" encoding="UTF-8"?>
<svg id="Layer_2" data-name="Layer 2" xmlns="http://www.w3.org/2000/svg" viewBox="0 0 604.09 171.87">
  <g id="_Слой_1" data-name="Слой 1">
    <g>
      <path d="M540.39.1v-.1h-217.29c-7.2,7.2-11.24,11.24-18.44,18.44v81.13c13.69,13.69,21.37,21.37,35.07,35.07V28.81c9.29-9.29,14.51-14.51,23.8-23.8h171.65l-31.63,31.63-.15-.15h-125.08l-33.59,33.58v69.36c12.66,12.66,19.76,19.76,32.43,32.43h126.68l17.67-17.67h0s30.97-30.96,30.97-30.96h.07v-37.58l-45.47-45.47,11.9-11.9,50.04,50.04v9.84h-11.46v35.07h28.58c7.01-7.01,10.94-10.94,17.94-17.94v-41.49L540.39.1ZM545.4,123.23l-13.57,13.57h-138.46c-8.96-8.96-4.61-4.61-13.57-13.57h165.6ZM517.48,100.18v3.47l-14.58,14.58h-123.1v-33.62l13.04-13.04h96.03l28.61,28.61Z"/>
      <path d="M264.36,0H63.69v.1L0,63.8v41.49c7.01,7.01,10.94,10.94,17.94,17.94h28.58v-35.07h-11.46v-9.84l50.04-50.04,11.9,11.9-45.47,45.47v37.58h.07l30.97,30.97h0s17.67,17.67,17.67,17.67h126.68c12.66-12.66,19.76-19.76,32.43-32.43v-69.36l-33.59-33.58h-125.08l-.15.15-31.63-31.63h171.65c9.29,9.29,14.51,14.51,23.8,23.8v105.82c13.7-13.7,21.37-21.37,35.07-35.07V18.44c-7.2-7.2-11.24-11.24-18.44-18.44h-16.63ZM210.72,136.8H72.26l-13.57-13.57h165.6c-8.96,8.96-4.61,4.61-13.57,13.57ZM115.22,71.56h96.03l13.04,13.04v33.62h-123.1l-14.58-14.58v-3.47l28.61-28.61Z"/>
    </g>
  </g>
</svg>