<?xml version="1.0" encoding="UTF-8"?>
<svg id="Layer_2" data-name="Layer 2" xmlns="http://www.w3.org/2000/svg" viewBox="0 0 437.53 177.93">
  <g id="_Слой_1" data-name="Слой 1">
    <g>
      <path d="M25.57,77.29v-5.15h113.69l46.57-46.57h17.46v46.96h25.57V0h-53.63l-46.57,46.57H25.62c-10.01,10.01-15.62,15.62-25.62,25.62v30.68h103.1l-37.89,37.89c0,14.11,0,22.01,0,36.12l.02.02,99.61-99.61H25.57Z"/>
      <path d="M201.23,102.6l24.5-24.5v-1.07h-53.45l-64.25,64.29c.01,14.12.02,22.02.03,36.14l74.81-74.86h18.36Z"/>
      <path d="M233.91,77.18l-64.13,64.13c0,14.12,0,22.04,0,36.16h0l100.3-100.29c-14.12,0-22.04,0-36.16,0Z"/>
      <path d="M347.04.41c-14.12,0-22.04,0-36.16,0l-45.11,45.11-6.44.15v-14.38h-25.57v40.86h41.55L347.04.41Z"/>
      <path d="M248.83,144.87v-2.81l64.89-64.88c-14.12,0-22.04,0-36.16,0l-54.3,54.29v23.99l22.48,22.48h18.39v-25.57h-7.79l-7.49-7.49Z"/>
      <path d="M411.95.41h0c0,25.19-20.42,45.61-45.61,45.61h-21.02L391,.34h0c-14.12,0-22.04,0-36.17,0l-71.26,71.26h82.76c39.31,0,71.19-31.87,71.19-71.19h0s-25.57,0-25.57,0Z"/>
      <path d="M311.72,122.44l45.55-45.55h0c-14.12,0-22.04,0-36.16,0l-45.55,45.55h0c14.12,0,22.04,0,36.16,0Z"/>
      <path d="M417.97,56.57h-.02c-13.61,12.53-31.71,20.15-51.61,20.15h-2.86l-45.73,45.73h36.16l57.75-57.75v7.42l-80.2,80.24h-62.22v25.29h73.1s.02,0,.02,0l94.73-94.78h.15V28.64c-4.29,10.72-10.91,20.24-19.26,27.93Z"/>
    </g>
  </g>
</svg>