<?xml version="1.0" encoding="UTF-8"?>
<svg id="Layer_2" data-name="Layer 2" xmlns="http://www.w3.org/2000/svg" viewBox="0 0 477.25 182.35">
  <g id="_Слой_1" data-name="Слой 1">
    <g>
      <g>
        <polygon points="12.57 24.18 0 24.18 0 46.28 34.65 46.28 12.57 24.18"/>
        <polygon points="158.8 121.39 219.76 182.35 235.43 166.67 174.52 105.76 158.8 121.39"/>
        <path d="M50.44,22.17h8.65l75.01,75.01,15.68-15.68L73.1,4.83c-3.11-3.11-7.25-4.83-11.66-4.83h-24.73c-6.69,0-12.67,3.99-15.23,10.17-2.56,6.18-1.16,13.23,3.57,17.96l59.75,59.76.19,72.21H0v22.11h85v-22.11h20.78v-75.77c0-4.4-1.71-8.54-4.83-11.65L50.44,22.17Z"/>
        <path d="M133.84,160.32v-22.63l48.22-48.22c3.11-3.11,4.83-7.25,4.83-11.65s-1.71-8.54-4.83-11.66l-37.14-37.14c-3.12-3.12-7.26-4.83-11.66-4.83h-11.83l.04-.02h-20.14l22.19,22.19h7.39l31.45,31.45-45.86,45.86c-3.11,3.11-4.83,7.25-4.83,11.66v47h99.55l-22.01-22.01h-55.36Z"/>
        <polygon points="186.86 62.55 214.34 90.03 214.34 136.84 235.42 157.91 235.42 136.84 235.43 136.84 235.43 62.55 214.34 62.55 186.86 62.55"/>
      </g>
      <g>
        <polygon points="464.69 24.18 477.25 24.18 477.25 46.28 442.61 46.28 464.69 24.18"/>
        <polygon points="318.45 121.39 257.5 182.35 241.82 166.67 302.73 105.76 318.45 121.39"/>
        <path d="M426.81,22.17h-8.65s-75.01,75.01-75.01,75.01l-15.68-15.68L404.15,4.83C407.27,1.71,411.41,0,415.81,0h24.73c6.69,0,12.67,3.99,15.23,10.17,2.56,6.18,1.16,13.23-3.57,17.96l-59.75,59.76-.19,72.21h85v22.11h-85v-22.11s-20.78,0-20.78,0v-75.77c0-4.4,1.71-8.54,4.83-11.65l50.51-50.51Z"/>
        <path d="M343.42,160.32v-22.63s-48.22-48.22-48.22-48.22c-3.11-3.11-4.83-7.25-4.83-11.65,0-4.41,1.71-8.54,4.83-11.66l37.14-37.14c3.12-3.12,7.26-4.83,11.66-4.83h11.83s-.04-.02-.04-.02h20.14s-22.19,22.19-22.19,22.19h-7.39s-31.45,31.45-31.45,31.45l45.86,45.86c3.11,3.11,4.83,7.25,4.83,11.66v47h-99.55s22.01-22.01,22.01-22.01h55.36Z"/>
        <polygon points="290.39 62.55 262.92 90.03 262.92 136.84 241.84 157.91 241.84 136.84 241.82 136.84 241.82 62.55 262.92 62.55 290.39 62.55"/>
      </g>
    </g>
  </g>
</svg>