<?xml version="1.0" encoding="UTF-8"?>
<svg id="Layer_2" data-name="Layer 2" xmlns="http://www.w3.org/2000/svg" viewBox="0 0 628.66 148.89">
  <g id="_Слой_1" data-name="Слой 1">
    <g>
      <g>
        <path d="M145.91,79.46l32.55-32.56h14.81s-17.75,17.75-17.75,17.75h30.82s39.54-39.55,39.54-39.55h-75.96c-.08.08-.16.16-.25.25l-.25-.25-25.34,25.34h-45.16c-.08.08-.16.16-.25.25l-.25-.25L0,148.89h14.53c12.04,0,4.25,0,16.29,0l76.65-76.65h14.81s-28.59,28.59-28.59,28.59h.02l-.05.05h14.53c9.06,0,6.89,0,10.4,0h5.89s46.18,0,46.18,0c8.36-8.36,13.05-13.05,21.42-21.42h-46.18Z"/>
        <path d="M259.28,25.71l-76.07,76.07c12.04,0,18.78,0,30.82,0l45.24-45.25,45.25,45.25h-90.32c-8.51,8.51-13.28,13.28-21.79,21.79h133.91s.01.01.01.01l29.94.19-97-98.07Z"/>
      </g>
      <g>
        <path d="M482.76,69.43l-32.55,32.56h-14.81s17.75-17.75,17.75-17.75h-30.82s-39.54,39.55-39.54,39.55h75.96c.08-.08.16-.16.25-.25l.25.25,25.34-25.34h45.16c.08-.08.16-.16.25-.25l.25.25L628.66,0h-14.53C602.1,0,609.88,0,597.84,0l-76.65,76.65h-14.81s28.59-28.59,28.59-28.59h-.02l.05-.05h-14.53c-9.06,0-6.89,0-10.4,0-1.15,0-2.91,0-5.89,0h-46.18c-8.36,8.36-13.05,13.05-21.42,21.42h46.18Z"/>
        <path d="M369.38,123.18l76.07-76.07c-12.04,0-18.78,0-30.82,0l-45.24,45.25-45.25-45.25h90.32c8.51-8.51,13.28-13.28,21.79-21.79h-133.91s-.01-.01-.01-.01l-29.94-.19,97,98.07Z"/>
      </g>
    </g>
  </g>
</svg>