<?xml version="1.0" encoding="UTF-8"?>
<svg id="Layer_2" data-name="Layer 2" xmlns="http://www.w3.org/2000/svg" viewBox="0 0 600.22 180.6">
  <g id="_Слой_1" data-name="Слой 1">
    <g>
      <g>
        <path d="M38.85,64.21h43.85v-19.05h-43.85C17.43,45.16,0,62.59,0,84.01v37.27h19.05v-37.27c0-10.92,8.88-19.8,19.8-19.8Z"/>
        <path d="M172.44,143.25v37.27h19.05v-37.27c0-10.92,8.88-19.8,19.8-19.8h47.8v-19.05h-47.8c-21.42,0-38.85,17.43-38.85,38.85Z"/>
        <path d="M105.35,41.53h54.52c-7.37-7.37-11.5-11.5-18.87-18.87h-54.7v79.42H22.66v19.05h82.69V41.53Z"/>
        <path d="M141.55,123.18h-5.3c-4.49,0-8.14-3.65-8.14-8.14v-50.83h27.17l36.54,36.54h30.55v-19.05h-22.66l-36.54-36.54h-54.11v69.88c0,15,12.2,27.19,27.19,27.19h5.3c4.49,0,8.14,3.65,8.14,8.14v3.03c0,4.49-3.65,8.14-8.14,8.14H41.74v-36.78h-19.05v55.84h118.86c15,0,27.19-12.2,27.19-27.2v-3.03c0-15-12.2-27.2-27.19-27.2Z"/>
        <polygon points="175.15 0 175.15 0 22.69 0 22.69 41.46 41.74 41.46 41.74 19.05 167.26 19.05 225.93 77.72 225.93 81.79 225.91 81.79 225.91 100.84 259.2 100.84 259.2 84.05 259.2 81.77 177.1 0 175.15 0"/>
        <path d="M262.66,102.62c0,11.48,9.34,20.83,20.83,20.83h14.83v-19.05h-14.83c-.98,0-1.78-.8-1.78-1.78s.8-1.78,1.78-1.78h14.83v-19.05h-14.83c-11.48,0-20.83,9.34-20.83,20.83Z"/>
      </g>
      <g>
        <path d="M561.37,64.21h-43.85v-19.05h43.85c21.42,0,38.85,17.43,38.85,38.85v37.27h-19.05v-37.27c0-10.92-8.88-19.8-19.8-19.8Z"/>
        <path d="M427.79,143.25v37.27h-19.05v-37.27c0-10.92-8.88-19.8-19.8-19.8h-47.8v-19.05h47.8c21.42,0,38.85,17.43,38.85,38.85Z"/>
        <path d="M494.88,41.53h-54.52c7.37-7.37,11.5-11.5,18.87-18.87h54.7v79.42s63.64,0,63.64,0v19.05h-82.69V41.53Z"/>
        <path d="M458.67,123.18h5.3c4.49,0,8.14-3.65,8.14-8.14v-50.83s-27.17,0-27.17,0l-36.54,36.54h-30.55v-19.05h22.66s36.54-36.54,36.54-36.54h54.11v69.88c0,15-12.2,27.19-27.19,27.19h-5.3c-4.49,0-8.14,3.65-8.14,8.14v3.03c0,4.49,3.65,8.14,8.14,8.14h99.81s0-36.78,0-36.78h19.05v55.84h-118.86c-15,0-27.19-12.2-27.19-27.2v-3.03c0-15,12.2-27.2,27.19-27.2Z"/>
        <polygon points="425.07 0 425.07 0 577.54 0 577.54 41.46 558.48 41.46 558.48 19.05 432.96 19.05 374.3 77.72 374.3 81.79 374.32 81.79 374.32 100.84 341.03 100.84 341.03 84.05 341.03 81.77 423.12 0 425.07 0"/>
        <path d="M337.56,102.62c0,11.48-9.34,20.83-20.83,20.83h-14.83v-19.05h14.83c.98,0,1.78-.8,1.78-1.78s-.8-1.78-1.78-1.78h-14.83v-19.05h14.83c11.48,0,20.83,9.34,20.83,20.83Z"/>
      </g>
    </g>
  </g>
</svg>