<?xml version="1.0" encoding="UTF-8"?>
<svg id="Layer_2" data-name="Layer 2" xmlns="http://www.w3.org/2000/svg" viewBox="0 0 558.17 103.27">
  <g id="_Слой_1" data-name="Слой 1">
    <g>
      <path d="M114.67,65.29h-46.17l-15.56,15.52h41.78l21.09,21.09c.89.89,2.02,1.35,3.25,1.35h.02l-.02.02h63.82c6.06-6.06,9.46-9.46,15.52-15.52h-61.24l-22.49-22.46Z"/>
      <path d="M272.49,49.26l-28.79-28.79h-79.62v-11.45c0-2.49-1.01-4.72-2.66-6.37-1.6-1.64-3.88-2.66-6.37-2.66s-4.77.97-6.45,2.7c-5.1,5.14-14.46,14.63-17.54,17.71v.06H19.33v.06c-3.74-.02-7.44-.04-10.24-.06-2.42-.02-4.73.94-6.44,2.65-3.53,3.53-3.53,9.25,0,12.78l44.62,44.62,18.87-18.86h.01s.59-.58.59-.58h17.85l-5.75-5.75h-10.08l-4.09-4.09h42.14l32.3,32.3h63.2l15.24-15.23c1.96-1.96,3.05-4.61,3.05-7.38,0-2.43-.87-4.64-2.26-6.41h48.89l-13.52,13.52h-30.74c-.68,1.18-1.48,2.28-2.45,3.25l-12.27,12.27h72.98l2.33.42,11.85-11.85-22.89-22.89-.03.03ZM141.34,50.3l-14.57-14.57H51.45c-1.46,0-2.87-.58-3.9-1.62-3.48-3.48-1.01-9.42,3.9-9.42h79.62v9.36l12.23,12.23h20.78v-21.59h77.88l25.61,25.61h-126.22Z"/>
      <path d="M377.42,65.29h-46.17l-15.56,15.52h41.78l21.09,21.09c.89.89,2.02,1.35,3.25,1.35h.02l-.02.02h63.82c6.06-6.06,9.46-9.46,15.52-15.52h-61.24l-22.49-22.46Z"/>
      <path d="M535.28,49.22l-.03.03-28.79-28.79h-79.62v-11.45c0-2.49-1.01-4.72-2.66-6.37-1.6-1.64-3.88-2.66-6.37-2.66s-4.76.97-6.45,2.7c-5.1,5.14-14.46,14.63-17.54,17.71v.06h-111.74v.06c-3.74-.02-7.44-.04-10.24-.06-2.42-.02-4.73.94-6.44,2.65-3.53,3.53-3.53,9.25,0,12.78l44.62,44.62,18.86-18.86h.01s.59-.58.59-.58h17.99l-5.75-5.75h-10.22l-4.09-4.09h42.14l32.3,32.3h63.2l15.23-15.23c1.96-1.96,3.06-4.61,3.06-7.38,0-2.43-.87-4.64-2.26-6.41h48.89l-13.52,13.52h-30.74c-.68,1.18-1.48,2.28-2.45,3.25l-12.27,12.27h72.98l2.33.42,11.85-11.85-22.89-22.89ZM404.1,50.3l-14.57-14.57h-75.33c-1.46,0-2.87-.58-3.9-1.62-3.48-3.48-1.01-9.42,3.9-9.42h79.62v9.36l12.23,12.23h20.79v-21.59h77.88l25.61,25.61h-126.22Z"/>
    </g>
  </g>
</svg>