<?xml version="1.0" encoding="UTF-8"?>
<svg id="Layer_2" data-name="Layer 2" xmlns="http://www.w3.org/2000/svg" viewBox="0 0 607.22 138.25">
  <g id="_Слой_1" data-name="Слой 1">
    <g>
      <path d="M188.12,100.22l57.78-57.69c1.39-1.39,3.27-2.17,5.23-2.17h27.95l22.37-22.37c2.89-2.89,2.89-7.57,0-10.46l-5.25-5.25c-1.39-1.39-3.27-2.17-5.24-2.17-37.55-.04-64.92-.06-103.04-.1l.15,71.39.05,28.81Z"/>
      <path d="M304.19,44.72h0c0,20.49-16.61,37.1-37.1,37.1,20.49,0,37.1,16.61,37.1,37.1h0c0-20.49,16.61-37.1,37.1-37.1-20.49,0-37.1-16.61-37.1-37.1Z"/>
      <path d="M217.92,97.92h-20.45c-1.96-.01-3.84.77-5.23,2.15l-15.07,15.34h-20.45l11.13,11.13h0l9.45,9.45c1.39,1.39,3.27,2.17,5.23,2.17,36.51.04,42.48.06,80.91.1l-39.24-37.8c-1.69-1.62-3.94-2.53-6.28-2.53Z"/>
      <path d="M127.57,74.89c-1.69-1.62-3.94-2.53-6.28-2.53H48.36s44.67-44.68,44.67-44.68c1.38-1.38,3.26-2.16,5.22-2.17l15.47-.03,28.94,28.94c1.39,1.39,2.17,3.27,2.17,5.23v28.68l22.37,22.37c2.89,2.89,7.57,2.89,10.46,0l5.25-5.25c1.39-1.39,2.17-3.27,2.17-5.24L185.29,0h-76.13l-.02.02h-31.47c-1.96,0-3.84.78-5.23,2.17L2.18,72.45c-4.66,4.66-1.36,12.62,5.23,12.62h17.82l-2.69,2.69H3.04c-1.79,0-2.69,2.17-1.42,3.44l9.78,9.78h0l9.45,9.45c1.39,1.39,3.26,2.17,5.22,2.17,36.51.04,100.94.06,139.37.1l-37.88-37.8Z"/>
      <path d="M419.1,100.22l-57.78-57.69c-1.39-1.39-3.27-2.17-5.23-2.17h-27.95s-22.37-22.37-22.37-22.37c-2.89-2.89-2.89-7.57,0-10.46l5.25-5.25c1.39-1.39,3.27-2.17,5.24-2.17,37.55-.04,64.92-.06,103.04-.1l-.15,71.39-.05,28.81Z"/>
      <path d="M389.3,97.92h20.45c1.96-.01,3.84.77,5.23,2.15l15.07,15.34h20.45s-11.13,11.13-11.13,11.13h0l-9.45,9.45c-1.39,1.39-3.27,2.17-5.23,2.17-36.51.04-42.48.06-80.91.1l39.24-37.8c1.69-1.62,3.94-2.53,6.28-2.53Z"/>
      <path d="M479.65,74.89c1.69-1.62,3.94-2.53,6.28-2.53h72.93s-44.67-44.68-44.67-44.68c-1.38-1.38-3.26-2.16-5.22-2.17l-15.47-.03-28.94,28.94c-1.39,1.39-2.17,3.27-2.17,5.23v28.68s-22.37,22.37-22.37,22.37c-2.89,2.89-7.57,2.89-10.46,0l-5.25-5.25c-1.39-1.39-2.17-3.27-2.17-5.24l-.22-100.2h76.13s.02.02.02.02h31.47c1.96,0,3.84.78,5.23,2.17l70.26,70.26c4.66,4.66,1.36,12.62-5.23,12.62h-17.82s2.69,2.69,2.69,2.69h19.5c1.79,0,2.69,2.17,1.42,3.44l-9.78,9.78h0l-9.45,9.45c-1.39,1.39-3.26,2.17-5.22,2.17-36.51.04-100.94.06-139.37.1l37.88-37.8Z"/>
    </g>
  </g>
</svg>