<?xml version="1.0" encoding="UTF-8"?>
<svg id="Layer_2" data-name="Layer 2" xmlns="http://www.w3.org/2000/svg" viewBox="0 0 472.68 134.23">
  <g id="_Слой_1" data-name="Слой 1">
    <g>
      <polygon points="98.3 134.23 154.34 134.23 163.22 125.35 107.18 125.35 98.3 134.23"/>
      <polygon points="191.99 66.46 166.11 66.46 134.96 97.61 190.96 97.61 193.13 97.61 195.16 97.61 196.03 98.48 219.69 122.18 234.36 122.18 234.36 102.36 227.9 102.36 191.99 66.46"/>
      <polygon points="121.37 55.76 44.6 55.76 86.41 97.61 129.13 97.61 147.29 79.46 145.11 79.46 96.32 79.46 92.47 75.61 141.22 75.61 131.08 65.47 131.08 65.47 121.37 55.76"/>
      <path d="M208.01,31.88h-28.02l26.06,26.06h-48.84l-26.06-26.06H39.66v-12.06h3.38v8.1h19.82V0H19.3C11.76,7.54,7.54,11.76,0,19.3v53.51l48.58,48.58h118.95c7.74-7.74,12.08-12.08,19.82-19.82h-102.8l-44.89-44.89v-5h83.28l26.05,26.05.19-.19v.19l15.26-15.26h29.21l15.26,15.26h25.44v-19.82h-.29l-26.06-26.06Z"/>
      <polygon points="309.46 125.35 318.34 134.23 374.38 134.23 365.5 125.35 309.46 125.35"/>
      <polygon points="306.57 66.46 280.69 66.46 244.78 102.36 238.32 102.36 238.32 122.18 252.98 122.18 276.64 98.48 277.52 97.61 279.68 97.61 281.72 97.61 337.72 97.61 306.57 66.46"/>
      <polygon points="327.57 79.46 325.39 79.46 343.54 97.61 386.27 97.61 428.08 55.76 351.31 55.76 341.6 65.47 341.6 65.47 331.46 75.61 380.2 75.61 376.36 79.46 327.57 79.46"/>
      <path d="M453.38,0h-43.56v27.92h19.82v-8.1h3.38v12.06h-91.48l-26.06,26.06h-48.84l26.06-26.06h-28.02l-26.06,26.06h-.29v19.82h25.44l15.26-15.26h29.21l15.26,15.26v-.19l.19.19,26.05-26.05h83.28v5l-44.89,44.89h-102.8c7.74,7.74,12.08,12.08,19.82,19.82h118.95l48.58-48.58V19.3c-7.54-7.54-11.76-11.76-19.3-19.3Z"/>
    </g>
  </g>
</svg>