<?xml version="1.0" encoding="UTF-8"?>
<svg id="Layer_2" data-name="Layer 2" xmlns="http://www.w3.org/2000/svg" viewBox="0 0 707.03 151.43">
  <g id="_Слой_1" data-name="Слой 1">
    <g>
      <path d="M558.5,36.24c-2.68-5.04-8.19-7.91-13.88-7.91h-39l-19.03-19.03c-10.22-10.22-26.13-12.24-37.99-4.93-1.51.93-2.96,2-4.3,3.23-6.82,6.19-10.41,14.9-9.91,24.1.41,7.7,4.03,14.87,9.48,20.32l33.77,33.79,19.36-19.36-34.42-34.45c-1.1-1.1-1.1-2.9,0-4,1.1-1.1,2.88-1.1,4,0l27.69,27.71h12.71c3.15,0,4.74,3.83,2.52,6.05l-27.06,27.06c-1.59,1.59-3.75,2.46-6,2.46l-93.28.33c-.85,1.01-1.75,2-2.68,2.93l-17.86,17.86c-1.34,1.34-2.74,2.57-4.22,3.7,4.44,1.92,9.26,2.93,14.16,2.93l103.88-.36c9.59,0,18.6-3.72,25.36-10.49l54.11-54.12c4.68-4.68,5.81-11.89,2.6-17.83Z"/>
      <path d="M706.89,57.55c-1.57-16.48-16.06-28.73-32.62-28.73h-113.42s27.36,27.39,27.36,27.39h87.01c2.66,0,4.8,2.36,4.38,5.13-.33,2.18-2.36,3.71-4.57,3.71h-26.92c-8.96,0-16.95,5.34-20.38,13.61-3.42,8.3-1.56,17.72,4.79,24.05l21.31,21.33h-99.39l-30.37-30.37-18.4,18.38c-.33.33-.66.63-.99.96l35.26,35.26c2.02,2.02,4.77,3.16,7.63,3.16h119.1c8.96,0,16.95-5.37,20.38-13.64,3.45-8.27,1.56-17.69-4.77-24.05l-21.31-21.31h14.24c18.58,0,33.47-15.98,31.68-34.89Z"/>
      <path d="M551.63,66.09l19.37,19.39c2.23,2.23.65,6.05-2.51,6.05h-38.83l2.19,2.19,24.84,24.84h37.05c7.34-1.29,13.61-6.22,16.54-13.28,3.42-8.27,1.53-17.69-4.79-24.05l-19.55-19.55-20.24-20.21c.6,6-1.51,12.05-5.91,16.46l-8.16,8.16Z"/>
      <path d="M320.23,52.49c-1.07,2.99-1.7,6.05-1.92,9.12-.66,8.65,1.94,17.39,7.15,24.54l7.97.03h1.07c.22,0,.41-.03.58-.05.11-.03.22-.05.33-.08.41-.14.88-.41,1.21-.74l12.08-12.1.96-.96-1.64-1.64c-3.45-3.45-2.6-7.26-1.94-8.98.05-.08.08-.16.11-.25.6-1.45,2.47-4.77,6.87-5.18.3-.03.63-.05.96-.05h86.24l-.85-.85c-6.87-6.87-10.65-15.97-10.65-25.66,0-.3,0-.6.03-.88h-74.76c-15.12,0-28.59,9.39-33.77,23.74Z"/>
      <path d="M267.63,55.28l-.85.85h47.84c.38-1.86.88-3.7,1.53-5.48,3.4-9.48,10.05-17.12,18.4-21.91h-56.31c.03.27.03.58.03.88,0,9.69-3.78,18.79-10.65,25.66Z"/>
      <path d="M377.67,90.69c7.75-7.75,11.86-18.46,11.04-29.08h-27.74c.66,1.73,1.51,5.53-1.94,8.98l-1.15,1.18-5.31,5.29-12.08,12.13c-.99.99-2.22,1.7-3.53,2.11-.27.08-.52.14-.79.19-.55.11-1.07.16-1.62.16h-.05l-10.74-.03-93.17-.33c-2.25,0-4.41-.88-6-2.46l-27.06-27.06c-2.22-2.22-.63-6.05,2.52-6.05h12.71l27.69-27.71c1.12-1.1,2.9-1.1,4,0,1.1,1.1,1.1,2.9,0,4l-34.42,34.45,19.36,19.36,33.77-33.79c5.45-5.45,9.07-12.63,9.48-20.32.49-9.2-3.09-17.91-9.91-24.1-1.34-1.23-2.79-2.3-4.3-3.23-11.86-7.31-27.77-5.29-37.98,4.93l-19.03,19.03h-39c-5.7,0-11.2,2.88-13.88,7.91-3.2,5.94-2.08,13.15,2.6,17.83l54.12,54.12c6.76,6.76,15.77,10.49,25.36,10.49l103.9.36c9.5,0,18.62-3.78,25.36-10.49l17.83-17.86Z"/>
      <path d="M182.8,93.51l-30.54,30.54H53.21l21.31-21.33c6.35-6.33,8.22-15.75,4.79-24.05-3.42-8.27-11.42-13.61-20.38-13.61h-27.11c-2.68,0-4.83-2.38-4.38-5.15.36-2.19,2.42-3.7,4.64-3.7h86.74l27.36-27.39H32.76c-16.55,0-31.05,12.25-32.62,28.73-1.8,18.91,13.1,34.89,31.68,34.89h14.24l-21.31,21.31c-6.33,6.35-8.22,15.77-4.77,24.05,3.42,8.27,11.42,13.64,20.38,13.64h118.77c2.86,0,5.61-1.14,7.63-3.16l35.43-35.43c-.27-.25-.58-.52-.85-.79l-18.54-18.54Z"/>
      <path d="M155.39,66.1l-8.16-8.16c-4.41-4.41-6.52-10.46-5.92-16.46l-10.38,10.38-9.86,9.83-19.55,19.55c-6.33,6.35-8.22,15.77-4.79,24.05,2.93,7.07,9.2,12,16.54,13.28h36.72l27.03-27.03h-38.51c-3.15,0-4.74-3.81-2.49-6.05l19.36-19.39Z"/>
    </g>
  </g>
</svg>