<?xml version="1.0" encoding="UTF-8"?>
<svg id="Layer_2" data-name="Layer 2" xmlns="http://www.w3.org/2000/svg" viewBox="0 0 935.37 172.57">
  <g id="_Слой_1" data-name="Слой 1">
    <path d="M109.7.26L0,110.03c.02,24.1.03,37.6.05,61.71L127.78,43.93h31.35l33.77-33.77h12.39l-99.87,99.86c0,24.11,0,37.63,0,61.75L267.04,10.16h12.76l-83.07,83.06v40.96l38.38,38.38h31.4v-43.67h-13.31l-12.8-12.79v-4.79L341.55,10.16h12.13l-67.65,67.65h61.75L415.43,10.16h12.05l-67.66,67.66h61.75L489.23,10.16h12.67l-118.67,118.73h-107.99v43.17h124.82s1.78-.01,1.78-.01L563.65,10.16h13.21l-162.41,162.4,55.07-.69v.71h124.8l-34.76-34.76v-8.91h-39.71l118.75-118.75h12.76l-83.07,83.06v40.96l38.38,38.38h31.4v-43.67h-13.31l-12.8-12.79v-4.79l101.15-101.14h12.13l-67.65,67.65h61.75l67.65-67.65h12.02l-67.66,67.66h61.75l67.66-67.66h12.67l-118.67,118.73h-107.95v43.17h124.82s1.74-.01,1.74-.01L935.11,10.22h.26V0L109.7.26Z"/>
  </g>
</svg>