<?xml version="1.0" encoding="UTF-8"?>
<svg id="Layer_2" data-name="Layer 2" xmlns="http://www.w3.org/2000/svg" viewBox="0 0 629.26 131.43">
  <g id="_Слой_1" data-name="Слой 1">
    <g>
      <g>
        <path d="M222.1,67.51h-82.63v-26.4c0-.8.65-1.45,1.45-1.45h22.18v-15.47h-22.18c-7.92,0-14.57,5.48-16.4,12.84l-.52-.52-12.25-12.25H0l74.27,74.27h33v-15.47h-35.87L28.07,39.74h77.26l27.77,27.77h-4.47l-24.42-24.42h-49.38l30.53,30.53h22.07v9.37h13.14l37.51,37.51h38.78v10.94l43.13-43.13h68.75l-30.47-30.47h-29.44l-36.5,36.5v-8.21h-28.81v18.9h-28.32l-22.03-22.03h15.47l18.94,18.94h12.85v-18.94h38.8l28.5-28.5h65.24v-15.47h-62.37l-28.5,28.51Z"/>
        <path d="M311.57,0C303.02,0,298.23,0,289.68,0l-35.59,35.59c8.55,0,13.34,0,21.88,0L311.57,0Z"/>
      </g>
      <g>
        <path d="M407.16,67.51h82.63s0-26.4,0-26.4c0-.8-.65-1.45-1.45-1.45h-22.18v-15.47h22.18c7.92,0,14.57,5.48,16.4,12.84l.52-.52,12.25-12.25h111.74s-74.27,74.27-74.27,74.27h-33v-15.47h35.87s43.33-43.33,43.33-43.33h-77.26s-27.77,27.77-27.77,27.77h4.47s24.42-24.42,24.42-24.42h49.38s-30.53,30.53-30.53,30.53h-22.07s0,9.37,0,9.37h-13.14s-37.51,37.51-37.51,37.51h-38.78s0,10.94,0,10.94l-43.13-43.13h-68.75s30.47-30.47,30.47-30.47h29.44s36.5,36.5,36.5,36.5v-8.21h28.81v18.9s28.32,0,28.32,0l22.03-22.03h-15.47s-18.94,18.94-18.94,18.94h-12.85v-18.94s-38.8,0-38.8,0l-28.5-28.5h-65.24v-15.47h62.37s28.5,28.51,28.5,28.51Z"/>
        <path d="M317.69,0c8.55,0,13.34,0,21.88,0l35.59,35.59c-8.55,0-13.34,0-21.88,0L317.69,0Z"/>
      </g>
    </g>
  </g>
</svg>