<?xml version="1.0" encoding="UTF-8"?>
<svg id="Layer_2" data-name="Layer 2" xmlns="http://www.w3.org/2000/svg" viewBox="0 0 680.79 147.73">
  <g id="_Слой_1" data-name="Слой 1">
    <g>
      <polygon points="179.24 109.03 217.65 147.44 178.18 147.44 142.06 111.33 142.06 63.76 183.7 63.76 208.99 89.05 166.23 89.05 166.23 94.8 214.51 94.8 238.08 118.36 197.13 118.36 187.8 109.03 179.24 109.03"/>
      <polygon points="251.59 123.45 262 133.86 253.44 133.86 243.18 123.6 201.37 123.45 225.19 147.54 299.18 147.54 299.18 131.57 291.06 123.45 251.59 123.45"/>
      <polygon points="39.83 36.07 39.83 60.59 67.9 88.92 112.81 88.95 112.81 118.68 107.16 118.69 107.16 94.52 65.58 94.52 34.19 63.13 34.19 22.64 69.75 58.21 182.21 58.19 181.54 .16 53.26 .05 77.44 24.24 157.74 24.33 157.74 34.04 79.76 34.04 45.71 0 15.63 0 15.63 0 0 0 10.31 10.32 10.31 73.87 10.75 73.87 55.57 118.69 55.67 118.69 84.72 147.73 136.97 147.73 136.97 63.9 67.66 63.9 39.83 36.07"/>
      <polygon points="538.72 63.76 538.72 111.33 502.6 147.44 463.14 147.44 501.54 109.03 492.99 109.03 483.81 118.2 442.87 118.2 466.27 94.8 514.56 94.8 514.56 89.05 471.79 89.05 497.07 63.76 538.72 63.76"/>
      <polygon points="479.41 123.45 455.6 147.55 381.61 147.55 381.61 131.56 389.73 123.45 429.2 123.45 418.78 133.86 427.35 133.86 437.61 123.6 479.41 123.45"/>
      <polygon points="493.61 .2 493.3 60.18 435.12 118.36 395.64 118.36 455.81 58.19 447.25 58.19 380.95 124.49 299.83 124.49 233.54 58.19 224.97 58.19 285.15 118.36 245.67 118.36 187.49 60.18 187.18 .2 234.11 .2 258.36 24.46 211.74 24.46 211.74 34.29 250.58 34.29 284.06 67.78 283.66 67.78 340.39 124.48 397.11 67.78 396.72 67.78 430.21 34.29 469.05 34.29 469.05 24.46 422.43 24.46 446.68 .2 493.61 .2"/>
      <polygon points="665.16 0 665.16 0 635.07 0 601.03 34.04 523.05 34.04 523.05 24.32 603.34 24.24 627.53 .05 499.25 .16 498.58 58.19 611.04 58.21 646.6 22.64 646.6 63.13 615.2 94.52 573.63 94.52 573.63 118.69 567.98 118.68 567.98 88.95 612.88 88.92 640.95 60.59 640.95 36.07 613.13 63.9 543.82 63.9 543.82 147.73 596.07 147.73 625.12 118.69 625.21 118.69 670.03 73.87 670.47 73.87 670.47 10.32 680.79 0 665.16 0"/>
    </g>
  </g>
</svg>