<?xml version="1.0" encoding="UTF-8"?>
<svg id="Layer_2" data-name="Layer 2" xmlns="http://www.w3.org/2000/svg" viewBox="0 0 620.95 107.75">
  <g id="_Слой_1" data-name="Слой 1">
    <g>
      <path d="M270.21,42.2c-.37-2.11-2.08-3.71-4.22-3.71h-47.56l-37.86,37.86h-9.42c-9.2,0-16.56,7.93-15.62,17.32.82,8.17,8.31,14.07,16.52,14.07h21.51l37.86-37.86h46.02c3.75,0,5.49-4.42,2.95-7.17-5.17-5.61-8.78-12.67-10.18-20.51Z"/>
      <path d="M42.77,54.01c0,8.67,7.03,15.7,15.7,15.7h33.92v-31.4h-33.92c-8.67,0-15.7,7.03-15.7,15.7Z"/>
      <path d="M48.44,31.4h37.27c5.93,0,8.91-7.18,4.71-11.37L72.35,1.95c-1.25-1.25-2.94-1.95-4.71-1.95h-32.2c-1.77,0-3.46.7-4.71,1.95L1.95,30.73c-1.25,1.25-1.95,2.99-1.95,4.76,0,9.82,0,17.26,0,25.49,0,5.93,7.18,8.92,11.37,4.73l32.36-32.36c1.25-1.25,2.94-1.95,4.71-1.95Z"/>
      <path d="M182.47,65.11s23.74-23.74,33.62-33.62c7.96-.11,24.17-.03,41.23.17,8.58.1,15.65-6.76,15.78-15.35.14-8.71-6.88-15.84-15.59-15.84h-50.09c-3.03,0-5.93,1.2-8.08,3.34l-31.14,31.14c-2.14,2.14-5.05,3.34-8.08,3.34h-61.47v31.4h79.21l4.6-4.6Z"/>
      <path d="M449.81,76.35h-9.42l-37.86-37.86h-47.56c-2.14,0-3.85,1.6-4.22,3.71-1.39,7.84-5.01,14.91-10.18,20.51-2.54,2.75-.8,7.17,2.95,7.17h46.02l37.86,37.86h21.51c8.21,0,15.7-5.9,16.52-14.07.95-9.39-6.42-17.32-15.62-17.32Z"/>
      <path d="M562.48,38.31h-33.92v31.4h33.92c8.67,0,15.7-7.03,15.7-15.7s-7.03-15.7-15.7-15.7Z"/>
      <path d="M619,30.73l-28.78-28.78c-1.25-1.25-2.94-1.95-4.71-1.95h-32.2c-1.77,0-3.46.7-4.71,1.95l-18.07,18.07c-4.2,4.2-1.22,11.37,4.71,11.37h37.27c1.77,0,3.46.7,4.71,1.95l32.36,32.36c4.2,4.2,11.37,1.21,11.37-4.73,0-8.24,0-15.67,0-25.49,0-1.77-.7-3.51-1.95-4.76Z"/>
      <path d="M452.74,34.97l-31.14-31.14c-2.14-2.14-5.05-3.34-8.08-3.34h-50.09c-8.71,0-15.73,7.13-15.59,15.84.13,8.58,7.2,15.45,15.78,15.35,17.06-.2,33.27-.29,41.23-.17,9.88,9.88,33.62,33.62,33.62,33.62l4.6,4.6h79.21v-31.4h-61.47c-3.03,0-5.94-1.2-8.08-3.34Z"/>
      <circle cx="310.48" cy="35.1" r="34.61" transform="translate(-1.61 50.19) rotate(-9.22)"/>
    </g>
  </g>
</svg>