<?xml version="1.0" encoding="UTF-8"?>
<svg id="Layer_2" data-name="Layer 2" xmlns="http://www.w3.org/2000/svg" viewBox="0 0 669.07 142.24">
  <g id="_Слой_1" data-name="Слой 1">
    <g>
      <g>
        <path d="M230.51,93.2c1.76-1.76,3.37-3.37,5.61-5.61v-46.75l-15.51-15.51h-55.14v2.76c7.12,7.1,11.1,11.07,18.19,18.17h28.28l3.24,3.24v28.37l15.32,15.32Z"/>
        <polygon points="107.29 20.93 122.65 20.93 227.23 125.52 242.04 110.72 131.32 0 107.25 0 107.25 20.92 37.93 20.92 106.88 89.86 100.48 89.86 31.55 20.93 0 20.93 0 105.31 30.95 136.26 188.86 136.26 210.31 114.81 195.51 100.01 180.19 115.32 39.62 115.32 20.93 96.64 20.93 41.86 22.88 41.86 91.81 110.8 157.42 110.8 88.47 41.85 107.29 41.85 107.29 20.93"/>
        <path d="M271.11,69.72c3.63,3.63,8.56,5.5,13.74,5.17,4.5-.28,8.68-2.43,11.87-5.62l20.21-20.21-14.8-14.8-18.44,18.44L231,0h-44.64c-8.18,8.18-12.76,12.76-20.93,20.93h56.9l48.78,48.78Z"/>
        <path d="M319.74,52.04l-67.97,67.97-6.58-6.58-14.8,14.8,8.8,8.8c3.47,3.47,8.02,5.2,12.58,5.2s9.11-1.73,12.58-5.2l70.19-70.19-14.8-14.8Z"/>
      </g>
      <g>
        <path d="M438.56,93.2c-1.76-1.76-3.37-3.37-5.61-5.61v-46.75s15.51-15.51,15.51-15.51h55.14v2.76c-7.12,7.1-11.1,11.07-18.19,18.17h-28.28s-3.24,3.24-3.24,3.24v28.37s-15.32,15.32-15.32,15.32Z"/>
        <polygon points="561.77 20.93 546.42 20.93 441.83 125.52 427.03 110.72 537.74 0 561.82 0 561.82 20.92 631.14 20.92 562.19 89.86 568.58 89.86 637.52 20.93 669.07 20.93 669.07 105.31 638.12 136.26 480.21 136.26 458.76 114.81 473.56 100.01 488.88 115.32 629.45 115.32 648.13 96.64 648.13 41.86 646.19 41.86 577.26 110.8 511.65 110.8 580.59 41.85 561.77 41.85 561.77 20.93"/>
        <path d="M397.96,69.72c-3.63,3.63-8.56,5.5-13.74,5.17-4.5-.28-8.68-2.43-11.87-5.62l-20.21-20.21,14.8-14.8,18.44,18.44L438.06,0h44.64c8.18,8.18,12.76,12.76,20.93,20.93h-56.9s-48.78,48.78-48.78,48.78Z"/>
        <path d="M349.33,52.04l67.97,67.97,6.58-6.58,14.8,14.8-8.8,8.8c-3.47,3.47-8.02,5.2-12.58,5.2-4.56,0-9.11-1.73-12.58-5.2l-70.19-70.19,14.8-14.8Z"/>
      </g>
    </g>
  </g>
</svg>