<?xml version="1.0" encoding="UTF-8"?>
<svg id="Layer_2" data-name="Layer 2" xmlns="http://www.w3.org/2000/svg" viewBox="0 0 571.15 178.67">
  <g id="_Слой_1" data-name="Слой 1">
    <g>
      <path d="M31.47,122.12l10.39-10.39v-17.09l54.16-54.19h17.12l.16-.16c-.03-13.25-.03-23.98-.03-23.98l12.02,11.99L153.58,0h-74.65L0,78.94v99.73h50.07c5.37-5.37,8.38-8.38,13.75-13.75v-17.72H31.47v-25.08Z"/>
      <path d="M76.46,112.51v-3.53l36.58-36.59v-28.79h-15.72l-52.34,52.34v48.04h97.26v-17.72c-5.37-5.37-8.38-8.38-13.75-13.75h-52.03Z"/>
      <path d="M116.45,61.88v27.79l.06,6.39,47.93,47.93h72.07L116.41,23.89l.03,37.99Z"/>
      <polygon points="172.53 0 158.02 0 127.55 30.47 241.04 143.99 285.57 143.99 172.53 30.94 172.53 0"/>
      <path d="M184.76,31.47l68.11,68.1c0-17.38,0-27.12,0-44.5L197.8,0h-22.14v29.54l1.93,1.93h7.17Z"/>
      <path d="M492.22,0h-74.65l28.29,28.29,12.02-11.99s0,10.73-.03,23.98l.16.16h17.12l54.16,54.19v17.09l10.39,10.39v25.08h-32.35v17.72c5.37,5.37,8.38,8.38,13.76,13.75h50.07v-99.73L492.22,0Z"/>
      <path d="M526.16,95.95l-52.34-52.34h-15.72v28.79l36.58,36.59v3.53h-52.03c-5.37,5.37-8.38,8.38-13.75,13.75v17.72h97.25v-48.04Z"/>
      <path d="M454.7,89.67v-27.79l.03-37.99-120.09,120.1h72.07l47.93-47.93.06-6.39Z"/>
      <polygon points="413.13 0 398.62 0 398.62 30.94 285.57 143.99 330.11 143.99 443.59 30.47 413.13 0"/>
      <path d="M386.38,31.47h7.17c.75-.75,1.18-1.18,1.93-1.93V0h-22.14l-55.07,55.07v44.5l68.11-68.1Z"/>
    </g>
  </g>
</svg>