<?xml version="1.0" encoding="UTF-8"?>
<svg id="Layer_2" data-name="Layer 2" xmlns="http://www.w3.org/2000/svg" viewBox="0 0 546.1 113.48">
  <g id="_Слой_1" data-name="Слой 1">
    <g>
      <path d="M513.57,75.98h-39.13v2.26l-18.43,18.43h-75.05v9.71c0,3.92,3.18,7.1,7.1,7.1h121.13v-.02h1.42c4.97,0,9-4.03,9-9v-22.43l-6.05-6.04Z"/>
      <polygon points="413.5 92.92 453.96 92.92 546.1 .77 493.74 .77 413.5 81.02 413.5 92.92"/>
      <path d="M485.31,71.87h44.61l5.99-6v-22.47c0-4.97-4.03-9-9-9h-8.87l-32.73,32.73v4.75Z"/>
      <polygon points="368.05 96.67 371.96 92.76 409.4 92.76 409.4 79.32 412.73 76 412.69 76 425.02 63.67 348.78 63.67 315.77 96.67 310.2 96.67 326.13 80.72 326.13 76 281.53 76 275.49 82.04 275.49 113.48 282.19 113.48 293.41 113.48 376.85 113.48 376.85 101.56 371.96 96.67 368.05 96.67"/>
      <path d="M90.87,96.67l-18.43-18.43v-2.26h-39.13l-6.05,6.04v22.43c0,4.97,4.03,9,9,9h1.42v.02h121.13c3.92,0,7.1-3.18,7.1-7.1v-9.71h-75.05Z"/>
      <polygon points="133.38 92.92 133.38 81.02 52.36 0 0 0 92.92 92.92 133.38 92.92"/>
      <path d="M61.56,71.87v-4.75L28.84,34.4h-8.87c-4.97,0-9,4.03-9,9v22.47l5.99,6h44.61Z"/>
      <polygon points="220.75 76 220.75 80.72 236.68 96.67 231.11 96.67 198.1 63.67 121.86 63.67 134.19 76 134.15 76 137.48 79.32 137.48 92.76 174.92 92.76 178.83 96.67 174.92 96.67 170.03 101.56 170.03 113.48 253.46 113.48 264.68 113.48 271.38 113.48 271.38 82.04 265.34 76 220.75 76"/>
    </g>
  </g>
</svg>