<?xml version="1.0" encoding="UTF-8"?>
<svg id="Layer_2" data-name="Layer 2" xmlns="http://www.w3.org/2000/svg" viewBox="0 0 568.9 135.18">
  <g id="_Слой_1" data-name="Слой 1">
    <path d="M565.22,102.24l-11.85-11.85v-40.61C553.37,22.81,531.92.35,504.96,0c-27.38-.34-49.68,21.74-49.68,49.03v4.67h-39.65c-2.94,0-5.76,1.15-7.86,3.22l-16.42,16.19-35.81,35.8c-.35.35-.81.59-1.31.63-1.41.12-2.34-.98-2.34-2.13,0-.53.19-1.06.63-1.5l50.38-50.39c2.1-2.1,3.28-4.94,3.28-7.91v-5.59c0-2.98,1.19-5.84,3.3-7.94,1.95-1.94,3.64-3.63,5.59-5.57,2.1-2.1,4.96-3.27,7.94-3.27l15.39.04c6.72.02,12.19-5.38,12.26-12.1v-.37c.08-6.81-5.42-12.37-12.23-12.37h-32.94c-7.86,0-15.4,3.1-20.98,8.63l-11.53,11.43c-5.58,5.53-13.12,8.63-20.98,8.63h-39.16c-11.04,0-21.05,4.39-28.4,11.5-7.35-7.12-17.36-11.5-28.4-11.5h-39.16c-7.86,0-15.4-3.1-20.98-8.63l-11.53-11.43c-5.58-5.53-13.12-8.63-20.98-8.63h-32.94c-6.81,0-12.31,5.56-12.23,12.37v.37c.08,6.72,5.55,12.11,12.26,12.1l15.38-.04c2.98,0,5.84,1.17,7.94,3.27,1.95,1.94,3.64,3.63,5.59,5.57,2.11,2.1,3.3,4.96,3.3,7.94v5.59c0,2.97,1.18,5.81,3.28,7.91l50.38,50.39c.44.44.63.97.63,1.5,0,1.15-.94,2.25-2.34,2.13-.5-.04-.96-.28-1.31-.63l-35.81-35.8-16.42-16.19c-2.1-2.07-4.92-3.22-7.86-3.22h-39.65v-4.67C113.61,21.75,91.31-.34,63.93,0,36.98.35,15.53,22.81,15.53,49.77v40.61l-11.85,11.85c-2.53,2.53-3.67,5.65-3.67,8.71,0,6.35,4.91,12.45,12.33,12.52,3.44.04,6.72-1.43,9.15-3.86l11.64-11.64h99.54c1.83,0,3.58.73,4.87,2.02l6.41,6.41c1.29,1.29,2.02,3.04,2.02,4.87v7.01c0,1.91.77,3.63,2.02,4.88,1.25,1.25,2.97,2.02,4.88,2.02s3.58-.73,4.88-2.02c4.07-4.07,7.01-7,11.08-11.08,1.29-1.3,2.02-3.05,2.02-4.88v-7.11c0-1.56-.62-3.04-1.73-4.12l-21.6-21.22c-1.08-1.06-2.53-1.66-4.04-1.66H61.25c-11.51,0-20.85-9.33-20.85-20.85v-13.26c0-13.35,10.82-24.17,24.16-24.17h.03c13.34,0,24.14,10.83,24.14,24.17v14.13c0,4.07,1.62,7.97,4.49,10.85l.09.09c2.89,2.89,6.81,4.52,10.9,4.52h40.16c2.08,0,4.09.82,5.57,2.28l22.96,22.62c1.51,1.49,2.37,3.53,2.37,5.66v7.46c0,1.84.74,3.61,2.04,4.92,3.96,3.95,6.84,6.83,10.8,10.79,1.31,1.31,3.09,2.05,4.95,2.05h28.04c14.41,0,21.6-17.44,11.39-27.6l-25.86-25.69c-10.21-10.15-3.05-27.57,11.35-27.6l37.84-.08c8.93-.02,16.18,7.21,16.18,16.15v.36s0,.05,0,.07v52.17c0,6.87,5.57,12.44,12.44,12.44,0,0,0,0,0,0,0,0,0,0,0,0,6.87,0,12.44-5.57,12.44-12.44v-52.17s0-.05,0-.07v-.36c0-8.93,7.25-16.16,16.18-16.15l37.84.08c14.4.03,21.56,17.45,11.35,27.6l-25.86,25.69c-10.21,10.16-3.03,27.6,11.39,27.6h28.04c1.85,0,3.64-.74,4.95-2.05,3.96-3.96,6.84-6.84,10.8-10.79,1.31-1.31,2.04-3.08,2.04-4.92v-7.46c0-2.13.85-4.17,2.37-5.66l22.96-22.62c1.48-1.46,3.49-2.28,5.57-2.28h40.16c4.09,0,8.01-1.63,10.9-4.52l.09-.09c2.88-2.88,4.49-6.78,4.49-10.85v-14.13c0-13.34,10.81-24.16,24.14-24.17h.03c13.34,0,24.16,10.82,24.16,24.17v13.26c0,11.51-9.33,20.85-20.85,20.85h-82.2c-1.51,0-2.96.59-4.04,1.66l-21.6,21.22c-1.11,1.09-1.73,2.57-1.73,4.12v7.11c0,1.83.73,3.58,2.02,4.88,4.07,4.07,7.01,7.01,11.08,11.08,1.3,1.3,3.05,2.02,4.88,2.02s3.63-.77,4.88-2.02c1.25-1.25,2.02-2.97,2.02-4.88v-7.01c0-1.83.73-3.58,2.02-4.87l6.41-6.41c1.29-1.29,3.04-2.02,4.87-2.02h99.54l11.64,11.64c2.43,2.43,5.71,3.89,9.15,3.86,7.42-.08,12.33-6.17,12.33-12.52,0-3.06-1.14-6.17-3.67-8.71Z"/>
  </g>
</svg>