<?xml version="1.0" encoding="UTF-8"?>
<svg id="Layer_2" data-name="Layer 2" xmlns="http://www.w3.org/2000/svg" viewBox="0 0 572.12 86.9">
  <g id="_Слой_1" data-name="Слой 1">
    <g>
      <path d="M124.69,13.01l50.2,49.85h0l3.86,3.86h-7.8l-38.29-38.29h-66.29v19.46h30.4v19.55h-30.4v-19.51h-25.52l-19.52-19.52H0v19.46h13.27l19.52,19.52h14.12v19.51h69.31v-39.01h8.39l38.29,38.29h.03l.43.44,88.63.29,31.41-31.41V0H124.69v13.01ZM263.94,19.46v27.98l-20.01,20.01-13.24-.28-48.03-47.71h81.29Z"/>
      <path d="M413.41,0v13.01l50.2,49.85h0l3.86,3.86h-7.8l-38.29-38.29h-66.29v19.46h30.4v19.55h-30.4v-19.51h-25.52l-19.52-19.52h-21.33v19.46h13.27l19.52,19.52h14.12v19.51h69.31v-39.01h8.39l38.29,38.29h.03l.43.44,88.63.29,31.41-31.41c-1.03,0-1.85-.16-2.57-.4l2.57.4V0h-158.71ZM552.67,47.43l-20.01,20.01-13.24-.28-48.03-47.71h81.29v27.98Z"/>
    </g>
  </g>
</svg>