<?xml version="1.0" encoding="UTF-8"?>
<svg id="Layer_2" data-name="Layer 2" xmlns="http://www.w3.org/2000/svg" viewBox="0 0 500.4 88.24">
  <g id="_Слой_1" data-name="Слой 1">
    <g>
      <path d="M439.07,34.55c-.31-1.73-1.71-3.04-3.46-3.04h-38.96l-31.01,31.01h-54.22c-7.54,0-13.57,6.49-12.79,14.19.67,6.69,6.81,11.53,13.53,11.53h64.13l31.01-31.01h37.69c3.07,0,4.5-3.62,2.42-5.88-4.23-4.59-7.2-10.38-8.34-16.8Z"/>
      <path d="M252.77,44.23c0,7.1,5.76,12.86,12.86,12.86h27.78v-25.72h-27.78c-7.1,0-12.86,5.76-12.86,12.86Z"/>
      <path d="M367.2,53.32s19.45-19.44,27.54-27.53c6.52-.09,19.8-.02,33.77.14,7.03.08,12.82-5.54,12.93-12.57.11-7.13-5.64-12.97-12.77-12.97h-41.03c-2.48,0-4.86.99-6.62,2.74l-25.5,25.51c-1.75,1.75-4.13,2.74-6.62,2.74h-50.35v25.72h64.88l3.76-3.77Z"/>
      <circle cx="472.05" cy="28.73" r="28.35"/>
      <path d="M188.61,62.53h-53.84l-31.01-31.01h-38.96c-1.75,0-3.15,1.31-3.46,3.04-1.14,6.42-4.1,12.21-8.34,16.8-2.08,2.26-.65,5.88,2.41,5.88h37.69l31.01,31.01h63.74c6.73,0,12.86-4.84,13.53-11.53.77-7.69-5.26-14.19-12.79-14.19Z"/>
      <path d="M234.77,31.37h-27.78v25.72h27.78c7.1,0,12.86-5.76,12.86-12.86s-5.76-12.86-12.86-12.86Z"/>
      <path d="M147.56,24.05c1.07,1.07,2.52,1.67,4.03,1.67h197.21c1.51,0,2.96-.6,4.03-1.67l18.5-18.5c2.05-2.05.6-5.55-2.3-5.55h-237.68c-2.9,0-4.35,3.5-2.3,5.55l18.5,18.5Z"/>
      <path d="M144.88,28.63L119.38,3.12c-1.76-1.75-4.13-2.74-6.62-2.74h-41.03c-7.13,0-12.88,5.84-12.77,12.97.11,7.03,5.89,12.65,12.93,12.57,13.97-.17,27.26-.24,33.77-.14,8.09,8.09,27.54,27.53,27.54,27.53l3.76,3.77h64.88v-25.72h-50.35c-2.48,0-4.86-.99-6.62-2.74Z"/>
      <circle cx="28.35" cy="28.73" r="28.35"/>
    </g>
  </g>
</svg>