<?xml version="1.0" encoding="UTF-8"?>
<svg id="Layer_2" data-name="Layer 2" xmlns="http://www.w3.org/2000/svg" viewBox="0 0 580.27 90.44">
  <g id="_Слой_1" data-name="Слой 1">
    <g>
      <path d="M554.48,36.48v.14c-2.29-2.29-4.71-4.71-7.48-7.48h-30.4v22.26h-11.88l-4.69-4.69v-6.51l14.5-14.5h29.18l-5.75-5.75v-11.18c0-2.99.34-5.95.96-8.77h-25.77s-9.47,0-9.47,0l-25.47,25.68-3.87,3.87v19.36c2.3,2.3,3.59,3.59,5.89,5.89h.23l-15.6,15.6c-3.76,3.76-8.77,5.84-14.09,5.84h-1.27c-5.32,0-10.33-2.07-14.09-5.84l-24.65-24.65,5.07-5.07h16.09c5.97-5.97,9.81-9.81,15.01-15.01h26.38c10.03-10.03,15.65-15.65,25.68-25.68h-109.18v29.76h.09s12.63,12.62,12.63,12.62v10.97c0,4.51-.72,8.84-2.13,12.9h26.01l6.58,6.58c4.41,4.42,10.28,6.84,16.52,6.84h1.27c6.24,0,12.11-2.43,16.52-6.84l18.01-18.01h41.07v-.02h10.13l7.46,7.46h36.32l-25.79-25.79ZM500.02,51.4v-.19l.42.19h-.42Z"/>
      <path d="M388.44,33l-2.08-2.07V0h-94.51v25.7h0v16.88c0,13.06,10.63,23.69,23.68,23.69h22.24l23.97,24.17h.22c20.48,0,37.09-16.61,37.09-37.09v-9.72l-10.63-10.63h0ZM366.35,54.82c0,3.3-1.63,6.2-4.1,8.01h-46.71c-11.16,0-20.24-9.08-20.24-20.25v-8.47l8.41-8.41h12.93l8.05,8.06h28.2l13.45,13.45v7.61Z"/>
      <path d="M232.49,0h-38.59v30.92l-2.07,2.07h0l-10.63,10.63v9.72c0,20.49,16.61,37.09,37.09,37.09l23.97-24.17h22.46c13.06,0,23.68-10.63,23.68-23.69v-16.88h0V0h-55.92ZM276.56,25.7l8.41,8.41v8.47c0,11.16-9.08,20.25-20.24,20.25h-46.71c-2.47-1.81-4.1-4.71-4.1-8.01v-7.61l13.45-13.45h28.2l8.06-8.06h12.93Z"/>
      <path d="M177.76,53.36v-10.99l12.61-12.61h.09S190.46,0,190.46,0h-109.18c10.03,10.03,15.65,15.65,25.68,25.68h26.38c5.2,5.2,9.04,9.04,15.01,15.01h16.09l5.07,5.07-24.65,24.65c-3.77,3.76-8.77,5.84-14.09,5.84h-1.26c-5.32,0-10.33-2.07-14.09-5.84l-15.6-15.6h.22c2.3-2.3,3.59-3.59,5.89-5.89v-19.36l-3.87-3.87L76.59,0h-9.47s-25.77,0-25.77,0c.62,2.82.96,5.78.96,8.77v11.18l-5.75,5.75h29.18l14.5,14.5v6.51l-4.69,4.69h-11.88v-22.26h-30.4c-2.77,2.77-5.2,5.2-7.48,7.48v-.14L0,62.27h36.32l7.45-7.46h10.13v.02h41.07l18.01,18.01c4.42,4.42,10.28,6.84,16.53,6.84h1.26c6.24,0,12.11-2.43,16.53-6.84l6.58-6.58h26.02c-1.41-4.06-2.13-8.4-2.13-12.9ZM80.25,51.4h-.54l.54-.24v.24Z"/>
    </g>
  </g>
</svg>