<?xml version="1.0" encoding="UTF-8"?>
<svg id="Layer_2" data-name="Layer 2" xmlns="http://www.w3.org/2000/svg" viewBox="0 0 762.15 177.53">
  <g id="_Слой_1" data-name="Слой 1">
    <g>
      <path d="M635.74,34.3l-.12,13.85h-116.9c-13.08,13.08-20.42,20.42-33.52,33.52h134.47l-14.76,14.9h-.07l-33.4,33.4c.01.07.03.07.04.12h114.79l28.27-28.24V34.62L681.02,1.11v86.84l-8.63,8.61h-20.11l16.69-16.85.29-78.89-171.31-.82c-1.54.64-2.89,1.2-4.43,1.82l-94.8,94.73h-35.29L268.62,1.82c-1.54-.63-2.89-1.19-4.43-1.82L92.88.82l.29,78.89,16.69,16.85h-20.11l-8.63-8.61V1.11l-33.52,33.52v67.22l28.27,28.24h114.79c.01-.05.03-.05.04-.12l-33.4-33.4h-.07l-14.76-14.9h134.47c-13.1-13.1-20.43-20.43-33.52-33.52h-116.9l-.12-13.85,126.51-.78,96.61,96.55h63.08l96.61-96.55,126.51.78Z"/>
      <path d="M728.63,48.74v60.06l-35.22,35.22h-155.65l47.46-47.45c-13.19,0-22.26-.01-33.08-.01l.23-.23h-82.19l-33.52,33.52h67.87l-47.69,47.69h250.44l54.85-54.85v-40.42l-33.52-33.52Z"/>
      <path d="M291.95,96.32h-82.19l.23.23c-10.82,0-19.89,0-33.08.01l47.46,47.45H68.73l-35.22-35.22v-60.06L0,82.25v40.42l54.85,54.85h250.44l-47.69-47.69h67.87l-33.52-33.52Z"/>
    </g>
  </g>
</svg>