<?xml version="1.0" encoding="UTF-8"?>
<svg id="Layer_2" data-name="Layer 2" xmlns="http://www.w3.org/2000/svg" viewBox="0 0 585.63 154.11">
  <g id="_Слой_1" data-name="Слой 1">
    <g>
      <polygon points="189.54 83.66 189.54 41.78 164.56 66.76 164.56 83.66 189.54 83.66"/>
      <path d="M223.06,129.13h-25.54l-7.99-7.99v-5.01h-24.97v15.35l22.63,22.63h20.32c8.54-8.54,16.08-16.1,23.18-23.19l-4.71-4.71c-.94.95-1.91,1.92-2.91,2.92Z"/>
      <path d="M72.55,106.15h0s-10.2-.01-10.2-.01h0s-6.43.01-6.43.01l-30.93-30.93v-9.43c15.94-15.94,24.88-24.88,40.81-40.81h64.23l15.2,15.2.25.25,20.58-21.08.51-.52h-7.79L139.97,0h-57.67C50.16,32.14,32.14,50.16,0,82.3v3.26l27.01,27h45.83l6.41-6.41h-6.69Z"/>
      <path d="M171.59,19.12l-93.28,93.27h124.34c12.66-12.67,19.77-19.78,32.44-32.45V29.08h-24.97v58.34h-71.5l62-62h65.36v60.81c-.95.95-10.81,10.81-17.03,17.03l4.71,4.72c10.45-10.46,29.82-29.83,37.3-37.31V25.41h3.75v45.25c7.48,7.48,26.85,26.85,37.3,37.31l4.71-4.72c-6.22-6.22-16.08-16.08-17.03-17.03V25.41h65.36l62,62h-71.5V29.08h-24.97v50.86c12.67,12.67,19.78,19.78,32.44,32.45h124.34l-93.28-93.27h-242.45Z"/>
      <polygon points="396.09 41.78 396.09 83.66 421.07 83.66 421.07 66.76 396.09 41.78"/>
      <path d="M396.1,121.14l-7.99,7.99h-25.54c-1-1-1.97-1.97-2.91-2.92l-4.71,4.71c7.09,7.09,14.64,14.65,23.18,23.19h20.32l22.63-22.63v-15.35h-24.97v5.01Z"/>
      <path d="M503.33,0h-57.67l-18.81,18.82h-7.79l.51.52,20.58,21.08.25-.25,15.2-15.2h64.23c15.94,15.94,24.88,24.88,40.81,40.81v9.43s-30.93,30.93-30.93,30.93h-6.43s-10.2-.01-10.2-.01h0s-6.69.01-6.69.01l6.41,6.41h45.83l27.01-27v-3.26c-32.14-32.14-50.16-50.16-82.3-82.3Z"/>
      <polygon points="350.23 84.92 350.23 95.02 316.23 129.03 299.29 129.03 294.69 129.03 269.4 129.03 235.4 95.02 235.4 84.92 212.69 107.63 259.06 154 294.69 154 299.29 154 326.57 154 372.94 107.63 350.23 84.92"/>
    </g>
  </g>
</svg>