<?xml version="1.0" encoding="UTF-8"?>
<svg id="Layer_2" data-name="Layer 2" xmlns="http://www.w3.org/2000/svg" viewBox="0 0 590.13 120.5">
  <g id="_Слой_1" data-name="Слой 1">
    <g>
      <path d="M121.6,55.82h32.3l-31.29,31.29h20.99s.02,0,.02-.01l46.13-46.13h-74.31c-.7,0-1.36.27-1.85.77l-65.42,63.11c-.49.49-1.16.77-1.85.77h-16.66v-35.17L85.26,14.85h172.33l21.13,21.12h21L263.74,0H58.69L0,58.69v61.78h52.48c.69,0,1.36-.27,1.85-.77l65.42-63.11c.49-.49,1.16-.77,1.85-.77Z"/>
      <polygon points="299.72 40.97 278.77 40.97 228.47 91.38 89.74 91.38 60.62 120.5 205.84 120.5 220.35 120.5 284.3 120.5 284.3 56.39 284.32 56.36 299.72 40.97"/>
      <path d="M164.44,72.25c-5.8,5.8-9.05,9.05-14.85,14.85h76.93l46.11-46.11h-76.84c-5.8,5.8-9.05,9.05-14.85,14.85h0l-11.41,11.41h21l11.41-11.41h34.82l-16.41,16.41h-55.93Z"/>
      <path d="M412.01,55.82h32.3l-31.28,31.29h20.99s.01,0,.02-.01l46.13-46.13h-74.31c-.7,0-1.36.27-1.85.77l-65.42,63.11c-.49.49-1.16.77-1.85.77h-16.66v-35.17l55.6-55.6h172.33l21.13,21.12h21L554.16,0h-205.05l-58.69,58.69v61.78h52.48c.69,0,1.36-.27,1.85-.77l65.42-63.11c.49-.49,1.16-.77,1.85-.77Z"/>
      <polygon points="518.88 91.38 380.15 91.38 351.03 120.5 496.25 120.5 510.76 120.5 574.71 120.5 574.71 56.39 574.73 56.36 590.13 40.97 569.18 40.97 518.88 91.38"/>
      <path d="M454.86,72.25c-5.8,5.8-9.05,9.05-14.85,14.85h76.93l46.11-46.11h-76.84c-5.8,5.8-9.05,9.05-14.85,14.85h0l-11.41,11.41h21l11.4-11.41h34.82l-16.41,16.41h-55.93Z"/>
    </g>
  </g>
</svg>