<?xml version="1.0" encoding="UTF-8"?>
<svg id="Layer_2" data-name="Layer 2" xmlns="http://www.w3.org/2000/svg" viewBox="0 0 792.43 106.95">
  <g id="_Слой_1" data-name="Слой 1">
    <path d="M746.88,0h-156.96c-6.88,0-12.46,5.57-12.46,12.46,0,3.3,1.31,6.48,3.65,8.81l22.69,22.7,30.18,30.17c2.36,2.36.69,6.38-2.64,6.38-.99,0-1.94-.4-2.64-1.09l-49.17-49.17c-2.34-2.33-5.51-3.64-8.82-3.64h-71.45c-3.64,0-6.93,1.47-9.32,3.86-2.39,2.39-3.86,5.68-3.86,9.32,0,7.27,5.89,13.18,13.18,13.18h14.75c7.31,0,13.24,5.92,13.24,13.24s-5.93,13.24-13.24,13.24h-27.93v-13.25c0-7.27-5.9-13.18-13.18-13.18h-21.39l-6.01-6.02c-6.55-6.54-14.25-11.64-22.63-15.11-8.39-3.47-17.44-5.31-26.68-5.31s-18.3,1.84-26.68,5.31c-8.38,3.47-16.08,8.57-22.63,15.11l-6.01,6.02h-21.39c-7.27,0-13.18,5.9-13.18,13.18v13.25h-27.93c-7.31,0-13.24-5.93-13.24-13.24s5.93-13.24,13.24-13.24h14.75c7.28,0,13.18-5.9,13.18-13.18,0-3.64-1.47-6.93-3.86-9.32-2.39-2.39-5.68-3.86-9.32-3.86h-71.45c-3.31,0-6.48,1.31-8.82,3.64l-49.17,49.17c-.7.7-1.65,1.09-2.64,1.09-3.33,0-5-4.02-2.64-6.38l30.18-30.17,22.69-22.7c2.34-2.33,3.65-5.51,3.65-8.81,0-6.89-5.58-12.46-12.46-12.46H45.55C20.4,0,0,20.39,0,45.54c0,6.04,1.2,11.96,3.47,17.43,2.26,5.47,5.6,10.51,9.88,14.78l15.87,15.87c8.54,8.54,20.12,13.34,32.2,13.34h112.01l.08-.08h.04l51.55-51.55c1.51-1.51,3.55-2.35,5.69-2.35,4.43,0,8.03,3.59,8.03,8.03v8.15c0,20.24,16.4,36.65,36.65,36.65h44.01c7.3,0,13.21-5.92,13.21-13.21,0-3.65,1.48-6.95,3.87-9.35s5.69-3.87,9.34-3.87h.44c3.51,0,6.87-1.39,9.35-3.87l9.86-9.86c8.14-8.13,19.17-12.71,30.68-12.71s22.54,4.57,30.68,12.71l9.86,9.86c2.48,2.48,5.84,3.87,9.35,3.87h.44c3.65,0,6.95,1.48,9.34,3.87s3.87,5.7,3.87,9.35c0,7.29,5.91,13.21,13.21,13.21h44.01c20.24,0,36.65-16.4,36.65-36.65v-8.15c0-4.44,3.6-8.03,8.03-8.03,2.13,0,4.18.84,5.69,2.35l51.55,51.55h.04l.08.08h112.01c12.08,0,23.66-4.8,32.2-13.34l15.87-15.87c4.28-4.27,7.61-9.31,9.88-14.78,2.27-5.47,3.47-11.39,3.47-17.43,0-25.15-20.4-45.54-45.55-45.54ZM106.58,80.61c-14.99,0-27.13-12.14-27.13-27.13s12.14-27.13,27.13-27.13,27.13,12.15,27.13,27.13-12.14,27.13-27.13,27.13ZM685.85,80.61c-14.99,0-27.13-12.14-27.13-27.13s12.14-27.13,27.13-27.13,27.13,12.15,27.13,27.13-12.14,27.13-27.13,27.13Z"/>
  </g>
</svg>