<?xml version="1.0" encoding="UTF-8"?>
<svg id="Layer_2" data-name="Layer 2" xmlns="http://www.w3.org/2000/svg" viewBox="0 0 558.43 135.18">
  <g id="_Слой_1" data-name="Слой 1">
    <path d="M547.91,39.16h-7.72c-5.86.01-10.62-4.73-10.62-10.59,0-6.78-5.54-11.27-11.32-11.27-2.76,0-5.59,1.03-7.88,3.32-.13.13-.27.27-.41.41-3.58,3.52-8.44,5.46-13.47,5.46h-15.79c-5.46,0-10.69,2.18-14.57,6.04-3.85,3.85-9.08,6-14.54,6h-21.25c-5.46,0-10.69-2.17-14.55-6.01l-1.53-1.54c-3.86-3.86-9.09-6.03-14.55-6.03h-62.52c-6.68,0-12.51,5.05-12.95,11.72-.47,7.3,5.32,13.37,12.51,13.37h69.75c.98,0,1.77.8,1.75,1.77-.01.95-.78,1.72-1.75,1.72h-17.7c-6.94,0-10.41,8.39-5.51,13.29l39.5,39.5c.76.76.67,2.01-.19,2.65-.7.54-1.7.47-2.32-.16l-47.62-47.74c-4.72-4.73-11.12-7.4-17.8-7.4h-18.95c-8.39,0-15.19-6.8-15.19-15.19v-11.51c0-14.9-12.08-26.97-26.97-26.97h0c-2.31,0-4.55.29-6.69.84-5.16,1.33-10.54,1.33-15.69,0-2.14-.55-4.38-.84-6.69-.84h0c-14.9,0-26.97,12.08-26.97,26.97v11.51c0,8.39-6.8,15.19-15.19,15.19h-18.95c-6.68,0-13.08,2.66-17.8,7.4l-47.62,47.74c-.63.63-1.62.7-2.32.16-.86-.64-.94-1.9-.19-2.65l39.5-39.5c4.91-4.91,1.43-13.29-5.51-13.29h-17.7c-.97,0-1.74-.77-1.75-1.72-.01-.97.77-1.77,1.75-1.77h69.75c7.2,0,12.98-6.07,12.51-13.37-.44-6.67-6.27-11.72-12.95-11.72h-62.52c-5.46,0-10.69,2.17-14.55,6.03l-1.53,1.54c-3.86,3.85-9.09,6.01-14.55,6.01h-21.25c-5.46,0-10.69-2.15-14.54-6-3.88-3.86-9.11-6.04-14.57-6.04h-15.79c-5.03,0-9.89-1.94-13.47-5.46-.14-.14-.29-.28-.41-.41-2.29-2.29-5.12-3.32-7.88-3.32-5.77,0-11.32,4.49-11.32,11.27,0,5.86-4.76,10.6-10.62,10.6h-7.72c-9.35-.03-14.04,11.26-7.44,17.86,12.04,12.04,25.64,25.64,35.91,35.9h38.42c3.69,0,6.68,2.99,6.68,6.68v22.83c0,3.46,1.4,6.6,3.68,8.86,2.27,2.27,5.4,3.68,8.86,3.68,6.91,0,12.53-5.62,12.54-12.54v-32.17c.01-6.06-2.39-11.87-6.68-16.16l-.14-.14c-4.26-4.26-10.04-6.66-16.07-6.66h-53.05c-3.95,0-7.74-1.57-10.53-4.36-3.45-3.46-7.74-7.75-11.86-11.87-1.15-1.15-.33-3.11,1.28-3.11h.01c.48,0,.95.19,1.28.53l2.47,2.47,9.16,9.15c2.44,2.44,5.74,3.81,9.19,3.78l58.89-.28h55.91c4.52,0,6.77,5.44,3.58,8.64l-30.33,30.31-4.66,4.66c-10.25,10.25-2.99,27.76,11.5,27.76h0s30.14,0,30.14,0c8.98,0,16.26-7.28,16.26-16.26v-7.23c0-3.39,1.37-6.64,3.79-9.04l19.92-19.62c2.67-2.62,6.24-4.09,9.99-4.09h37.97c4.08,0,7.99-1.62,10.88-4.5l.17-.17c2.89-2.89,4.52-6.81,4.52-10.89V29.84c0-.82.55-1.61,1.43-1.84,1.28-.34,2.36.62,2.36,1.94v33.23c0,10.77-8.73,19.5-19.5,19.5h-36.81c-3.78,0-7.41,1.5-10.08,4.16l-18.26,18.27c-1.78,1.78-2.79,4.2-2.79,6.73v10.39c0,5.93,4.73,11.93,10.6,12.81,7.74,1.15,14.38-4.76,14.48-12.24.03-2.85,1.07-5.59,3.08-7.6l4.36-4.36c1.98-1.98,4.66-3.09,7.44-3.09h26.99c7.25.02,14.1-1.67,20.18-4.69,8.11-4.01,17.75-4.01,25.86,0,6.08,3.01,12.93,4.7,20.18,4.7h26.99c2.78-.01,5.46,1.1,7.44,3.08l4.36,4.36c2.01,2.01,3.05,4.75,3.08,7.6.1,7.48,6.74,13.4,14.48,12.24,5.87-.88,10.6-6.88,10.6-12.81v-10.39c0-2.52-1.01-4.95-2.79-6.73l-18.26-18.27c-2.67-2.67-6.3-4.16-10.08-4.16h-36.81c-10.77,0-19.5-8.73-19.5-19.5V29.94c0-1.32,1.08-2.29,2.36-1.94.88.24,1.43,1.03,1.43,1.84v33.35c0,4.08,1.62,8,4.52,10.89l.17.17c2.89,2.88,6.8,4.5,10.88,4.5h37.97c3.75,0,7.33,1.47,9.99,4.09l19.92,19.62c2.42,2.39,3.79,5.64,3.79,9.04v7.23c0,8.98,7.28,16.26,16.26,16.26h30.14s0,0,0,0c14.49,0,21.75-17.52,11.5-27.76l-4.66-4.66-30.33-30.31c-3.19-3.19-.94-8.64,3.58-8.64h55.91l58.89.28c3.45.03,6.76-1.34,9.19-3.78l9.16-9.15,2.47-2.47c.33-.34.8-.53,1.28-.53h.01c1.61,0,2.44,1.95,1.28,3.11-4.12,4.12-8.41,8.41-11.86,11.87-2.79,2.79-6.58,4.36-10.53,4.36h-53.05c-6.03,0-11.81,2.39-16.07,6.66l-.14.14c-4.29,4.29-6.7,10.1-6.7,16.16v32.17c.03,6.93,5.64,12.54,12.56,12.54,3.46,0,6.6-1.41,8.86-3.68,2.28-2.27,3.68-5.4,3.68-8.86v-22.83c0-3.69,2.99-6.68,6.68-6.68h38.42c10.28-10.26,23.87-23.86,35.91-35.9,6.6-6.6,1.91-17.89-7.44-17.87Z"/>
  </g>
</svg>