<?xml version="1.0" encoding="UTF-8"?>
<svg id="Layer_2" data-name="Layer 2" xmlns="http://www.w3.org/2000/svg" viewBox="0 0 613.98 130.95">
  <g id="_Слой_1" data-name="Слой 1">
    <g>
      <path d="M67.07.11s0,0,0,0H0v2.28h69.36c7.53,7.53,12.44,12.44,20.56,20.56h15.32L22.84,105.35v.17c-8.92-8.92-13.92-13.92-22.84-22.84v48.28h29.55L160.39.11h-93.32Z"/>
      <path d="M372.92.11s0,0,0,0h-64.79v-.11h-60.09l-46.01,46.01v82.88h-87.52c-7.54-7.54-12.44-12.44-20.56-20.56h-.2L179.14,22.95h.05v.14c8.92,8.92,13.92,13.92,22.84,22.84V.11h-32.36L38.83,130.95h186.04V55.47l32.63-32.63h27.78v.06c8.83,8.83,13.83,13.83,22.58,22.58h-35.71l-24.48,24.48v38.44l-.27.03-22.51,22.51h45.64l-.02-.03v-51.49l11.1-11.1h24.18v62.62h29.6L466.24.11h-93.32ZM328.69,105.35v.17c-8.14-8.14-13.04-13.04-20.61-20.61v-39.21s.03.03.05.05V2.4h67.07c7.53,7.53,12.44,12.44,20.56,20.56h15.32l-82.39,82.4Z"/>
      <path d="M553.89,0l-46.01,46.01v82.88h-87.52c-7.54-7.54-12.44-12.44-20.56-20.56h-.2l85.38-85.38h.05v.14c8.92,8.92,13.92,13.92,22.84,22.84V.11h-32.36l-130.84,130.84h186.04V55.47l32.63-32.63h27.78v.06c8.83,8.83,13.83,13.83,22.58,22.58h-35.71l-24.48,24.48v38.44l-.27.03-22.51,22.51h45.64l-.02-.03v-51.49l11.1-11.1h24.18v62.62h2.28V45.7s.03.03.05.05V0h-60.09Z"/>
    </g>
  </g>
</svg>