<?xml version="1.0" encoding="UTF-8"?>
<svg id="Layer_2" data-name="Layer 2" xmlns="http://www.w3.org/2000/svg" viewBox="0 0 641.25 173.97">
  <g id="_Слой_1" data-name="Слой 1">
    <g>
      <path d="M296.58,56.61h-6.59v86.62c-11.54-2.33-22.27-7.57-31.32-15.32v-32.27h-92.72c-25.82,0-50.58,10.28-68.81,28.58l-1.5,1.5c-13.01,13.06-30.69,20.4-49.13,20.4h-18.67V33.78H0v140.19h46.39c25.92,0,50.78-10.32,69.07-28.69l1.39-1.39c13.01-13.06,30.69-20.4,49.13-20.4h19.73c18.35,0,35.62,7.04,48.71,19.85,18.68,18.28,43.37,29.11,69.5,29.11h13.92v-94.59c0-11.74-9.52-21.26-21.26-21.26Z"/>
      <path d="M71.92,27.85c7.91,0,14.34,6.43,14.34,14.34,0,23.26,18.93,42.19,42.2,42.19h156.1v-27.85h-156.1c-7.91,0-14.35-6.43-14.35-14.34,0-5.04-.94-9.86-2.56-14.34h95.72c12.73,0,23.06,10.32,23.06,23.06h27.85c0-28.11-22.79-50.9-50.9-50.9H21.3C9.56,0,.04,9.52.04,21.26v6.59h71.89Z"/>
      <path d="M613.4,33.78v112.34h-18.67c-18.44,0-36.11-7.34-49.13-20.4l-1.5-1.5c-18.23-18.29-42.99-28.58-68.81-28.58h-92.72v32.27c-9.05,7.75-19.78,12.99-31.32,15.32V56.61h-6.59c-11.74,0-21.26,9.52-21.26,21.26v94.59h13.92c26.13,0,50.82-10.83,69.5-29.11,13.09-12.81,30.36-19.85,48.71-19.85h19.73c18.44,0,36.11,7.34,49.13,20.4l1.39,1.39c18.3,18.36,43.15,28.69,69.07,28.69h46.39V33.78h-27.85Z"/>
      <path d="M554.98,42.19c0-7.91,6.43-14.34,14.34-14.34h71.89v-6.59c0-11.74-9.52-21.26-21.26-21.26h-185.97c-28.11,0-50.9,22.79-50.9,50.9h27.85c0-12.73,10.32-23.06,23.06-23.06h95.72c-1.63,4.48-2.56,9.3-2.56,14.34,0,7.91-6.43,14.34-14.35,14.34h-156.1v27.85h156.1c23.27,0,42.2-18.93,42.2-42.19Z"/>
    </g>
  </g>
</svg>