<?xml version="1.0" encoding="UTF-8"?>
<svg id="Layer_2" data-name="Layer 2" xmlns="http://www.w3.org/2000/svg" viewBox="0 0 628.55 93.03">
  <g id="_Слой_1" data-name="Слой 1">
    <g>
      <path d="M309.12,45.62h-52.86c-1.67,0-3.03,1.36-3.03,3.03v17.4c0,.8-.32,1.57-.88,2.14l-4.05,4.08c-.57.57-1.34.89-2.15.89h-17.39c-.79,0-1.54.29-2.1.85-2.72,2.67-2.45,2.44-7.15,7.16-1.91,1.92-.53,5.17,2.17,5.16l53.09-.28c.8,0,1.56-.32,2.13-.89l34.37-34.37c1.91-1.91.56-5.17-2.14-5.17Z"/>
      <polygon points="91.12 50.92 91.08 50.92 91.08 50.96 91.12 50.92"/>
      <path d="M218.82,71.99l-20.88-20.92h-3.63l-22.2,22.2c-.56.56-1.32.88-2.12.88h-20.72c-.8,0-1.55-.32-2.15-.88l-21.44-21.44c-.56-.6-1.36-.92-2.15-.92h-31.16c-.8,0-1.55.32-2.15.92l-35.99,36.06c-1.9,1.9-.55,5.14,2.13,5.14h9.98c.79,0,1.55-.32,2.12-.88l19.77-19.77h27.42l19.7,19.74c.58.58,1.36.9,2.18.9h62.54c1.27,0,2.48-.5,3.38-1.4l15.38-15.38c1.2-1.2,1.2-3.11,0-4.26Z"/>
      <path d="M114.8,43.1c-3.06-3.05-.43-.43,0,0h0Z"/>
      <path d="M57.86,74.29l-22.44-22.47c-.57-.57-1.34-.89-2.15-.89h-11.47c-1.67,0-3.03-1.36-3.03-3.03v-10.6c0-.8.32-1.57.89-2.14l16.28-16.28c1.18-1.18,3.1-1.18,4.29,0l10.95,10.95c.56.57,1.33.88,2.13.89l47.95.08c.8,0,1.56.32,2.13.89l8.44,8.44c2.69,2.7,3.22,3.23,2.97,2.98.7.7,1.7,1.7,3.11,3.1,0,0,0,0,0,0h.01c.57.58,1.34.9,2.14.9h78.27c.8,0,1.58.32,2.14.89l20.26,20.3c.57.57,1.34.89,2.14.89h22.87c1.36-1.36,2.13-2.13,3.49-3.49v-17.41c0-.75-.28-1.46-.81-1.99-10.87-10.88-9.29-9.33-19.91-19.95-.55-.54-1.27-.83-2.04-.83h-60.06c-2.7,0-4.05,3.27-2.14,5.17l-.2-.21c1.32,1.32.38,3.56-1.48,3.56h-38.65l-3.01-3.01h0L90.81.89c-.57-.57-1.34-.89-2.14-.89H29.52c-.8,0-1.57.32-2.14.89L.05,28.22h.01s-.04.05-.06.07c0,0,.15,37.41,0,37.78l26.01,26.06c.58.58,1.37.9,2.19.89l14.19-.2c.79-.01,1.54-.33,2.1-.89l13.37-13.37c1.18-1.18,1.18-3.1,0-4.28Z"/>
      <path d="M401.88,74.01c-.57-.56-1.31-.85-2.1-.85h-17.39c-.81,0-1.58-.32-2.15-.89l-4.05-4.08c-.56-.57-.88-1.34-.88-2.14v-17.4c0-1.67-1.36-3.03-3.03-3.03h-52.86c-2.7,0-4.05,3.27-2.14,5.17l34.37,34.37c.57.57,1.33.88,2.13.89l53.09.28c2.7.01,4.08-3.24,2.17-5.16-4.7-4.72-4.44-4.49-7.15-7.16Z"/>
      <polygon points="537.42 50.92 537.46 50.96 537.46 50.92 537.42 50.92"/>
      <path d="M538.32,51.83c-.6-.6-1.36-.92-2.15-.92h-31.16c-.8,0-1.59.32-2.15.92l-21.44,21.44c-.6.56-1.36.88-2.15.88h-20.72c-.79,0-1.55-.32-2.12-.88l-22.2-22.2h-3.63l-20.88,20.92c-1.2,1.16-1.2,3.07,0,4.26l15.38,15.38c.9.9,2.11,1.4,3.38,1.4h62.54c.82,0,1.6-.32,2.18-.9l19.7-19.74h27.42l19.77,19.77c.56.56,1.32.88,2.12.88h9.98c2.68,0,4.03-3.24,2.13-5.14l-35.99-36.06Z"/>
      <path d="M513.72,43.12c.36-.35,3.15-3.14,0,0h0Z"/>
      <path d="M628.55,28.29s-.04-.04-.06-.06h.01s-27.33-27.34-27.33-27.34c-.57-.57-1.34-.89-2.14-.89h-59.15c-.8,0-1.57.32-2.14.89l-30.14,30.14h0l-3.01,3.01h-38.65c-1.86,0-2.79-2.25-1.48-3.56l-.2.21c1.91-1.91.56-5.17-2.14-5.17h-60.06c-.77,0-1.49.29-2.04.83-10.62,10.62-9.05,9.07-19.91,19.95-.53.53-.81,1.24-.81,1.99v17.41c1.36,1.36,2.13,2.13,3.49,3.49h22.87c.8,0,1.58-.32,2.14-.89l20.26-20.3c.57-.57,1.34-.89,2.14-.89h78.27c.8,0,1.58-.32,2.14-.89h.01s0-.01,0-.02c1.39-1.39,2.38-2.37,3.08-3.08-.19.19.39-.39,3-3l8.44-8.44c.57-.57,1.33-.88,2.13-.89l47.95-.08c.8,0,1.56-.32,2.13-.89l10.95-10.95c1.18-1.18,3.1-1.18,4.29,0l16.28,16.28c.57.57.89,1.34.89,2.14v10.6c0,1.67-1.36,3.03-3.03,3.03h-11.47c-.81,0-1.58.32-2.15.89l-22.44,22.47c-1.18,1.18-1.18,3.1,0,4.28l13.37,13.37c.56.56,1.31.88,2.1.89l14.19.2c.82.01,1.61-.31,2.19-.89l26.01-26.06c-.15-.37,0-37.78,0-37.78Z"/>
      <path d="M316.15,55.25c-1.03-1.04-2.67-1.04-3.7,0-5.07,5.09-19.29,19.29-26.61,26.61-1.66,1.66-.47,4.48,1.87,4.49l53.15.03c2.35,0,3.54-2.82,1.88-4.48-7.32-7.32-21.53-21.54-26.59-26.63Z"/>
    </g>
  </g>
</svg>