<?xml version="1.0" encoding="UTF-8"?>
<svg id="Layer_2" data-name="Layer 2" xmlns="http://www.w3.org/2000/svg" viewBox="0 0 592.84 87.81">
  <g id="_Слой_1" data-name="Слой 1">
    <g>
      <path d="M81.94,56.46v5.91c0,3.43-1.36,6.73-3.79,9.15l-9.12,9.12h93.92l-19.36-24.18h-61.66Z"/>
      <path d="M197.2,81.02l-44.89-25.57c-2.83-1.62-4.61-4.64-4.61-7.92,0-2.52,1.02-4.8,2.69-6.47,1.64-1.64,3.92-2.66,6.47-2.66h70.48L258.15,0h-41.92c-3.73,0-6.92,3-6.87,6.73.07,3.85-3.02,7.02-6.87,7.02h-66.72v2.38c0,7.61-6.16,13.79-13.79,13.79H38.08v19.68L0,87.67h58.63l17.45-17.45c2.22-2.22,3.47-5.24,3.47-8.38v-7.74h65.2l26.96,33.72h35.4c-18.63,0,1.9-.02,1.93-.05l-11.85-6.75,56.02-31.06v15.52c-7.17,7.17-13.36,13.36-22.2,22.2h42.22c8.59-8.59,13.41-13.41,22-21.99V0h-34.41l-63.62,81.01Z"/>
      <path d="M133.07,16.53v-2.77H13.79C6.17,13.76,0,19.93,0,27.55h0s122.05,0,122.05,0c6.09,0,11.02-4.94,11.02-11.02Z"/>
      <path d="M510.9,31.35v-5.91c0-3.43,1.36-6.73,3.79-9.15l9.12-9.12h-93.92l19.36,24.18h61.66Z"/>
      <path d="M459.77,71.29v2.77h119.28c7.62,0,13.79-6.17,13.79-13.79h-122.05c-6.09,0-11.02,4.94-11.02,11.02Z"/>
      <path d="M470.87,57.9h83.89v-19.68L592.84.14h-58.63l-17.45,17.45c-2.22,2.22-3.47,5.24-3.47,8.38v7.74h-65.2L421.13,0h-35.4c18.63,0-1.9.02-1.93.05l11.85,6.75-56.02,31.06v-15.52c7.17-7.17,13.36-13.36,22.2-22.2h-42.22c-8.59,8.59-13.41,13.41-21.99,21.99v65.67h34.41L395.64,6.8l44.89,25.57c2.83,1.62,4.61,4.64,4.61,7.92,0,2.52-1.02,4.8-2.69,6.47-1.64,1.64-3.92,2.66-6.47,2.66h-70.48l-30.82,38.4h41.92c3.73,0,6.92-3,6.87-6.73-.07-3.85,3.02-7.02,6.87-7.02h66.72v-2.38c0-7.61,6.16-13.79,13.79-13.79Z"/>
    </g>
  </g>
</svg>