<?xml version="1.0" encoding="UTF-8"?>
<svg id="Layer_2" data-name="Layer 2" xmlns="http://www.w3.org/2000/svg" viewBox="0 0 714.06 161.1">
  <g id="_Слой_1" data-name="Слой 1">
    <g>
      <polygon points="292.23 138.55 292.42 138.74 262.64 138.74 262.64 161.1 347.15 161.1 292.23 106.15 292.23 138.55"/>
      <path d="M182.99,46.79l-26.48,26.48h31.37s36.51-36.51,36.51-36.51L187.63,0h-31l24.42,24.42h-113.55,0c-12.13,0-19,0-31.18,0L0,60.74l36.57,36.57c12.25,0,19.12,0,31.37,0l-25.48-25.48h7.16l34.08,34.08v55.06h98.16v-54.56l-59.63-59.63h60.75ZM42.46,49.65l25.14-25.14,25.13,25.14h-50.27ZM181.84,138.79h-75.96v-42.07l-24.89-24.89h33.92l66.94,66.96Z"/>
      <path d="M323.87.1v-.1h-129.38l54.92,54.95V22.55l-.19-.19h47.83l-110.48,110.48v28.15l3.24-.02,6.56-6.56L350.68.1h-26.81Z"/>
      <polygon points="421.83 138.55 421.83 106.15 366.91 161.1 451.42 161.1 451.42 138.74 421.64 138.74 421.83 138.55"/>
      <path d="M677.74,24.42c-12.19,0-19.05,0-31.18,0h0s-113.55,0-113.55,0l24.42-24.42h-31l-36.76,36.76,36.51,36.51h31.37s-26.48-26.48-26.48-26.48h60.75l-59.63,59.63v54.56h98.16v-55.06l34.08-34.08h7.16l-25.48,25.48c12.25,0,19.12,0,31.37,0l36.57-36.57-36.32-36.32ZM608.18,96.73v42.07h-75.96l66.94-66.96h33.92l-24.89,24.89ZM621.34,49.65l25.13-25.14,25.14,25.14h-50.27Z"/>
      <path d="M464.85,22.36l-.19.19v32.4L519.57,0h-129.38v.1h-26.81l154.31,154.32,6.56,6.56,3.24.02v-28.15l-110.48-110.48h47.83Z"/>
      <path d="M495.27,138.81h-17.06v-17.64l-102.97-102.97L357.03,0l-18.2,18.2-102.97,102.97v17.64h-17.06c-8.66,8.66-13.52,13.52-22.18,22.18h61.43v-30.63l98.99-98.99,98.99,98.99v30.63h61.43c-8.66-8.66-13.52-13.52-22.18-22.18Z"/>
    </g>
  </g>
</svg>