<?xml version="1.0" encoding="UTF-8"?>
<svg id="Layer_2" data-name="Layer 2" xmlns="http://www.w3.org/2000/svg" viewBox="0 0 600.77 100.05">
  <g id="_Слой_1" data-name="Слой 1">
    <path d="M594.7,64.88l-16.67-16.67-13.73-13.73c-.94-.94-2.22-1.47-3.55-1.47h-8.73c-3.09,0-6.06-1.23-8.25-3.41l-5.83-5.81c-2.19-2.18-5.15-3.41-8.25-3.41h-94.21c-4.39,0-8.55,2.34-10.8,6.32-5.66,9.99-.35,18.47,11.13,18.47h20.41c1.37,0,2.48,1.11,2.48,2.48h0c0,1.37-1.11,2.48-2.48,2.48h-56.32c-2.32,0-3.48-2.81-1.84-4.45l3.41-3.41C417.09,26.64,406-.06,383.9,0c-6.65.02-13,2.83-17.71,7.53l-19.22,19.18-22.67,22.62c-.5.5-1.17.82-1.87.8-2.18-.03-3.25-2.67-1.71-4.22l15.07-15.09c3.77-3.77,1.1-10.21-4.23-10.21h-28.03c-1.07,0-2.12.08-3.14.22-1.03-.14-2.08-.22-3.14-.22h-28.03c-5.33,0-8,6.44-4.23,10.21l14.96,14.98c1.39,1.39.78,3.88-1.15,4.28-.83.17-1.66-.09-2.24-.67l-22.75-22.7-19.22-19.18C229.87,2.83,223.53.02,216.87,0c-22.1-.06-33.19,26.64-17.58,42.25l3.41,3.41c1.64,1.64.48,4.45-1.84,4.45h-56.32c-1.37,0-2.48-1.11-2.48-2.48h0c0-1.37,1.11-2.48,2.48-2.48h20.38c9.49,0,15.84-10.24,11.15-18.49-2.26-3.97-6.4-6.29-10.79-6.29h-94.21c-3.09,0-6.06,1.23-8.25,3.41l-5.83,5.81c-2.19,2.18-5.15,3.41-8.25,3.41h-8.73c-1.33,0-2.61.53-3.55,1.47l-13.73,13.73-16.67,16.67c-12.98,12.98-3.79,35.17,14.57,35.17h13.09c4.73,0,9.27-1.87,12.62-5.21l32.6-32.4c4.56-4.51,1.36-12.28-5.05-12.28h-11.87c-2.47,0-3.6-1.83-2.24-3.88.47-.71,1.26-1.12,2.09-1.12h12.18c10.65,0,15.98,12.87,8.45,20.4h0c-12.58,12.58-3.65,34.08,14.13,34.06l106.47-.13c2.53,0,4.43-2.1,4.48-4.64.05-2.46,2.06-4.44,4.54-4.44h39.97s.08,0,.13,0c.07,0,.13,0,.2,0,3.16,0,6.19-1.24,8.44-3.46l21.72-21.38h14.65c1.07,0,2.12-.08,3.14-.22,1.03.14,2.08.22,3.14.22h14.65l21.72,21.38c2.25,2.22,5.28,3.46,8.44,3.46.07,0,.13,0,.2,0,.04,0,.08,0,.13,0h39.97c2.47,0,4.49,1.98,4.54,4.44.05,2.53,1.95,4.63,4.48,4.64l106.47.13c17.79.02,26.71-21.48,14.13-34.06h0c-7.53-7.53-2.2-20.4,8.45-20.4h12.18c.83,0,1.62.41,2.09,1.12,1.36,2.06.23,3.88-2.24,3.88h-11.87c-6.41,0-9.61,7.77-5.05,12.28l32.6,32.4c3.35,3.33,7.89,5.21,12.62,5.21h13.09c18.36,0,27.55-22.19,14.57-35.17Z"/>
  </g>
</svg>