<?xml version="1.0" encoding="UTF-8"?>
<svg id="Layer_2" data-name="Layer 2" xmlns="http://www.w3.org/2000/svg" viewBox="0 0 770.24 114.66">
  <g id="_Слой_1" data-name="Слой 1">
    <path d="M720.69,0H0v6.1h0l.05,35.75h27.92l72.23,72.23c23.11,0,36.07,0,59.18,0h0L51.41,6.1h8.43l108.03,108.03h75.56l34.32-34.37V6.1h5.98v58.05h48.36l19.79,19.79v11.9l-18.83,18.83h18.95l42.27-.24v-21.4h.06v-44.92h-6.1v13.06l-38.8-38.86h-40.65l-16.2-16.2h8.43l10.22,10.22h40.65l25.53,25.53h26.48l72.23,72.23c23.11,0,36.07,0,59.18,0h0L427.32,6.1h8.43l108.03,108.03h75.56l34.32-34.37V6.1h5.98v58.05h48.36l19.79,19.79v11.9l-18.83,18.83h18.95l42.27-.24v-21.4h.06v-43.48c-19.35-19.35-30.2-30.2-49.55-49.55ZM271.65,27.08l-23.26,23.26-.24-.18-22.06,22.12h-43.28L116.63,6.1h155.02v20.98ZM647.56,27.08l-23.26,23.26-.24-.18-22.06,22.12h-43.28L492.55,6.1h155.02v20.98ZM764.14,61.16l-38.8-38.86h-40.65l-16.2-16.2h49.37c18.08,18.08,28.21,28.21,46.29,46.29v8.77Z"/>
  </g>
</svg>