<?xml version="1.0" encoding="UTF-8"?>
<svg id="Layer_2" data-name="Layer 2" xmlns="http://www.w3.org/2000/svg" viewBox="0 0 689.48 127.27">
  <g id="_Слой_1" data-name="Слой 1">
    <g>
      <path d="M42.15.1l-.1-.1C25.63,0,16.42,0,0,0l26.79,26.79v10.74c11.61,11.61,18.13,18.13,29.74,29.74V14.47l-11.4-11.4h59.95l-45.54,43.92v56.59l23.64,23.64h42.05s-35.96-35.96-35.96-35.96v-31.96L147.15,3.07h151.07l-39.39,39.38h-6.33l-16.8-16.8-21.03,21.03,25.51,25.51h30.97L343.25.08h-.47s-300.62.01-300.62.01Z"/>
      <path d="M231.25,25.76h-42.05l-59.46,59.46-13.58-13.58c0,16.42,0,25.63,0,42.06l13.58,13.58L231.25,25.76h0Z"/>
      <path d="M272.5,75.17h-29.39l13.17,13.17v25.95l9.38-9.38h19.16l58.18-58.18V4.67l-2.95,2.95-67.56,67.55Z"/>
      <polygon points="191.46 69.87 183.36 77.97 199.55 77.97 222.92 101.34 222.92 112.28 208 127.2 222.92 127.2 222.92 127.23 252.66 127.23 252.66 89.02 212.48 48.84 191.46 69.87"/>
      <path d="M647.42,0l-.1.1h-301.1s72.11,72.1,72.11,72.1h30.97l25.51-25.51-21.03-21.03-16.8,16.8h-6.33L391.27,3.07h151.07l57.87,56.24v31.96l-35.96,35.96h42.05s23.64-23.64,23.64-23.64v-56.59l-45.54-43.92h59.95l-11.4,11.4v52.8c11.61-11.61,18.13-18.13,29.74-29.74v-10.74L689.48,0c-16.42,0-25.63,0-42.06,0Z"/>
      <path d="M573.32,71.63l-13.58,13.58-59.46-59.46h-42.05s101.51,101.51,101.51,101.51l13.58-13.58c0-16.42,0-25.63,0-42.06Z"/>
      <polygon points="477 48.84 436.82 89.02 436.82 127.23 466.56 127.23 466.56 127.2 481.48 127.2 466.56 112.28 466.56 101.34 489.93 77.97 506.12 77.97 498.02 69.87 477 48.84"/>
      <path d="M446.48,75.17h-29.5L349.42,7.62l-2.95-2.95v42.05l58.18,58.18h19.16l9.38,9.38v-25.84l13.28-13.28Z"/>
    </g>
  </g>
</svg>