<?xml version="1.0" encoding="UTF-8"?>
<svg id="Layer_2" data-name="Layer 2" xmlns="http://www.w3.org/2000/svg" viewBox="0 0 826.01 132.31">
  <g id="_Слой_1" data-name="Слой 1">
    <g>
      <g>
        <path d="M334.94,110.8v-10.36l-30.18-30.18h-49.3l-12.13,12.13,7.31,7.31h46.07l18.79,18.79v10.36l13.46,13.46h41.33v-19.44h-33.27l-2.08-2.08Z"/>
        <path d="M410.95,11.77v-.05h-210.09l-11.72-11.72h-23.95l-15.41,15.41,13.75,13.75,9.72-9.72h7.85l46.27,46.16,17.45.07,5.04-4.95-12.39-12.39-21.02-21.02c2.62-6.34,2.82-6.8,5.44-13.14h61.63c2.62,6.34,2.82,6.8,5.44,13.14l-42.33,42.33h-48.02l-57.74-57.74-93.55-.11-13.6,13.6h0s-15.69,15.69-15.69,15.69h0S0,59.09,0,59.09l30.42,30.42h72.75l41.11-41.11-13.75-13.75-35.42,35.42h-56.65l-11.86-11.86v-22.08l4.81-4.81h101.38l57.74,57.74h40.3l57.74-57.74h63.48v27.24l-11.82,11.82-29.52.08,19.36,19.36h18.21l23.21-23.21V31.33h.05l17.17-17.17h2.78v81.62c-6.68,6.68-10.42,10.42-17.1,17.1h0v19.44h8.97c10.77-10.77,16.8-16.8,27.57-27.57V11.77h0Z"/>
      </g>
      <g>
        <path d="M491.06,110.8v-10.36s30.18-30.18,30.18-30.18h49.3s12.13,12.13,12.13,12.13l-7.31,7.31h-46.07s-18.79,18.79-18.79,18.79v10.36s-13.46,13.46-13.46,13.46c0,0-20.52,0-33.28,0-.56,0-1.1,0-1.61,0-3.88,0-6.44,0-6.44,0v-19.44h33.27s2.08-2.08,2.08-2.08Z"/>
        <path d="M415.06,11.77v-.05h210.09S636.87,0,636.87,0h23.95s15.41,15.41,15.41,15.41l-13.75,13.75-9.72-9.72h-7.85s-46.27,46.16-46.27,46.16l-17.45.07-5.04-4.95,12.39-12.39,21.02-21.02c-2.62-6.34-2.82-6.8-5.44-13.14h-61.63c-2.62,6.34-2.82,6.8-5.44,13.14l42.33,42.33h48.02s57.74-57.74,57.74-57.74l93.55-.11,13.6,13.6h0s15.69,15.69,15.69,15.69h0s18.02,18.02,18.02,18.02l-30.42,30.42h-72.75s-41.11-41.11-41.11-41.11l13.75-13.75,35.42,35.42h56.65s11.86-11.86,11.86-11.86c0-8.63,0-13.5,0-22.08l-4.81-4.81h-101.38s-57.74,57.74-57.74,57.74h-40.3s-57.74-57.74-57.74-57.74h-63.48s0,27.24,0,27.24l11.82,11.82,29.52.08-19.36,19.36h-18.21s-23.21-23.21-23.21-23.21V31.33s-.05,0-.05,0l-17.17-17.17h-2.78s0,81.62,0,81.62c6.68,6.68,10.42,10.42,17.1,17.1h0v19.44h-8.97c-10.77-10.77-16.8-16.8-27.57-27.57V11.77h0Z"/>
      </g>
    </g>
  </g>
</svg>