<?xml version="1.0" encoding="UTF-8"?>
<svg id="Layer_2" data-name="Layer 2" xmlns="http://www.w3.org/2000/svg" viewBox="0 0 628.44 125.55">
  <g id="_Слой_1" data-name="Слой 1">
    <g>
      <path d="M503.71,37.42v-.09h-32.32L434.06,0h-104.12l-15.72,15.72-15.72-15.72h-104.12l-37.33,37.33h-32.13v.09h-.3L36.48,125.55h25.84l69.95-69.95h6.5l-69.59,69.59h25.85l69.59-69.59h38.74c8.58,0,12.52,6.32,8.19,13.73-1.68,2.88-4.71,4.56-7.91,4.56h-50.76l-18.27,18.27h54.55l-33.39,33.39h25.85l59.69-59.7c3.57-3.57,9.36-3.57,15.94,3l21.46,21.47,9.54,9.44c14.4,14.25,37.59,14.27,52.02.05h0s33.95-33.96,33.95-33.96c3.57-3.57,9.36-3.57,12.94,0l59.69,59.7h25.85l-33.39-33.39h54.55l-18.27-18.27h-50.76c-2.43,0-4.75-.96-6.47-2.68h0c-5.76-5.76-1.68-15.61,6.47-15.61h39.02l69.59,69.59h25.85l-69.59-69.59h6.5l69.95,69.95h25.84l-88.13-88.13h-.11ZM254.27,40.05c-1.71-1.71-4.04-2.68-6.46-2.68l-51.46-.03h0s-13.47,0-13.47,0l19.07-19.06h88.98l13.98,13.98v43.09c0,5.66-6.85,8.5-10.85,4.49l-39.79-39.79ZM432.28,37.33h0s-51.65.04-51.65.04c-2.42,0-4.75.97-6.46,2.68l-39.79,39.79c-4,4-10.85,1.17-10.85-4.49v-43.09l13.98-13.98h88.98l19.07,19.06h-13.28Z"/>
      <path d="M602.61,73.89h-55.84c7.14,7.14,11.14,11.14,18.27,18.27h37.57c4.17,0,7.55,3.38,7.55,7.55s-3.38,7.55-7.55,7.55h-22.44c7.14,7.14,11.14,11.14,18.27,18.27h4.16c14.26,0,25.83-11.56,25.83-25.83s-11.56-25.83-25.83-25.83Z"/>
      <path d="M48.26,107.28h0s-22.44,0-22.44,0c-4.17,0-7.55-3.38-7.55-7.55s3.38-7.55,7.55-7.55h37.57c7.14-7.14,11.14-11.14,18.27-18.27H25.83c-14.26,0-25.83,11.56-25.83,25.83s11.56,25.83,25.83,25.83h4.16c7.14-7.14,11.14-11.14,18.27-18.27Z"/>
    </g>
  </g>
</svg>