<?xml version="1.0" encoding="UTF-8"?>
<svg id="Layer_2" data-name="Layer 2" xmlns="http://www.w3.org/2000/svg" viewBox="0 0 515.55 171.28">
  <g id="_Слой_1" data-name="Слой 1">
    <g>
      <g>
        <path d="M222.92,31.54L192.8,1.42v29.85c-5.06,5.06-7.9,7.9-12.96,12.96h-12.69c-17.19,17.19-26.82,26.82-44.01,44.01v12.76h9.38c7.79-7.79,12.15-12.15,19.94-19.94l6.71-6.72h42.45l26.59,26.59h26.84v-15.75l-32.13-32.13v-21.51Z"/>
        <path d="M118.89,101.01v-13.22c-7.15-7.15-13.33-13.35-20.49-20.49h-10.1l-34,33.98v69.99c11.76-11.76,19.88-19.88,31.65-31.65v-27.39l11.23-11.23h21.71Z"/>
        <path d="M99.03,105.37l-8.52,8.74v21.37h109.45v-14.57c-6.06-6.08-9.46-9.48-15.52-15.54h-85.41Z"/>
        <path d="M86.25,63.05h14.17c7.15-7.15,11.82-11.81,18.96-18.96l.11-13.04L88.44,0h-22.92s0,0,0,0c-2.6,0-5.14,0-7.52,0L0,58v16.84s12.88,12.88,12.88,12.88l57.59-57.59h3.13l12.64,12.64v7.39h-29.68L5.35,101.36v23.86c17.39,17.39,27.14,27.14,44.53,44.53h0v-70.33l36.37-36.37Z"/>
        <path d="M123.81,45.57l-17.71,17.71h17.71c2.42,2.42,3.78,3.78,6.21,6.21h5.6c7.15-7.15,11.17-11.15,18.31-18.31V15.44L138.49,0h-44.15l29.46,29.12v16.44Z"/>
      </g>
      <g>
        <path d="M292.63,31.54l30.12-30.12v29.85c5.06,5.06,7.9,7.9,12.96,12.96h12.69c17.19,17.19,26.82,26.82,44.01,44.01v12.76h-9.38c-7.79-7.79-12.15-12.15-19.94-19.94l-6.71-6.72h-42.45s-26.59,26.59-26.59,26.59h-26.84v-15.75s32.13-32.13,32.13-32.13v-21.51Z"/>
        <path d="M396.67,101.01v-13.22c7.15-7.15,13.33-13.35,20.49-20.49h10.1s34,33.98,34,33.98v69.99c-11.76-11.76-19.88-19.88-31.65-31.65v-27.39s-11.23-11.23-11.23-11.23h-21.71Z"/>
        <path d="M416.52,105.37l8.52,8.74v21.37h-109.45v-14.57c6.06-6.08,9.46-9.48,15.52-15.54h85.41Z"/>
        <path d="M429.31,63.05h-14.17c-7.15-7.15-11.82-11.81-18.96-18.96l-.11-13.04L427.11,0h3.49s17.15,0,17.15,0h2.27s0,0,0,0C452.63,0,455.17,0,457.55,0l58,58v16.84s-12.88,12.88-12.88,12.88l-57.59-57.59h-3.13s-12.64,12.64-12.64,12.64v7.39s29.68,0,29.68,0l51.21,51.21v3.3s0,20.56,0,20.56c-17.39,17.39-27.14,27.14-44.53,44.53h0v-70.33s-36.37-36.37-36.37-36.37Z"/>
        <path d="M391.74,45.57l17.71,17.71h-17.71c-2.42,2.42-3.78,3.78-6.21,6.21h-5.6c-7.15-7.15-11.17-11.15-18.31-18.31V15.44S377.06,0,377.06,0h44.15s-29.46,29.12-29.46,29.12v16.44Z"/>
      </g>
    </g>
  </g>
</svg>