<?xml version="1.0" encoding="UTF-8"?>
<svg id="Layer_2" data-name="Layer 2" xmlns="http://www.w3.org/2000/svg" viewBox="0 0 448.83 151.06">
  <g id="_Слой_1" data-name="Слой 1">
    <g>
      <path d="M187.97,62.21h8.52v7.31l-60.51,60.51-8.84-8.84,57.11-57.11v-27.93h-6.66l-23.02-23.02h0s-13.13-13.13-13.13-13.13H53.89c-9.41,9.41-14.69,14.69-24.1,24.1v51.55l48.28,48.28h46.33l.11-.11,23.51,23.51H26.06V27.67c-10.18,10.18-15.89,15.89-26.06,26.06v83.61c5.35,5.35,8.35,8.35,13.71,13.71h138.19v-.08l70.66-70.66v-44.17h-34.58v26.06ZM65.93,26.06h96.31l10.08,10.08H55.85c6.66-6.66,3.42-3.42,10.08-10.08ZM113.6,97.87h-24.74l-33.01-33.01v-24.99h91.49l10.84,10.84v2.58l-44.58,44.58Z"/>
      <path d="M422.76,27.67v119.66h-121.95l23.51-23.51.11.11h46.33l48.28-48.28V24.1c-9.41-9.41-14.69-14.69-24.1-24.1h-87.55l-13.13,13.13h0s-23.02,23.01-23.02,23.01h-6.66v27.93l57.11,57.11-8.84,8.84-60.51-60.51v-7.31h8.52v-26.06h-34.58v44.17l70.66,70.66v.08h138.19c5.35-5.35,8.35-8.35,13.71-13.71V53.74c-10.18-10.18-15.88-15.88-26.06-26.06ZM276.5,36.15l10.08-10.08h96.31c6.66,6.66,3.42,3.42,10.08,10.08h-116.47ZM290.65,53.28v-2.58l10.84-10.84h91.49v24.99l-33.01,33.01h-24.74l-44.58-44.58Z"/>
    </g>
  </g>
</svg>