<?xml version="1.0" encoding="UTF-8"?>
<svg id="Layer_2" data-name="Layer 2" xmlns="http://www.w3.org/2000/svg" viewBox="0 0 552.55 111.62">
  <g id="_Слой_1" data-name="Слой 1">
    <g>
      <path d="M424.33,85.92h-22.24l-31.13-31.13h25.62c8.05,0,12.56,0,20.61,0l7.87-7.87-17.83-17.83h-98.3l82.53,82.53h43.53l14.79-14.79-18.17-18.17-7.27,7.26Z"/>
      <path d="M292.03,29.09c-10.04,10.04-15.66,15.66-25.7,25.7h24.44l31.37,31.37c14.19,0,22.15,0,36.34,0l-57.06-57.06h-9.39Z"/>
      <polygon points="519.81 28.98 490.83 0 435.3 0 410.45 24.85 428.62 43.02 445.95 25.7 480.18 25.7 509.16 54.68 552.55 54.68 552.55 28.98 519.81 28.98"/>
      <polygon points="179.76 25.7 214.01 25.7 242.97 54.69 259.16 54.69 284.86 28.99 253.64 28.99 224.65 0 169.12 0 144.27 24.85 162.44 43.02 179.76 25.7"/>
      <path d="M486.42,89.77l-14.69-14.69,18.17-18.17h-36.34l-5.84,5.84.02.02-12.33,12.33,32.84,32.84-3.68,3.68h36.34s41.6-41.48,51.64-51.51h-36.46l-29.67,29.67Z"/>
      <path d="M158,85.92h-22.24l-31.13-31.13h25.62c8.05,0,12.56,0,20.61,0l7.87-7.87-17.83-17.83H42.59l82.53,82.53h43.53l14.79-14.79-18.17-18.17-7.27,7.26Z"/>
      <path d="M25.7,29.09c-10.04,10.04-15.66,15.66-25.7,25.7h24.44l31.37,31.37c14.19,0,22.15,0,36.34,0L35.09,29.09h-9.39Z"/>
      <path d="M249.75,60.1l-29.67,29.67-14.69-14.69,18.17-18.17h-36.34l-5.84,5.84.02.02-12.33,12.33,32.84,32.84-3.68,3.68h36.34l25.68-25.68h53.83l-25.83-25.83h-38.5Z"/>
    </g>
  </g>
</svg>