<?xml version="1.0" encoding="UTF-8"?>
<svg id="Layer_2" data-name="Layer 2" xmlns="http://www.w3.org/2000/svg" viewBox="0 0 483.34 176.59">
  <g id="_Слой_1" data-name="Слой 1">
    <g>
      <g>
        <path d="M26.64,34.92v121.02h120.98l-51.76-51.53-12.07,12.07,23.57,22.76h-51.34l37.34-37.34-12.07-12.06-37.61,37.61V51.99c-6.66-6.66-10.4-10.4-17.06-17.06Z"/>
        <path d="M237.34,137.95h-49.69l-72.91-72.91c0-1.9,0-5.09,0-6.99L166.5,5.87,164.05,0H5.81c-1.17,2.84-2.25,3.04-3.43,5.88l150.05,150.05c9.42,0,14.71,0,24.13,0L43.57,22.94c1.17-2.84,1.26-3.04,2.44-5.88h76.58c1.18,2.82,1.27,3.04,2.45,5.86l-34.53,35.06c0,1.89.01,5.09.02,6.98l90.76,90.76h41.49l.02,3.81H13.56c-5.41,5.41-8.88,8.88-13.56,13.56.7,1.69.75,1.81,1.44,3.5h236.08c.95-.95,1.47-1.48,2.42-2.43l-.19-33.8c-.94-.94-1.48-1.47-2.42-2.41Z"/>
        <path d="M199.27,52.52v-30.58c-1.34-1.35-2.1-2.1-3.44-3.44h-36.42l-42.52,42.52c0,1.9,0-.58,0,1.33l71.9,71.9c9.42,0,14.71,0,24.13,0l-71.19-71.19c0-1.9,0-.84,0-2.74l24.75-24.75h12.29c1.35,1.35,2.1,2.1,3.44,3.44v30.58c1.35,1.35,2.1,2.1,3.44,3.44h54.29v-17.06h-37.23c-1.35-1.35-2.1-2.1-3.44-3.44Z"/>
      </g>
      <g>
        <path d="M456.71,34.92v.57s0,120.46,0,120.46h-8.53s-3.8,0-3.8,0h-108.65s51.76-51.53,51.76-51.53l12.07,12.07-23.57,22.76h51.34s-37.34-37.34-37.34-37.34l12.07-12.06,37.61,37.61V51.99c6.66-6.66,10.4-10.4,17.06-17.06Z"/>
        <path d="M246,137.95h49.69s72.91-72.91,72.91-72.91c0-1.9,0-5.09,0-6.99l-51.77-52.18c1.18-2.83,1.27-3.04,2.45-5.87h158.25c1.17,2.84,2.25,3.04,3.43,5.88l-150.05,150.05c-9.42,0-14.71,0-24.13,0L439.77,22.94c-1.17-2.84-1.26-3.04-2.44-5.88h-76.58c-1.18,2.82-1.27,3.04-2.45,5.86l34.53,35.06c0,1.89-.01,5.09-.02,6.98l-90.76,90.76h-41.49s-.02,3.81-.02,3.81h209.24c5.41,5.41,8.88,8.88,13.56,13.56-.7,1.69-.75,1.81-1.44,3.5h-236.08c-.95-.95-1.47-1.48-2.42-2.43l.19-33.8c.94-.94,1.48-1.47,2.42-2.41Z"/>
        <path d="M284.07,52.52v-30.58c1.34-1.35,2.1-2.1,3.44-3.44h36.42s42.52,42.52,42.52,42.52c0,1.9,0-.58,0,1.33l-71.9,71.9c-9.42,0-14.71,0-24.13,0l71.19-71.19c0-1.9,0-.84,0-2.74l-24.75-24.75h-12.29c-1.35,1.35-2.1,2.1-3.44,3.44v30.58c-1.35,1.35-2.1,2.1-3.44,3.44h-54.29v-17.06h37.23c1.35-1.35,2.1-2.1,3.44-3.44Z"/>
      </g>
    </g>
  </g>
</svg>