<?xml version="1.0" encoding="UTF-8"?>
<svg id="Layer_2" data-name="Layer 2" xmlns="http://www.w3.org/2000/svg" viewBox="0 0 603.81 93.93">
  <g id="_Слой_1" data-name="Слой 1">
    <g>
      <polygon points="97.38 54.2 97.34 54.2 97.34 54.24 97.38 54.2"/>
      <path d="M329.79,48.68h-56.4c-1.07,0-2.04.54-2.61,1.36,6.04,6.08,11.9,11.94,16.66,16.73,1.22,1.11,1.93,2.82,1.93,4.61v20.05l-1,1.04c-.39.43-.79.79-1.11,1.14h4.11c.86,0,1.64-.32,2.25-.93l38.46-38.46c2.04-2.04.61-5.54-2.29-5.54Z"/>
      <polygon points="97.21 54.35 97.16 54.35 97.16 54.39 97.21 54.35"/>
      <path d="M133.92,55.15c-.57-.54-1.36-.82-2.14-.82h-33.24c-.86,0-1.64.36-2.29.97l-24.58,24.66h-9.5c-.14-.23-.25-.48-.45-.68l-23.98-24.02c-.61-.57-1.39-.93-2.25-.93h-12.26c-1.78,0-3.22-1.44-3.22-3.22v-11.33c0-.86.36-1.68.93-2.29l17.41-17.37c1.25-1.25,3.29-1.25,4.58,0l11.69,11.69c.57.61,1.39.97,2.25.97l34.03.07c.82,0,1.64.36,2.25.97l9.01,9.01c2.18,2.14,3.04,3,3.22,3.18.75.79,1.82,1.82,3.29,3.29v.04c.61.61,1.43.93,2.29.93h15.22c1.06,0,1.59-1.28.84-2.02l-11.92-11.91-28.2-28.2-7.18-7.18c-.61-.57-1.43-.93-2.25-.93H31.52c-.87,0-1.7.34-2.32.96L.04,30.09v.04s-.04.04-.04.07c0,0,.14,39.92,0,40.32l21.44,21.52c1.18,1.18,2.79,1.86,4.5,1.86h50.19v-.07h.1c.82,0,1.64-.32,2.25-.93l15.62-15.66h29.27l15.65,15.69c.61.64,1.43,1,2.32,1h27.33c1.48,0,2.23-1.79,1.18-2.84l-35.94-35.94Z"/>
      <path d="M133.58,49.76c.31.31.74.49,1.18.49h48.97c1.49,0,2.23-1.8,1.18-2.84l-10.66-10.64c-.31-.31-.72-.49-1.16-.49-4.9.03-35.07.03-35.14.03h-13.79c-1.48,0-2.23,1.79-1.18,2.84l10.61,10.61Z"/>
      <path d="M243.83,28.09c-.61-.57-1.36-.89-2.18-.89h-64.08c-2.79,0-4.22,3.25-2.5,5.33l17.38,17.38c.22.22.52.35.84.35h18.31c.86,0,1.64.36,2.25.93l22.57,22.59h-74.79c-1.47,0-2.22,1.79-1.14,2.86l16.8,16.8c.32.32.76.5,1.21.5h40.32c.36,0,.71-.04,1.04-.11l50.33-.09s.07-.03.11-.03h11.81c1.47-1.47,2.29-2.25,3.72-3.72v-18.62c0-.75-.32-1.54-.89-2.07-11.54-11.62-29.75-29.86-41.08-41.19Z"/>
      <polygon points="506.43 39.73 506.47 39.73 506.47 39.69 506.43 39.73"/>
      <path d="M314.44,22.55V2.5l1-1.04c.39-.43.79-.79,1.11-1.14h-4.11c-.86,0-1.64.32-2.25.93l-38.46,38.46c-2.04,2.04-.61,5.54,2.29,5.54h56.4c1.07,0,2.04-.54,2.61-1.36-6.04-6.08-11.9-11.94-16.66-16.73-1.21-1.11-1.93-2.82-1.93-4.61Z"/>
      <polygon points="506.6 39.58 506.65 39.58 506.65 39.54 506.6 39.58"/>
      <path d="M603.81,23.41l-21.44-21.52c-1.18-1.18-2.79-1.86-4.5-1.86h-50.19v.07h-.1c-.82,0-1.64.32-2.25.93l-15.62,15.66h-29.27l-15.65-15.69c-.61-.64-1.43-1-2.32-1h-27.32c-1.48,0-2.23,1.79-1.18,2.84l35.94,35.94c.57.54,1.36.82,2.14.82h33.24c.86,0,1.64-.36,2.29-.97l24.58-24.66h9.5c.13.23.25.48.45.68l23.98,24.02c.61.57,1.39.93,2.25.93h12.26c1.78,0,3.22,1.44,3.22,3.22v11.33c0,.86-.36,1.68-.93,2.29l-17.41,17.37c-1.25,1.25-3.29,1.25-4.57,0l-11.69-11.69c-.57-.61-1.39-.97-2.25-.97l-34.03-.07c-.82,0-1.64-.36-2.25-.97l-9.01-9.01c-2.18-2.14-3.04-3-3.22-3.18-.75-.79-1.82-1.82-3.29-3.29v-.04c-.61-.61-1.43-.93-2.29-.93h-15.22c-1.06,0-1.59,1.28-.84,2.02l11.92,11.91,28.2,28.2,7.18,7.18c.61.57,1.43.93,2.25.93h45.93c.87,0,1.7-.34,2.32-.96l29.17-29.14v-.04s.03-.04.03-.07c0,0-.14-39.92,0-40.32Z"/>
      <path d="M470.23,44.16c-.31-.31-.74-.49-1.18-.49h-48.96c-1.49,0-2.23,1.8-1.18,2.84l10.66,10.64c.31.31.72.49,1.16.49,4.9-.03,35.07-.03,35.14-.03h13.79c1.49,0,2.23-1.79,1.18-2.84l-10.61-10.61Z"/>
      <path d="M411.37,44.02c-.22-.22-.52-.35-.84-.35h-18.31c-.86,0-1.64-.36-2.25-.93l-22.57-22.59h74.79c1.46,0,2.21-1.79,1.14-2.86L426.53.5c-.32-.32-.76-.5-1.21-.5h-40.32c-.36,0-.72.04-1.04.11l-50.33.09s-.07.03-.1.03h-11.81c-1.47,1.47-2.29,2.25-3.72,3.72v18.62c0,.75.32,1.54.89,2.07,11.54,11.62,29.75,29.86,41.08,41.19.61.57,1.36.89,2.18.89h64.09c2.79,0,4.22-3.25,2.5-5.33l-17.38-17.38Z"/>
    </g>
  </g>
</svg>