<?xml version="1.0" encoding="UTF-8"?>
<svg id="Layer_2" data-name="Layer 2" xmlns="http://www.w3.org/2000/svg" viewBox="0 0 498.12 103.01">
  <g id="_Слой_1" data-name="Слой 1">
    <path d="M489.71,30.87h-11.81c-3.66,0-6.78,2.93-6.72,6.6.07,3.76-2.96,6.83-6.7,6.84-3.22,0-6.39,0-6.47,0h-11.26l-12.46-12.47c-3.27-3.27-3.09-8.46.12-11.8,3.11-3.23,3.07-8.38-.12-11.56l-3.66-3.65c-6.46-6.45-16.92-6.45-23.37,0l-14.19,14.19c-1.83,1.83-3.35,3.91-4.53,6.15-2.58,4.9-9.04,6.11-13.09,2.33l-.62-.58-6.22-6.22c-7.45-7.45-20.2-2.18-20.2,8.36v16.52c0,1.5.6,2.95,1.66,4.01l30.36,30.41c2.4,2.41,1.73,5.29-1.59,6.02-1.18.26-2.39-.11-3.23-.94l-30.81-30.81c-2.22-2.22-3.45-5.24-3.43-8.38.03-3.47-2.93-6.24-6.4-6.24h-3.87c-3.5,0-6.34-2.84-6.34-6.34v-4.2c0-3.5-2.84-6.34-6.34-6.34h-20.87c-2.18,0-4.26.87-5.8,2.41l-34.54,34.6c-1.54,1.54-3.63,2.41-5.8,2.41h-4.71c-2.18,0-4.26-.87-5.8-2.41l-34.54-34.6c-1.54-1.54-3.63-2.41-5.8-2.41h-20.87c-3.5,0-6.34,2.84-6.34,6.34v4.2c0,3.5-2.84,6.34-6.34,6.34h-3.87c-3.47,0-6.43,2.77-6.4,6.24.03,3.14-1.21,6.16-3.43,8.38l-30.81,30.81c-.83.83-2.04,1.2-3.23.94-3.32-.72-4-3.61-1.59-6.02l30.36-30.41c1.06-1.07,1.66-2.51,1.66-4.01v-16.52c0-10.54-12.74-15.82-20.2-8.36l-6.22,6.22-.62.58c-4.05,3.78-10.51,2.58-13.09-2.33-1.18-2.25-2.71-4.32-4.53-6.15l-14.19-14.19c-6.45-6.45-16.92-6.46-23.37,0l-3.66,3.65c-3.19,3.19-3.23,8.33-.12,11.56,3.21,3.33,3.39,8.53.12,11.8l-12.46,12.47h-11.26c-.07,0-3.25,0-6.47,0-3.74-.01-6.77-3.08-6.7-6.84.06-3.66-3.05-6.6-6.72-6.6h-11.81C3.58,30.87-.3,34.94.02,39.84c.29,4.47,4.2,7.85,8.68,7.85h3.35c3.76,0,6.79,3.08,6.72,6.85-.07,3.66,3.06,6.59,6.72,6.59h25.99c4.38,0,8.59-1.74,11.69-4.84l11.58-11.58c3.99-3.99,3.73-10.25-.23-14.27-2.43-2.47-2.41-6.44.06-8.89h0c2.46-2.44,6.43-2.43,8.88.02l10.03,10.03c1.42,1.42,2.21,3.34,2.21,5.34v20.32c-.07.48-.12.96-.12,1.45v1c0,4.59-3.72,8.31-8.31,8.31H28.63c-4.45,0-8.71,1.77-11.86,4.91l-1.37,1.37c-10.57,10.57-3.07,28.65,11.88,28.63,4.44,0,8.7-1.77,11.83-4.91l8.28-8.28c3.15-3.15,7.41-4.91,11.86-4.91h28.01c4.59,0,8.31,3.72,8.31,8.31h0c0,5.44,4.41,9.85,9.85,9.85h6.97v-.07h7.04v.07h8.59l43.46-43.39c1.19-1.19,1.86-2.81,1.86-4.49,0-5.65,6.83-8.48,10.83-4.49l8.65,8.65s9.95,9.92,15.4,15.35c2.23,2.22,5.23,3.49,8.38,3.54l22.21.39c.14,0,.27.02.41.02h19.66c.14,0,.27-.01.41-.02l22.21-.39c3.15-.06,6.15-1.32,8.38-3.54,5.45-5.43,15.4-15.35,15.4-15.35l8.65-8.65c4-4,10.83-1.17,10.83,4.49,0,1.68.67,3.3,1.86,4.49l43.46,43.39h8.59v-.07h7.04v.07h6.97c5.44,0,9.85-4.41,9.85-9.85h0c0-4.59,3.72-8.31,8.31-8.31h28.01c4.45,0,8.71,1.77,11.86,4.91l8.28,8.28c3.14,3.14,7.39,4.91,11.83,4.91,14.95.02,22.46-18.06,11.88-28.63l-1.37-1.37c-3.15-3.15-7.41-4.91-11.86-4.91h-58.63c-4.59,0-8.31-3.72-8.31-8.31v-1c0-.49-.05-.97-.12-1.45v-20.32c0-2,.8-3.92,2.21-5.34l10.03-10.03c2.45-2.45,6.42-2.46,8.88-.02h0c2.47,2.44,2.49,6.42.06,8.89-3.96,4.02-4.22,10.28-.23,14.27l11.58,11.58c3.1,3.1,7.3,4.84,11.69,4.84h25.99c3.66,0,6.79-2.93,6.72-6.59-.07-3.77,2.97-6.85,6.72-6.85h3.35c4.48,0,8.39-3.38,8.68-7.85.32-4.9-3.56-8.97-8.39-8.97Z"/>
  </g>
</svg>