<?xml version="1.0" encoding="UTF-8"?>
<svg id="Layer_2" data-name="Layer 2" xmlns="http://www.w3.org/2000/svg" viewBox="0 0 598.63 192.81">
  <g id="_Слой_1" data-name="Слой 1">
    <g>
      <path d="M412.35,141.9h-27.85c0,28.11,22.79,50.9,50.9,50.9h141.96c11.74,0,21.26-9.52,21.26-21.26v-6.59h-163.22c-12.73,0-23.06-10.32-23.06-23.06Z"/>
      <path d="M342.15,42.22c0,23.22,18.88,42.16,42.16,42.16h90.34c.5-.5,1.06-1.06,1.56-1.56l1.5-1.5c11.25-11.36,24.9-19.77,39.77-24.79h-133.17c-7.91,0-14.31-6.4-14.31-14.31,0-23.28-18.94-42.22-42.22-42.22h-25.68v27.85h25.68c7.91,0,14.37,6.46,14.37,14.37Z"/>
      <path d="M333.58,164.96h-31.47v6.59c0,11.74,9.52,21.26,21.26,21.26h10.21c28.11,0,50.9-22.79,50.9-50.9h-27.85c0,12.73-10.32,23.06-23.06,23.06Z"/>
      <path d="M598.57,56.7h-48.12c-1.5,0-2.95.05-4.46.11-24.23,1.11-47.17,11.19-64.33,28.46l-1.5,1.5c-1.11,1.11-2.23,2.17-3.4,3.17-12.59,11.03-28.85,17.21-45.73,17.21h-18.71v-17.21h-27.85v45.06h46.39c25.95,0,50.79-10.3,69.06-28.68l1.39-1.39c6.46-6.46,14.09-11.53,22.33-14.98,7.02-2.95,14.59-4.73,22.33-5.23,1.5-.11,2.95-.17,4.46-.17h20.5v74.85h27.68V56.7h-.06Z"/>
      <path d="M163.22,164.96H0v6.59c0,11.74,9.52,21.26,21.26,21.26h141.96c28.11,0,50.9-22.79,50.9-50.9h-27.85c0,12.73-10.32,23.06-23.06,23.06Z"/>
      <path d="M122.42,82.82c.5.5,1.06,1.06,1.56,1.56h90.34c23.28,0,42.16-18.94,42.16-42.16,0-7.91,6.46-14.37,14.37-14.37h25.68V0h-25.68c-23.28,0-42.22,18.94-42.22,42.22,0,7.91-6.41,14.31-14.31,14.31H81.15c14.87,5.01,28.52,13.42,39.77,24.79l1.5,1.5Z"/>
      <path d="M241.99,141.9h-27.85c0,28.11,22.79,50.9,50.9,50.9h10.21c11.74,0,21.26-9.52,21.26-21.26v-6.59h-31.47c-12.73,0-23.06-10.32-23.06-23.06Z"/>
      <path d="M27.68,84.55h20.5c1.5,0,2.95.05,4.46.17,7.74.5,15.32,2.28,22.33,5.23,8.24,3.45,15.87,8.52,22.33,14.98l1.39,1.39c18.27,18.38,43.11,28.68,69.06,28.68h46.39v-45.06h-27.85v17.21h-18.71c-16.88,0-33.14-6.18-45.73-17.21-1.17-1-2.28-2.06-3.4-3.17l-1.5-1.5c-17.15-17.27-40.1-27.35-64.33-28.46-1.5-.06-2.95-.11-4.46-.11H0v102.69h27.68v-74.85Z"/>
      <rect x="285.39" y="33.42" width="27.85" height="125.68"/>
    </g>
  </g>
</svg>