<?xml version="1.0" encoding="UTF-8"?>
<svg id="Layer_2" data-name="Layer 2" xmlns="http://www.w3.org/2000/svg" viewBox="0 0 747.12 135.18">
  <g id="_Слой_1" data-name="Слой 1">
    <path d="M719.24,17.59h-257.16l-13.14-13.14c-5.74-5.74-15.02-5.97-21.05-.41-5.38,4.97-5.34,13.49-.16,18.67l19.65,19.65c2.01,2.01,4.73,3.14,7.58,3.14h19.86c.45,0,.9.01,1.34.04,3.37.18,3.23,5.2-.14,5.2h-2.45c-.63-.04-1.27-.07-1.91-.07h-17.13c-3.9,0-7.65-1.55-10.42-4.31l-19.27-19.27c-2.71-2.73-6.29-4.09-9.86-4.09-3.86,0-7.74,1.61-10.53,4.8-4.86,5.56-4.36,14,.86,19.22l27.39,27.39c2.67,2.67,6.29,4.17,10.06,4.17h15.15v.07h9.86c1.42.13,2.81.47,4.11,1.01,3.05,1.26,5.65,3.62,7.25,6.67,5.88,11.22-.33,20.73-12.99,20.73h-1.77c-3.78,0-7.41-1.5-10.07-4.17l-52.69-52.69c-2.71-2.73-6.29-4.09-9.86-4.09s-7.14,1.37-9.87,4.09c-5.45,5.45-5.45,14.29,0,19.73l8.88,8.88c1.87,2.01,1.81,5.14-.13,7.08l-8.76,8.76c-3.93,3.93-6.58,8.9-7.69,14.26-.06.28-.31.49-.6.49s-.54-.21-.6-.49c-1.11-5.36-3.76-10.33-7.69-14.26l-8.76-8.76c-1.94-1.94-2-5.07-.13-7.08l8.88-8.88c5.45-5.44,5.45-14.28,0-19.73-2.73-2.73-6.3-4.09-9.87-4.09s-7.14,1.37-9.86,4.09l-52.69,52.69c-2.67,2.67-6.29,4.17-10.07,4.17h-1.87c-12.96,0-18.99-9.57-12.78-20.95,1.61-2.95,4.15-5.22,7.13-6.45,1.3-.54,2.69-.88,4.11-1.01h9.86v-.07h15.15c3.77,0,7.39-1.5,10.06-4.17l27.28-27.28c5.22-5.22,5.84-13.7,1-19.28-2.79-3.22-6.69-4.84-10.57-4.84-3.57,0-7.14,1.37-9.86,4.09l-19.27,19.27c-2.77,2.76-6.52,4.31-10.42,4.31h-17.13c-.64,0-1.28.03-1.91.07h-2.45c-3.37,0-3.51-5.02-.14-5.2.45-.02.89-.04,1.34-.04h19.86c2.84,0,5.57-1.13,7.58-3.14l19.65-19.65c5.18-5.18,5.22-13.7-.16-18.67-6.02-5.56-15.31-5.33-21.05.41l-13.14,13.14H27.88c-24.79,0-37.2,29.97-19.67,47.5l65.77,65.77c2.61,2.61,6.16,4.08,9.85,4.08h25.53c7.69,0,13.93-6.24,13.93-13.93v-23.05c0-7.62-5.97-14.07-13.58-14.26-7.87-.2-14.32,6.12-14.32,13.95v5.18c0,1.69-.97,3.28-2.54,3.91-1.58.63-3.3.23-4.43-.89l-10.29-10.29c-6.25-6.25-1.82-16.93,7.01-16.93h24.58c10.36,0,18.76,8.4,18.76,18.76v6.43c0,15.95,11.9,29.74,27.78,31.22,9.14.85,18.11-2.42,24.53-8.84l46.83-46.83c.43-.43,1-.71,1.61-.75,2.28-.13,3.46,2.59,1.89,4.16l-2.44,2.44c-18.34,18.34-5.35,49.7,20.59,49.7h38.91c7.72,0,15.13-3.06,20.59-8.52l10.59-10.6c3.54-3.53,8.33-5.51,13.33-5.49,5.15.02,9.81,2.13,13.18,5.51,2.67,2.68,4.53,6.17,5.19,10.06.9,5.31,5.37,9.27,10.76,9.27h23.51c5.39,0,9.86-3.96,10.76-9.27.66-3.89,2.52-7.38,5.19-10.06,3.37-3.39,8.03-5.49,13.18-5.51,4.99-.02,9.79,1.96,13.33,5.49l10.59,10.6c5.46,5.46,12.87,8.52,20.59,8.52h38.91c25.94,0,38.93-31.36,20.59-49.7l-2.37-2.37c-1.66-1.66-1.19-3.64,1.09-4.17.84-.2,1.7.06,2.29.65l46.87,46.86c6.42,6.42,15.39,9.7,24.53,8.84,15.88-1.48,27.78-15.28,27.78-31.22v-6.43c0-10.36,8.4-18.76,18.76-18.76h24.58c8.83,0,13.26,10.68,7.01,16.93l-10.29,10.29c-1.13,1.13-2.85,1.53-4.43.89-1.57-.63-2.54-2.22-2.54-3.91v-5.18c0-7.83-6.45-14.15-14.32-13.95-7.61.2-13.58,6.65-13.58,14.26v23.05c0,7.69,6.24,13.93,13.93,13.93h25.53c3.7,0,7.24-1.47,9.85-4.08l65.77-65.77c17.53-17.53,5.11-47.5-19.67-47.5ZM209.27,58.05l-23.75,22.11c-11.08,10.31-29.13,2.46-29.13-12.68h0c0-9.24-7.49-16.73-16.73-16.74l-103.95-.02c-1.36,0-2.49-1.05-2.6-2.4-.12-1.52,1.08-2.82,2.6-2.82h186.11l-12.55,12.55ZM714.01,48.32c-.11,1.36-1.24,2.4-2.6,2.4l-103.95.02c-9.24,0-16.73,7.49-16.73,16.74h0c0,15.14-18.05,22.99-29.13,12.68l-23.75-22.11-12.55-12.55h186.11c1.53,0,2.73,1.3,2.6,2.82Z"/>
  </g>
</svg>