<?xml version="1.0" encoding="UTF-8"?>
<svg id="Layer_2" data-name="Layer 2" xmlns="http://www.w3.org/2000/svg" viewBox="0 0 494.98 122.99">
  <g id="_Слой_1" data-name="Слой 1">
    <g>
      <polygon points="108.08 82.25 43.37 17.54 82.16 17.54 83.77 19.19 146.27 81.69 236.83 81.69 209.82 54.8 202.64 63.85 153.72 63.85 89.72 0 .96 0 83.21 82.25 108.08 82.25"/>
      <path d="M196.92,87.56l17.58,17.58h-7.48l-17.58-17.58h-44.74L79.99,22.85h-23.64l64.78,64.79h-39.99l-33.66-33.61c-18.55,0-28.95,0-47.5,0l51.23,51.23h22.14l.15.15h108.47l17.58,17.58h78.7l-35.46-35.42h-45.9Z"/>
      <polygon points="324.79 82.25 260.08 17.54 298.87 17.54 300.48 19.19 362.98 81.69 453.54 81.69 426.53 54.8 419.35 63.85 370.42 63.85 306.42 0 217.66 0 299.92 82.25 324.79 82.25"/>
      <path d="M459.52,87.56h-45.9l17.58,17.58h-7.48l-17.58-17.58h-44.74l-64.71-64.71h-23.64l64.78,64.79h-39.98l-33.66-33.61c-18.55,0-28.95,0-47.5,0l51.23,51.23h22.14l.15.15h108.47l17.58,17.58h78.7l-35.46-35.42Z"/>
    </g>
  </g>
</svg>