<?xml version="1.0" encoding="UTF-8"?>
<svg id="Layer_2" data-name="Layer 2" xmlns="http://www.w3.org/2000/svg" viewBox="0 0 463.38 130.5">
  <g id="_Слой_1" data-name="Слой 1">
    <g>
      <g>
        <path d="M229.18,39.63c-8.03,8.03-12.54,12.54-20.57,20.57v21.5L126.91,0l.31,29.94h-20.63v28.59L60.55,12.48H0v38.61l79.41,79.41h20.58v-14.84s14.61,14.61,14.61,14.61h8.45v.02h106.12v-2.19h0V39.63ZM142.75,128.1l38.76-38.76-14.54-14.54-34.91,34.91h-8.94L51.13,37.7h-26.55l-.02,3.12,54.88,54.88v5.73l-24.47-24.47L20.57,42.57v-9.52h31.46l72.64,72.14h2.49V29.94l98.77,98.16h-83.17Z"/>
        <path d="M204.57,66.29V4.32h-20.57v47.04c6.72,6.72,12.48,12.28,17.84,17.64l2.73-2.7Z"/>
      </g>
      <g>
        <path d="M234.2,128.1h0v2.19s106.12,0,106.12,0v-.02h8.45s14.61-14.61,14.61-14.61v14.84s20.58,0,20.58,0l79.41-79.41V12.48s-60.55,0-60.55,0l-46.04,46.04v-28.59s-20.63,0-20.63,0l.31-29.94-81.7,81.7v-21.5c-8.03-8.03-12.54-12.54-20.57-20.57v88.47ZM237.46,128.1l98.77-98.16v75.24s2.49.01,2.49.01l72.64-72.14h31.46v9.52s-34.39,34.39-34.39,34.39l-24.47,24.47v-5.73s54.88-54.88,54.88-54.88l-.02-3.12h-26.55s-72,72-72,72h-8.94s-34.91-34.91-34.91-34.91l-14.54,14.54,38.76,38.76h-83.17Z"/>
        <path d="M258.81,66.29V4.32h20.57v47.04c-6.72,6.72-12.48,12.28-17.84,17.64l-2.73-2.7Z"/>
      </g>
    </g>
  </g>
</svg>