<?xml version="1.0" encoding="UTF-8"?>
<svg id="Layer_2" data-name="Layer 2" xmlns="http://www.w3.org/2000/svg" viewBox="0 0 507.92 119.25">
  <g id="_Слой_1" data-name="Слой 1">
    <path d="M466.87.3h-52.2l-50.16,50.06h-20.68L293.47,0h-79.02l-50.36,50.36h-20.68L93.25.3h-52.2L0,41.35l38.8,38.8h125.6l39.1,39.1h41.66l8.8-9.93-53.23-53.23-10.85,10.85h-15.25l38.8,38.8h-4.3l-39.1-39.11h-33.88l-30.5-30.5-16.27-16.27-6.25-6.24h4.4l1.23,1.22,49.03,49.03h50.87l6.96-6.96,13.21-13.21,16.69-16.68h56.91l16.69,16.68,13.21,13.21,6.96,6.96h50.87l49.03-49.03,1.23-1.22h4.4l-6.25,6.24-16.27,16.27-30.5,30.5h-33.88l-39.1,39.11h-4.3l38.8-38.8h-15.25l-10.85-10.85-53.23,53.23,8.8,9.93h41.66l39.1-39.1h125.6l38.8-38.8L466.87.3ZM63.47,66.64L28.66,31.83l15.25-15.25,50.06,50.06h-30.5ZM116.49,66.23h-3.89L60.19,13.82h3.99l52.31,52.41ZM391.43,66.23l52.31-52.41h3.99l-52.41,52.41h-3.89ZM444.46,66.64h-30.5l50.06-50.06,15.25,15.25-34.8,34.8Z"/>
  </g>
</svg>