<?xml version="1.0" encoding="UTF-8"?>
<svg id="Layer_2" data-name="Layer 2" xmlns="http://www.w3.org/2000/svg" viewBox="0 0 505.51 131.32">
  <g id="_Слой_1" data-name="Слой 1">
    <g>
      <polygon points="174.61 112.86 151.74 112.86 162.85 101.74 87.82 101.74 85.08 104.49 76.71 112.86 30.31 112.87 48.77 131.32 196.95 131.31 178.49 112.86 174.61 112.86"/>
      <polygon points="135.61 9.25 151.14 25.07 156.1 25.07 188.2 25.06 188.2 9.71 188.2 7.35 188.2 .06 144.78 .06 137.33 7.52 135.61 9.25"/>
      <path d="M242.54,98.07h-24.86L132.38,12.55v.07l-.04-.11-31.53,31.53,28.72,28.72h15.69c19.16,19.36,38.78,39.51,57.67,58.4h47.57v-25.19c-3.08-3.08-4.81-4.81-7.9-7.9Z"/>
      <path d="M78.88,58.79c4.03,4.03,6.29,6.29,10.31,10.32v28.01h34.38s39.27,0,39.27,0c-7.92-7.92-12.1-12.1-20.02-20.02h-16.46l-32.51-32.89L138.06,0h0s0,0,0,0h0s-74.86,0-74.86,0H0v7.36l51.42,51.42h27.46Z"/>
      <polygon points="420.43 104.49 417.68 101.74 342.65 101.74 353.76 112.86 330.9 112.86 327.02 112.86 308.56 131.31 456.74 131.32 475.19 112.87 428.8 112.86 420.43 104.49"/>
      <polygon points="354.37 25.07 369.9 9.25 368.17 7.52 360.73 .06 317.31 .06 317.31 7.35 317.31 9.71 317.31 25.06 349.4 25.07 354.37 25.07"/>
      <path d="M375.99,72.76l28.72-28.72-31.53-31.53-.04.11v-.07l-85.31,85.52h-24.86c-3.08,3.08-4.81,4.81-7.9,7.9v25.19h47.57c18.89-18.89,38.51-39.04,57.67-58.4h15.69Z"/>
      <path d="M499.41,0h-131.97,0s0,0,0,0h0s44.2,44.2,44.2,44.2l-32.25,32.63h-16.46c-7.92,7.92-12.36,12.36-20.28,20.28h39.27s34.38,0,34.38,0v-28.01c4.03-4.03,6.29-6.29,10.31-10.32h27.46l51.42-51.42V0h-6.1Z"/>
      <path d="M260.03,93.45h25.93l63.79-63.79h-47.15c-19.11,19.11-29.82,29.82-48.92,48.92h-1.85c-19.11-19.11-29.82-29.82-48.92-48.92h-47.15l63.79,63.79h25.93l6.36,6.36h1.85s6.36-6.36,6.36-6.36Z"/>
    </g>
  </g>
</svg>