<?xml version="1.0" encoding="UTF-8"?>
<svg id="Layer_2" data-name="Layer 2" xmlns="http://www.w3.org/2000/svg" viewBox="0 0 911.35 128.65">
  <g id="_Слой_1" data-name="Слой 1">
    <g>
      <g>
        <path d="M389.35,92h-153.13c-6.32,0-12.36-2.48-16.91-6.86-6.9-6.9-13.29-13.29-22.01-22.01h-72.49c-6.48,0-12.69-2.57-17.27-7.15l-13.83-13.83h-51.82l44.28,44.28c8.54,8.54,20.13,13.34,32.21,13.34h63.67s15.53,15.53,15.53,15.53c8.54,8.54,20.13,13.34,32.21,13.34h196.2c-14.31-14.31-22.33-22.33-36.65-36.64Z"/>
        <path d="M441.38,61.6l-19.24-19.24h-186.64s25.91,25.91,25.91,25.91c6.87,6.87,16.19,10.73,25.91,10.73h106.07c8.69,0,17.02,3.45,23.17,9.59,6.14,6.14,9.59,14.48,9.59,23.17v16.88l15.23-15.23c14.31-14.31,14.31-37.51,0-51.82Z"/>
        <path d="M197.28,62.89V11.07L186.22,0H0c14.31,14.31,22.33,22.33,36.64,36.64h134.4s26.24,26.24,26.24,26.24Z"/>
        <path d="M416.44,36.65l-25.56-25.91C384.01,3.86,374.69,0,364.97,0h-171.04s0,0,0,0c14.31,14.31,22.33,22.33,36.64,36.64h185.87Z"/>
      </g>
      <g>
        <path d="M522.01,92h153.13c6.32,0,12.36-2.48,16.91-6.86,6.9-6.9,13.29-13.29,22.01-22.01h72.49c6.48,0,12.69-2.57,17.27-7.15l13.83-13.83c20.24,0,31.58,0,51.82,0l-44.28,44.28c-8.54,8.54-20.13,13.34-32.21,13.34h-63.67s-15.53,15.53-15.53,15.53c-8.54,8.54-20.13,13.34-32.21,13.34h-196.2c14.31-14.31,22.33-22.33,36.65-36.64Z"/>
        <path d="M469.98,61.6l19.24-19.24h186.64s-25.91,25.91-25.91,25.91c-6.87,6.87-16.19,10.73-25.91,10.73h-106.07c-8.69,0-17.02,3.45-23.17,9.59-6.14,6.14-9.59,14.48-9.59,23.17v16.88s-15.23-15.23-15.23-15.23c-14.31-14.31-14.31-37.51,0-51.82Z"/>
        <path d="M714.07,62.89c0-20.24,0-31.58,0-51.82L725.13,0h186.22c-14.31,14.31-22.33,22.33-36.64,36.64h-134.4s-26.24,26.24-26.24,26.24Z"/>
        <path d="M494.91,36.65l25.56-25.91C527.35,3.86,536.66,0,546.38,0h171.04s0,0,0,0c-14.31,14.31-22.33,22.33-36.64,36.64h-185.87Z"/>
      </g>
    </g>
  </g>
</svg>