<?xml version="1.0" encoding="UTF-8"?>
<svg id="Layer_2" data-name="Layer 2" xmlns="http://www.w3.org/2000/svg" viewBox="0 0 572.79 151.43">
  <g id="_Слой_1" data-name="Слой 1">
    <g>
      <path d="M311.76,28.74c-9.5,6.01-16.23,15.92-17.6,27.39h-27.36l.84-.84c6.89-6.89,10.66-15.99,10.66-25.67,0-.31,0-.59-.03-.87h33.49Z"/>
      <path d="M331.14,98.66l-10.69,10.69c-2.8,2.81-4.92,6.08-6.29,9.6l-83.57-.28c-9.6,0-18.6-3.71-25.36-10.47l-54.12-54.12c-4.67-4.67-5.79-11.87-2.62-17.82,2.71-5.05,8.19-7.91,13.9-7.91h39.01l19.04-19.04c10.19-10.22,26.11-12.24,37.98-4.92,1.5.94,2.96,1.99,4.3,3.21,6.82,6.2,10.41,14.92,9.91,24.12-.4,7.7-4.02,14.86-9.47,20.32l-33.77,33.81-19.35-19.38,34.4-34.43c1.12-1.12,1.12-2.93,0-4.02-1.09-1.09-2.87-1.09-3.99,0l-27.7,27.73h-12.68c-3.15,0-4.74,3.83-2.52,6.04l27.05,27.05c1.59,1.59,3.77,2.49,6.01,2.49l70.07.31,9.29.03c6.17,4.36,13.55,6.85,21.19,7.01Z"/>
      <path d="M182.81,93.51l-30.54,30.54H53.21l21.31-21.33c6.35-6.33,8.22-15.75,4.79-24.05-3.42-8.27-11.42-13.61-20.38-13.61h-27.11c-2.68,0-4.83-2.38-4.38-5.15.36-2.19,2.42-3.7,4.64-3.7h86.74l27.36-27.39H32.77c-16.55,0-31.05,12.25-32.62,28.73-1.8,18.91,13.1,34.89,31.68,34.89h14.24l-21.31,21.31c-6.33,6.35-8.22,15.77-4.77,24.05,3.42,8.27,11.42,13.64,20.38,13.64h118.77c2.86,0,5.61-1.14,7.63-3.16l35.43-35.43c-.27-.25-.58-.52-.85-.79l-18.54-18.54Z"/>
      <path d="M155.39,66.1l-8.16-8.16c-4.41-4.41-6.52-10.46-5.92-16.46l-10.38,10.38-9.86,9.83-19.55,19.55c-6.33,6.35-8.22,15.77-4.79,24.05,2.93,7.07,9.2,12,16.54,13.28h36.73l27.03-27.03h-38.51c-3.15,0-4.74-3.81-2.49-6.05l19.36-19.39Z"/>
      <path d="M572.74,31.7c-.4,7.7-4.02,14.86-9.47,20.32l-4.11,4.11-29.66,29.69-.03-.03-19.32-19.35,34.4-34.43c1.12-1.12,1.12-2.93,0-4.02-1.09-1.09-2.87-1.09-3.99,0l-27.7,27.73h-12.68c-3.15,0-4.74,3.83-2.52,6.04l27.05,27.05c.31.31.62.56.97.81l-19.44,19.41c-.28-.28-.59-.56-.87-.84l-54.12-54.12c-4.67-4.67-5.8-11.87-2.62-17.82,2.71-5.05,8.19-7.91,13.9-7.91h39.01l19.04-19.04c10.19-10.22,26.11-12.24,37.98-4.92,1.5.94,2.96,1.99,4.3,3.21,6.82,6.2,10.41,14.92,9.91,24.12Z"/>
      <path d="M482.92,93.51l18.54,18.54c.27.27.58.55.85.79l-35.43,35.43c-2.02,2.02-4.77,3.16-7.63,3.16h-118.77c-8.96,0-16.95-5.37-20.38-13.64-3.45-8.27-1.56-17.69,4.77-24.05l21.31-21.31h-14.24c-18.58,0-33.47-15.98-31.68-34.89,1.57-16.48,16.06-28.73,32.62-28.73h113.42s-27.36,27.39-27.36,27.39h-86.74c-2.22,0-4.28,1.51-4.64,3.7-.46,2.77,1.69,5.15,4.38,5.15h27.11c8.96,0,16.95,5.34,20.38,13.61,3.42,8.3,1.56,17.72-4.79,24.05l-21.31,21.33h99.06l30.54-30.54Z"/>
      <path d="M455.51,66.1l-8.16-8.16c-4.41-4.41-6.52-10.46-5.92-16.46l-10.38,10.38-9.86,9.83-19.55,19.55c-6.33,6.35-8.22,15.77-4.79,24.05,2.93,7.07,9.2,12,16.54,13.28h36.73l27.03-27.03h-38.51c-3.15,0-4.74-3.81-2.49-6.05l19.36-19.39Z"/>
      <polygon points="559.15 56.13 529.49 85.82 529.46 85.79 559.15 56.13"/>
    </g>
  </g>
</svg>