<?xml version="1.0" encoding="UTF-8"?>
<svg id="Layer_2" data-name="Layer 2" xmlns="http://www.w3.org/2000/svg" viewBox="0 0 780.07 111.69">
  <g id="_Слой_1" data-name="Слой 1">
    <g>
      <path d="M373.36.2H17.45v6.01h0v2.99l57.28,57.23h47.64v12.44l32.55,32.61h51.47L311.66,6.21h8.56l-48.18,48.19h56.15l14.61-14.61h24.56v20.4h-101.23l-51.16,51.16,186.09.11v-25.69l-27.68-27.68V.2ZM276.89,105.55l5.7-5.64,66.86-.06c1.95,1.98,3.92,3.95,5.88,5.91l-78.44-.21ZM67.02,27.07L46.12,6.21h76.25v20.86h-55.35ZM192.21,71.78h-20.84l-20.93-20.98-.23.17-22.06-22.06V6.21h129.62l-65.56,65.56Z"/>
      <path d="M72.41,72.16L17.45,17.26v.2L0,0v55.58l55.81,55.81.07.3,91.42-.11c-12.02-12.02-27.51-27.45-39.47-39.42h-35.42Z"/>
      <path d="M754.21,60.21h-5.8V.2h-351.94v9l57.28,57.23h47.64v12.44l32.55,32.61h51.47L690.67,6.21h8.56l-48.18,48.19h56.15l14.61-14.61h20.59v20.42h-97.24l-51.19,51.13,186.1.14v-25.41l-25.86-25.86ZM446.04,27.07l-20.9-20.86h76.25v20.86h-55.35ZM571.23,71.78h-20.84l-20.93-20.98-.23.17-22.06-22.06V6.21h129.62l-65.56,65.56ZM655.9,105.55l5.7-5.64,66.86-.06c1.95,1.98,3.92,3.95,5.88,5.91l-78.44-.21Z"/>
      <path d="M451.42,72.16l-54.96-54.9v.2L379.13.11v55.58l55.69,55.69.07.3,91.42-.11c-12.02-12.02-27.51-27.45-39.47-39.42h-35.42Z"/>
    </g>
  </g>
</svg>