<?xml version="1.0" encoding="UTF-8"?>
<svg id="Layer_2" data-name="Layer 2" xmlns="http://www.w3.org/2000/svg" viewBox="0 0 617.65 142.38">
  <g id="_Слой_1" data-name="Слой 1">
    <g>
      <g>
        <path d="M240.1,113.8v10.01h-91.69l-13.13-13.13-13.13,13.13,18.57,18.57h117.95v-.03h18.97l-18.97-18.97v-9.58c0-4.29,3.49-7.78,7.78-7.78h40.11v-18.57h-40.11c-14.52,0-26.34,11.82-26.34,26.34Z"/>
        <path d="M68.33,119.96L188.23.07h-104.43v18.57h59.61L42.44,119.6l-23.87-23.64v-11.98L83.75,18.79c-10.25,0-16,0-26.25,0L0,76.28v27.37l16.57,16.33c10.25,0,16,0,26.25,0h0s-.02-.02-.02-.02h25.52Z"/>
        <path d="M109.2,84.67l-13.13,13.13,10.1,10.1-15.87,15.87h-43.43c7.25,7.25,11.32,11.32,18.57,18.57h32.56l34.44-34.43-23.23-23.23Z"/>
        <polygon points="185.65 52.43 163.64 30.41 150.51 43.54 177.96 70.99 225.55 70.99 270.44 26.11 270.44 .09 251.87 .09 251.87 18.42 217.86 52.43 185.65 52.43"/>
        <path d="M230.19,74.71h-94.8v-16.22l-16.23,16.23-7.36,7.36,11.06,11.07,115.01.13,64.07-64.07c4.91-4.91,6.37-12.23,3.71-18.65C303,4.15,296.8,0,289.85,0h-15.7v18.57h12.18l-56.15,56.15Z"/>
        <polygon points="179.29 40.92 201.49 18.71 248.16 18.71 248.16 .14 193.8 .14 166.16 27.79 179.29 40.92"/>
      </g>
      <g>
        <path d="M377.55,113.8v10.01s91.69,0,91.69,0l13.13-13.13,13.13,13.13-18.57,18.57h-117.95v-.03h-18.97s18.97-18.97,18.97-18.97v-9.58c0-4.29-3.49-7.78-7.78-7.78h-40.11v-18.57h40.11c14.52,0,26.34,11.82,26.34,26.34Z"/>
        <path d="M549.32,119.96L429.42.07h104.43v18.57h-59.61s100.96,100.97,100.96,100.97l23.87-23.64v-11.98s-65.19-65.19-65.19-65.19c10.25,0,16,0,26.25,0l57.5,57.5v27.37s-16.57,16.33-16.57,16.33c-10.25,0-16,0-26.25,0h0s.02-.02.02-.02c-9.79,0-15.52,0-25.52,0Z"/>
        <path d="M508.45,84.67l13.13,13.13-10.1,10.1,15.87,15.87h43.43c-7.25,7.25-11.32,11.32-18.57,18.57h-32.56s-34.44-34.43-34.44-34.43l23.23-23.23Z"/>
        <polygon points="432 52.43 454.01 30.41 467.14 43.54 439.69 70.99 392.1 70.99 347.21 26.11 347.21 .09 365.78 .09 365.78 18.42 399.79 52.43 432 52.43"/>
        <path d="M387.46,74.71h94.8s0-16.22,0-16.22l16.23,16.23,7.36,7.36-11.06,11.07-115.01.13-64.07-64.07c-4.91-4.91-6.37-12.23-3.71-18.65C314.65,4.15,320.85,0,327.8,0h15.7v18.57h-12.18s56.15,56.15,56.15,56.15Z"/>
        <polygon points="438.36 40.92 416.16 18.71 369.49 18.71 369.49 .14 423.85 .14 451.49 27.79 438.36 40.92"/>
      </g>
    </g>
  </g>
</svg>