<?xml version="1.0" encoding="UTF-8"?>
<svg id="Layer_2" data-name="Layer 2" xmlns="http://www.w3.org/2000/svg" viewBox="0 0 592.02 112.54">
  <g id="_Слой_1" data-name="Слой 1">
    <g>
      <polygon points="266.11 15.79 266.11 15.79 296.05 15.72 325.99 15.79 341.78 0 324.31 0 324.23 0 267.79 0 250.32 0 250.24 0 266.03 15.79 266.11 15.79"/>
      <polygon points="48.73 39.98 48.65 39.98 5.9 39.98 5.81 39.98 0 45.8 0 76.01 .09 76.01 17.18 76.01 17.27 76.01 48.73 44.55 48.73 39.98"/>
      <polygon points="185.87 44.18 185.87 40.03 139.49 40.03 122.18 57.34 126.35 57.34 126.35 80.01 99.35 80.01 89.78 89.58 89.78 112.54 117.88 112.54 160.25 70.16 185.87 44.54 185.87 44.18"/>
      <polygon points="276.45 31.76 276.44 31.76 276.44 31.46 244.97 0 244.89 0 241.76 0 241.67 0 227.79 0 227.71 0 175.87 0 175.78 0 175.78 10.31 181.6 16.12 219.58 16.12 215.8 19.91 163.46 19.91 171.92 11.45 171.92 5.81 166.1 0 166.02 0 99.05 0 98.96 0 98.85 .11 98.76 .11 98.84 0 98.76 0 74.46 0 74.38 0 74.38 11.45 80.74 17.81 27.1 71.45 27.1 76.01 27.18 76.01 89.97 76.01 97.77 76.01 97.85 76.01 122.35 76.01 122.35 61.34 112.52 61.34 137.83 36.03 147.25 36.03 147.33 36.03 152.59 36.03 152.68 36.03 171.83 36.03 171.92 36.03 199.68 36.03 164.25 71.46 164.25 76 164.34 76 198.2 76 198.28 76 238.25 36.03 244.04 36.03 208.61 71.46 208.61 76 208.7 76 242.55 76 242.64 76 276.45 42.2 276.45 31.76"/>
      <polygon points="465.67 80.01 465.67 57.34 469.92 57.34 452.61 40.03 406.23 40.03 406.23 44.26 406.23 44.54 431.76 70.07 473.96 112.27 501.97 112.27 501.97 89.31 492.67 80.01 465.67 80.01"/>
      <polygon points="517.64 11.45 517.64 0 493.26 0 493.34 .11 493.16 .11 493.06 0 426 0 420.19 5.81 420.19 11.45 428.65 19.91 376.22 19.91 372.43 16.12 410.42 16.12 416.24 10.31 416.24 0 364.31 0 350.34 0 347.13 0 315.66 31.46 315.66 31.77 315.66 31.77 315.66 42.2 349.46 76 383.41 76 383.41 71.46 347.98 36.03 353.85 36.03 393.82 76 427.76 76 427.76 71.46 392.34 36.03 420.19 36.03 439.42 36.03 444.77 36.03 454.27 36.03 479.58 61.34 469.67 61.34 469.67 76.01 494.25 76.01 512.66 76.01 564.92 76.01 564.92 71.45 511.28 17.81 517.64 11.45"/>
      <polygon points="592.01 45.8 586.2 39.98 543.37 39.98 543.37 44.55 574.83 76.01 592.02 76.01 592.01 45.8"/>
      <circle cx="296.05" cy="56.39" r="19.61" transform="translate(-5.21 48.15) rotate(-9.22)"/>
    </g>
  </g>
</svg>