<?xml version="1.0" encoding="UTF-8"?>
<svg id="Layer_2" data-name="Layer 2" xmlns="http://www.w3.org/2000/svg" viewBox="0 0 602.13 159.59">
  <g id="_Слой_1" data-name="Слой 1">
    <g>
      <polygon points="95.87 120.83 114.45 102.1 83.46 102.1 44.54 140.87 29.83 140.87 68.74 102.07 42.04 102.3 0 144.22 15.4 159.59 52.29 159.59 91.06 120.83 95.87 120.83"/>
      <polygon points="127.23 126.03 93.26 126.03 74.62 144.67 107.62 144.67 127.23 126.03"/>
      <polygon points="184.75 31.73 158.39 31.73 93.31 96.81 119.67 96.81 184.75 31.73"/>
      <polygon points="246.21 113.62 280.32 79.51 224.37 23.56 224.27 0 199.3 24.98 252.12 78.21 244.86 85.47 191.78 32.4 103.45 120.72 130.58 120.72 193.78 61.2 198.24 65.66 99.37 159.59 125.85 159.59 211.03 78.45 246.21 113.62"/>
      <polygon points="360.29 120.83 378.87 102.1 347.89 102.1 308.96 140.87 294.26 140.87 295.65 139.47 333.17 102.07 333.06 102.07 337.7 97.43 322.3 82.07 285.31 82.07 241.34 126.03 168.94 126.03 149.22 144.75 248.93 144.75 248.93 144.74 249.11 144.74 293.06 100.79 307.87 100.79 265.83 142.82 264.42 144.22 264.43 144.23 249.06 159.59 275.53 159.59 279.82 159.59 293.28 159.59 316.71 159.59 355.49 120.83 360.29 120.83"/>
      <polygon points="586.73 82.07 549.74 82.07 505.76 126.03 433.37 126.03 413.65 144.75 513.36 144.75 513.36 144.74 513.54 144.74 557.49 100.79 572.3 100.79 513.48 159.59 539.95 159.59 602.13 97.43 586.73 82.07"/>
      <polygon points="391.66 126.03 357.69 126.03 339.05 144.67 372.04 144.67 391.66 126.03"/>
      <polygon points="449.17 31.73 422.81 31.73 357.73 96.81 384.09 96.81 449.17 31.73"/>
      <polygon points="510.63 113.62 544.74 79.51 488.79 23.56 488.7 0 463.72 24.98 516.54 78.21 509.28 85.47 456.2 32.4 367.88 120.72 395.01 120.72 458.2 61.2 462.66 65.66 363.79 159.59 390.28 159.59 475.46 78.45 510.63 113.62"/>
    </g>
  </g>
</svg>