<?xml version="1.0" encoding="UTF-8"?>
<svg id="Layer_2" data-name="Layer 2" xmlns="http://www.w3.org/2000/svg" viewBox="0 0 474.42 128.65">
  <g id="_Слой_1" data-name="Слой 1">
    <g>
      <path d="M53.54,104.18v-17.62h55.73s12.86,12.86,12.86,12.86h34.48l-28.37-28.37c-5.68-5.68-13.39-8.88-21.43-8.88H29.93s0,0,0,0h-.77v24.55h0v41.84h156.44c-9.52-9.52-14.86-14.86-24.38-24.38H53.54Z"/>
      <path d="M211.48,104.27c-5.78,0-11.33-2.3-15.41-6.39l-28.57-28.57c-4.57-4.57-10.78-7.14-17.24-7.14h-24.39l58.07,58.07c5.39,5.39,12.69,8.41,20.31,8.41h6.2c13.47,0,24.38-10.92,24.38-24.38v-14.33l-7.95,7.95c-4.09,4.09-9.63,6.39-15.41,6.39Z"/>
      <path d="M16.91,49c5.39,5.39,12.69,8.41,20.31,8.41h82.12s-17.24-17.24-17.24-17.24c-4.57-4.57-10.78-7.14-17.24-7.14h-40.4c-5.78,0-11.33-2.3-15.41-6.38-4.09-4.09-6.39-9.63-6.39-15.41V0l-10.13,10.13c-9.52,9.52-9.52,24.96,0,34.48l4.39,4.39Z"/>
      <path d="M462.23,49l4.39-4.39c9.52-9.52,9.52-24.96,0-34.48l-10.13-10.13v11.24c0,5.78-2.3,11.33-6.39,15.41-4.09,4.09-9.63,6.38-15.41,6.38h-40.4c-6.47,0-12.67,2.57-17.24,7.14l-17.24,17.24h82.12c7.62,0,14.93-3.03,20.31-8.42Z"/>
      <path d="M0,96.43v32.22h24.41V62.19l-17.24,17c-4.56,4.56-7.17,10.78-7.17,17.24Z"/>
      <path d="M445.26,62.17h-.77,0s-76.89,0-76.89,0c-8.04,0-15.75,3.19-21.43,8.88l-28.37,28.37h34.48l12.86-12.87h55.73v17.63h-107.67c-9.52,9.52-14.86,14.86-24.38,24.38h156.44v-41.85h0s0-24.54,0-24.54Z"/>
      <path d="M348.56,62.17h-24.39c-6.47,0-12.67,2.57-17.24,7.14l-28.57,28.57c-4.09,4.09-9.63,6.39-15.41,6.39s-11.33-2.3-15.41-6.39l-7.95-7.95v14.33c0,13.47,10.92,24.38,24.38,24.38h6.2c7.62,0,14.93-3.03,20.31-8.41l58.07-58.07Z"/>
      <path d="M467.25,79.19l-17.24-17v66.46h24.41v-32.22c0-6.46-2.61-12.68-7.17-17.24Z"/>
    </g>
  </g>
</svg>