<?xml version="1.0" encoding="UTF-8"?>
<svg id="Layer_2" data-name="Layer 2" xmlns="http://www.w3.org/2000/svg" viewBox="0 0 623.8 89.12">
  <g id="_Слой_1" data-name="Слой 1">
    <g>
      <polygon points="309.38 27 309.38 .29 222.99 .29 171.58 51.7 144.9 51.7 141.71 48.5 141.71 27.23 112.18 56.75 133.84 78.41 182.65 78.41 234.05 27 309.38 27"/>
      <path d="M87.15,27.13h72.15l15.22,15.22,18.89-18.89L170.37.41h-94.28l-18.95,18.95L37.78,0c-14.75,0-23.03,0-37.78,0l78.47,78.47c14.75,0,23.03,0,37.78,0h0l-40.22-40.22,11.12-11.12Z"/>
      <path d="M586.01,0l-19.36,19.36L547.71.41h-94.28l-23.04,23.04,18.89,18.89,15.22-15.22h72.15l11.13,11.12-40.22,40.22h0c14.75,0,23.03,0,37.78,0L623.8,0c-14.75,0-23.03,0-37.78,0Z"/>
      <path d="M384.18,51.7l-11.8-11.75h-29.12l-31.37,31.37-31.37-31.37h-29.12l-11.8,11.75h-23.95l-26.71,26.71h61.75l11.75-11.75h6.99l12.17,12.16-10.28,10.28h20.57l.02.02c7.84,0,13.85,0,19.98,0,6.13,0,12.14,0,19.98,0v-.02h20.59l-10.28-10.28,12.17-12.16h6.99l11.75,11.75h61.75l-26.71-26.71h-23.95Z"/>
      <polygon points="482.09 27.23 482.09 48.5 478.89 51.7 452.21 51.7 400.81 .29 314.42 .29 314.42 27 389.74 27 441.15 78.41 489.96 78.41 511.61 56.75 482.09 27.23"/>
    </g>
  </g>
</svg>