<?xml version="1.0" encoding="UTF-8"?>
<svg id="Layer_2" data-name="Layer 2" xmlns="http://www.w3.org/2000/svg" viewBox="0 0 676.74 157.47">
  <g id="_Слой_1" data-name="Слой 1">
    <g>
      <g>
        <path d="M106.68,104.4V15.73c-2.93-2.93-4.57-4.57-7.49-7.49h0v-.02s-25.71,0-25.71,0l11.86,11.86v75.48l-25.11,25.11h-6.73l-15.1,15.1c14.42,0,22.5,0,36.92,0l31.37-31.36Z"/>
        <path d="M190.72,95.62h-33.72l-25.82-25.82V29.89h14.41V8.54h-28.27c-2.93,2.93-4.57,4.57-7.49,7.49v62.61l25.57,25.57-31.85,31.85h-24.09c-8.34,8.34-13.01,13.01-21.35,21.35h54.29l40.45-40.45h59.23c-8.34-8.34-13.01-13.01-21.35-21.35Z"/>
        <path d="M205.93,35.2l-14.71-14.71,11.96-11.96h-54.41v21.35h21.65l26.67,26.67h42.62l60.55,60.55h-88.2c8.34,8.34,13.01,13.01,21.35,21.35h81.52v18.41h21.35v-33.93l-87.73-87.73h-42.62Z"/>
        <polygon points="82.09 21.37 60.72 0 60.72 78.61 3.2 136.12 0 136.12 0 157.47 12.04 157.47 82.09 87.43 82.09 21.37"/>
        <polygon points="307.33 89.57 307.33 92.77 328.68 92.77 328.68 80.73 258.63 10.68 230.94 10.68 209.57 32.05 249.81 32.05 307.33 89.57"/>
        <polygon points="218.94 80.56 229.15 80.56 262.48 113.88 292.67 113.88 238.48 59.69 198.07 59.69 218.94 80.56"/>
      </g>
      <g>
        <path d="M570.05,104.4V15.73c2.93-2.93,4.57-4.57,7.49-7.49h0v-.02s25.71,0,25.71,0l-11.86,11.86v75.48s25.11,25.11,25.11,25.11h6.73s15.1,15.1,15.1,15.1c-14.42,0-22.5,0-36.92,0l-31.37-31.36Z"/>
        <path d="M486.02,95.62h33.72s25.82-25.82,25.82-25.82V29.89s-14.41,0-14.41,0V8.54h28.27c2.93,2.93,4.57,4.57,7.49,7.49v62.61s-25.57,25.57-25.57,25.57l31.85,31.85h24.09c8.34,8.34,13.01,13.01,21.35,21.35h-54.29s-40.45-40.45-40.45-40.45h-59.23c8.34-8.34,13.01-13.01,21.35-21.35Z"/>
        <path d="M470.8,35.2l14.71-14.71-11.96-11.96h23.92s1.8,0,1.8,0h28.69v21.35h-21.65s-26.67,26.67-26.67,26.67h-42.62s-60.55,60.55-60.55,60.55h88.2c-8.34,8.34-13.01,13.01-21.35,21.35h-81.52s0,18.41,0,18.41h-21.35v-33.93s87.73-87.73,87.73-87.73h42.62Z"/>
        <polygon points="594.65 21.37 616.02 0 616.02 78.61 673.54 136.12 676.74 136.12 676.74 157.47 664.69 157.47 594.65 87.43 594.65 21.37"/>
        <polygon points="369.41 89.57 369.41 92.77 348.06 92.77 348.06 80.73 418.1 10.68 445.79 10.68 467.16 32.05 426.93 32.05 369.41 89.57"/>
        <polygon points="457.8 80.56 447.58 80.56 414.26 113.88 384.06 113.88 438.26 59.69 478.67 59.69 457.8 80.56"/>
      </g>
    </g>
  </g>
</svg>