<?xml version="1.0" encoding="UTF-8"?>
<svg id="Layer_2" data-name="Layer 2" xmlns="http://www.w3.org/2000/svg" viewBox="0 0 826.97 127.48">
  <g id="_Слой_1" data-name="Слой 1">
    <g>
      <g>
        <path d="M117.48,58.45l-41.09,41.09H27.88v27.94h60.08l41.09-41.09h34.83l8.95,8.95h0c12.55,12.55,19.59,19.59,32.14,32.14h39.51s-69.03-69.03-69.03-69.03h-57.98Z"/>
        <polygon points="325.55 99.05 317.38 99.05 317.38 99.51 317.11 59.77 257.34 0 245.99 0 232.79 0 199.07 0 199.07 27.94 212.58 41.45 212.45 41.45 270.06 99.05 262.73 99.05 163.67 0 109.54 0 109.54 45.55 109.54 51.94 109.54 59.35 115.45 53.44 137.48 53.44 137.48 27.94 152.1 27.94 251.16 126.99 312.48 126.99 312.48 100.72 252.01 41.49 252 41.49 238.45 27.94 245.77 27.94 317.38 99.54 317.38 126.99 337.12 126.99 397.01 67.11 410.99 67.11 410.99 39.17 385.44 39.17 325.55 99.05"/>
        <polygon points="78.28 .78 62.11 .78 58.52 4.37 0 62.89 0 99.51 27.94 99.51 27.94 74.47 78.28 24.12 78.28 .78"/>
        <path d="M332.88,27.94h78.11C400.08,17.03,393.97,10.91,383.05,0h-70.4l-24.03,24.03,24.08,24.08,20.17-20.17Z"/>
      </g>
      <g>
        <path d="M709.5,58.45l41.09,41.09h48.5v27.94h-60.08s-41.09-41.09-41.09-41.09h-34.83s-8.95,8.95-8.95,8.95h0c-12.55,12.55-19.59,19.59-32.14,32.14h-13.09s-26.42,0-26.42,0l69.03-69.03h57.98Z"/>
        <polygon points="501.42 99.05 509.6 99.05 509.6 99.51 509.86 59.77 569.63 0 580.98 0 594.19 0 627.9 0 627.9 27.94 614.4 41.45 614.52 41.45 556.91 99.05 564.24 99.05 663.3 0 717.43 0 717.43 45.55 717.43 51.94 717.43 59.35 711.52 53.44 689.49 53.44 689.49 27.94 674.87 27.94 575.82 126.99 514.49 126.99 514.49 100.72 574.97 41.49 574.97 41.49 588.52 27.94 581.2 27.94 509.6 99.54 509.6 126.99 489.85 126.99 429.96 67.11 415.98 67.11 415.98 39.17 441.54 39.17 501.42 99.05"/>
        <polygon points="748.69 .78 764.87 .78 768.45 4.37 826.97 62.89 826.97 99.51 799.04 99.51 799.04 74.47 748.69 24.12 748.69 .78"/>
        <path d="M494.09,27.94h-78.11c10.91-10.91,17.03-17.03,27.94-27.94h70.4s24.03,24.03,24.03,24.03l-24.08,24.08-20.17-20.17Z"/>
      </g>
    </g>
  </g>
</svg>