<?xml version="1.0" encoding="UTF-8"?>
<svg id="Layer_2" data-name="Layer 2" xmlns="http://www.w3.org/2000/svg" viewBox="0 0 592.94 139.34">
  <g id="_Слой_1" data-name="Слой 1">
    <g>
      <path d="M81.94,56.47v5.91c0,3.43-1.36,6.73-3.79,9.15l-9.12,9.12h93.92l-19.36-24.18h-61.66Z"/>
      <path d="M228.85,40.73c-18.19,23.16-50.6,29.52-76.19,14.94-2.59-1.47-4.51-4.01-4.88-6.96-.69-5.57,3.63-10.3,9.06-10.3h70.5L258.16,0h-41.92c-3.75,0-6.94,3-6.87,6.75.07,3.85-3.03,6.99-6.87,6.99h-66.72v2.38c0,7.62-6.17,13.79-13.79,13.79H38.09v19.68L0,87.68h58.63l17.45-17.45c2.22-2.22,3.47-5.24,3.47-8.38v-7.75h65.2l68.2,85.25,22.61-22.61-4.58-4.58c-6.73-6.73-6.73-17.64,0-24.37h-15.58l37.82-37.82v15.52l-22.2,22.2h42.22c8.59-8.59,13.41-13.41,22-22V.02h-34.41l-31.97,40.71Z"/>
      <path d="M133.07,16.54v-2.77H51.88c-7.62,0-13.79,6.17-13.79,13.79h83.95c6.09,0,11.02-4.94,11.02-11.02Z"/>
      <path d="M511,62.38v-5.91h-61.66l-19.36,24.18h93.92l-9.12-9.12c-2.43-2.43-3.79-5.72-3.79-9.15Z"/>
      <path d="M554.84,49.59v-19.68h-83.89c-7.62,0-13.79-6.17-13.79-13.79v-2.38h-66.72c-3.84,0-6.94-3.14-6.87-6.99.07-3.75-3.12-6.75-6.87-6.75h-41.92l30.82,38.4h70.5c5.43,0,9.75,4.74,9.06,10.3-.37,2.95-2.3,5.49-4.88,6.96-25.59,14.58-58,8.22-76.19-14.94L332.11.02h-34.41v65.67c8.59,8.59,13.41,13.41,22,22h42.22l-22.2-22.2v-15.52l37.82,37.82h-15.58c6.73,6.73,6.73,17.64,0,24.37l-4.58,4.58,22.61,22.61,68.2-85.25h65.2v7.75c0,3.14,1.25,6.16,3.47,8.38l17.45,17.45h58.63l-38.09-38.09Z"/>
      <path d="M470.89,27.56h83.95c0-7.62-6.17-13.79-13.79-13.79h-81.19v2.77c0,6.09,4.94,11.02,11.02,11.02Z"/>
    </g>
  </g>
</svg>