<?xml version="1.0" encoding="UTF-8"?>
<svg id="Layer_2" data-name="Layer 2" xmlns="http://www.w3.org/2000/svg" viewBox="0 0 539.6 155.75">
  <g id="_Слой_1" data-name="Слой 1">
    <g>
      <polygon points="163.37 70.01 156.18 62.81 152.65 66.34 212.22 126.2 212.22 135.38 194.71 135.38 166.12 106.79 147.12 106.79 147.12 126.95 157.77 126.95 181.43 150.61 136.07 150.61 112.14 126.67 140.71 126.67 140.71 126.53 141.1 126.56 141.1 71.42 120.94 71.42 120.94 106.79 92.25 106.79 65.96 80.55 65.96 71.42 45.8 71.42 45.8 88.86 92.77 135.83 92.77 155.64 109.97 155.64 109.97 155.65 223.2 155.65 223.2 155.54 230.36 155.54 230.36 137 163.37 70.01 163.37 70.01"/>
      <polygon points="493.8 71.42 473.64 71.42 473.64 80.55 447.35 106.79 418.66 106.79 418.66 71.42 398.5 71.42 398.5 126.56 398.89 126.53 398.89 126.67 427.46 126.67 403.53 150.61 358.17 150.61 381.83 126.95 392.48 126.95 392.48 106.79 373.48 106.79 344.89 135.38 327.38 135.38 327.38 126.2 386.96 66.32 383.44 62.8 376.23 70.01 376.23 70.01 309.24 137 309.24 155.54 316.4 155.54 316.4 155.65 429.63 155.65 429.63 155.64 446.83 155.64 446.83 135.83 493.8 88.86 493.8 71.42"/>
      <path d="M520.78,45.87h-26.99v-19.96L470.1,0h-23.36l-40.3,40.3,7.32.02,20.36-20.36h26.91l12.6,13.78v12.14h-71.09l-22.76-22.76h-14.99c-7.87,7.87-12.29,12.29-20.16,20.16h.01l-9.17,9.17h-65.47c-.07.07-.13.13-.2.2-.07-.07-.13-.13-.2-.2h-65.47l-9.17-9.17h.01c-7.87-7.87-12.29-12.29-20.16-20.16h-14.99l-22.76,22.76h-71.09v-12.14l12.6-13.78h26.91l20.36,20.36,7.32-.02L92.86,0h-23.36l-23.69,25.91v19.96h-26.99L0,64.69v47.93l43.03,43.03h44.93v-5.04h-21.46l-46.34-46.34v-31.23l7.01-7.01h118.24l8.55-8.55h105.76v61.75l-16.37,16.36h-7.95v20.16h16.3l18.09-18.09,18.09,18.09h16.3v-20.16h-7.95l-16.37-16.36v-61.75h105.76l8.55,8.55h118.24l7.01,7.01v31.23l-46.34,46.34h-21.46v5.04h44.93l43.03-43.03v-47.93l-18.82-18.82ZM159,52.44l9.17-9.17h19.46l9.17,9.17h-37.8ZM373.04,52.44h-30.24l9.17-9.17h19.46l9.17,9.17h-7.56Z"/>
    </g>
  </g>
</svg>