<?xml version="1.0" encoding="UTF-8"?>
<svg id="Layer_2" data-name="Layer 2" xmlns="http://www.w3.org/2000/svg" viewBox="0 0 655.53 130.96">
  <g id="_Слой_1" data-name="Слой 1">
    <g>
      <rect y="39.98" width="19.42" height="90.97"/>
      <polygon points="26.11 0 0 26.1 0 35.21 19.06 35.21 19.06 34 34 19.06 126.81 19.06 146.69 38.94 79.02 38.94 79.02 38.98 75.03 38.98 24.26 89.75 24.26 116.71 79.02 61.94 148.03 130.96 174.99 130.96 140.16 96.13 197.06 96.13 178 77.07 121.1 77.07 102.04 58 165.75 58 238.33 130.58 265.29 130.58 134.71 0 26.11 0"/>
      <path d="M180.51,39.03l91.93,91.93h26.95l-91.93-91.93h-26.96Z"/>
      <path d="M271.32,96.13h47.07v15.76h-31.28c7.44,7.44,11.62,11.62,19.06,19.06h31.28v-53.88h-85.19c7.44,7.44,11.62,11.62,19.06,19.06Z"/>
      <rect x="318.08" y="39.98" width="19.42" height="32.33"/>
      <polygon points="344.19 0 318.08 26.1 318.08 35.21 337.14 35.21 337.14 34 352.08 19.06 444.88 19.06 464.77 38.94 397.1 38.94 397.1 38.98 393.11 38.98 342.34 89.75 342.34 116.71 397.1 61.94 466.1 130.96 493.06 130.96 458.24 96.13 515.13 96.13 496.07 77.07 439.18 77.07 420.11 58 483.83 58 556.41 130.58 583.37 130.58 452.78 0 344.19 0"/>
      <path d="M498.59,39.03l91.93,91.93h26.95l-91.93-91.93h-26.96Z"/>
      <path d="M570.34,77.07c7.44,7.44,11.62,11.62,19.06,19.06h47.07v15.76h-31.28c7.44,7.44,11.62,11.62,19.06,19.06h31.28v-53.88h-85.19Z"/>
    </g>
  </g>
</svg>