<?xml version="1.0" encoding="UTF-8"?>
<svg id="Layer_2" data-name="Layer 2" xmlns="http://www.w3.org/2000/svg" viewBox="0 0 756.82 87.95">
  <g id="_Слой_1" data-name="Слой 1">
    <g>
      <path d="M26.56,0H0v19.17c0,1.64.65,3.2,1.81,4.36l47.61,47.61,60.76.07L38.97,0h-12.41Z"/>
      <path d="M278.05,16.74h-60.69l-71.21,71.21,54.4-.06c4.08,0,7.99-1.63,10.87-4.51l19.21-19.21c2.89-2.89,6.8-4.51,10.89-4.51h15.33l43.02-42.92h-21.81Z"/>
      <path d="M107.54,59.65h58.06l21.53-21.44h-27.29c-5.5,0-8.25-6.65-4.35-10.53,3.9-3.88,1.15-10.53-4.35-10.53h-86.11c8.24,8.24,34.14,34.14,42.51,42.51Z"/>
      <path d="M747.83,0h-29.97l-71.21,71.21,60.76-.07,47.61-47.61c1.16-1.16,1.8-2.72,1.8-4.36V0h-9Z"/>
      <path d="M539.17,16.74h-82.21l43.02,42.92h15.34c4.08,0,8,1.62,10.89,4.51l19.21,19.21c2.88,2.88,6.79,4.51,10.87,4.51l54.4.06-71.21-71.21h-.29Z"/>
      <path d="M649.29,59.65c8.37-8.38,34.28-34.28,42.51-42.51h-86.12c-5.5,0-8.25,6.65-4.35,10.54,3.9,3.88,1.15,10.53-4.35,10.53h-27.29l21.53,21.44h58.06Z"/>
      <path d="M448.19,16.74h-60.69l1.8,1.8c9.7,9.7,2.83,26.28-10.89,26.28s-20.59-16.58-10.89-26.28l1.8-1.8h-60.69l-28.24,28.24c-15.84,15.84-4.6,42.92,17.8,42.9l.14-.14h160.17l.14.14c22.4.03,33.64-27.06,17.8-42.9l-28.24-28.24Z"/>
    </g>
  </g>
</svg>