<?xml version="1.0" encoding="UTF-8"?>
<svg id="Layer_2" data-name="Layer 2" xmlns="http://www.w3.org/2000/svg" viewBox="0 0 782.35 100.05">
  <g id="_Слой_1" data-name="Слой 1">
    <path d="M740.62,12.04h-98.33c-5.78,0-10.21,4.75-10.32,10.53-.11,5.6-4.69,10.11-10.32,10.11h-.97c-2.3,0-4.16,1.86-4.16,4.16v14.16c0,2.3-1.86,4.16-4.16,4.16h-26.8l-18.93-18.93c-3.12-3.12-7.37-4.67-11.77-4.74-4.4-.07-8.59-1.84-11.71-4.95l-21.58-21.58c-3.17-3.17-7.48-4.96-11.97-4.96h-32.74c-24.27,0-43.95,19.68-43.95,43.95,0,6.41-5.22,11.59-11.65,11.53-3.09-.03-6.03,1.37-8.22,3.55l-16.44,16.44c-1.35,1.35-3.18,2.11-5.09,2.11h-.73c-1.91,0-3.74-.76-5.09-2.11l-16.44-16.44c-2.19-2.19-5.12-3.58-8.22-3.55-6.42.06-11.65-5.12-11.65-11.53,0-24.27-19.68-43.95-43.95-43.95h-32.74c-4.49,0-8.79,1.78-11.97,4.96l-21.58,21.58c-3.07,3.07-7.2,4.92-11.54,4.95s-8.78,1.59-11.94,4.74l-18.93,18.93h-26.8c-2.3,0-4.16-1.86-4.16-4.16v-14.16c0-2.3-1.86-4.16-4.16-4.16h-.97c-5.78,0-10.21-4.75-10.32-10.53-.11-5.6-4.69-10.11-10.32-10.11H41.72C18.68,12.04,0,30.72,0,53.76h0c0,11.07,4.4,21.68,12.22,29.5l4.43,4.43c7.82,7.82,18.44,12.22,29.5,12.22h108.57c6.09,0,11.01-4.95,10.98-11.04v-.22c-.03-6.09,4.89-11.04,10.98-11.04h18.34c6.07,0,10.98,4.92,10.98,10.98v.33c0,6.07,4.92,10.98,10.98,10.98h99.42c6.15,0,10.86-5.05,10.98-11.21.12-5.96,4.99-10.76,10.98-10.76h13.26c3.06,0,5.99,1.21,8.15,3.38l15.34,15.34c2.16,2.16,5.1,3.38,8.15,3.38h15.75c3.06,0,5.99-1.21,8.15-3.38l15.34-15.34c2.16-2.16,5.1-3.38,8.15-3.38h13.26c6.15,0,10.86,5.05,10.98,11.21.12,5.96,4.99,10.76,10.98,10.76h99.42c6.07,0,10.98-4.92,10.98-10.98v-.33c0-6.07,4.92-10.98,10.98-10.98h18.34c6.09,0,11.01,4.95,10.98,11.04v.2c-.03,6.09,4.9,11.05,11,11.05h108.56c11.06,0,21.67-4.39,29.5-12.22l4.43-4.43c7.83-7.82,12.22-18.44,12.22-29.5h0c0-23.04-18.68-41.72-41.72-41.72ZM156.83,63.98l-7.08.07c-3.68.02-6.64,3.02-6.62,6.7.02,3.69-2.97,6.7-6.66,6.7h-64.98c-5.11,0-10-2.03-13.61-5.64l-4.43-4.43c-3.61-3.61-5.64-8.51-5.64-13.61h0c0-10.63,8.62-19.25,19.25-19.25h50.26c5.84,0,10.57,4.73,10.57,10.57s4.73,10.57,10.57,10.57h18.34c2.3,0,4.16,1.86,4.16,4.16s-1.85,4.15-4.13,4.16ZM326.95,58.1c0,10.69-8.66,19.35-19.35,19.35h-73.05c-10.44,0-15.67-12.62-8.29-20.01,2.2-2.2,5.18-3.43,8.29-3.43h72.2c6.21,0,11.24-5.03,11.24-11.24s-5.03-11.24-11.24-11.24h-29.85c-4.04,0-6.06-4.88-3.21-7.74.85-.85,2-1.33,3.21-1.33h30.7c10.69,0,19.35,8.66,19.35,19.35v16.28ZM547.79,77.45h-73.05c-10.69,0-19.35-8.66-19.35-19.35v-16.28c0-10.69,8.66-19.35,19.35-19.35h30.7c1.2,0,2.36.48,3.21,1.33,2.86,2.86.83,7.74-3.21,7.74h-29.85c-6.21,0-11.24,5.03-11.24,11.24s5.03,11.24,11.24,11.24h72.2c3.11,0,6.09,1.23,8.29,3.43,7.38,7.38,2.15,20.01-8.29,20.01ZM734.53,53.77c0,5.11-2.03,10-5.64,13.61l-4.43,4.43c-3.61,3.61-8.51,5.64-13.61,5.64h-64.98c-3.7,0-6.68-3.01-6.66-6.7.02-3.68-2.94-6.68-6.62-6.7l-7.08-.07c-2.29-.01-4.13-1.87-4.13-4.16s1.86-4.16,4.16-4.16h18.34c5.84,0,10.57-4.73,10.57-10.57s4.73-10.57,10.57-10.57h50.26c10.63,0,19.25,8.62,19.25,19.25h0Z"/>
  </g>
</svg>