<?xml version="1.0" encoding="UTF-8"?>
<svg id="Layer_2" data-name="Layer 2" xmlns="http://www.w3.org/2000/svg" viewBox="0 0 638.65 161.59">
  <g id="_Слой_1" data-name="Слой 1">
    <g>
      <polygon points="141.89 48.07 142.56 48.76 177 48.76 127.75 0 110.52 17.23 141.87 48.09 141.89 48.07"/>
      <path d="M299.65,123.47l-15.16-15.16h-34.47s28.9,28.9,28.9,28.9h-111.61l-.05-4.88h99.82l-63.11-63.11-17.23,17.23,10.47,10.47-11.03,11.03h-21.04c-4.8,4.85-7.46,7.56-12.29,12.41l.22,20.7-15.64,15.64h-27.88l103.09-103.09h-72.1l-22.87-22.87h0l-10.34-10.34-38,38,.07.07h0l6.63,6.63.07.07,3.57,3.57h0s23.74,23.72,23.74,23.72v29.02l14.5-14.5h0s17.23-17.23,17.23-17.23l-38.24-38.24,3.53-3.53,30.01,30.01h23.34l-59.21,59.21h-58.23l-21.73-21.73v-21.12h83.89c-9.52-9.52-14.86-14.86-24.38-24.38H0v51.45l40.15,40.15h113.14s135.67,0,135.67,0h27.92v-20.89l-17.23-17.23h0Z"/>
      <path d="M564.51,69.99c-9.52,9.52-14.86,14.86-24.38,24.38h83.89v21.12l-21.73,21.73h-58.23l-59.21-59.21h23.34l30.01-30.01,3.53,3.53-38.24,38.24,17.23,17.23h0s14.5,14.5,14.5,14.5v-29.02l23.74-23.72h0s3.57-3.57,3.57-3.57l.07-.07,6.63-6.63h0l.07-.07-38-38-10.34,10.34h0l-22.87,22.87h-72.1l103.09,103.09h-27.88l-15.64-15.64.22-20.7c-4.83-4.85-7.48-7.56-12.29-12.41h-21.04l-11.03-11.03,10.47-10.47-17.23-17.23-63.11,63.11h99.82l-.05,4.88h-111.61l28.9-28.9h0c-13.46,0-21.01,0-34.47,0l-15.16,15.16h0s-17.23,17.23-17.23,17.23v20.89h163.59s20.74,0,20.74,0h92.41l40.15-40.15v-51.45h-74.14Z"/>
      <polygon points="496.75 48.07 496.78 48.09 528.13 17.23 510.89 0 461.65 48.76 496.09 48.76 496.75 48.07"/>
    </g>
  </g>
</svg>