<?xml version="1.0" encoding="UTF-8"?>
<svg id="Layer_2" data-name="Layer 2" xmlns="http://www.w3.org/2000/svg" viewBox="0 0 569.44 106.96">
  <g id="_Слой_1" data-name="Слой 1">
    <g>
      <path d="M65.98,67.33c7.68,0,15.06-3.02,20.53-8.42l50.47-49.73c3.39-3.39.99-9.18-3.8-9.18h-.02c-1.43,0-2.79.57-3.8,1.58l-40.41,40.41c-.37.37-.88.58-1.4.58-1.77,0-2.65-2.14-1.4-3.39l17.54-17.54c7.99-7.99,2.33-21.65-8.97-21.65h0c-3.36,0-6.59,1.34-8.97,3.71L3.65,85.81c-7.8,7.8-2.28,21.15,8.76,21.15h.67c3.29,0,6.44-1.31,8.76-3.63l36-35.99h8.15Z"/>
      <path d="M510,71.79h-21.04L417.18,0H152.26l-62.04,62.06c-6.23,6.23-14.69,9.74-23.5,9.74h-7.27l-14.01,14.01c-7.8,7.8-2.29,21.13,8.74,21.15h1.21c3.29,0,6.45-1.3,8.78-3.63L156.04,11.45c.39-.39.92-.61,1.47-.61,1.85,0,2.77,2.23,1.47,3.54l-40.77,40.77c-7.8,7.8-2.28,21.15,8.76,21.15h0c3.29,0,6.44-1.31,8.76-3.63l43.35-43.37c2.9-2.9,6.84-4.54,10.95-4.54l80.02.07c1.17,0,2.12.95,2.12,2.12s-.95,2.12-2.12,2.12h-78.63c-3.85,0-7.54,1.53-10.26,4.25l-21.84,21.84c-7.8,7.8-2.28,21.13,8.75,21.13h0c3.28,0,6.43-1.3,8.76-3.62l32.78-32.71,150.22-.07,32.78,32.78c2.32,2.32,5.47,3.63,8.75,3.63h0c11.03,0,16.55-13.34,8.75-21.13l-26.09-26.09h-84.64c-1.17,0-2.12-.95-2.12-2.12s.95-2.12,2.12-2.12l86.44-.07,47.88,47.91c2.32,2.32,5.48,3.63,8.76,3.63h0c11.04,0,16.56-13.34,8.76-21.15l-40.77-40.77c-1.31-1.31-.38-3.54,1.47-3.54.55,0,1.08.22,1.47.61l91.88,91.87c2.33,2.33,5.49,3.63,8.78,3.63h1.21c11.03-.02,16.54-13.35,8.74-21.15l-14.01-14.01Z"/>
      <path d="M565.79,85.81L483.69,3.71c-2.38-2.38-5.6-3.71-8.97-3.71h0c-11.3,0-16.95,13.66-8.97,21.65l17.54,17.54c1.25,1.25.36,3.39-1.4,3.39-.53,0-1.03-.21-1.4-.58L440.07,1.57c-1.01-1.01-2.38-1.57-3.8-1.57-4.79,0-7.19,5.79-3.8,9.18l58.15,58.15h.86s20.13,0,20.13,0l36,35.99c2.32,2.32,5.47,3.63,8.76,3.63h.67c11.04,0,16.56-13.34,8.76-21.15Z"/>
    </g>
  </g>
</svg>