<?xml version="1.0" encoding="UTF-8"?>
<svg id="Layer_2" data-name="Layer 2" xmlns="http://www.w3.org/2000/svg" viewBox="0 0 642.9 115.66">
  <g id="_Слой_1" data-name="Слой 1">
    <g>
      <path d="M406.35,68.71c-1.13-1.13-2.67-1.77-4.28-1.77h-26.87l-35.95-35.95c-1.14-1.12-2.67-1.75-4.27-1.75h-27.06c-1.6,0-3.12.63-4.27,1.75l-35.95,35.95h-26.87c-1.6,0-3.14.64-4.28,1.77l-36.68,36.68c-3.8,3.8-1.08,10.31,4.3,10.27l29.27-.21c.1.02.21.04.31.04l30.67-.25c1.58,0,3.09-.65,4.21-1.75l44.74-44.74c1.12-1.12,2.64-1.75,4.23-1.75h7.7c1.59,0,3.11.63,4.23,1.75l44.74,44.74c1.12,1.1,2.63,1.75,4.21,1.75l30.67.25c.1,0,.21-.02.31-.04l29.28.21c5.38.04,8.1-6.46,4.29-10.26l-36.68-36.68Z"/>
      <path d="M533.73,66.76h-40.11c-1.6,0-3.13.63-4.26,1.76l-36.68,36.68c-3.81,3.81-1.08,10.31,4.3,10.27l30.69-.21c1.58-.01,3.1-.64,4.21-1.76l43.28-43.28c1.28-1.28.37-3.46-1.43-3.46Z"/>
      <path d="M636.83,2.1l-30.7.2c-1.58,0-3.1.64-4.22,1.77l-36.82,36.87c-2.34,2.34-6.12,2.36-8.48.04l-7.84-7.7c-1.13-1.11-2.64-1.72-4.22-1.72h-85.93c-1.58,0-3.1-.62-4.23-1.73l-28.45-28.07c-1.13-1.11-2.64-1.73-4.23-1.73h-90.33c-5.36,0-8.05,6.48-4.26,10.27l48.47,48.47c1.12,1.12,2.63,1.75,4.22,1.76l30.7.2c5.38.03,8.1-6.47,4.29-10.27l-11.71-11.71c-1.91-1.91-.56-5.17,2.14-5.17.8,0,1.57.32,2.14.89l30.65,30.65,18.78,18.83c2.35,2.36,6.16,2.36,8.52,0l21.51-21.51c1.13-1.13,2.66-1.76,4.26-1.76h47.64c5.36,0,8.05,6.48,4.25,10.27l-.24.24c-3.79,3.79-1.11,10.27,4.26,10.27h22.54c1.6,0,3.13-.63,4.26-1.76l67.31-67.31c3.8-3.8,1.09-10.31-4.29-10.27Z"/>
      <path d="M153.54,68.52c-1.13-1.13-2.66-1.76-4.26-1.76h-40.11c-1.81,0-2.71,2.18-1.43,3.46l43.28,43.28c1.12,1.12,2.63,1.75,4.21,1.76l30.69.21c5.38.04,8.1-6.47,4.3-10.27l-36.68-36.68Z"/>
      <path d="M104.15,60.65h47.64c1.6,0,3.13.63,4.26,1.76l21.51,21.51c2.35,2.35,6.17,2.35,8.52,0l18.78-18.83,30.65-30.65c.57-.57,1.34-.89,2.14-.89,2.7,0,4.05,3.26,2.14,5.17l-11.71,11.71c-3.8,3.8-1.09,10.31,4.29,10.27l30.7-.2c1.58,0,3.1-.64,4.22-1.76l48.47-48.47c3.79-3.79,1.11-10.27-4.26-10.27h-90.33c-1.58,0-3.1.62-4.23,1.73l-28.45,28.07c-1.13,1.11-2.64,1.73-4.23,1.73h-85.93c-1.58,0-3.09.62-4.22,1.72l-7.84,7.7c-2.36,2.32-6.14,2.3-8.48-.04L40.99,4.06c-1.12-1.12-2.64-1.76-4.22-1.77l-30.7-.2c-5.38-.03-8.1,6.47-4.29,10.27l67.31,67.31c1.13,1.13,2.66,1.76,4.26,1.76h22.54c5.36,0,8.05-6.48,4.26-10.27l-.24-.24c-3.79-3.79-1.11-10.27,4.25-10.27Z"/>
    </g>
  </g>
</svg>