<?xml version="1.0" encoding="UTF-8"?>
<svg id="Layer_2" data-name="Layer 2" xmlns="http://www.w3.org/2000/svg" viewBox="0 0 642.3 151.43">
  <g id="_Слой_1" data-name="Слой 1">
    <g>
      <path d="M169.57.86c-2.54-.56-5.16-.82-7.78-.82l-16.16-.04c-9.33.04-18.22,3.74-24.8,10.27L3.87,127.65c-5.18,5.23-5.16,13.66.04,18.86,5.23,5.23,13.72,5.22,18.94-.04l109.5-109.78,7.44-7.48v-.04c.39-.34.82-.64,1.25-.99.22-.17.43-.26.69-.43,1.2-.6,2.53-.99,3.87-.99l8.25.09c1.81-10.58,7.56-19.86,15.73-26.01Z"/>
      <path d="M66.82,114.92c-6.17,6.25-8.04,15.45-4.68,23.53,2.85,6.89,8.98,11.75,16.17,12.98h75.02v-26.43h-50.3c-3.11,0-4.64-3.7-2.47-5.91l52.77-52.72v-31.06h-6.94l-79.57,79.62Z"/>
      <path d="M281.75,74.33v-33.11c0-8.77-5.23-16.6-13.32-19.91-8.09-3.41-17.32-1.53-23.53,4.64l-20.85,20.85v-13.92c0-18.55-16.21-33.32-35.19-30.85-15.7,2-27.02,16.13-27.02,31.96v117.45h26.81V33.13c0-2.17,1.45-4.21,3.62-4.55,2.68-.43,5.02,1.66,5.02,4.3v25.7c0,8.17,4.17,16.04,11.41,19.83,8.55,4.51,18.77,2.94,25.45-3.79l16.98-16.98c1.45-1.4,3.87-.43,3.87,1.62v8.34l-57.45,57.49h-.01v26.29h11.49l.02.04,69.66-69.62c1.96-2,3.06-4.68,3.06-7.49Z"/>
      <path d="M349.78,124.58c-2.26,0-4.04-1.79-4.04-4.04s1.79-4.04,4.04-4.04h36.51l-26.81-26.81h-10c-1.02,0-2,.04-2.98.17-2.04.17-4.04.55-5.96,1.19-8.94,2.78-16.06,9.6-19.4,18.29-3.33-8.69-10.46-15.51-19.4-18.29-1.91-.64-3.91-1.02-5.96-1.19-.98-.13-1.96-.17-2.98-.17h-10l-26.81,26.81h36.51c2.26,0,4.04,1.83,4.04,4.04s-1.79,4.04-4.04,4.04h-44.6l-26.81,26.81,71.7-.04c7.53,0,15.02-2.51,20.64-7.53,3.45-3.09,6.03-6.86,7.69-11.01,1.66,4.15,4.25,7.92,7.7,11.01,5.62,5.02,13.1,7.53,20.64,7.53l71.7.04-26.81-26.81h-44.6Z"/>
      <path d="M638.43,127.65l-116.96-117.38c-6.58-6.53-15.47-10.23-24.8-10.27l-16.16.04c-2.62,0-5.24.26-7.78.82,8.17,6.15,13.93,15.43,15.73,26.01l8.25-.09c1.33,0,2.67.38,3.87.99.26.17.47.26.69.43.43.34.86.65,1.25.99v.04l7.44,7.48,109.5,109.78c5.22,5.25,13.7,5.27,18.94.04,5.2-5.2,5.22-13.63.04-18.86Z"/>
      <path d="M495.91,35.3h-6.94v31.06l52.77,52.72c2.17,2.21.64,5.91-2.47,5.91h-50.3v26.43h75.02c7.19-1.23,13.32-6.09,16.17-12.98,3.36-8.08,1.49-17.28-4.68-23.53l-79.58-79.62Z"/>
      <path d="M453.44,2.03c-18.98-2.47-35.19,12.3-35.19,30.85v13.92l-20.85-20.85c-6.21-6.17-15.45-8.04-23.53-4.64-8.08,3.32-13.32,11.15-13.32,19.91v33.11c0,2.81,1.11,5.49,3.06,7.49l69.66,69.62.02-.04h11.49v-26.29h-.01l-57.45-57.49v-8.34c0-2.04,2.42-3.02,3.87-1.62l16.98,16.98c6.68,6.72,16.89,8.3,25.45,3.79,7.23-3.79,11.41-11.66,11.41-19.83v-25.7c0-2.64,2.34-4.72,5.02-4.3,2.17.34,3.62,2.38,3.62,4.55v118.3h26.81V33.98c0-15.83-11.32-29.96-27.02-31.96Z"/>
    </g>
  </g>
</svg>