<?xml version="1.0" encoding="UTF-8"?>
<svg id="Layer_2" data-name="Layer 2" xmlns="http://www.w3.org/2000/svg" viewBox="0 0 627.13 143.27">
  <g id="_Слой_1" data-name="Слой 1">
    <g>
      <g>
        <polygon points="556.33 72.52 529.87 46.07 469.66 46.07 496.11 72.52 556.33 72.52"/>
        <polygon points="400.4 120.67 460.65 120.67 504.65 76.59 444.47 76.59 400.4 120.67"/>
        <path d="M627.13,143.24l-15.28-15.28v-49.58c-12.29-12.29-19.18-19.18-31.47-31.47v49.58l-19.89-19.89h-50.35l-18.6,18.6h19.05c5.29,0,10.36,2.11,14.06,5.82l27.36,27.36v14.86h41.17s33.94,0,33.94,0Z"/>
        <path d="M400.36,49.33c4.11-4.28,6.79-9.9,6.83-15.83v-.33c0-5.04-1.63-10.01-4.65-14.1l-13.98-19.06v19.06c0,5.26-2.09,10.31-5.81,14.04l-67.19,67.19v37.41l.24-.24,84.57-88.14Z"/>
        <path d="M364.13,124.64c-4.21,4.21-7.34,7.34-10.64,10.64v-14.62h41.15l74.65-74.65-60.16-.06-93.5,97.32h32.21l.05-.05h204.11v-9.25l-9.33-9.33h-178.53Z"/>
      </g>
      <g>
        <polygon points="70.8 72.52 97.26 46.07 157.47 46.07 131.02 72.52 70.8 72.52"/>
        <polygon points="226.73 120.67 166.48 120.67 122.48 76.59 182.66 76.59 226.73 120.67"/>
        <path d="M0,143.24l15.28-15.28v-49.58c12.29-12.29,19.18-19.18,31.47-31.47v49.58s19.89-19.89,19.89-19.89h50.35s18.6,18.6,18.6,18.6h-19.05c-5.29,0-10.36,2.11-14.06,5.82l-27.36,27.36v14.86h-41.17s0,0,0,0H0Z"/>
        <path d="M226.77,49.33c-4.11-4.28-6.79-9.9-6.83-15.83v-.14s0-.2,0-.2c0-5.04,1.63-10.01,4.65-14.1L238.57,0v19.06c0,5.26,2.09,10.31,5.81,14.04l67.19,67.19v37.41s-.24-.24-.24-.24l-84.57-88.14Z"/>
        <path d="M263,124.64c4.21,4.21,7.34,7.34,10.64,10.64v-14.62s-41.15,0-41.15,0l-74.65-74.65,60.16-.06,93.5,97.32h-32.21s-.05-.05-.05-.05H75.13v-9.25s9.33-9.33,9.33-9.33h178.53Z"/>
      </g>
    </g>
  </g>
</svg>