<?xml version="1.0" encoding="UTF-8"?>
<svg id="Layer_2" data-name="Layer 2" xmlns="http://www.w3.org/2000/svg" viewBox="0 0 648.52 110.81">
  <g id="_Слой_1" data-name="Слой 1">
    <g>
      <path d="M603.53.12h-247.2s-11.33,11.33-11.33,11.33l-20.74,20.74,41.59,41.59h86.06l37.02,37.02c16.2,0,25.28,0,41.49,0l-66.35-66.36h-86.06l-21.67-21.67V3.05h128.04l-10.04,10.04-9.99,9.99c-.01,7.19-.02,11.23-.03,18.43l34.85,35.08,34.13,34.12h37.78l26.55-26.55-20.74-20.74-9.81-9.81v19.62l-8.15,8.15h-13.48l-27.83-27.82h97.87l3.7,3.7v11.48l-14.53,14.53h43.86v-38.16L603.53.12ZM514.68,50.63l-27.47-27.47V3.05h82.2c-9.68,9.68-15.98,15.98-26.4,26.4h48.37l21.17,21.17h-97.88Z"/>
      <path d="M303.52,11.33L292.19,0h0s-216.01,0-216.01,0h-31.19L0,44.99v38.16h43.86l-14.53-14.53v-11.48l3.7-3.7h97.88l-27.83,27.82h-13.48l-8.15-8.15v-19.62l-9.81,9.81-20.74,20.74,26.55,26.55h37.78l34.12-34.12,34.85-35.08c-.01-7.19-.02-11.24-.03-18.43l-9.99-9.99-10.04-10.04h128.04v19.72l-21.67,21.67h-86.06l-66.35,66.36c16.2,0,25.28,0,41.49,0l37.02-37.02h86.06l41.59-41.59-20.74-20.74ZM161.31,23.04l-27.47,27.47H35.97l21.17-21.17h48.37c-10.43-10.43-16.72-16.72-26.4-26.4h82.2v20.11Z"/>
    </g>
  </g>
</svg>