<?xml version="1.0" encoding="UTF-8"?>
<svg id="Layer_2" data-name="Layer 2" xmlns="http://www.w3.org/2000/svg" viewBox="0 0 602.4 99.84">
  <g id="_Слой_1" data-name="Слой 1">
    <g>
      <polygon points="405.68 67.44 405.68 62.11 383.89 62.11 383.89 76.46 406.97 99.54 521.23 99.54 521.23 77.75 416 77.75 405.68 67.44"/>
      <path d="M329.47,85.21v14.46h21.79v-5.44l32.25-32.25h-30.81l-23.22,23.22Z"/>
      <path d="M448.46,57.32v-15.26c-2.55-2.55-3.98-3.98-6.53-6.53h-109.78l-28.78,28.78v35.52h21.79v-26.5l16.01-16.01h107.28Z"/>
      <path d="M602.17,50.15h-17.25l-5.81,5.81h-57.88v21.79h66.9l14.26-14.27-.23-13.33Z"/>
      <path d="M471.63,21.84h.09l45.14,45.14v-15.38h15.47l-29.76-29.76h63.99l13.81,13.82v5.72c1.73,1.73,2.71,2.7,4.44,4.44h17.35v-19.18L575.59.05h-94.8l-.05-.05h-30.85l.05.05h-.09l21.79,21.79Z"/>
      <path d="M414.28,31.17l8.76-8.76h20.96v8.79c1.07,1.08,41.75,41.76,41.75,41.76h30.81s-6.34-6.34-15.27-15.27C480.07,36.45,444.22.61,444.22.61h-.22s-4.36,0-4.36,0h-22.91v.03c-.89,0-1.77,0-2.71.01l-30.73,30.72h30.99v-.22Z"/>
      <polygon points="531.99 82.1 549.56 99.67 580.37 99.67 562.81 82.1 531.99 82.1"/>
      <polygon points="196.71 67.44 186.4 77.75 81.17 77.75 81.17 99.54 195.42 99.54 218.5 76.46 218.5 62.11 196.71 62.11 196.71 67.44"/>
      <path d="M218.89,61.98l32.25,32.25v5.44h21.79v-14.46l-23.22-23.22h-30.81Z"/>
      <path d="M160.46,35.53c-2.55,2.55-3.98,3.98-6.53,6.53v15.26h107.28l16.01,16.01v26.5h21.79v-35.52l-28.78-28.78h-109.78Z"/>
      <path d="M101.1,57.68c-8.93,8.93-15.27,15.27-15.27,15.27h30.81s40.68-40.68,41.75-41.76v-8.79h20.96l8.76,8.76v.22h30.99L188.38.66c-.95,0-1.83,0-2.71-.01v-.03h-27.27s-.22,0-.22,0c0,0-35.85,35.85-57.07,57.07Z"/>
      <path d="M23.29,55.96l-5.81-5.81H.23l-.23,13.33,14.26,14.27h66.9v-21.79H23.29Z"/>
      <path d="M22.01,41.37v-5.72l13.81-13.82h63.99l-29.76,29.76h15.47v15.38l45.14-45.14h.09L152.55.05h-.09l.05-.05h-30.85l-.05.05H26.8L.22,26.63v19.18h17.35c1.73-1.73,2.7-2.71,4.44-4.44Z"/>
      <polygon points="22.03 99.67 52.84 99.67 70.4 82.1 39.59 82.1 22.03 99.67"/>
    </g>
  </g>
</svg>