<?xml version="1.0" encoding="UTF-8"?>
<svg id="Layer_2" data-name="Layer 2" xmlns="http://www.w3.org/2000/svg" viewBox="0 0 590.26 127.97">
  <g id="_Слой_1" data-name="Слой 1">
    <g>
      <path d="M590.26,45.89l-24.14-24.13h-72.13c-8.56,8.56-13.36,13.36-21.93,21.93h84.98l11.28,11.28v50.67h-37.92l-28.21-28.21-25.91.02-50.04,50.03h30.89c9.81-9.82,28.19-28.19,28.19-28.19l7.82-.02,28.22,28.21h46.97v-21.84h21.93v-59.76h0Z"/>
      <path d="M472.19,43.7h0l-68.77,68.77,15.5,15.5,53.26-53.26v-31.01Z"/>
      <path d="M400.28,108.6l15.5-15.39-71.37-71.37h105.29l18.55,18.55,18.83-18.83L465.51,0h-99.35c-8.51,8.51-13.29,13.3-21.79,21.79l-.11-.11h-46.67v22.1l61.86,61.86h-61.97l.21,21.84h92.54v-21.84l-62.02-62.12h7l65.08,65.08Z"/>
      <path d="M88.06,77.43l-28.22,28.21H21.93v-50.67l11.28-11.28h84.98c-8.56-8.56-13.36-13.36-21.93-21.93H24.14L0,45.89h0v59.76h21.93v21.84h46.97l28.22-28.21,7.82.02s18.38,18.38,28.19,28.19h30.89s-50.04-50.03-50.04-50.03l-25.91-.02Z"/>
      <path d="M118.07,43.7v31.01l53.26,53.26,15.5-15.5L118.07,43.7h0Z"/>
      <path d="M292.68,43.78v-22.1h-46.67l-.11.11c-8.5-8.5-13.28-13.28-21.79-21.79h-99.35l-21.56,21.56,18.83,18.83,18.55-18.55h105.29l-71.37,71.37,15.5,15.39,65.08-65.08h7l-62.02,62.12v21.84h92.54l.21-21.84h-61.97l61.86-61.86Z"/>
    </g>
  </g>
</svg>