<?xml version="1.0" encoding="UTF-8"?>
<svg id="Layer_2" data-name="Layer 2" xmlns="http://www.w3.org/2000/svg" viewBox="0 0 675.35 147.07">
  <g id="_Слой_1" data-name="Слой 1">
    <g>
      <polygon points="153.1 36.73 144.84 36.73 154.54 27.03 120.39 27.03 117.37 30.05 0 147.07 33.32 147.07 129.93 50.46 141.1 50.46 132.84 58.73 132.84 116.85 126.18 123.51 64.65 123.51 41.34 146.82 81.81 146.82 81.81 146.83 135.84 146.83 156.15 126.51 156.15 68.38 224.54 0 189.83 0 153.1 36.73"/>
      <polygon points="287.41 80.41 327.59 80.41 327.59 80.41 352.3 55.7 310.77 55.7 310.73 50.46 357.32 50.46 407.76 .02 407.38 .02 407.41 0 367.88 0 331.15 36.73 323.28 36.73 360.02 0 321.93 0 287.41 34.52 287.41 80.41"/>
      <path d="M420.4,36.73h-8.26L448.71.16h-34.15l-29.9,29.9-50.8,50.45h33.32l30.04-30.04h11.17l-8.26,8.26v58.13l-6.66,6.66h-22.29l-38.62-38.62h-16.58v-.02s-97.81,0-97.81,0l-34.7,34.7v-39.06l29.69-29.69h40.12v-23.32h5.45v27.97l-43.36.1-26.98,27.11.11,24.85,27.16-27.16h66.38V0h-50.94l-70.35,70.35.1,58.81-17.76,17.66h17.06s29.03,0,29.03,0l37.65-37.65h39.76v14.18h-47.25l-23.01,23.42h56.79l-.13-.11h60.31v-37.47h10.59l13.26,13.26c.36.36.7.7,1.05,1.05h-.02l22.93,23.32h42.01l20.32-20.32v-58.13L491.84,0h-34.71l-36.73,36.73Z"/>
      <polygon points="635.59 0 598.73 36.85 590.87 36.85 627.72 0 589.64 0 555 34.64 555 80.53 595.18 80.53 595.18 80.53 618.59 57.12 578.31 57.12 578.27 53.25 621.42 53.25 675.35 .14 674.97 .14 675.12 0 635.59 0"/>
      <path d="M471.2,27.63h-.09l-42.55,42.55v58.51l-17.85,18.25h17.06s29.03,0,29.03,0l37.65-37.65h39.76v14.18h-47.25l-23.01,23.42h56.79l-.13-.11h60.31v-37.47h4.64l13.26,13.26c.36.36.7.7,1.05,1.05h-.02l22.93,23.32h33.38s-60.94-60.94-60.94-60.94h-11.62v-.02s-98.8,0-98.8,0l-33.71,33.71v-39.06l29.69-29.69h40.12v-23.32h5.45v27.97l-43.36.1-26.98,27.11.11,24.85,27.16-27.16h66.38V0h-50.82l-27.63,27.63Z"/>
    </g>
  </g>
</svg>