<?xml version="1.0" encoding="UTF-8"?>
<svg id="Layer_2" data-name="Layer 2" xmlns="http://www.w3.org/2000/svg" viewBox="0 0 641.15 179.46">
  <g id="_Слой_1" data-name="Слой 1">
    <g>
      <path d="M253.49,98.47c-.33-.14-.63-.26-.96-.4h-52.13c-.33.14-.63.26-.96.4-5.43,5.43-8.87,8.87-13.86,13.86.46,1.12.5,1.2.96,2.32h59.12c.33.14.63.26.96.4l15.29,15.29c.14.33.26.63.4.96v14.94c-.14.33-.26.63-.4.96l-15.29,15.29c-.33.14-.63.26-.96.4h-57.75c-.33.14-.63.26-.96.4-5.43,5.43-8.87,8.87-13.86,13.86.46,1.12.5,1.2.96,2.32h78.48c.33-.14.63-.26.96-.4l25-25c.14-.33.26-.63.4-.96v-28.67c-.14-.33-.26-.63-.4-.96l-25-25Z"/>
      <path d="M222.13,76.49c-.33.14-.63.26-.96.4-5.43,5.43-8.87,8.87-13.86,13.86.46,1.12.5,1.2.96,2.32h10.98s97.83,0,97.83,0l1.36-1.36v-13.86c-.53-.53-.83-.83-1.36-1.36h-94.94Z"/>
      <path d="M136.46,60.78H40.97c-.46-1.12-.5-1.2-.96-2.32l19.77-19.77c.33-.14.63-.26.96-.4h108.58c.53-.53.83-.83,1.36-1.36v-13.86c-.53-.53-.83-.83-1.36-1.36H53.87c-.33.14-.63.26-.96.4L9.8,65.24c-.14.33-.26.63-.4.96l.32,91.07c1.11.46,1.2.49,2.32.95,5-5,8.44-8.44,13.87-13.87.14-.33.26-.63.4-.97l-.3-64.67c.53-.53.83-.83,1.36-1.36h69.08c.46,1.12.5,1.2.96,2.32L0,177.07c.46,1.12.5,1.2.96,2.32,7.06,0,11.92,0,19.6,0,.33-.14.63-.26.96-.4l115.9-115.89c-.46-1.12-.5-1.2-.96-2.32Z"/>
      <path d="M86.38,162.82c-.46-1.12-.5-1.2-.96-2.32l108.47-108.47c1.12.46,1.2.5,2.32.96v8c1.12.46,1.2.5,2.32.96,4.99-4.99,8.43-8.43,13.86-13.86.14-.33.26-.63.4-.96v-24.02c-.53-.53-.83-.83-1.36-1.36h-34.42c-.53.53-.83.83-1.36,1.36v13.86c.53.53.83.83,1.36,1.36h3.87c.46,1.12.5,1.2.96,2.32L45.41,177.07c.46,1.12.5,1.2.96,2.32h40.18c.53-.53.83-.83,1.36-1.36v-13.86c-.53-.53-.83-.83-1.36-1.36h-.17Z"/>
      <path d="M207.74,136.09h4.08c.33-.14.63-.26.96-.4,5.43-5.43,8.87-8.87,13.86-13.86-.46-1.12-.5-1.2-.96-2.32h-24.8c-.33.14-.63.26-.96.4l-42.5,42.5c-.33.14-.63.26-.96.4h-25.13c-.46-1.12-.5-1.2-.96-2.32L267.39,23.48c-.46-1.12-.5-1.2-.96-2.32h-47.41c-.53.53-.83.83-1.36,1.36v13.86c.53.53.83.83,1.36,1.36h7.39c.46,1.12.5,1.2.96,2.32L90.35,177.07c.46,1.12.5,1.2.96,2.32h72.01c.33-.14.63-.26.96-.4l42.5-42.5c.33-.14.63-.26.96-.4Z"/>
      <path d="M219.02,0c-.53.53-.83.83-1.36,1.36v13.86c.53.53.83.83,1.36,1.36h58.61c.46,1.12.5,1.2.96,2.32l-33.65,33.65c.46,1.12.5,1.2.96,2.32h55.4c.33-.14.63-.26.96-.4,5.43-5.43,8.87-8.87,13.86-13.86-.46-1.12-.5-1.2-.96-2.32h-29.25c-.46-1.12-.5-1.2-.96-2.32L318.6,2.32c-.46-1.12-.5-1.2-.96-2.32h-98.62Z"/>
      <path d="M303.21,98.03c-.53.53-.83.83-1.36,1.36v43.69c-1.12.46-1.2.5-2.32.96l-14-14c-1.12.46-1.2.5-2.32.96v48.46h33.85l1.36-1.36v-78.71c-.53-.53-.83-.83-1.36-1.36h-13.86Z"/>
      <path d="M454.2,163.28c-.33-.14-.63-.26-.96-.4h-57.75c-.33-.14-.63-.26-.96-.4l-15.29-15.29c-.14-.33-.26-.63-.4-.96v-14.94c.14-.33.26-.63.4-.96l15.29-15.29c.33-.14.63-.26.96-.4h59.12c.46-1.12.5-1.2.96-2.32-4.99-4.99-8.43-8.43-13.86-13.86-.33-.14-.63-.26-.96-.4h-52.13c-.33.14-.63.26-.96.4l-25,25c-.14.33-.26.63-.4.96v28.67c.14.33.26.63.4.96l25,25c.33.14.63.26.96.4h78.48c.46-1.12.5-1.2.96-2.32-4.99-4.99-8.43-8.43-13.86-13.86Z"/>
      <path d="M322.73,77.84v13.86c.53.53.83.83,1.36,1.36h108.81c.46-1.12.5-1.2.96-2.32-4.99-4.99-8.43-8.43-13.86-13.86-.33-.14-.63-.26-.96-.4h-94.94c-.53.53-.83.83-1.36,1.36Z"/>
      <path d="M543.75,79.67c.46-1.12.5-1.2.96-2.32h69.08c.53.53.83.83,1.36,1.36l-.3,64.67c.14.33.26.63.4.97,5.43,5.43,8.87,8.87,13.87,13.87,1.11-.46,1.2-.49,2.32-.95l.32-91.07c-.14-.33-.26-.63-.4-.96l-43.11-43.11c-.33-.14-.63-.26-.96-.4h-115.45c-.53.53-.83.83-1.36,1.36v13.86c.53.53.83.83,1.36,1.36h108.58c.33.14.63.26.96.4l19.77,19.77c-.46,1.12-.5,1.2-.96,2.32h-95.48c-.46,1.12-.5,1.2-.96,2.32l115.9,115.89c.33.14.63.26.96.4,7.67,0,12.54,0,19.6,0,.46-1.12.5-1.2.96-2.32l-97.4-97.4Z"/>
      <path d="M460.27,38.33h3.87c.53-.53.83-.83,1.36-1.36v-13.86c-.53-.53-.83-.83-1.36-1.36h-34.42c-.53.53-.83.83-1.36,1.36v24.02c.14.33.26.63.4.96,5.43,5.43,8.87,8.87,13.86,13.86,1.12-.46,1.2-.5,2.32-.96v-8c1.12-.46,1.2-.5,2.32-.96l108.47,108.47c-.46,1.12-.5,1.2-.96,2.32h-.17c-.53.53-.83.83-1.36,1.36v13.86c.53.53.83.83,1.36,1.36h40.18c.46-1.12.5-1.2.96-2.32L459.31,40.64c.46-1.12.5-1.2.96-2.32Z"/>
      <path d="M414.74,37.74h7.39c.53-.53.83-.83,1.36-1.36v-13.86c-.53-.53-.83-.83-1.36-1.36h-47.41c-.46,1.12-.5,1.2-.96,2.32l137.02,137.02c-.46,1.12-.5,1.2-.96,2.32h-25.13c-.33-.14-.63-.26-.96-.4l-42.5-42.5c-.33-.14-.63-.26-.96-.4h-24.8c-.46,1.12-.5,1.2-.96,2.32,4.99,4.99,8.43,8.43,13.86,13.86.33.14.63.26.96.4h4.08c.33.14.63.26.96.4l42.5,42.5c.33.14.63.26.96.4h72.01c.46-1.12.5-1.2.96-2.32L413.78,40.06c.46-1.12.5-1.2.96-2.32Z"/>
      <path d="M355.25,38.28h-29.25c-.46,1.12-.5,1.2-.96,2.32,4.99,4.99,8.43,8.43,13.86,13.86.33.14.63.26.96.4h55.4c.46-1.12.5-1.2.96-2.32l-33.65-33.65c.46-1.12.5-1.2.96-2.32h58.61c.53-.53.83-.83,1.36-1.36V1.36c-.53-.53-.83-.83-1.36-1.36h-98.62c-.46,1.12-.5,1.2-.96,2.32l33.65,33.65c-.46,1.12-.5,1.2-.96,2.32Z"/>
      <path d="M341.62,144.04c-1.12-.46-1.2-.5-2.32-.96v-43.69c-.53-.53-.83-.83-1.36-1.36h-13.86c-.53.53-.83.83-1.36,1.36v78.71c.53.53.83.83,1.36,1.36h33.85v-48.46c-1.12-.46-1.2-.5-2.32-.96l-14,14Z"/>
    </g>
  </g>
</svg>