<?xml version="1.0" encoding="UTF-8"?>
<svg id="Layer_2" data-name="Layer 2" xmlns="http://www.w3.org/2000/svg" viewBox="0 0 730.67 171.27">
  <g id="_Слой_1" data-name="Слой 1">
    <g>
      <g>
        <path d="M112.99,109.01h-44.14c-5-5-7.8-7.8-12.79-12.79V9.59H0v10.23c7.69,7.69,12,12,19.69,19.69l6.63,6.62v71.59L.07,143.97v26.5h15.55l31.73-31.73h35.9l29.72-29.72c11.6,11.6,18.11,18.11,29.72,29.72h27.05l12.49,12.49v20.03h11.66c7.06-7.06,11.03-11.01,18.08-18.08v-14.82l-29.9-29.37h-69.06Z"/>
        <polygon points="362.64 64.09 362.64 171.27 344.66 171.27 332.91 159.52 332.91 78.87 335.79 78.85 350.56 64.09 362.64 64.09"/>
        <path d="M362.64,44.52v14.18h-14.31l-14.78,14.78-111.9.22,90.57,89.97,6.64,6.63h-83.79c-6.96-6.95-10.86-10.85-17.8-17.79v-16.34l-33.04-32.56h-59.53c-4.24-4.24-6.61-6.64-10.88-10.89v-48.03c-2.08-2.1-3.27-3.26-5.37-5.37h-47V9.59h50.01c12.55,12.54,19.57,19.55,32.09,32.09v32.2h52.87l23.54,23.2,43.56,43.56h7.2l-68.49-68.49v-17.78c-5.69-5.68-8.87-8.84-14.56-14.52l-38.36.11c-6.48-6.49-12.27-12.28-18.75-18.76v-10.97h87.17l33.3,33.3h38.31C299.81,33.11,317.79,15.08,332.96,0v44.52h29.68Z"/>
      </g>
      <g>
        <path d="M617.68,109.01h44.14c5-5,7.8-7.8,12.79-12.79V9.59h56.06v10.23c-7.69,7.69-12,12-19.69,19.69l-6.63,6.62v71.59s26.25,26.25,26.25,26.25v26.5h-15.55s-31.73-31.73-31.73-31.73h-35.9s-29.72-29.72-29.72-29.72c-11.6,11.6-18.11,18.11-29.72,29.72h-27.05s-12.49,12.49-12.49,12.49v20.03h-11.66c-7.06-7.06-11.03-11.01-18.08-18.08v-14.82s29.9-29.37,29.9-29.37h69.06Z"/>
        <polygon points="368.03 64.09 368.03 171.27 386.01 171.27 397.76 159.52 397.76 78.87 394.88 78.85 380.11 64.09 368.03 64.09"/>
        <path d="M368.03,44.52v14.18s14.31,0,14.31,0l14.78,14.78,111.9.22-90.57,89.97-6.64,6.63h83.79c6.96-6.95,10.86-10.85,17.8-17.79v-16.34s33.04-32.56,33.04-32.56h59.53c4.24-4.24,6.61-6.64,10.88-10.89v-48.03c2.08-2.1,3.27-3.26,5.37-5.37,0,0,10.74,0,19.27,0,5.61,0,10.27,0,10.27,0h17.46s0-29.73,0-29.73h-50.01c-12.55,12.54-19.57,19.55-32.09,32.09v32.2h-52.87s-23.54,23.2-23.54,23.2l-43.56,43.56h-7.2s68.49-68.49,68.49-68.49v-17.78c5.69-5.68,8.87-8.84,14.56-14.52l38.36.11c6.48-6.49,12.27-12.28,18.75-18.76v-10.97s-87.17,0-87.17,0l-33.3,33.3h-38.31c-10.46-10.41-28.43-28.44-43.61-43.52v44.52h-29.68Z"/>
      </g>
    </g>
  </g>
</svg>