<?xml version="1.0" encoding="UTF-8"?>
<svg id="Layer_2" data-name="Layer 2" xmlns="http://www.w3.org/2000/svg" viewBox="0 0 789.11 125.55">
  <g id="_Слой_1" data-name="Слой 1">
    <g>
      <path d="M104.04,84.04c-.64-.63-1.48-.96-2.38-.96h-19.69c-.91,0-1.79-.36-2.43-1.01l-4.59-4.62c-.64-.64-1-1.51-1-2.42v-19.7c0-1.89-1.54-3.43-3.43-3.43H3.44c-3.06,0-4.59,3.7-2.43,5.86l46.35,46.35c.64.64,1.51,1,2.41,1l67.34.32c3.06.01,4.62-3.67,2.46-5.84-5.32-5.35-12.45-12.52-15.53-15.54Z"/>
      <polygon points="289.11 57.9 289.15 57.94 289.15 57.9 289.11 57.9"/>
      <path d="M290.11,58.91c-.64-.65-1.52-1.01-2.43-1.01h-53.34c-.91,0-1.78.36-2.43,1.01l-24.3,24.3c-.64.64-1.52,1-2.43,1h-36.96c-.91,0-1.78-.36-2.43-1l-25.12-25.12h-4.11l-23.66,23.66c-1.34,1.34-1.34,3.51,0,4.85l37.78,37.78c.64.64,1.5,1,2.4,1.01l28.08.18c.92,0,1.8-.36,2.45-1.01l18.1-18.1c.65-.65,1.53-1.01,2.44-1.01l35.94.15c.92,0,1.8-.36,2.44-1.01l22.36-22.39c7.2,0,11.23,0,18.42,0l22.41,22.41c.64.64,1.52,1,2.43,1h20.27c3.06,0,4.59-3.69,2.43-5.86l-40.76-40.83Z"/>
      <path d="M108.31,78.57c.91,0,1.78-.36,2.43-1.01l22.94-22.99c.64-.64,1.52-1.01,2.43-1.01h93.19c.91,0,1.8-.38,2.45-1.02,12.9-12.86,21.12-21.11,32.9-32.9,2.16-2.17.64-5.88-2.42-5.88h-60.64c-2.11,0-3.16-2.55-1.67-4.04l3.87-3.87c2.16-2.16.63-5.86-2.43-5.86h-68.02c-.87,0-1.69.33-2.31.94-12.03,12.02-39.35,39.38-51.66,51.7-.6.6-.92,1.4-.92,2.25v19.72c1.54,1.54,2.41,2.41,3.95,3.95h25.9Z"/>
      <path d="M392.23,32.2l.02-.02-30.95-30.95c-.64-.64-1.52-1.01-2.43-1.01h-66.98c-.91,0-1.78.36-2.43,1.01l-34.13,34.13h0l-12.35,12.34c-2.16,2.16-.63,5.86,2.43,5.86h46.56c.91,0,1.78-.36,2.43-1l16.46-16.46c.64-.64,1.51-1,2.41-1.01l18.65-.09c.9,0,1.77-.37,2.41-1l12.4-12.4c1.34-1.34,3.51-1.34,4.85,0l18.44,18.44c.64.64,1.01,1.52,1.01,2.43v12c0,1.9-1.54,3.43-3.43,3.43h-12.99c-.91,0-1.78.36-2.43,1.01l-25.41,25.45c-1.34,1.34-1.34,3.51,0,4.85l15.14,15.14c.63.63,1.48.99,2.38,1l16.06.23c.93.01,1.82-.35,2.48-1.01l29.46-29.51c-.17-.42,0-42.79,0-42.79l-.07-.07Z"/>
      <path d="M785.67,51.9h-67.07c-1.9,0-3.43,1.54-3.43,3.43v19.7c0,.91-.36,1.78-1,2.42l-4.58,4.62c-.64.65-1.52,1.01-2.44,1.01h-19.69c-.9,0-1.74.33-2.38.96-3.08,3.02-10.21,10.2-15.53,15.54-2.16,2.17-.6,5.86,2.46,5.84l67.34-.32c.9,0,1.77-.37,2.41-1l46.35-46.35c2.16-2.16.63-5.86-2.43-5.86Z"/>
      <polygon points="500 57.9 499.96 57.9 499.96 57.94 500 57.9"/>
      <path d="M676.19,81.73l-23.66-23.66h-4.11l-25.12,25.12c-.64.64-1.52,1-2.43,1h-36.96c-.91,0-1.78-.36-2.43-1l-24.3-24.3c-.64-.64-1.52-1.01-2.43-1.01h-53.34c-.91,0-1.79.36-2.43,1.01l-40.76,40.83c-2.16,2.16-.63,5.86,2.43,5.86h20.27c.91,0,1.78-.36,2.43-1l22.41-22.41c7.2,0,11.23,0,18.42,0l22.36,22.39c.65.65,1.53,1.01,2.44,1.01l35.94-.15c.92,0,1.79.36,2.44,1.01l18.1,18.1c.65.65,1.53,1.01,2.45,1.01l28.08-.18c.9,0,1.77-.37,2.4-1.01l37.78-37.78c1.34-1.34,1.34-3.51,0-4.85Z"/>
      <path d="M557.37,52.54c.64.64,1.54,1.02,2.45,1.02h93.19c.91,0,1.78.36,2.43,1.01l22.94,22.99c.64.65,1.52,1.01,2.43,1.01h25.9c1.54-1.54,2.41-2.41,3.95-3.95v-19.72c0-.85-.32-1.65-.92-2.25-12.3-12.32-39.62-39.68-51.66-51.7-.62-.62-1.43-.94-2.31-.94h-68.02c-3.06,0-4.59,3.7-2.43,5.86l3.87,3.87c1.49,1.49.43,4.04-1.67,4.04h-60.64c-3.06,0-4.59,3.71-2.42,5.88,11.78,11.79,20,20.04,32.9,32.9Z"/>
      <path d="M462.33,84.35l-25.41-25.45c-.64-.64-1.52-1.01-2.43-1.01h-12.99c-1.9,0-3.43-1.54-3.43-3.43v-12c0-.91.36-1.78,1.01-2.43l18.44-18.44c1.34-1.34,3.51-1.34,4.85,0l12.4,12.4c.64.64,1.51,1,2.41,1l18.65.09c.9,0,1.77.37,2.41,1.01l16.46,16.46c.64.64,1.52,1,2.43,1h46.56c3.06,0,4.59-3.7,2.43-5.86l-12.35-12.34h0L499.65,1.24c-.64-.64-1.52-1.01-2.43-1.01h-66.98c-.91,0-1.78.36-2.43,1.01l-30.95,30.95.02.02-.07.07s.17,42.37,0,42.79l29.46,29.51c.66.66,1.55,1.02,2.48,1.01l16.06-.23c.89-.01,1.75-.37,2.38-1l15.14-15.14c1.34-1.34,1.34-3.51,0-4.85Z"/>
    </g>
  </g>
</svg>