<?xml version="1.0" encoding="UTF-8"?>
<svg id="Layer_2" data-name="Layer 2" xmlns="http://www.w3.org/2000/svg" viewBox="0 0 631.95 151.75">
  <g id="_Слой_1" data-name="Слой 1">
    <g>
      <path d="M290.09,65.56h-81.32L143.21,0H0l33.62,33.62v-9.33h9.33l-11.1-11.1h105.9l65.56,65.56h54.91l-55.77,55.77c3.64,0,6.49.01,9.33.01h9.33l68.98-68.98Z"/>
      <path d="M147.87,55.96v82.57H60.1l39.21-39.21,35.26,35.26h9.33v-9.33l-35.26-35.26,50.28-50.28-9.33-9.33-50.28,50.28-39.21-39.21h73.12c5.15-5.16,8.04-8.05,13.19-13.19H37.58v123.47h123.49V42.76c-5.16,5.15-8.05,8.04-13.19,13.19ZM50.77,50.77l39.21,39.21-39.21,39.21V50.77Z"/>
      <polygon points="248.92 82.63 248.92 82.63 207.23 82.63 218.74 94.14 161.16 151.73 207.88 151.73 207.88 138.53 193.01 138.53 248.92 82.63"/>
      <path d="M222.42,138.53h-10.52v13.19h15.99l86.11-86.11c-7.29,0-11.37,0-18.66,0l-72.92,72.92Z"/>
      <path d="M279.02,124.44c-7.29,0-11.37,0-18.66,0l-27.31,27.31h80.94v-13.19h-49.08l14.11-14.11Z"/>
      <path d="M498.73,41.44h73.12l-39.21,39.21-50.28-50.28-9.33,9.33,50.28,50.28-35.26,35.26v9.33h9.33l35.26-35.26,39.21,39.21h-87.77V55.96c-5.15-5.16-8.04-8.05-13.19-13.19v108.96h123.49V28.25h-108.84c5.16,5.15,8.05,8.04,13.19,13.19ZM581.18,129.2l-39.21-39.21,39.21-39.21v78.43Z"/>
      <path d="M423.18,65.56h-81.32l68.98,68.98h9.33c2.84,0,5.69-.01,9.33-.01l-55.77-55.77h54.91L494.2,13.19h105.9l-11.1,11.1h9.33v9.33L631.95,0h-143.21l-65.56,65.56Z"/>
      <polygon points="424.72 82.63 383.03 82.63 383.03 82.63 438.94 138.53 424.07 138.53 424.07 151.73 470.79 151.73 413.21 94.14 424.72 82.63"/>
      <path d="M336.61,65.62c-7.29,0-11.37,0-18.66,0l86.11,86.11h15.99v-13.19h-10.52l-72.92-72.92Z"/>
      <path d="M352.93,124.44l14.11,14.11h-49.08v13.19h80.94l-27.31-27.31c-7.29,0-11.37,0-18.66,0Z"/>
    </g>
  </g>
</svg>