<?xml version="1.0" encoding="UTF-8"?>
<svg id="Layer_2" data-name="Layer 2" xmlns="http://www.w3.org/2000/svg" viewBox="0 0 517.51 115.99">
  <g id="_Слой_1" data-name="Слой 1">
    <g>
      <g>
        <polygon points="293.29 .02 223.31 70 197.42 70 178.79 51.36 90.43 51.36 68.1 73.69 0 73.69 15.96 57.73 61.38 57.73 98.94 20.19 219.46 20.19 195.52 44.13 203.81 52.43 217.99 52.43 270.39 .02 293.29 .02"/>
        <polygon points="101.01 73.14 87.1 59.23 75.81 70.52 94.39 89.11 153.65 89.11 153.63 89.12 165.36 100.41 192.62 73.14 101.01 73.14"/>
        <path d="M165.69,104.7l11.29,11.29,42.67-42.67c-8.82,0-13.76,0-22.58,0l-31.38,31.38Z"/>
        <polygon points="248.29 17.49 248.3 17.52 216.78 49.04 216.73 49.15 205.1 49.15 200.01 44.05 227.28 16.79 79.48 16.79 62.59 33.68 71.69 42.77 60.4 54.06 40.02 33.68 73.69 0 266.02 0 248.29 17.49"/>
      </g>
      <g>
        <polygon points="517.51 .02 447.54 70 421.64 70 403.01 51.36 314.66 51.36 292.33 73.69 224.22 73.69 240.18 57.73 285.61 57.73 323.16 20.19 443.69 20.19 419.74 44.13 428.03 52.43 442.22 52.43 494.62 .02 517.51 .02"/>
        <polygon points="325.23 73.14 311.32 59.23 300.03 70.52 318.62 89.11 377.87 89.11 377.85 89.12 389.58 100.41 416.84 73.14 325.23 73.14"/>
        <path d="M389.91,104.7l11.29,11.29,42.67-42.67c-8.82,0-13.76,0-22.58,0l-31.38,31.38Z"/>
        <polygon points="472.51 17.49 472.53 17.52 441 49.04 440.95 49.15 429.33 49.15 424.23 44.05 451.5 16.79 303.7 16.79 286.81 33.68 295.92 42.77 284.63 54.06 264.24 33.68 297.91 0 490.24 0 472.51 17.49"/>
      </g>
    </g>
  </g>
</svg>