<?xml version="1.0" encoding="UTF-8"?>
<svg id="Layer_2" data-name="Layer 2" xmlns="http://www.w3.org/2000/svg" viewBox="0 0 667.4 169.75">
  <g id="_Слой_1" data-name="Слой 1">
    <g>
      <g>
        <path d="M52.76,110.95c-4.72-4.72-7.37-7.37-12.09-12.09v-42.35l-2.34-2.34H14.52v64.44L.36,132.77c0,14.44,0,22.54,0,36.98l32.66-32.66h61.69l10.98,10.98v17.62h10.25c6.21-6.21,9.68-9.68,15.89-15.89v-12.56l-26.29-26.29h-52.77Z"/>
        <path d="M150.47,91.09h71.03l67.02.33,13.51-13.51v-3.17h14.48v-9.13h-28V26.3c-13.36,13.27-16.96,16.92-26.14,26.08h-33.69l-12.57,12.57h-39.93l-14.16-14.16h-87.59v11.54c5.7,5.7,8.89,8.89,14.59,14.61h73.04l-.04,3.65h-39.86l13.86,13.86,44.92,44.92h-5.22l-58.46-58.63h-29.73c-6.54-6.54-10.21-10.21-16.76-16.76v-13.11c-11.02-11.03-15.62-15.64-26.65-26.65h-12.58L7.36,0H0v50.34h39.9c1.85,1.85,2.89,2.88,4.72,4.72v42.23c3.75,3.73,5.84,5.84,9.57,9.57h52.34l29.05,28.62v14.36c6.11,6.11,9.54,9.54,15.66,15.65h14.8s0,0,0,0h58.86l-5.84-5.84-68.59-68.57Z"/>
        <path d="M321.4,35.7h-12.77l-8.01-9.13h-8.04v35.27h27.79v16.89h-13.78c-6.55,6.56-9.66,9.66-16.22,16.22h-57.26c-5.28,5.26-8.83,8.81-14.09,14.07l.03,45.19,11.28,11.28h14.86v-43.84h32.75c16.76-16.76,26.16-26.16,42.93-42.93h10.46v-33.1c-3.88-3.88-6.05-6.05-9.93-9.93Z"/>
      </g>
      <g>
        <path d="M614.64,110.95c4.72-4.72,7.37-7.37,12.09-12.09v-42.35c.92-.92,1.43-1.43,2.34-2.34h23.8v64.44s14.17,14.17,14.17,14.17c0,14.44,0,22.54,0,36.98l-32.66-32.66h-61.69s-10.98,10.98-10.98,10.98v17.62h-10.25c-6.21-6.21-9.68-9.68-15.89-15.89v-12.56s26.29-26.29,26.29-26.29h52.77Z"/>
        <path d="M516.93,91.09h-71.03s-67.02.33-67.02.33l-13.51-13.51v-3.17s-14.48,0-14.48,0v-9.13h28s0-39.31,0-39.31c13.36,13.27,16.96,16.92,26.14,26.08h33.69s12.57,12.57,12.57,12.57h39.93s14.16-14.16,14.16-14.16h87.59v11.54c-5.7,5.7-8.89,8.89-14.59,14.61h-73.04s.04,3.65.04,3.65h39.86s-13.86,13.86-13.86,13.86l-44.92,44.92h5.22s58.46-58.63,58.46-58.63h29.73c6.54-6.54,10.21-10.21,16.76-16.76v-13.11c11.02-11.03,15.62-15.64,26.65-26.65h12.58S660.05,0,660.05,0h7.36v3.05s0,31.27,0,31.27v16.02h-13.93s-25.97,0-25.97,0c-1.85,1.85-2.89,2.88-4.72,4.72v42.23c-3.75,3.73-5.84,5.84-9.57,9.57h-52.34s-29.05,28.62-29.05,28.62v14.36c-6.11,6.11-9.54,9.54-15.66,15.65h-14.8s0,0,0,0h-58.86s5.84-5.84,5.84-5.84l68.59-68.57Z"/>
        <path d="M346,35.7h12.77s8.01-9.13,8.01-9.13h8.04v35.27h-1.84s-25.95,0-25.95,0v16.89s13.78,0,13.78,0c6.55,6.56,9.66,9.66,16.22,16.22h57.26c5.28,5.26,8.83,8.81,14.09,14.07l-.03,45.19-11.28,11.28h-14.86v-43.84s-32.75,0-32.75,0c-16.76-16.76-26.16-26.16-42.93-42.93h-10.46v-33.1c3.88-3.88,6.05-6.05,9.93-9.93Z"/>
      </g>
    </g>
  </g>
</svg>