<?xml version="1.0" encoding="UTF-8"?>
<svg id="Layer_2" data-name="Layer 2" xmlns="http://www.w3.org/2000/svg" viewBox="0 0 550.77 122.99">
  <g id="_Слой_1" data-name="Слой 1">
    <g>
      <path d="M277.86,87.58h-47.71l17.57,17.57h-5.68l-17.57-17.57h-44.73L109.74,17.57h5.81l1.62,1.62,64.74,64.74h88.79l1.76-1.76v-.14l-25.14-25-9.05,9.05h-48.92L123.12,0H54.19L0,54.2l51.22,51.22h165.83l17.57,17.57h55l11.08-12.57-22.84-22.84ZM83.79,87.58l-45.95-45.95,20.14-20.14,66.09,66.09h-40.27ZM148.71,87.65L78.63,17.57h5.81l.26.26h.03l14.9,14.93,54.88,54.88h-5.81Z"/>
      <path d="M527.93,87.58h-47.71l17.57,17.57h-5.68l-17.57-17.57h-44.73l-70.01-70h5.81l1.62,1.62,64.74,64.74h88.79l1.76-1.76v-.14l-25.14-25-9.05,9.05h-48.92L373.19,0h-68.93l-54.19,54.2,51.22,51.22h165.83l17.57,17.57h55l11.08-12.57-22.84-22.84ZM333.86,87.58l-45.95-45.95,20.14-20.14,66.09,66.09h-40.27ZM398.78,87.65l-70.08-70.08h5.81l.26.26h.03l14.9,14.93,54.88,54.88h-5.81Z"/>
    </g>
  </g>
</svg>