<?xml version="1.0" encoding="UTF-8"?>
<svg id="Layer_2" data-name="Layer 2" xmlns="http://www.w3.org/2000/svg" viewBox="0 0 598.9 142.38">
  <g id="_Слой_1" data-name="Слой 1">
    <g>
      <g>
        <path d="M91.3,98.81c7.62,7.62,11.89,11.89,19.5,19.5h25.75l-4.53,4.57h-2.1v19.44L53.17,65.57H.33v53.46h35.57l-16.07-16.07v-17.88h25.26l37.81,37.81H.21v19.5h139.95l43.17-43.57h-92.02Z"/>
        <path d="M275.37,99.1h-59.65l57.62-57.62v-22.03h-19.47V0h-31.68l-52.77,52.77h-27.05v19.5h35.13l52.77-52.77h23.57v13.9l-85.2,85.2h106.73c1.18,0,2.14.96,2.14,2.14s-.96,2.14-2.14,2.14h-110.95c-7.62,7.62-11.89,11.89-19.5,19.5h0s130.45,0,130.45,0c11.95,0,21.64-9.69,21.64-21.64h0c0-11.95-9.69-21.64-21.64-21.64Z"/>
        <path d="M279.14,40.51c-7.62,7.62-11.89,11.89-19.5,19.5h0s37.37,0,37.37,0v-19.5h-17.87Z"/>
        <path d="M36.86,61.84h34.02l33.4,33.4h82.8l54.73-54.73c-10.77,0-16.81,0-27.58,0l-35.23,35.23h-66.64l-33.4-33.4H18.86L0,23.48v38.36h36.86Z"/>
      </g>
      <g>
        <path d="M507.6,98.81c-7.62,7.62-11.89,11.89-19.5,19.5h-25.75s4.53,4.57,4.53,4.57h2.1v19.44s76.75-76.75,76.75-76.75h52.84v53.46h-19.5s-16.07,0-16.07,0l16.07-16.07v-17.88s-25.26,0-25.26,0l-37.81,37.81h82.7v19.5h-129.71s-.06,0-.06,0h-10.17s-43.17-43.57-43.17-43.57h92.02Z"/>
        <path d="M323.53,99.1h59.65s-57.62-57.62-57.62-57.62v-22.03h19.47s0-19.45,0-19.45h31.68s52.77,52.77,52.77,52.77h27.05v19.5h-35.13s-52.77-52.77-52.77-52.77h-23.57s0,13.9,0,13.9l85.2,85.2h-106.73c-1.18,0-2.14.96-2.14,2.14,0,1.18.96,2.14,2.14,2.14h110.95c7.62,7.62,11.89,11.89,19.5,19.5h0s-130.45,0-130.45,0c-11.95,0-21.64-9.69-21.64-21.64h0c0-11.95,9.69-21.64,21.64-21.64Z"/>
        <path d="M319.76,40.51c7.62,7.62,11.89,11.89,19.5,19.5h0s-37.37,0-37.37,0v-19.5h17.87Z"/>
        <path d="M562.04,61.84h-34.02s-33.4,33.4-33.4,33.4h-82.8s-54.73-54.73-54.73-54.73c10.77,0,16.81,0,27.58,0l35.23,35.23h66.64s33.4-33.4,33.4-33.4h60.09s18.86-18.86,18.86-18.86v38.36h-.33s-36.53,0-36.53,0Z"/>
      </g>
    </g>
  </g>
</svg>