<?xml version="1.0" encoding="UTF-8"?>
<svg id="Layer_2" data-name="Layer 2" xmlns="http://www.w3.org/2000/svg" viewBox="0 0 640.28 142.5">
  <g id="_Слой_1" data-name="Слой 1">
    <g>
      <polygon points="41.84 142.5 117.86 142.5 138.37 121.98 195.43 121.98 195.43 95.01 89.32 95.01 41.84 142.5"/>
      <polygon points="444.85 95.01 444.85 121.98 501.91 121.98 522.42 142.5 598.44 142.5 550.96 95.01 444.85 95.01"/>
      <path d="M412.8,89.42h61.87v-26.97h-61.87v-7.54l.06-.06,27.4-27.34.55-.61h16.25l17.73,17.73v17.82h26.14c.46,0,.83.37.83.83v26.14h49.1L640.28.01h-76.33l-62.19,62.19v-28.74L468.31.01h-10.16s-28.57-.01-28.57-.01l-43.8,43.74v51.52h26.46v20.17h-37.85l-44.53-42.87h-19.44l-44.53,42.87h-37.85v-20.17h26.46v-51.52L210.7,0h-28.57s-10.16.01-10.16.01h0l-33.45,33.45v28.74L76.33.01H0l89.41,89.41h49.1v-26.14c0-.46.37-.83.83-.83h12.83s13.31,0,13.31,0v-17.82l17.73-17.73h16.25l.55.61,27.4,27.34.06.06v7.54h-61.87v26.97h61.87v5.84h-26.46v47.13h76.03l14.17-14.17,19.19-19.41v33.58h19.44v-33.58l19.19,19.41,14.17,14.17h76.03v-47.13h-26.46v-5.84Z"/>
    </g>
  </g>
</svg>