<?xml version="1.0" encoding="UTF-8"?>
<svg id="Layer_2" data-name="Layer 2" xmlns="http://www.w3.org/2000/svg" viewBox="0 0 611.34 188.58">
  <g id="_Слой_1" data-name="Слой 1">
    <g>
      <path d="M55.49,84c1.06,1.06,2.5,1.66,4.01,1.66h145.76l-17.78-17.78c-1.06-1.06-2.5-1.66-3.99-1.66l-44.4-.08c-1.5,0-2.93-.6-3.99-1.66l-42.31-42.31c-1.06-1.06-2.5-1.66-4.01-1.66H5.68c-5.05,0-7.57,6.1-4.01,9.67l53.82,53.82Z"/>
      <path d="M187.28,160.37l41.11-41.11v-11.33h-47.61c-1.5,0-2.94-.6-4.01-1.66l-16.96-16.96h-24.23c-3.13,0-5.66,2.54-5.66,5.66v5.69c0,1.5.6,2.95,1.66,4.01,20.32,20.36,35.13,35.19,55.75,55.86l-.06-.16Z"/>
      <path d="M305.62,87.34h-62.88c-1.95,0-3.82-.78-5.19-2.16l-20.59-20.66v-29.79C216.96,15.55,201.42,0,182.24,0h-43.74C133.45,0,130.92,6.1,134.49,9.67l73.69,73.69h0s23.96,23.95,23.96,23.95l-.06,13.4-43.96,43.96c-1.06,1.06-1.66,2.5-1.66,4.01v14.23c0,5.05,6.1,7.57,9.67,4.01l55.48-55.48v-14.06l10.61-10.61h23.98c10.7,0,19.38-8.65,19.43-19.35"/>
      <path d="M305.62,106.47h0c0,15.69-12.72,28.41-28.41,28.41,15.69,0,28.41,12.72,28.41,28.41h0c0-15.69,12.72-28.41,28.41-28.41-15.69,0-28.41-12.72-28.41-28.41Z"/>
      <path d="M232.31,74.64l7.51,7.51c.88.88,2.08,1.38,3.33,1.38,28.32.03,32.79.05,62.37.08l-30.06-28.95c-1.29-1.24-3.01-1.94-4.81-1.94h-15.66c-1.5,0-2.94.59-4.01,1.65l-11.54,11.54h-15.88l8.73,8.73h0Z"/>
      <path d="M555.85,84c-1.06,1.06-2.5,1.66-4.01,1.66h-145.76s17.78-17.78,17.78-17.78c1.06-1.06,2.5-1.66,3.99-1.66l44.4-.08c1.5,0,2.93-.6,3.99-1.66l42.31-42.31c1.06-1.06,2.5-1.66,4.01-1.66h83.1c5.05,0,7.57,6.1,4.01,9.67l-53.82,53.82Z"/>
      <path d="M424.06,160.37l-41.11-41.11v-11.33h47.61c1.5,0,2.94-.6,4.01-1.66l16.96-16.96h24.23c3.13,0,5.66,2.54,5.66,5.66v5.69c0,1.5-.6,2.95-1.66,4.01-20.32,20.36-35.13,35.19-55.75,55.86l.06-.16Z"/>
      <path d="M305.72,87.34h23.98s38.9,0,38.9,0c1.95,0,3.82-.78,5.19-2.16l20.59-20.66v-29.79c0-19.18,15.55-34.72,34.72-34.72h13.32s30.42,0,30.42,0c5.05,0,7.57,6.1,4.01,9.67l-73.69,73.69h0s-23.96,23.95-23.96,23.95l.06,13.4,43.96,43.96c1.06,1.06,1.66,2.5,1.66,4.01v14.23c0,5.05-6.1,7.57-9.67,4.01l-55.48-55.48v-4.67s0-9.39,0-9.39l-10.61-10.61h-23.98c-10.7,0-19.38-8.65-19.43-19.35"/>
      <path d="M379.02,74.64l-7.51,7.51c-.88.88-2.08,1.38-3.33,1.38-28.32.03-32.79.05-62.37.08l30.06-28.95c1.29-1.24,3.01-1.94,4.81-1.94h15.66c1.5,0,2.94.59,4.01,1.65l11.54,11.54h15.88s-8.73,8.73-8.73,8.73h0Z"/>
    </g>
  </g>
</svg>