<?xml version="1.0" encoding="UTF-8"?>
<svg id="Layer_2" data-name="Layer 2" xmlns="http://www.w3.org/2000/svg" viewBox="0 0 667.66 136.29">
  <g id="_Слой_1" data-name="Слой 1">
    <g>
      <path d="M160.16,44.28l40.8,40.79,13.63-13.63-46.44-46.44h-27.04c-6.4,0-11.59,5.19-11.59,11.59v41.23l27,27h24.75l19.28-19.28h-36.05l-15.7-15.7v-25.55h11.36Z"/>
      <polygon points="256.65 28.96 297.87 28.96 369.79 28.96 411.01 28.96 431.92 49.87 445.55 36.23 419 9.68 369.79 9.68 297.87 9.68 248.66 9.68 222.11 36.23 235.74 49.87 256.65 28.96"/>
      <path d="M503.16,85.53h-36.05l19.28,19.28h24.75l27-27v-41.23c0-6.4-5.19-11.59-11.59-11.59h-27.04l-46.44,46.44,13.63,13.63,40.8-40.79h11.36v25.55l-15.7,15.7Z"/>
      <path d="M664.18,77.06l-38.43-38.43c-2.21-2.21-5.22-3.46-8.35-3.46h-22.39L559.83,0h-70.33l-53.82,53.82,13.63,13.63,48.17-48.17h54.35l35.18,35.18h27.28l23.46,23.46h-91.48l-39.08,39.08h-16.81l-82.29-82.29h-148.58l-82.29,82.29h-16.81l-39.07-39.08H29.89l23.46-23.46h27.28l35.18-35.18h54.35l48.17,48.17,13.63-13.63L178.16,0h-70.33l-35.18,35.18h-22.39c-3.13,0-6.13,1.24-8.35,3.46L3.48,77.06c-7.43,7.44-2.17,20.15,8.35,20.15h101.48l39.07,39.08h32.86l82.29-82.29h132.6l82.29,82.29h32.86l39.07-39.08h101.48c10.52,0,15.78-12.71,8.35-20.15Z"/>
      <path d="M423.93,85.53h-21.31c-3.99,0-7.82-1.59-10.64-4.43l-16.62-16.74c-2.81-2.83-6.64-4.43-10.64-4.43h-61.81c-3.99,0-7.82,1.59-10.64,4.43l-16.62,16.74c-2.81,2.83-6.64,4.43-10.64,4.43h-21.31l-19.28,19.28h48.58c3.99,0,7.82-1.59,10.64-4.43l16.62-16.74c2.81-2.83,6.64-4.43,10.64-4.43h45.83c3.99,0,7.82,1.59,10.64,4.43l16.62,16.74c2.81,2.83,6.64,4.43,10.64,4.43h48.58l-19.28-19.28Z"/>
    </g>
  </g>
</svg>