<?xml version="1.0" encoding="UTF-8"?>
<svg id="Layer_2" data-name="Layer 2" xmlns="http://www.w3.org/2000/svg" viewBox="0 0 651.4 151.72">
  <g id="_Слой_1" data-name="Слой 1">
    <g>
      <path d="M147.32,137.08l-12.62-12.62h0s-55.82-55.83-55.82-55.83l39.14-39.14v-10.36h-10.36l-39.14,39.14L25,14.74h97.43v91.66c5.71,5.73,8.92,8.93,14.65,14.65V.09H0v97.43c15.48,15.48,24.16,24.16,39.64,39.64h81.18c-5.73-5.71-8.94-8.92-14.65-14.65H25l43.53-43.53,24.85,24.85h-.02l47.88,47.88h17.75v-14.65h-11.68ZM14.65,112.16V25.09l43.53,43.53L14.65,112.16Z"/>
      <path d="M250.98,80.46h0s-46.28,0-46.28,0h0s-47.56,0-47.56,0l-15.64,15.5v20.71l20.04-20.04,1.68-1.53h52.41s-56.62,56.62-56.62,56.62h51.87v-14.65h-16.5l56.61-56.62Z"/>
      <path d="M141.48,61.21v14.77h146.54l-61.09,61.09h-11.68v14.65h17.75l90.5-90.51c-5.92,0-9.94,0-14.84,0h-167.18Z"/>
      <path d="M83.41,68.63c2.88,2.88,4.5,4.5,7.38,7.38h27.25v-14.77h-27.25c-2.88,2.88-4.5,4.5-7.38,7.38Z"/>
      <polygon points="294 14.7 303.03 23.74 323.5 23.74 299.82 .06 299.78 .06 299.78 .06 216.6 .06 198.22 0 141.4 56.82 268.6 56.82 282.46 42.96 323.5 42.96 323.5 28.19 297.23 28.19 297.23 28.19 276.52 28.19 262.54 42.17 176.76 42.17 204.23 14.7 294 14.7"/>
      <path d="M514.31.09v120.96c5.73-5.71,8.94-8.92,14.65-14.65V14.74h97.43l-43.53,43.53-39.14-39.14h-10.36v10.36l39.14,39.14-55.82,55.82h0s-12.62,12.63-12.62,12.63h-11.68v14.65h17.75l47.88-47.88h-.02l24.85-24.85,43.53,43.53h-81.18c-5.71,5.73-8.92,8.93-14.65,14.65h81.18c15.48-15.48,24.16-24.16,39.64-39.64V.09h-137.09ZM636.75,112.16l-43.53-43.53,43.53-43.53v87.06Z"/>
      <path d="M488.19,95.11l1.68,1.53,20.04,20.04v-20.71l-15.64-15.5h-47.56s0,0,0,0h-46.28s0,0,0,0l56.61,56.62h-16.5v14.65h51.87l-56.62-56.62h52.41Z"/>
      <path d="M363.38,75.98h146.54v-14.77h-167.18c-4.9,0-8.92,0-14.84,0l90.5,90.51h17.75v-14.65h-11.68l-61.09-61.09Z"/>
      <path d="M567.99,68.63c-2.88-2.88-4.5-4.5-7.38-7.38h-27.25v14.77h27.25c2.88-2.88,4.5-4.5,7.38-7.38Z"/>
      <polygon points="382.8 56.82 510 56.82 453.18 0 434.79 .06 351.61 .06 351.61 .06 351.58 .06 327.9 23.74 348.37 23.74 357.4 14.7 447.17 14.7 474.64 42.17 388.86 42.17 374.88 28.19 354.17 28.19 354.17 28.19 327.9 28.19 327.9 42.96 368.94 42.96 382.8 56.82"/>
    </g>
  </g>
</svg>