<?xml version="1.0" encoding="UTF-8"?>
<svg id="Layer_2" data-name="Layer 2" xmlns="http://www.w3.org/2000/svg" viewBox="0 0 797.59 153.85">
  <g id="_Слой_1" data-name="Слой 1">
    <g>
      <g>
        <path d="M169.35,35.73l9.52-9.52h17.82l19.63,19.63h84.36v-22.9h-154.23v19.94H33.65v24.54l50.17,50.17-7.77,7.77-53.16-53.16v-6.43h7.48v-22.9H0v38.81l62.14,62.14.04-.04.03.04,23.93-23.93.1.1h40.7l42.41-42.41v-41.85ZM146.45,68.1l-29,29h-21.73l-39.17-39.17v-2.26l9.52-9.52h80.38v21.95Z"/>
        <path d="M377.83,0h-77.15v22.9h66.97c2.58,2.58,4.03,4.03,6.61,6.61v19.62h-154.65l56.9,56.9c12.65,0,19.74,0,32.38,0l-34.01-34.01h10.98c7.79-7.79,12.6-12.6,19.63-19.63h68.76v20.63h-26.01l-36.3,36.3h-35.02v19.63h-121.99l43.03-43.03h21.31l10.5,10.5-9.53,9.53h51.45l-42.93-42.93h-40.28l-58.43,58.43v32.38l21.61-21.61h146.74s23.02,0,23.02,0l36.3-36.3h22.96c6.43-6.43,10.04-10.04,16.47-16.47V18.35C389.61,10.8,385.38,7.55,377.83,0Z"/>
      </g>
      <g>
        <path d="M628.24,77.58l42.41,42.41h40.7s.1-.1.1-.1l23.93,23.93.03-.04.04.04,62.14-62.14v-38.81s-30.38,0-30.38,0v22.9s7.48,0,7.48,0v6.43s-53.16,53.16-53.16,53.16l-7.77-7.77,50.17-50.17v-24.54s-17.12,0-17.12,0h-5.78s-12.79,0-12.79,0h-77.11v-19.94s-9.67,0-9.67,0h-13.23s-12.79,0-12.79,0h-9.65s-31.57,0-31.57,0h-77.33s0,22.9,0,22.9h84.36s19.63-19.63,19.63-19.63h17.82s9.52,9.52,9.52,9.52v41.85ZM651.14,46.15h80.38s9.52,9.52,9.52,9.52v2.26s-39.17,39.17-39.17,39.17h-21.73s-29-29-29-29v-21.95Z"/>
        <path d="M419.76,0h77.15v22.9h-66.97c-2.58,2.58-4.03,4.03-6.61,6.61v19.62s65.49,0,65.49,0h18.71s70.45,0,70.45,0l-56.9,56.9c-12.65,0-19.74,0-32.38,0l34.01-34.01h-10.98c-7.79-7.79-12.6-12.6-19.63-19.63h-68.76s0,20.63,0,20.63h26.01s36.3,36.3,36.3,36.3h35.02v19.63s121.99,0,121.99,0l-43.03-43.03h-21.31s-10.5,10.5-10.5,10.5l9.53,9.53h-51.45s42.93-42.93,42.93-42.93h40.28s58.43,58.43,58.43,58.43v32.38s-21.61-21.61-21.61-21.61h-146.74s-23.02,0-23.02,0l-36.3-36.3h-22.96c-6.43-6.43-10.04-10.04-16.47-16.47V18.35c7.55-7.55,11.78-10.8,19.33-18.35Z"/>
      </g>
    </g>
  </g>
</svg>