<?xml version="1.0" encoding="UTF-8"?>
<svg id="Layer_2" data-name="Layer 2" xmlns="http://www.w3.org/2000/svg" viewBox="0 0 563.28 129.62">
  <g id="_Слой_1" data-name="Слой 1">
    <g>
      <polygon points="181.25 92.45 243.67 30 290.29 30 290.29 0 231.24 0 231.15 .09 224.04 .09 224.13 0 205.68 0 118.71 86.99 93.22 86.99 50.68 129.53 76.18 129.53 76.12 129.59 94.54 129.59 211 13.13 218.11 13.13 138.8 92.45 181.25 92.45"/>
      <polygon points="115.67 81.58 115.67 81.58 116.71 81.58 198.29 0 197.26 0 179.86 0 179.84 0 128.26 51.58 121.47 51.58 173.05 0 129.59 0 0 129.59 43.27 129.59 91.27 81.58 115.67 81.58"/>
      <polygon points="342.87 .09 295.43 .09 295.43 30.08 312.88 30.08 342.87 .09"/>
      <polygon points="277.71 65.24 307.75 35.21 245.83 35.21 151.41 129.62 193.86 129.62 258.29 65.24 277.71 65.24"/>
      <polygon points="401.66 92.45 464.07 30 510.7 30 510.7 0 451.65 0 451.56 .09 444.45 .09 444.54 0 426.09 0 339.12 86.99 313.62 86.99 271.08 129.53 296.59 129.53 296.52 129.59 314.95 129.59 431.41 13.13 438.52 13.13 359.2 92.45 401.66 92.45"/>
      <polygon points="336.08 81.58 336.08 81.58 337.11 81.58 418.7 0 417.66 0 400.27 0 400.25 0 348.67 51.58 341.87 51.58 393.45 0 350 0 220.41 129.59 263.67 129.59 311.68 81.58 336.08 81.58"/>
      <polygon points="515.84 .09 515.84 30.08 533.28 30.08 563.28 .09 515.84 .09"/>
      <polygon points="371.82 129.62 414.27 129.62 478.69 65.24 498.12 65.24 528.16 35.21 466.24 35.21 371.82 129.62"/>
    </g>
  </g>
</svg>