<?xml version="1.0" encoding="UTF-8"?>
<svg id="Layer_2" data-name="Layer 2" xmlns="http://www.w3.org/2000/svg" viewBox="0 0 735.44 113.48">
  <g id="_Слой_1" data-name="Слой 1">
    <g>
      <path d="M330.43,18.72h-65.47l-19.9,19.91c-.62,2.12-1.76,4.06-3.35,5.65-1.6,1.6-3.54,2.74-5.65,3.35l-.67.66,10.19,10.18v19.48h-35.12l-3.88.02h0s-9.24,0-9.24,0v35.51h43.94l89.17-89.17v-5.59Z"/>
      <path d="M339.88,30.14h-8.77l-38.35,38.35v5.59h65.42l7.13-7.13v-11.37c0-14.05-11.39-25.44-25.44-25.44Z"/>
      <path d="M206.54,74.07v-.02h35.12v-13.95l-51.3-51.3h6.52l35.45,35.45c5.15.02,9.33-4.15,9.33-9.3V9.14c0-4.8-3.89-8.7-8.7-8.7h-112.33l36.71,36.71,1.33,1.33,15.89,15.89h-6.52L113.68,0h-20.95v36.89l37.15,37.15h7.57v.02h69.1Z"/>
      <polygon points="5.68 54.37 0 60.1 0 74.07 123.09 74.07 103.38 54.37 5.68 54.37"/>
      <polygon points="88.67 37.02 88.67 7.09 81.58 0 29.3 0 29.3 5.57 60.76 37.02 88.67 37.02"/>
      <path d="M98.57,49.55l-7.71-7.71h-32.08l-11.71-11.71H6.56c-2.56,2.56-4,4-6.56,6.56v13.1h98.81l-.24-.24Z"/>
      <path d="M528.86,77.98l-3.88-.02h-35.12v-19.48l10.19-10.18-.67-.66c-2.11-.62-4.05-1.75-5.65-3.35-1.59-1.59-2.74-3.53-3.35-5.65l-19.9-19.91h-65.47v5.59l89.17,89.17h43.94v-35.51h-9.25Z"/>
      <path d="M395.56,30.14c-14.05,0-25.44,11.39-25.44,25.44v11.37l7.13,7.13h65.42v-5.59l-38.35-38.35h-8.77Z"/>
      <path d="M642.71,0h-20.95l-54.37,54.37h-6.52l15.89-15.89,1.33-1.33L614.8.44h-112.33c-4.8,0-8.7,3.89-8.7,8.7v25.81c0,5.15,4.18,9.32,9.33,9.3l35.45-35.45h6.52l-51.3,51.3v13.95h35.12v.02h69.1v-.02h7.57l37.15-37.15V0Z"/>
      <polygon points="632.06 54.37 612.35 74.07 735.44 74.07 735.44 60.1 729.75 54.37 632.06 54.37"/>
      <polygon points="706.14 5.57 706.14 0 653.86 0 646.77 7.09 646.77 37.02 674.68 37.02 706.14 5.57"/>
      <path d="M728.88,30.14h-40.51l-11.71,11.71h-32.08l-7.71,7.71-.24.24h98.81v-13.1c-2.56-2.56-4-4-6.56-6.56Z"/>
    </g>
  </g>
</svg>