<?xml version="1.0" encoding="UTF-8"?>
<svg id="Layer_2" data-name="Layer 2" xmlns="http://www.w3.org/2000/svg" viewBox="0 0 723.78 182.35">
  <g id="_Слой_1" data-name="Слой 1">
    <g>
      <path d="M279.96,155.5l-12.29,12.29h-46.99l-19.62-19.62,54.11-54.11v-3.52l-52.03-52.03c-2.05-2.05-4.36-3.17-7.25-3.17h-7.95v14.57h6.4l42.19,42.19-48.76,48.76c-14.26-.12-115.98-.2-130.48-.21l-37.44-37.44h132.9c2.89,0,5.61-1.13,7.66-3.17l20.26-20.26c2.04-2.05,3.17-4.77,3.17-7.66v-36.72h-14.57v.03h-14.72l14.72,14.72v20.42l-18.07,18.06H10.84c-4.4,0-8.32,2.62-10.01,6.68-1.68,4.06-.76,8.69,2.35,11.8l44.92,44.92c2.04,2.04,4.76,3.17,7.65,3.17,42,.03,120.58.12,131.98.21l23.76,23.76c2.05,2.05,4.77,3.17,7.66,3.17h50.08c2.89,0,5.61-1.13,7.66-3.17l19.26-19.26.29-.05-16.48-16.48v12.1Z"/>
      <path d="M309.05,114.02l16.54,16.54,25.3-25.3c2.04-2.05,3.17-4.77,3.17-7.66V0h-14.57v96.05l-17.97,17.97h-12.47Z"/>
      <path d="M260.65,63.85l49.28-49.28h5.68l-34.56,34.56c-2.05,2.05-3.17,4.76-3.17,7.66v48.29h13.78v-45.95l40.64-40.64c3.11-3.11,4.03-7.74,2.35-11.8-1.68-4.06-5.61-6.68-10.01-6.68h-16.25c-2.89,0-5.61,1.13-7.66,3.17l-50.38,50.38,10.3,10.3Z"/>
      <path d="M722.95,95.31c-1.68-4.06-5.61-6.68-10.01-6.68h-140.37l-18.07-18.06v-20.42l14.72-14.72h-14.72v-.03h-14.57v36.72c0,2.89,1.13,5.61,3.17,7.66l20.26,20.26c2.04,2.04,4.76,3.17,7.66,3.17h132.9l-37.44,37.44c-14.5.01-116.22.1-130.48.21l-48.76-48.76,42.19-42.19h6.4v-14.57h-7.95c-2.89,0-5.21,1.13-7.25,3.17l-52.03,52.03v3.52l54.11,54.11-19.62,19.62h-46.99l-12.29-12.29v-12.1l-16.48,16.48.29.05,19.26,19.26c2.05,2.05,4.76,3.17,7.66,3.17h50.08c2.89,0,5.61-1.13,7.66-3.17l23.76-23.76c11.4-.1,89.98-.18,131.98-.21,2.89,0,5.6-1.13,7.65-3.17l44.92-44.92c3.11-3.11,4.03-7.74,2.35-11.8Z"/>
      <path d="M398.19,130.56l16.54-16.54h-12.47l-17.97-17.97V0h-14.57v97.6c0,2.89,1.13,5.61,3.17,7.66l25.3,25.3Z"/>
      <path d="M453.75,138.32c5.97,0,10.83-4.86,10.83-10.83v-38.64l45.86-45.86c2.05-2.04,3.17-4.76,3.17-7.66s-1.13-5.61-3.17-7.66l-24.4-24.4c-2.05-2.05-4.77-3.17-7.66-3.17h-7.77.02s-44.98-.01-44.98-.01l14.58,14.58h36.61l20.67,20.67-44.31,44.31c-2.05,2.05-3.17,4.77-3.17,7.66v36.45h-8.38c-2.89,0-5.61,1.13-7.66,3.17l-27.41,27.41h-5.75l28.18-28.18c2.05-2.05,3.17-4.77,3.17-7.66v-13.4h-14.57v11.85l-50.83,50.83h-9.76l-50.83-50.83v-11.84h-14.57s0,13.38,0,13.38c0,2.89,1.13,5.61,3.17,7.66l28.18,28.18h-5.75l-27.41-27.41c-2.05-2.05-4.76-3.17-7.66-3.17h-8.38v-36.45c0-2.89-1.13-5.61-3.17-7.66l-44.31-44.31,20.67-20.67h36.61L298.13.08h-44.98.02s-7.77.01-7.77.01c-2.89,0-5.61,1.12-7.66,3.17l-24.4,24.4c-2.05,2.05-3.17,4.76-3.17,7.66s1.13,5.61,3.17,7.66l45.86,45.86v38.64c0,5.97,4.86,10.83,10.83,10.83h10.57l27.41,27.41c2.05,2.05,4.77,3.17,7.66,3.17h21.86l10.28,10.28c1.9,1.9,4.38,2.99,7.04,3.14v.03h14.09v-.03c2.66-.15,5.14-1.24,7.04-3.14l10.28-10.28h21.86c2.89,0,5.61-1.13,7.66-3.17l27.41-27.41h10.57Z"/>
      <path d="M432.13,59.13v45.95h13.78v-48.29c0-2.89-1.13-5.61-3.17-7.66l-34.56-34.56h5.68l49.28,49.28,10.3-10.3L423.06,3.17c-2.05-2.05-4.76-3.17-7.66-3.17h-16.25c-4.4,0-8.32,2.62-10.01,6.68-1.68,4.06-.76,8.69,2.35,11.8l40.64,40.64Z"/>
    </g>
  </g>
</svg>