<?xml version="1.0" encoding="UTF-8"?>
<svg id="Layer_2" data-name="Layer 2" xmlns="http://www.w3.org/2000/svg" viewBox="0 0 693.49 139.07">
  <g id="_Слой_1" data-name="Слой 1">
    <g>
      <path d="M19.88,39.8v-19.92h76.91V0H11.11C4.98,0,0,4.97,0,11.11v32.32c0,2.95,1.17,5.77,3.25,7.86l75.13,75.13h32.11v-19.88h-23.87L19.88,39.8Z"/>
      <polygon points="199.5 50.78 199.5 36.02 163.48 0 100.75 0 100.75 19.88 155.25 19.88 179.62 44.25 179.62 50.74 159.87 50.74 159.87 119.16 179.74 119.16 179.74 50.78 199.5 50.78"/>
      <polygon points="212.28 114.67 207.76 119.19 179.8 119.19 179.8 139.07 215.99 139.07 232.16 122.91 232.16 74.9 212.28 74.9 212.28 114.67"/>
      <polygon points="252.06 74.9 252.06 54.49 217.55 19.98 247.96 19.98 247.96 .1 169.56 .1 232.19 62.73 232.19 74.9 252.06 74.9"/>
      <path d="M271.11,60.94l-18.05,18.05h-16.93v19.88h25.17l29.69-29.69v-37.14c0-6.66-5.4-12.05-12.05-12.05h-30.94v19.88h23.12v21.08Z"/>
      <path d="M285.77,80.5s-15.62,15.62-22.33,22.33h-27.31v19.88h35.54l2.91-2.91c1.11-1.1,11.14-11.14,18.22-18.22l32.07,32.06v5.16h19.88v-13.39l-51.94-51.94-7.03,7.03Z"/>
      <path d="M314.79,61.68V20.04h-19.88v49.87l17.32,17.32c3.16,3.16,7.45,4.94,11.92,4.94h20.62v-19.88h-19.37l-10.61-10.62Z"/>
      <path d="M151.56,113.6c0-4.28-1.7-8.39-4.73-11.42l-10.91-10.91c-3.03-3.03-7.14-4.73-11.42-4.73h-14.01v19.88h12.46l8.72,8.73v23.93h28.29v-19.88h-8.41v-5.59Z"/>
      <path d="M682.38,0h-85.68v19.88h76.91v19.92l-66.74,66.74h-23.87v19.88h32.11l75.13-75.13c2.08-2.08,3.25-4.91,3.25-7.86V11.11c0-6.14-4.98-11.11-11.11-11.11Z"/>
      <polygon points="533.62 119.16 533.62 50.74 513.87 50.74 513.87 44.25 538.24 19.88 592.74 19.88 592.74 0 530.01 0 493.99 36.02 493.99 50.78 513.74 50.78 513.74 119.16 533.62 119.16"/>
      <polygon points="481.21 114.67 481.21 74.9 461.33 74.9 461.33 122.91 477.5 139.07 513.69 139.07 513.69 119.19 485.73 119.19 481.21 114.67"/>
      <polygon points="445.53 .1 445.53 19.98 475.94 19.98 441.42 54.49 441.42 74.9 461.3 74.9 461.3 62.73 523.93 .1 445.53 .1"/>
      <path d="M422.38,60.94v-21.08h23.12v-19.88h-30.94c-6.66,0-12.05,5.4-12.05,12.05v37.14l29.69,29.69h25.17v-19.88h-16.93l-18.05-18.05Z"/>
      <path d="M407.72,80.5l-7.03-7.03-51.94,51.94v13.39h19.88v-5.16l32.07-32.06c7.08,7.08,17.11,17.11,18.22,18.22l2.91,2.91h35.54v-19.88h-27.31c-6.71-6.71-22.33-22.33-22.33-22.33Z"/>
      <path d="M381.26,87.24l17.32-17.32V20.04h-19.88v41.64l-10.61,10.62h-19.37v19.88h20.62c4.47,0,8.76-1.78,11.92-4.94Z"/>
      <path d="M583,86.54h-14.01c-4.28,0-8.39,1.7-11.42,4.73l-10.91,10.91c-3.03,3.03-4.73,7.14-4.73,11.42v5.59h-8.41v19.88h28.29v-23.93l8.72-8.73h12.46v-19.88Z"/>
    </g>
  </g>
</svg>