<?xml version="1.0" encoding="UTF-8"?>
<svg id="Layer_2" data-name="Layer 2" xmlns="http://www.w3.org/2000/svg" viewBox="0 0 729.87 174.16">
  <g id="_Слой_1" data-name="Слой 1">
    <g>
      <path d="M265.03,173.75l199.51-.55-99.48-99.48-100.03,100.03ZM320.28,150.77l44.79-44.79,44.54,44.54-89.33.25Z"/>
      <path d="M88.22,59.75c0,11.16,0,17.42,0,28.59l.05.05-39.26,39.26-20.42-20.42,57.08-57.08,57.32,57.32,32.28-32.28L103.73,3.65l-14.29,14.29,57.25,57.25-3.69,3.69-57.32-57.32L0,107.23l49,49,67.85-67.85-28.64-28.64Z"/>
      <path d="M295.1,107.68l-22.69,22.69c11.16,0,17.42,0,28.59,0l42.91-42.91h-67.93l-66.08,66.08h-27.97l-24.64-24.64,57.99-58.09h34.5l50.61-50.61h42.58C350.85,12.32,355.28,7.89,363.17,0h0s-71.17,0-71.17,0l-50.61,50.61h-34.5l-63.91,64.01-22.52-22.52-67.78,67.78,14.29,14.29,53.49-53.49,53.08,53.08h44.72l66.08-66.08h10.76Z"/>
      <path d="M246.16,75.92h-28.59s-52.9,52.9-52.9,52.9l19.61,19.61,23.85.09,103.02-103.02h6.69c7.89-7.89,12.32-12.32,20.21-20.21h0s-35.28,0-35.28,0l-102.03,102.03h-5.99l31.71-31.71,19.69-19.69Z"/>
      <path d="M644.2,21.56l-57.32,57.32-3.69-3.69,57.25-57.25-14.29-14.29-71.54,71.54,32.28,32.28,57.32-57.32,57.08,57.08-20.42,20.42-39.26-39.26.05-.05c0-11.16,0-17.42,0-28.59l-28.64,28.64,67.85,67.85,49-49-85.67-85.67Z"/>
      <path d="M586.88,114.61l-63.91-64.01h-34.5L437.86,0h-71.17c7.89,7.89,12.32,12.32,20.21,20.21h42.58l50.61,50.61h34.5l57.99,58.09-24.64,24.64h-27.97l-66.08-66.08h-67.93l42.91,42.91c11.16,0,17.42,0,28.59,0h0l-22.69-22.69h10.76l66.08,66.08h44.72l53.08-53.08,53.49,53.49,14.29-14.29-67.78-67.78-22.52,22.52Z"/>
      <path d="M427.09,25.29h-35.28c7.89,7.89,12.32,12.32,20.21,20.21h6.69l103.02,103.02,23.85-.09,19.61-19.61-52.9-52.9h-28.59s19.69,19.69,19.69,19.69l31.71,31.71h-5.99l-102.03-102.03Z"/>
    </g>
  </g>
</svg>