<?xml version="1.0" encoding="UTF-8"?>
<svg id="Layer_2" data-name="Layer 2" xmlns="http://www.w3.org/2000/svg" viewBox="0 0 592.45 107.07">
  <g id="_Слой_1" data-name="Слой 1">
    <g>
      <path d="M322.6.68h-51.87l-55.96,55.97,50.41,50.41h62.99l50.4-50.41L322.6.68ZM279.96,22.97h33.41l7.39,7.39h-48.18l7.39-7.39ZM318.93,84.77h-44.53l-28.12-28.12,4-4h92.77l4,4-28.12,28.12Z"/>
      <polygon points="207.73 56.76 207.63 56.65 211.19 53.09 264.13 .15 130.54 .15 130.47 0 105.98 0 149.32 43.34 149.84 73.02 149.88 75.61 181.34 44.16 160 22.44 210.53 22.44 176.14 56.83 226.39 107.07 257.91 107.07 207.66 56.83 207.73 56.76"/>
      <polygon points="57.43 79.7 88.94 79.7 89.18 79.47 108.43 60.2 108.36 47.71 98.91 38.21 89.31 47.82 57.43 79.7"/>
      <path d="M108.66,103.79c-6.98-6.98-11.5-11.5-19.28-19.28H22.28v-5.13l28.64-.06,2.77-2.79,41.62-41.94.07-.07-25.07-25.07L61.01.15H0v106.67h111.69c-1.06-1.06-2.07-2.07-3.03-3.03ZM22.28,22.44h29.49l12.09,12.09-41.58,41.92V22.44Z"/>
      <polygon points="172.55 60.41 156.79 76.17 159.11 78.48 165.15 84.52 145.47 84.52 143.69 84.52 136.01 84.52 135.68 36.67 135.68 36.38 113.27 13.82 113.23 13.78 99.69 .15 68.17 .15 71.94 3.94 72.37 4.37 98.95 30.97 102.51 34.52 102.43 34.6 113.4 45.62 113.7 101.68 118.84 106.82 218.95 106.82 174.86 62.73 172.55 60.41"/>
      <polygon points="384.72 56.76 384.82 56.65 381.26 53.09 328.33 .15 461.91 .15 461.98 0 486.47 0 443.14 43.34 442.61 73.02 442.57 75.61 411.11 44.16 432.45 22.44 381.93 22.44 416.31 56.83 366.06 107.07 334.54 107.07 384.79 56.83 384.72 56.76"/>
      <polygon points="535.03 79.7 503.51 79.7 503.28 79.47 484.02 60.2 484.09 47.71 493.54 38.21 503.14 47.82 535.03 79.7"/>
      <path d="M480.76,106.82h111.69s0-106.67,0-106.67h-61.01s-9.31,9.31-9.31,9.31l-25.07,25.07.07.07,41.62,41.94,2.77,2.79,28.64.06v5.13h-67.1c-7.78,7.78-12.29,12.29-19.28,19.28-.96.96-1.97,1.97-3.03,3.03ZM570.17,76.45l-41.58-41.92,12.09-12.09h29.49v54.01Z"/>
      <polygon points="419.9 60.41 435.66 76.17 433.35 78.48 427.3 84.52 446.98 84.52 448.76 84.52 456.44 84.52 456.77 36.67 456.77 36.38 479.19 13.82 479.23 13.78 492.76 .15 524.28 .15 520.51 3.94 520.08 4.37 493.5 30.97 489.94 34.52 490.02 34.6 479.05 45.62 478.75 101.68 473.61 106.82 373.5 106.82 417.59 62.73 419.9 60.41"/>
    </g>
  </g>
</svg>