<?xml version="1.0" encoding="UTF-8"?>
<svg id="Layer_2" data-name="Layer 2" xmlns="http://www.w3.org/2000/svg" viewBox="0 0 729.59 177.16">
  <g id="_Слой_1" data-name="Слой 1">
    <g>
      <polygon points="403.98 81.38 386.81 81.38 364.76 59.32 364.73 59.35 364.71 59.32 342.66 81.38 325.49 81.38 325.15 16.47 302.62 16.47 302.95 103.91 320.12 103.91 409.35 103.91 426.51 103.91 426.85 16.47 404.32 16.47 403.98 81.38"/>
      <g>
        <polygon points="112.95 57.49 112.95 57.75 68.82 13.44 68.89 13.44 70.39 14.93 112.95 57.49"/>
        <polygon points="163.85 34.33 163.85 34.79 163.39 34.33 163.85 34.33"/>
        <polygon points="202.74 34.33 163.85 34.33 202.65 34.24 202.74 34.33"/>
        <polygon points="297.95 177.16 252.61 132.63 219.97 132.06 251.78 100.26 254.83 103.23 275.42 123.5 275.42 69.34 243.65 101.09 240.64 104.1 193.06 56.52 185.58 56.52 233.46 104.4 230.24 104.27 230.37 104.35 93.86 104.35 115.31 82.9 115.11 59.93 112.95 57.75 112.95 57.49 70.39 14.93 68.89 13.44 68.82 13.44 55.43 0 87.3 0 137.64 50.59 137.9 81.61 178.8 81.61 163.67 66.48 163.39 34.33 163.85 34.79 163.85 34.33 202.74 34.33 240.64 72.23 243.68 69.25 297.64 16.47 297.65 22.35 297.94 171.24 297.95 177.16"/>
      </g>
      <g>
        <path d="M110.18,80.8l-19.94,19.94-3.37,3.37-44.92.12v-22.35h31.13l12.22-12.21c-5.58-5.58-9.94-9.94-14.3-14.3-4.36-4.36-8.71-8.71-14.3-14.3H22.55v40.54h14.31v22.79h-14.29L0,126.97V18.54h66.69l41.15,41.33,2.17,2.18.16,18.74Z"/>
        <path d="M107.85,59.87l-41.15-41.33h.08c2.06,2.06,4.01,4.01,5.88,5.88.42.42.85.84,1.26,1.26.42.42.84.83,1.23,1.23,1.74,1.74,3.41,3.41,5.03,5.03.41.41.82.82,1.21,1.21,5.22,5.22,10.09,10.08,15.53,15.53.42.41.84.84,1.27,1.27,2.98,2.98,6.15,6.14,9.66,9.65v.27Z"/>
      </g>
      <g>
        <polygon points="616.64 57.49 616.64 57.75 660.77 13.44 660.7 13.44 659.2 14.93 616.64 57.49"/>
        <polygon points="565.74 34.33 565.74 34.79 566.2 34.33 565.74 34.33"/>
        <polygon points="526.84 34.33 565.74 34.33 526.93 34.24 526.84 34.33"/>
        <polygon points="431.64 177.16 476.98 132.63 509.62 132.06 477.8 100.26 474.76 103.23 454.17 123.5 454.17 69.34 485.94 101.09 488.95 104.1 536.53 56.52 544.01 56.52 496.13 104.4 499.34 104.27 499.22 104.35 635.73 104.35 614.28 82.9 614.48 59.93 616.64 57.75 616.64 57.49 659.2 14.93 660.7 13.44 660.77 13.44 674.16 0 642.29 0 591.94 50.59 591.69 81.61 550.78 81.61 565.91 66.48 566.2 34.33 565.74 34.79 565.74 34.33 526.84 34.33 488.95 72.23 485.9 69.25 431.95 16.47 431.94 22.35 431.65 171.24 431.64 177.16"/>
      </g>
      <g>
        <path d="M619.4,80.8l19.94,19.94,3.37,3.37,44.92.12v-22.35s-31.13,0-31.13,0l-12.22-12.21c5.58-5.58,9.94-9.94,14.3-14.3,4.36-4.36,8.71-8.71,14.3-14.3h34.17v40.54h-14.31s0,22.79,0,22.79h14.29s22.57,22.57,22.57,22.57V18.54s-66.69,0-66.69,0l-41.15,41.33-2.17,2.18-.16,18.74Z"/>
        <path d="M621.74,59.87l41.15-41.33h-.08c-2.06,2.06-4.01,4.01-5.88,5.88-.42.42-.85.84-1.26,1.26-.42.42-.84.83-1.23,1.23-1.74,1.74-3.41,3.41-5.03,5.03-.41.41-.82.82-1.21,1.21-5.22,5.22-10.09,10.08-15.53,15.53-.42.41-.84.84-1.27,1.27-2.98,2.98-6.15,6.14-9.66,9.65v.27Z"/>
      </g>
    </g>
  </g>
</svg>