<?xml version="1.0" encoding="UTF-8"?>
<svg id="Layer_2" data-name="Layer 2" xmlns="http://www.w3.org/2000/svg" viewBox="0 0 615.28 122.48">
  <g id="_Слой_1" data-name="Слой 1">
    <g>
      <path d="M130.88,61.09l41.59,41.59v.97h-10.12l-39.32-39.31v-12.48h-17.89c-.31,0-.63-.31-.63-.63v-18.2h-34.13l-43.86,43.94H0v18.28h61.2l.55-.55c.08-.08.16-.08.16-.08l42.61-42.61v20.01l50.53,50.45h9.57v-.08h7.85v.08h18.76v-53.93l-60.35-60.35v52.88Z"/>
      <path d="M200.95,45.34l18.6-18.59,9.96,9.88-13.02,13.03,26.13,26.13h44.1s0-14.99,0-14.99h41.86v14.99h44.1s26.13-26.13,26.13-26.13l-13.03-13.03,9.97-9.88,18.6,18.59v22.29l18.75-18.75v-11.3l-.04-.04v-.39L395.89,0l-1.79,1.79s-.01,0-.02,0l-21.82,21.81h0s-.01.02-.01.02h.03s13,13.01,13,13.01l-20.4,20.4h-12.56c-.16,0-14.44,0-14.67-.08v-14.91h-60.06v14.91c-.24.08-14.51.08-14.67.08h-12.56l-20.4-20.4,13.01-13h.02s0-.02,0-.02h0S221.2,1.8,221.2,1.8c0,0-.01,0-.02,0l-1.79-1.79-37.15,37.15v.39l-.04.04v11.3l18.75,18.75v-22.29Z"/>
      <path d="M588.76,76.97l-43.86-43.94h-34.13v18.2c0,.31-.31.63-.63.63h-17.89v12.48l-39.31,39.31h-10.12v-.97l41.59-41.59V8.2l-60.35,60.35v53.93h18.76v-.08h7.85v.08h9.57l50.54-50.45v-20.01l42.6,42.61s.08,0,.16.08l.55.55h61.2v-18.28h-26.52Z"/>
      <polygon points="307.64 117.51 273.61 83.48 198.68 83.48 198.68 102.23 239.48 102.23 259.64 122.4 302.75 122.4 303.62 122.4 305.89 122.4 309.39 122.4 311.67 122.4 312.53 122.4 355.64 122.4 375.81 102.23 416.61 102.23 416.61 83.48 341.67 83.48 307.64 117.51"/>
    </g>
  </g>
</svg>