<?xml version="1.0" encoding="UTF-8"?>
<svg id="Layer_2" data-name="Layer 2" xmlns="http://www.w3.org/2000/svg" viewBox="0 0 648.42 90.78">
  <g id="_Слой_1" data-name="Слой 1">
    <g>
      <polygon points="259.43 .02 208.08 .02 208.08 24.36 173.58 58.87 153.93 58.87 142.12 47.06 142.12 90.3 186.43 90.3 259.62 17.11 259.43 .02"/>
      <polygon points="293.15 40.92 243.77 90.27 243.99 90.27 293.31 40.92 293.15 40.92"/>
      <path d="M283.26.02l-22.04,22.04c-.03.06-68.21,68.21-68.21,68.21l-.03.03h44.31l60.09-60.12h13.84l10.64,10.65-.09-40.81h-38.49Z"/>
      <polygon points="170.24 25.26 188.88 43.33 188.88 0 144.67 0 54.29 90.38 122.88 90.38 122.88 66.13 163.75 25.26 170.24 25.26"/>
      <path d="M52.91,58.72l28.97-28.97c2.9-2.9,6.83-4.53,10.93-4.53h20.19L137.81.39h-57.95c-8.28,0-16.25,3.31-22.11,9.16L9.7,57.58C3.5,63.82,0,72.26,0,81.04v9.07h10.2s36.35.01,36.35.01h.01s1.65-.01,1.65-.01l.13-.25,31.15-31.15h-26.58Z"/>
      <polygon points="299.32 34.91 243.99 90.27 288.05 90.27 321.84 56.29 321.84 47.51 309.24 34.91 299.32 34.91"/>
      <polygon points="321.84 90.78 321.84 62.59 293.68 90.78 321.84 90.78"/>
      <polygon points="326.59 90.78 354.74 90.78 326.59 62.59 326.59 90.78"/>
      <polygon points="474.84 58.87 440.35 24.36 440.35 .02 388.99 .02 388.8 17.11 461.99 90.3 506.3 90.3 506.3 47.06 494.49 58.87 474.84 58.87"/>
      <polygon points="355.12 40.92 404.43 90.27 404.65 90.27 355.27 40.92 355.12 40.92"/>
      <path d="M387.2,22.06L365.16.02h-38.49l-.09,40.81,10.64-10.65h13.84l60.09,60.12h44.31l-.03-.03s-68.18-68.15-68.21-68.21Z"/>
      <polygon points="459.54 0 459.54 43.33 478.18 25.26 484.67 25.26 525.55 66.13 525.55 90.38 594.14 90.38 503.75 0 459.54 0"/>
      <path d="M638.72,57.58l-48.06-48.03c-5.86-5.86-13.83-9.16-22.11-9.16h-57.95l24.82,24.82h20.19c4.09,0,8.03,1.64,10.93,4.53l28.97,28.97h-26.58l31.15,31.15.13.25h1.66s36.35.01,36.35.01h0s10.2-.01,10.2-.01v-9.07c0-8.79-3.5-17.23-9.7-23.46Z"/>
      <polygon points="339.18 34.91 326.59 47.51 326.59 56.29 360.38 90.27 404.43 90.27 349.1 34.91 339.18 34.91"/>
    </g>
  </g>
</svg>