<?xml version="1.0" encoding="UTF-8"?>
<svg id="Layer_2" data-name="Layer 2" xmlns="http://www.w3.org/2000/svg" viewBox="0 0 651.19 132.71">
  <g id="_Слой_1" data-name="Слой 1">
    <g>
      <path d="M627.59,0h-291.94c-3.08,3.08-4.8,4.8-7.88,7.88v20.07h.04v14.07l14.07-14.07h273.29c3.15,3.15,4.92,4.92,8.07,8.07v6h-163.85l52.5,52.5c15.44,0,24.1,0,39.54,0l-24.55-24.55h13.41c9.51-9.51,15.39-15.39,23.96-23.96h58.98v8.21h-23.77l-44.32,44.32h-43.75c-9.36,9.36-14.61,14.61-23.97,23.97h-110l52.54-52.54h12.04l12.82,12.82-11.64,11.64h62.81l-52.42-52.41h-35.2l-90.63,90.63h39.54l6.14-6.14h165.18s28.1,0,28.1,0l44.32-44.32h20.04c7.85-7.85,12.26-12.26,20.11-20.11V22.4c-9.22-9.22-14.38-13.19-23.6-22.4Z"/>
      <path d="M412.58,41.79h-39.54l-45.62,45.62v39.54l85.16-85.16h0Z"/>
      <path d="M197.61,42.08l-52.41,52.41h62.81l-11.64-11.64,12.82-12.82h12.04l52.54,52.54h-110c-9.36-9.36-14.61-14.61-23.97-23.97h-43.75l-44.32-44.32h-23.77v-8.21h58.98c8.57,8.57,14.45,14.45,23.96,23.96h13.41l-24.55,24.55c15.44,0,24.1,0,39.54,0l52.5-52.5H27.96v-6c3.15-3.15,4.92-4.92,8.07-8.07h273.29l14.07,14.07v-14.07h.04V7.94c-3.08-3.08-4.8-4.8-7.88-7.88H23.6C14.38,9.28,9.22,13.24,0,22.46v39.67c7.85,7.85,12.25,12.26,20.11,20.11h20.04l44.32,44.32h28.1s165.18,0,165.18,0l6.14,6.14h39.54l-90.63-90.63h-35.2Z"/>
      <path d="M238.6,41.84h0l85.16,85.16v-39.54l-45.62-45.62h-39.54Z"/>
    </g>
  </g>
</svg>