<?xml version="1.0" encoding="UTF-8"?>
<svg id="Layer_2" data-name="Layer 2" xmlns="http://www.w3.org/2000/svg" viewBox="0 0 660.26 139.55">
  <g id="_Слой_1" data-name="Слой 1">
    <g>
      <polygon points="273.19 119.35 210.08 56.52 169.07 56.52 160.23 47.69 179.83 27.94 0 27.94 .03 27.97 19.61 47.7 132.3 47.7 160.89 76.29 201.9 76.29 244.99 119.35 238.3 119.35 238.3 119.51 238.17 119.35 218.34 139.18 238.3 139.18 238.3 139.26 274.12 139.26 274.12 139.18 293.16 139.18 273.22 119.35 273.19 119.35"/>
      <polygon points="213.93 99.17 193.6 119.49 150.7 119.36 86.62 55.29 19.62 55.29 19.63 74.95 78.35 74.95 142.51 139.11 201.77 139.26 227.91 113.14 213.93 99.17"/>
      <path d="M59.21,119.35c-7.31-7.31-11.57-11.57-18.58-18.58v-18.06h-21.03v7.15h0v19.91h0v.03h.03c11.5,11.5,17.95,17.95,29.46,29.46h57.61v-.08h25.35l-19.83-19.83h-53.01Z"/>
      <path d="M259.76,48.82l69.95,69.95v.32l.25.25.16-.16.16.16.25-.25v-.32l69.95-69.95h46.22l20.89-20.89H192.65l20.89,20.89h46.22ZM330.13,49.04l40.54.12-40.54,40.54-40.54-40.54,40.54-.12Z"/>
      <polygon points="132.07 20.06 112 0 83.14 0 103.14 20 132.07 20.06"/>
      <path d="M83.14,0H19.6v20.06h43.47c7.84-7.84,12.23-12.23,20.06-20.06Z"/>
      <polygon points="480.44 27.94 500.03 47.69 491.2 56.52 450.19 56.52 387.08 119.35 387.05 119.35 367.1 139.18 386.14 139.18 386.14 139.26 421.96 139.26 421.96 139.18 441.93 139.18 422.1 119.35 421.96 119.51 421.96 119.35 415.28 119.35 458.36 76.29 499.38 76.29 527.96 47.7 640.66 47.7 660.23 27.97 660.26 27.94 480.44 27.94"/>
      <polygon points="640.63 74.95 640.64 55.29 573.64 55.29 509.57 119.36 466.66 119.49 446.34 99.17 432.36 113.14 458.49 139.26 517.75 139.11 581.91 74.95 640.63 74.95"/>
      <path d="M407.12,87.91l14.03-13.91-8.06-8.06h-18.6l-64.36,64.36-64.36-64.36h-18.6l-8.06,8.06,14.03,13.91,2.13-2.13,53.77,53.77h42.18l53.77-53.77,2.13,2.13Z"/>
      <path d="M640.66,82.71h-21.03v18.06c-7.01,7.01-11.27,11.27-18.58,18.58h-53.01l-19.83,19.83h25.35v.08h57.61c11.51-11.51,17.96-17.96,29.46-29.46h.03v-.03h0v-19.91h0v-7.15Z"/>
      <polygon points="577.12 0 548.26 0 528.2 20.06 557.12 20 577.12 0"/>
      <path d="M597.19,20.06h43.47V0h-63.54c7.84,7.84,12.23,12.23,20.06,20.06Z"/>
    </g>
  </g>
</svg>