<?xml version="1.0" encoding="UTF-8"?>
<svg id="Layer_2" data-name="Layer 2" xmlns="http://www.w3.org/2000/svg" viewBox="0 0 802.34 123.14">
  <g id="_Слой_1" data-name="Слой 1">
    <g>
      <path d="M541.19,61.67L479.52,0h-37.99l-.09,3.11v2.36l117.41,117.41h29.53v-14.02c-14.62-14.62-47.17-47.17-47.19-47.19Z"/>
      <path d="M402.9.16v14.85l23.12,23.24h-12.22c-4.26,4.26-6.65,6.64-10.9,10.9v20.21l97.74-.11L431.54.16h-28.64Z"/>
      <path d="M551.48,67.37l21.76,21.76h45.26v-36.96l-2.98-2.98-8.64,8.92h-18.71l-20.46-20.46V0h-66.53l-.19,16.88,50.36,50.33c.06.06.09.09.12.16Z"/>
      <polygon points="589.22 24.91 595.65 24.91 613.77 43.06 621.61 50.9 621.95 89.13 684.68 89.13 703.49 89.04 643.99 29.54 614.55 .1 570.81 .1 570.81 36.38 574.05 39.61 589.22 24.91"/>
      <path d="M792.77,91.03l-81.63-81.6c-5.78-5.78-13.65-9.05-21.82-9.05h-69.63l24.5,24.5h32.36c4.04,0,7.93,1.62,10.79,4.48l33.98,33.98c10.63,10.63,3.1,28.81-11.93,28.81h-133.31l15.42,15.42v15.57h210.86v-8.95c0-8.67-3.45-17.01-9.57-23.16Z"/>
      <path d="M360.9,3.11l-.09-3.11h-37.99l-61.67,61.67s-32.57,32.57-47.19,47.19v14.02h29.53L360.9,5.47v-2.36Z"/>
      <path d="M301.7,69.27l97.74.11v-20.21c-4.26-4.26-6.64-6.64-10.9-10.9h-12.22l23.12-23.24V.16h-28.64l-69.1,69.1Z"/>
      <path d="M195.47,58.11l-8.64-8.92-2.98,2.98v36.96h45.26l21.76-21.76c.03-.06.06-.09.12-.16l50.36-50.33-.19-16.88h-66.53v37.65l-20.46,20.46h-18.71Z"/>
      <polygon points="98.85 89.04 117.66 89.13 180.39 89.13 180.74 50.9 188.57 43.06 206.69 24.91 213.13 24.91 228.3 39.61 231.53 36.38 231.53 .1 187.79 .1 158.35 29.54 98.85 89.04"/>
      <path d="M92.97,92.15c-15.04,0-22.57-18.18-11.93-28.81l33.98-33.98c2.86-2.86,6.75-4.48,10.79-4.48h32.36L182.66.38h-69.63c-8.18,0-16.04,3.27-21.82,9.05L9.57,91.03c-6.12,6.15-9.57,14.49-9.57,23.16v8.95h210.86v-15.57l15.42-15.42H92.97Z"/>
    </g>
  </g>
</svg>