<?xml version="1.0" encoding="UTF-8"?>
<svg id="Layer_2" data-name="Layer 2" xmlns="http://www.w3.org/2000/svg" viewBox="0 0 624.25 160.06">
  <g id="_Слой_1" data-name="Слой 1">
    <g>
      <path d="M375.59,87.96h39.79v-17h-39.79c-22.02,0-41.75,9.95-54.96,25.58v-24.88h-17v24.88c-13.21-15.63-32.94-25.58-54.96-25.58h-39.79v17h39.79c30.3,0,54.96,24.65,54.96,54.96h17c0-30.3,24.65-54.96,54.96-54.96Z"/>
      <path d="M343.27,143.06h-22.43v17h38.56v-8.5c0-13.77,11.2-24.97,24.97-24.97h92.83v-17h-92.83c-20.23,0-37.16,14.39-41.1,33.47Z"/>
      <path d="M599.02,0c-13.91,0-25.23,11.32-25.23,25.23v46.21h17V25.23c0-4.54,3.69-8.23,8.23-8.23s8.23,3.69,8.23,8.23v109.59c0,4.54-3.69,8.23-8.23,8.23s-8.23-3.69-8.23-8.23v-57.64h-8.5s-27.6,0-27.6,0c-16.3,0-29.57-13.26-29.57-29.57v-1.04c0-25.68-20.89-46.57-46.57-46.57s-46.57,20.89-46.57,46.57v7.35h-16.59v17h38.82c16.3,0,29.57,13.26,29.57,29.57v42.83h91.53c3.5,9.74,12.8,16.73,23.73,16.73,13.91,0,25.23-11.32,25.23-25.23V25.23c0-13.91-11.32-25.23-25.23-25.23ZM454.19,53.93h-5.22v-7.35c0-16.31,13.26-29.57,29.57-29.57s29.57,13.26,29.57,29.57v1.04c0,25.68,20.89,46.57,46.57,46.57h19.1v32.14h-73.02v-25.82c0-25.68-20.89-46.57-46.57-46.57Z"/>
      <path d="M170.06,70.93h38.82v-17h-16.59v-7.35c0-25.68-20.89-46.57-46.57-46.57s-46.57,20.89-46.57,46.57v1.04c0,16.3-13.26,29.57-29.57,29.57h-27.6s-8.5,0-8.5,0v57.64c0,4.54-3.69,8.23-8.23,8.23s-8.23-3.69-8.23-8.23V25.23c0-4.54,3.69-8.23,8.23-8.23s8.23,3.69,8.23,8.23v45.42h17V25.23C50.47,11.32,39.15,0,25.23,0S0,11.32,0,25.23v109.59c0,13.91,11.32,25.23,25.23,25.23,10.93,0,20.23-7,23.73-16.73h91.53v-42.83c0-16.31,13.26-29.57,29.57-29.57ZM123.49,100.5v25.82H50.47v-32.14h19.1c25.68,0,46.57-20.89,46.57-46.57v-1.04c0-16.31,13.26-29.57,29.57-29.57s29.57,13.26,29.57,29.57v7.35h-5.22c-25.68,0-46.57,20.89-46.57,46.57Z"/>
      <path d="M239.88,109.59h-92.95v17h92.95c13.77,0,24.97,11.2,24.97,24.97v8.5h38.56v-17h-22.43c-3.94-19.08-20.87-33.47-41.1-33.47Z"/>
    </g>
  </g>
</svg>