<?xml version="1.0" encoding="UTF-8"?>
<svg id="Layer_2" data-name="Layer 2" xmlns="http://www.w3.org/2000/svg" viewBox="0 0 415.65 125.55">
  <g id="_Слой_1" data-name="Слой 1">
    <path d="M401.38,30.05h-23.1l-19.13-19.12-10.92-10.92h-115.75c-4.54,4.54-7.92,7.92-11.48,11.48h-.13c-5.16,5.16-8.28,8.28-13.05,13.05-4.77-4.77-7.89-7.89-13.05-13.05h-.13c-3.56-3.56-6.94-6.94-11.48-11.48h-115.75l-10.92,10.92-19.13,19.12H14.27c-7.88,0-14.27,6.39-14.27,14.27v16.54c0,3.78,1.5,7.41,4.18,10.09l54.55,54.55v.06h92.16l56.94-56.94,56.94,56.94h92.16v-.06l54.55-54.55c2.68-2.68,4.18-6.3,4.18-10.09v-16.54c0-7.88-6.39-14.27-14.27-14.27ZM242.49,21.67h123.03l8.38,8.38h-139.79c5.54-5.54,2.84-2.84,8.38-8.38ZM234.11,33.15h119.03l10.13,10.13-38.12,38.12.03-.12-.08.07h-63.55l-27.44-27.44v-20.76ZM50.13,21.67h123.03c5.54,5.54,2.84,2.84,8.38,8.38H41.75l8.38-8.38ZM90.5,81.39l-38.12-38.12,10.13-10.13h119.03v20.76l-27.44,27.44h-63.55l-.07-.07.02.12ZM22.61,58.74c-.61-.61-.95-1.44-.95-2.31,0-1.8,1.46-3.26,3.26-3.26h5.57c.87,0,1.7.34,2.31.96l46.5,46.59-7.35,7.36L22.61,58.74ZM149.22,122.46H61.95l19.54-19.54.09.09h81.49l40.12-40.13v-29.74h3.1v32.24l-57.07,57.07ZM266.42,122.46l-57.07-57.07v-32.24h3.1v29.74l40.12,40.13h81.49l.09-.09,19.54,19.54h-87.27ZM393.03,58.74l-49.34,49.34-7.35-7.36,46.5-46.59c.61-.61,1.44-.96,2.31-.96h5.57c1.8,0,3.26,1.46,3.26,3.26,0,.86-.34,1.69-.95,2.31Z"/>
  </g>
</svg>