<?xml version="1.0" encoding="UTF-8"?>
<svg id="Layer_2" data-name="Layer 2" xmlns="http://www.w3.org/2000/svg" viewBox="0 0 688.51 114.56">
  <g id="_Слой_1" data-name="Слой 1">
    <path d="M671.61,1.03l-1.03-1.03H17.93l-1.03,1.03L0,17.93v37.41l59.22,59.22c14.83,0,555.24,0,570.07,0l59.22-59.22c0-14.61,0-22.8,0-37.41l-16.89-16.89ZM95.07,112.45L28.01,45.39c0-6.84,0-10.67,0-17.51h0s77.39,0,77.39,0l28.48,28.48H45.41l56.09,56.09h-6.43ZM114.4,87.38l-4.18-4.18h88.47l-55.33-55.32h59.77v28.68h-25.29l10.27,10.27,16.63,16.63h25.23V2.07h4.15v25.81h14.01v44.93l-14.57,14.57h-119.17ZM409.61,112.45v-24.84h-63.33v12.31c4.98,4.98,8.04,8.04,12.54,12.54h-29.14c4.5-4.5,7.56-7.56,12.54-12.54v-12.31h-63.22v24.84h-32.53l28.52-28.52V27.88h6.73l28.73,28.73h-31.31v26.85h63.02v-33.1L293.87,2.07h100.77l-48.3,48.3v33.1h63.13v-26.85h-31.42l28.73-28.73h6.73v56.05l28.52,28.52h-32.42ZM574.11,87.38h-119.17l-14.57-14.57V27.88h14.01V2.07h4.15v81.4h25.23l16.63-16.63h-.02l10.27-10.27h-25.27v-28.68h59.77l-55.33,55.32h88.47l-4.18,4.18ZM593.43,112.45h-6.43l56.09-56.09h-88.47l28.48-28.48h77.39c0,6.84,0,10.67,0,17.51l-67.06,67.06Z"/>
  </g>
</svg>