<?xml version="1.0" encoding="UTF-8"?>
<svg id="Layer_2" data-name="Layer 2" xmlns="http://www.w3.org/2000/svg" viewBox="0 0 667.18 90.38">
  <g id="_Слой_1" data-name="Слой 1">
    <g>
      <path d="M495.17,58.86l-34.49-34.51V0h-51.35l-.19,17.1,51.02,50.99c.06.06.09.1.13.16l22.04,22.04h44.31v-43.24l-11.81,11.81h-19.65Z"/>
      <path d="M409.55,22.2c-.06-.06-.09-.09-.13-.16L387.38,0h-38.48l-.1,3.15v2.39l84.74,84.75h44.12l-.03-.03-68.08-68.05Z"/>
      <path d="M479.87.09v43.23l18.63-18.09h6.51l40.87,40.87v24.27h50.7c6.18,0,10.77,0,17.88,0L524.18.09h-44.31Z"/>
      <path d="M657.48,57.57l-48.06-48.02c-5.86-5.86-13.83-9.17-22.11-9.17h-57.95l24.82,24.82h20.19c4.09,0,8.03,1.64,10.93,4.53l28.97,28.97h-26.58l31.15,31.15.13.25h1.66s36.35.01,36.35.01h0s10.2-.01,10.2-.01v-9.07c0-8.79-3.5-17.23-9.7-23.46ZM631.97,77.35l-.91-1.86c1.04,1.04,1.2,1.51.91,1.86Z"/>
      <path d="M185.41,58.86l-34.49-34.51V0h-51.35l-.19,17.1,51.02,50.99c.06.06.09.1.13.16l22.04,22.04h44.31v-43.24l-11.81,11.81h-19.65Z"/>
      <path d="M77.62,0h-38.48l-.09,3.15v2.39l84.74,84.75h44.12l-.03-.03L77.62,0Z"/>
      <path d="M170.11.09v43.23l18.63-18.09h6.51l40.87,40.87v24.27h50.7c6.18,0,10.77,0,17.88,0L214.42.09h-44.31Z"/>
      <path d="M299.66,9.54c-5.86-5.86-13.82-9.17-22.11-9.17h-57.95l24.82,24.82h20.19c4.09,0,8.03,1.64,10.93,4.53l28.97,28.97h-26.58l31.15,31.15.13.25h1.66s36.35.01,36.35.01h0s10.2-.01,10.2-.01v-9.07c0-8.79-3.5-17.23-9.7-23.46l-48.06-48.02ZM322.21,77.35l-.91-1.86c1.04,1.04,1.2,1.51.91,1.86Z"/>
      <path d="M315.58.17h-6.26v15.05l44.1,44.22c4.59,6.22,7.14,13.86,7.14,21.59v9.26h31.93v-.02h35.95L338.33.17h-22.75Z"/>
      <path d="M6.26.17H0v15.05l44.1,44.22c4.59,6.22,7.14,13.86,7.14,21.59v9.26h31.93v-.02h35.95L29.01.17H6.26Z"/>
    </g>
  </g>
</svg>