<?xml version="1.0" encoding="UTF-8"?>
<svg id="Layer_2" data-name="Layer 2" xmlns="http://www.w3.org/2000/svg" viewBox="0 0 629.7 78.96">
  <g id="_Слой_1" data-name="Слой 1">
    <g>
      <path d="M271.28,19.55h-25.52v19.51h-30.4v-19.55h30.4V.06h-66.29l-59.4,59.4h-7.8l26.99-26.99h0l19.45-19.45V0H0v47.55l2.71-.42c-.74.26-1.62.42-2.71.42l31.41,31.41h96.63l.06-.06h.03l59.4-59.4h8.39v39.01h69.31v-19.51h14.12l19.52-19.52h13.27V.03h-21.33l-19.52,19.52ZM39.46,39.5v-20.04h85.3l-13,13.01h.03l-26.99,26.99s-.05.05-.07.07h-25.25s-20.01-20.03-20.01-20.03Z"/>
      <path d="M470.99,0v13.01l42.2,42.21h0l3.86,3.86h-7.8L450.24.06h-66.29v19.46h30.4v19.55h-30.4v-19.51h-25.52L338.9.03h-21.33v19.46h13.27l19.52,19.52h14.12v19.51h69.31V19.51h8.39l59.02,59.02h.03l.43.44h96.63l31.41-31.41c-1.03,0-1.85-.17-2.57-.4l2.57.4V0h-158.71ZM588.24,39.5l-20.01,20.01h-23.25s-4.3-4.29-4.3-4.29h.03l-35.76-35.76h83.3v20.04Z"/>
    </g>
  </g>
</svg>