<?xml version="1.0" encoding="UTF-8"?>
<svg id="Layer_2" data-name="Layer 2" xmlns="http://www.w3.org/2000/svg" viewBox="0 0 605.08 172.84">
  <g id="_Слой_1" data-name="Слой 1">
    <g>
      <path d="M275.87,127v16.06h-88.34l17.38-17.38h-5.33l-17.36,17.38-9.81,9.81v19.97h-25.31v-30.47l50.46-50.44,25.83,25.81h43.26c3.6,3.62,5.63,5.65,9.23,9.25Z"/>
      <path d="M329.18,127v16.06s88.34,0,88.34,0l-17.38-17.38h5.33s17.36,17.38,17.36,17.38l9.81,9.81v19.97s25.31,0,25.31,0v-30.47s-50.46-50.44-50.46-50.44l-25.83,25.81h-43.26c-3.6,3.62-5.63,5.65-9.23,9.25Z"/>
      <path d="M592.96,65.57h-135.1V0l-47.42,47.42s-81.66,0-89.52,0h0s-.01,0-.01,0h0s-18.37,18.38-18.37,18.38l-18.37-18.37h0s-.01-.01-.01-.01h-89.52L147.22,0v65.57H12.12c-4.73,4.73-7.39,7.39-12.12,12.12v26.17l39.21,39.21h101.88c9.88-9.88,15.42-15.42,25.31-25.31H49.7l-24.39-24.39v-11.01l13.19-13.19h108.72v44.88h22.85c.96-.96,1.5-1.5,2.46-2.46v-50.49l53.06,53.06h60.61v-23.83l-1.48-1.48h-48.64l-37.83-37.83h53.74l37.9,37.9v54.43h-14v16.08c3.6,3.6,5.63,5.63,9.23,9.23h34.88c3.6-3.6,5.63-5.63,9.23-9.23v-16.08h-14v-54.43l37.9-37.9h53.74l-37.83,37.83h-48.64l-1.48,1.48v23.83h60.61l53.06-53.06v50.49c.96.96,1.5,1.5,2.46,2.46h22.85v-44.88h108.72l13.19,13.19v11.01l-24.39,24.39h-116.7c9.88,9.88,15.42,15.42,25.31,25.31h101.88l39.21-39.21v-26.17c-4.73-4.73-7.39-7.39-12.12-12.12Z"/>
    </g>
  </g>
</svg>