<?xml version="1.0" encoding="UTF-8"?>
<svg id="Layer_2" data-name="Layer 2" xmlns="http://www.w3.org/2000/svg" viewBox="0 0 744.49 132.31">
  <g id="_Слой_1" data-name="Слой 1">
    <g>
      <g>
        <path d="M342.09,98.45l-51.45-51.45-37.87.12-62.79,62.79h-52.22l-60.32-60.32h107.44l-14.29,14.29-22.86,22.86-13.47,13.47,5.65,5.65h18.52l50.59-50.53h8.53l10.32,10.32,14.95-14.95-16.51-16.51h-26.05l-12.75,12.75H21.14v-12.75H0v67.64c11.71,11.71,18.27,18.27,29.98,29.98l30.82-.07-39.66-39.66v-42.5h3.02l18.67,18.67h.06v39.58l24.04,24.04h20.35l.11-.06h61.78l-21.08-21.08h-51.22l-12.86-12.86v-29.62h28.08l62.79,62.79h43.83l62.79-62.79h46.61l5.02,5.02v24.23l-11.76,11.76-37.26-37.26-14.95,14.95,44.58,44.58h0l.78.78h13.69l.78-.78h0l33.08-33.08Z"/>
        <path d="M370.07,72.59h0s-.32,0-.32,0h-20.6l-33.19-33.6v-9.93L287.04.15h-11.07l-.16.16-.14-.16-24.91,24.91-13.51,13.51,8.29,8.29,4.39-4.39h10.24l21.55-21.24,15.41,15.57v9.73s0,.02,0,.02v.19l44.19,44.42.24.24h9.86v4.22c-6.4,6.4-11.41,11.41-17.81,17.81v18.63h8.59c10.32-10.32,17.52-17.52,27.84-27.84v-31.59h0Z"/>
      </g>
      <g>
        <path d="M402.41,98.31l51.45-51.45,37.87.12,62.79,62.79h52.22s60.32-60.32,60.32-60.32h-107.44s14.29,14.29,14.29,14.29l22.86,22.86,13.47,13.47-5.65,5.65h-18.52s-50.59-50.53-50.59-50.53h-8.53s-10.32,10.32-10.32,10.32l-14.95-14.95,16.51-16.51h26.05s12.75,12.75,12.75,12.75h166.37s0-12.75,0-12.75h21.14v12.8s0,54.84,0,54.84c-11.71,11.71-18.27,18.27-29.98,29.98l-30.82-.07,39.66-39.66v-37.27s0-5.23,0-5.23h-3.02s-18.67,18.67-18.67,18.67h-.06v39.58s-24.04,24.04-24.04,24.04h-20.35s-.11-.06-.11-.06h-61.78s21.08-21.08,21.08-21.08h40.82s10.4,0,10.4,0l12.86-12.86v-29.62s-28.08,0-28.08,0l-62.79,62.79h-43.83s-62.79-62.79-62.79-62.79h-46.61s-5.02,5.02-5.02,5.02c0,9.46,0,14.77,0,24.23l11.76,11.76,37.26-37.26,14.95,14.95-44.58,44.58h0l-.78.78h-13.69s-.78-.78-.78-.78h0l-33.08-33.08Z"/>
        <path d="M374.42,72.45h0s.32,0,.32,0h20.6s33.19-33.6,33.19-33.6v-9.93S457.45,0,457.45,0h11.07s.16.16.16.16L468.81,0l24.91,24.91,13.51,13.51-8.29,8.29-4.39-4.39h-10.24s-21.55-21.24-21.55-21.24l-15.41,15.57v9.64s.01.08.01.08v.02s-.01.19-.01.19l-44.19,44.42-.24.24h-9.86s0,4.22,0,4.22c6.4,6.4,11.41,11.41,17.81,17.81v18.63h-8.59c-10.32-10.32-17.52-17.52-27.84-27.84v-12.96s0-18.59,0-18.59v-.04h0Z"/>
      </g>
    </g>
  </g>
</svg>