<?xml version="1.0" encoding="UTF-8"?>
<svg id="Layer_2" data-name="Layer 2" xmlns="http://www.w3.org/2000/svg" viewBox="0 0 609.41 135.89">
  <g id="_Слой_1" data-name="Слой 1">
    <g>
      <g>
        <path d="M0,36.57l47.66,47.66v50.13h0c9.81-9.81,15.31-15.31,25.12-25.12v-35.42l-37.27-37.27-35.51.02Z"/>
        <path d="M174.41,79.25l17.31,17.31-14.21,14.21h-26.2L77.1,36.55l-35.51.02,99.32,99.32h47.01l39.33-39.33-52.84-52.84c0,13.87,0,21.65,0,35.53Z"/>
        <path d="M264.39,59.63l-16.32,16.32-48.55-48.55V.26c-9.81,9.81-15.31,15.31-25.12,25.12v12.43l73.67,73.67,26.73-26.73h27.65v-25.12h-38.05Z"/>
        <polygon points="266.77 55.35 302.3 55.35 246.95 0 203.8 0 203.8 25.12 236.55 25.12 266.77 55.35"/>
      </g>
      <g>
        <path d="M609.41,36.57l-47.66,47.66v50.13h0c-9.81-9.81-15.31-15.31-25.12-25.12v-35.42s37.27-37.27,37.27-37.27l35.51.02Z"/>
        <path d="M434.99,79.25l-17.31,17.31,14.21,14.21h26.2s74.22-74.22,74.22-74.22l35.51.02-99.32,99.32h-47.01s-39.33-39.33-39.33-39.33l52.84-52.84c0,13.87,0,21.65,0,35.53Z"/>
        <path d="M345.02,59.63l16.32,16.32,48.55-48.55V.26c9.81,9.81,15.31,15.31,25.12,25.12v12.43s-73.67,73.67-73.67,73.67l-26.73-26.73h-27.65v-25.12h38.05Z"/>
        <polygon points="342.63 55.35 307.1 55.35 362.45 0 405.61 0 405.61 25.12 372.86 25.12 342.63 55.35"/>
      </g>
    </g>
  </g>
</svg>