<?xml version="1.0" encoding="UTF-8"?>
<svg id="Layer_2" data-name="Layer 2" xmlns="http://www.w3.org/2000/svg" viewBox="0 0 679.46 174.84">
  <g id="_Слой_1" data-name="Слой 1">
    <g>
      <polygon points="141.94 113.11 229.72 113.11 229.72 113.12 246.85 113.12 226.25 92.52 199.67 92.52 240.05 51.96 296.42 51.96 275.87 31.37 30.69 31.37 30.69 51.96 203.09 51.96 141.94 113.11"/>
      <polygon points="320.47 61.51 253.2 61.51 274.08 82.39 274.08 83.2 274.08 92.9 270.15 92.9 241.62 64.78 227.08 79.24 260.82 112.9 294.67 112.9 294.67 82.39 370.28 82.39 288.85 0 222 0 201.4 20.59 279.72 20.59 320.47 61.51"/>
      <path d="M147.7,92.8H56.15l-9.95-9.95h111.51l20.84-20.84H25.36l-4.77-4.77v-25.21h0c-8.04,8.04-12.55,12.55-20.59,20.59v13.15l.5.5h0l47.12,47.12h79.49c8.04-8.04,12.55-12.55,20.59-20.59Z"/>
      <polygon points="325.63 123.11 305.02 102.51 305.02 123.11 57.44 123.11 78.03 143.7 346.25 143.7 325.65 123.11 325.63 123.11"/>
      <polygon points="537.52 61.72 449.74 61.72 449.74 61.71 432.61 61.71 453.21 82.32 479.79 82.32 439.41 122.87 383.04 122.87 403.59 143.46 648.78 143.46 648.78 122.87 476.38 122.87 537.52 61.72"/>
      <polygon points="358.99 113.32 426.26 113.32 405.38 92.44 405.38 91.64 405.38 81.93 409.31 81.93 437.84 110.06 452.39 95.59 418.64 61.94 384.79 61.94 384.79 92.44 309.19 92.44 390.61 174.84 457.47 174.84 478.06 154.24 399.74 154.24 358.99 113.32"/>
      <path d="M678.96,108.56h0l-47.12-47.12h-79.49c-8.04,8.04-12.55,12.55-20.59,20.59h91.55l9.95,9.95h-111.51l-20.84,20.84h153.2l4.77,4.77v25.21h0c8.04-8.04,12.55-12.55,20.59-20.59v-13.15l-.5-.5Z"/>
      <polygon points="353.83 51.73 374.45 72.32 374.45 51.73 622.02 51.73 601.43 31.14 333.22 31.14 353.81 51.73 353.83 51.73"/>
    </g>
  </g>
</svg>