<?xml version="1.0" encoding="UTF-8"?>
<svg id="Layer_2" data-name="Layer 2" xmlns="http://www.w3.org/2000/svg" viewBox="0 0 464.26 100.05">
  <g id="_Слой_1" data-name="Слой 1">
    <path d="M459.91,50.27l-46.16-45.81c-2.83-2.81-6.65-4.38-10.64-4.38h-25.22S348.81,0,348.81,0c-6.49-.02-12.72,2.55-17.31,7.14l-15.49,15.5c-4.53,4.53-10.65,7.19-17.05,7.14-6.53-.05-12.81,2.52-17.42,7.14-7.17,7.17-12.85,12.85-20.83,20.83-.83.83-.25,2.25.93,2.25h68.08c4.94,0,8.95-4.01,8.95-8.95v-22.3c0-3.57,1.42-6.99,3.94-9.52l.07-.07c2.52-2.52,5.95-3.94,9.52-3.94h50.1c.81,0,1.58.4,2.04,1.1,1.33,2.01.22,3.78-2.18,3.78h-46.19s-.06-.02-.09-.02h-3.02c-5,0-9.06,4.06-9.06,9.06v14.93c0,.63.51,1.14,1.14,1.14h16.77c.75,0,1.47.37,1.89,1.02,1.24,1.87.21,3.52-2.03,3.52h-16.64c-.63,0-1.14.51-1.14,1.14,0,7.79-6.31,14.11-14.1,14.11h-30.09c-.12,0-.23.02-.34.05h-39.19c-3.3,0-5.54-2.58-5.73-5.38-.17-2.48-2.23-4.4-4.71-4.4h-17.07c-.15,0-.3.01-.44.02-.15,0-.29-.02-.44-.02h-17.07c-2.48,0-4.54,1.92-4.71,4.4-.19,2.8-2.43,5.38-5.73,5.38h-39.19c-.11-.03-.22-.05-.34-.05h-30.09c-7.79,0-14.11-6.32-14.1-14.11,0-.63-.51-1.14-1.14-1.14h-16.64c-2.24,0-3.26-1.66-2.03-3.52.43-.64,1.14-1.02,1.89-1.02h16.77c.63,0,1.14-.51,1.14-1.14v-14.93c0-5-4.06-9.06-9.06-9.06h-3.02s-.06.01-.09.02h-46.19c-2.4,0-3.51-1.78-2.18-3.78.46-.69,1.23-1.1,2.04-1.1h50.1c3.57,0,6.99,1.42,9.52,3.94l.07.07c2.52,2.52,3.94,5.95,3.94,9.52v22.3c0,4.94,4.01,8.95,8.95,8.95h68.09c1.17,0,1.76-1.42.93-2.25-7.99-7.99-13.67-13.67-20.84-20.84-4.57-4.57-10.77-7.14-17.23-7.14h0c-6.47,0-12.67-2.57-17.24-7.14l-15.49-15.49C128.17,2.55,121.94-.02,115.45,0l-29.09.09h-25.22c-3.98,0-7.81,1.57-10.63,4.38C38.19,16.69,4.35,50.27,4.35,50.27,1.56,53.06-.1,56.85,0,60.79c.32,12.15,15.1,18.14,23.78,9.45l20.57-20.6c3-3.01,7.08-4.7,11.33-4.7h21.13c2.48,0,3.61,1.83,2.25,3.9-.47.71-1.26,1.13-2.1,1.13h-19.13c-4.27,0-8.43,1.63-11.37,4.72-9.05,9.53-2.33,25.43,10.96,25.43h40.79c9.01,0,17.65,3.59,24.01,9.97h0c13.25,13.29,34.78,13.29,48.03,0h0c6.36-6.38,15-9.97,24.01-9.97h75.71c9.01,0,17.65,3.59,24.01,9.97h0c13.25,13.29,34.78,13.29,48.03,0h0c6.36-6.38,15-9.97,24.01-9.97h40.79c13.29,0,20.01-15.89,10.96-25.43-2.94-3.09-7.1-4.72-11.37-4.72h-19.12c-.83,0-1.62-.41-2.1-1.13-1.37-2.06-.23-3.9,2.25-3.9h21.12c4.25,0,8.33,1.69,11.33,4.7l20.57,20.6c8.68,8.69,23.46,2.7,23.78-9.45.1-3.94-1.56-7.73-4.34-10.51Z"/>
  </g>
</svg>