<?xml version="1.0" encoding="UTF-8"?>
<svg id="Layer_2" data-name="Layer 2" xmlns="http://www.w3.org/2000/svg" viewBox="0 0 643.27 187.03">
  <g id="_Слой_1" data-name="Слой 1">
    <g>
      <path d="M295.35,62.39v-17.72c0-.96.37-1.89,1.07-2.57l3.87-3.87c4.37-4.37,6.54-10.11,6.54-15.84s-2.17-11.45-6.54-15.82c-4.46-4.46-10.46-6.81-16.8-6.54-5.81.24-11.27,2.94-15.37,7.07l-135.78,135.78H56.05c-5.86,0-11.47,2.33-15.61,6.47l-15.28,15.28c-.69.69-1.62,1.11-2.59,1.13-2.23.04-3.17-1.43-3.53-2.3-.36-.86-.73-2.53,18.67-21.93l45.49-45.49c-17.21,17.21,15.92-15.42,16.84-15.42,2,0,2.86,1.33,3.19,2.13.33.8.67,2.34-.75,3.76l-13.51,13.51c-7.51,7.51-8.88,19.3-2.75,28.53,3.39,5.1,8.86,8.63,14.9,9.61,7.39,1.19,14.56-1.15,19.7-6.29l69.86-69.86h0c-10.35,0-16.16,0-26.51,0l-56.56,56.56c-.7.7-1.64,1.12-2.62,1.14-2.25.04-3.2-1.45-3.57-2.33-.36-.87-.73-2.56.82-4.11l13.51-13.51c7.41-7.41,8.76-19.04,2.7-28.14-3.34-5.02-8.74-8.49-14.7-9.45-7.27-1.17-14.34,1.15-19.39,6.21L6.59,146.11c-7.5,7.5-8.86,19.27-2.74,28.48,3.38,5.09,8.84,8.61,14.88,9.59,7.37,1.19,14.53-1.15,19.66-6.28l15.31-15.31c.62-.62,1.47-.98,2.36-.98h64.78c-.15,4.98,1.66,10.01,5.47,13.8l5.38,5.38c3.66,3.66,8.46,5.49,13.25,5.49s9.58-1.84,13.25-5.49l118.41-118.41h18.74ZM250.08,62.39l-102.51,102.51c-1.48,1.48-3.88,1.48-5.36,0-1.48-1.48-1.48-3.88,0-5.36l16.48-16.48h-.02c.07-.06.12-.12.19-.19h-.01l123.05-123.05c1.56-1.56,4.18-1.41,5.53.47,1.07,1.48.75,3.54-.54,4.82l-3.74,3.73c-4.18,4.2-6.54,9.9-6.54,15.82v17.72h-26.52Z"/>
      <path d="M334.46,62.98l-102.66,102.66c-1.48,1.48-3.88,1.48-5.36,0-1.48-1.48-1.48-3.88,0-5.36l97.17-97.17h-26.53l-86.54,86.54c-7.33,7.33-7.33,19.2,0,26.51l5.38,5.38c3.66,3.66,8.46,5.49,13.25,5.49s9.58-1.84,13.25-5.49l118.56-118.56h-26.53Z"/>
      <path d="M577.63,62.39v-17.72c0-.96.38-1.89,1.07-2.57l3.87-3.87c4.37-4.37,6.54-10.11,6.54-15.84s-2.17-11.45-6.54-15.82c-4.46-4.46-10.46-6.81-16.8-6.54-5.81.24-11.27,2.94-15.37,7.07l-135.78,135.78h-76.28c-5.86,0-11.47,2.33-15.61,6.47l-15.28,15.28c-.69.69-1.62,1.11-2.59,1.13-2.23.04-3.17-1.43-3.53-2.3-.36-.86-.73-2.53,18.67-21.93l45.49-45.49c-17.21,17.21,15.92-15.42,16.84-15.42,2,0,2.86,1.33,3.19,2.13.33.8.67,2.34-.75,3.76l-13.51,13.51c-7.51,7.51-8.88,19.3-2.75,28.53,3.39,5.1,8.86,8.63,14.9,9.61,7.39,1.19,14.56-1.15,19.7-6.29l69.86-69.86c-10.35,0-16.16,0-26.51,0l-56.56,56.56c-.7.7-1.64,1.12-2.62,1.14-2.25.04-3.2-1.45-3.57-2.33-.36-.87-.73-2.56.82-4.11l13.51-13.51c7.41-7.41,8.76-19.04,2.7-28.14-3.34-5.02-8.74-8.49-14.7-9.45-7.27-1.17-14.34,1.15-19.39,6.21l-77.75,77.75c-7.5,7.5-8.86,19.27-2.74,28.48,3.38,5.09,8.84,8.61,14.88,9.59,7.37,1.19,14.53-1.15,19.66-6.28l15.31-15.31c.63-.62,1.47-.98,2.36-.98h64.78c-.15,4.98,1.66,10.01,5.47,13.8l5.38,5.38c3.66,3.66,8.46,5.49,13.25,5.49s9.58-1.84,13.25-5.49l118.41-118.41h18.74ZM532.36,62.39l-102.51,102.51c-1.48,1.48-3.88,1.48-5.36,0s-1.48-3.88,0-5.36l16.48-16.48h-.02c.06-.06.12-.12.19-.19h-.01l123.05-123.05c1.56-1.56,4.18-1.41,5.53.47,1.07,1.48.75,3.54-.54,4.82l-3.74,3.73c-4.18,4.2-6.54,9.9-6.54,15.82v17.72h-26.52Z"/>
      <path d="M616.74,62.98l-102.66,102.66c-1.48,1.48-3.88,1.48-5.36,0-1.48-1.48-1.48-3.88,0-5.36l97.17-97.17h-26.53l-86.54,86.54c-7.33,7.33-7.33,19.2,0,26.51l5.38,5.38c3.66,3.66,8.46,5.49,13.25,5.49s9.58-1.84,13.25-5.49l118.56-118.56h-26.53Z"/>
    </g>
  </g>
</svg>