<?xml version="1.0" encoding="UTF-8"?>
<svg id="Layer_2" data-name="Layer 2" xmlns="http://www.w3.org/2000/svg" viewBox="0 0 526.96 117.23">
  <g id="_Слой_1" data-name="Слой 1">
    <g>
      <g>
        <path d="M391.42,67.43v5.87h29.3v.28l7.59-7.59h66.16c11.44-11.44,19.85-19.85,31.29-31.29h-101.51l-32.83,32.74Z"/>
        <rect x="427.21" y=".05" width="99.76" height="29.3"/>
        <polygon points="422.32 29.3 422.32 0 410.35 0 354.77 55.57 354.87 73.3 386.27 73.3 386.27 65.52 422.48 29.3 422.32 29.3"/>
        <polygon points="349.63 35.06 324.95 35.06 324.95 29.68 373.29 29.68 402.85 .12 295.65 .12 295.95 .38 295.65 .38 295.65 66.85 349.63 66.85 349.63 53.26 367.82 35.06 349.63 35.06"/>
        <path d="M265.97,102.78v14.45h29.3v-2.32l14.6-14.6h12.52c11.44-11.44,16.86-16.86,28.3-28.3h-53.95l-30.77,30.77Z"/>
        <path d="M278.29,82.44V.08h-29.45v82.36c5.75,5.75,8.97,8.97,14.72,14.72,5.75-5.75,8.97-8.97,14.72-14.72Z"/>
      </g>
      <g>
        <path d="M135.54,67.43v5.87h-29.3s0,.28,0,.28l-7.59-7.59H32.49c-11.44-11.44-19.85-19.85-31.29-31.29h101.51s32.83,32.74,32.83,32.74Z"/>
        <rect x="0" y=".05" width="99.76" height="29.3"/>
        <polygon points="104.65 29.3 104.65 0 116.62 0 172.19 55.57 172.09 73.3 140.7 73.3 140.7 65.52 104.48 29.3 104.65 29.3"/>
        <polygon points="177.34 35.06 202.02 35.06 202.02 29.68 153.68 29.68 124.12 .12 231.32 .12 231.01 .38 231.32 .38 231.32 66.85 177.34 66.85 177.34 53.26 159.14 35.06 177.34 35.06"/>
        <path d="M260.99,102.78v14.45h-29.3v-2.32s-14.6-14.6-14.6-14.6h-12.52c-11.44-11.44-16.86-16.86-28.3-28.3h53.95s30.77,30.77,30.77,30.77Z"/>
      </g>
    </g>
  </g>
</svg>