<?xml version="1.0" encoding="UTF-8"?>
<svg id="Layer_2" data-name="Layer 2" xmlns="http://www.w3.org/2000/svg" viewBox="0 0 758.37 131.43">
  <g id="_Слой_1" data-name="Слой 1">
    <g>
      <g>
        <polygon points="161.06 36.72 177.38 20.39 156.35 20.39 154.14 22.6 140.03 36.72 161.06 36.72"/>
        <path d="M210.91,20.39l-14.04-14.04-31.46,31.46.05-.02-37.6,37.67v24.96h-62.16L25.72,60.44v-16.17l2.82-2.82h78.16l-46.99,46.99c-.23.23-.23.61,0,.85l7.27,7.27h7.72l59.84-59.84h.04l14.11-14.12,2.21-2.21H26.7C16.27,30.82,10.43,36.67,0,47.1v24l45.66,45.66h107.92v-30.64L219.31,20.39h-8.4Z"/>
        <path d="M279.91,116.76c6.38-6.38,9.96-9.96,16.34-16.34h-122.22v-.93l42.9-42.9,23.53,23.53h-41.61l-16.61,16.62h119.22v-.1L225.04,20.2l-67.34,67.34v29.21h107.68v14.53l14.53-14.53Z"/>
        <path d="M311.94,26.71l58.78,59.16v-38.1c-18.63-18.63-29.08-29.08-47.72-47.72h-38.32v20.29c2.49,2.48,3.88,3.88,6.36,6.36h20.89Z"/>
        <path d="M377.26,110.67v-12.97l-66.02-66.82h-22.12c-3.25-3.25-5.07-5.06-8.31-8.31V0h-51.66S195.64,0,195.64,0c6.38,6.38,9.96,9.96,16.34,16.34h15.5l78.55,79.72-35.36,35.36h0s0,0,0,0h0s91.76,0,91.76,0h0s13.99,0,13.99,0l-13.67-13.67.17-7.08h14.35Z"/>
      </g>
      <g>
        <polygon points="597.32 36.72 580.99 20.39 602.02 20.39 604.23 22.6 618.34 36.72 597.32 36.72"/>
        <path d="M547.46,20.39l14.04-14.04,31.46,31.46-.05-.02,37.6,37.67v24.96s62.16,0,62.16,0l39.97-39.98v-16.17s-2.82-2.82-2.82-2.82h-78.16s46.99,46.99,46.99,46.99c.23.23.23.61,0,.85l-7.27,7.27c-3.01,0-4.7,0-7.72,0l-59.84-59.84h-.04l-14.11-14.12-2.21-2.21h124.2c10.43,10.43,16.27,16.28,26.7,26.71v24s-45.66,45.66-45.66,45.66h-107.92v-30.64s-65.73-65.73-65.73-65.73h8.4Z"/>
        <path d="M478.47,116.76c-6.38-6.38-9.96-9.96-16.34-16.34h122.22s0-.93,0-.93l-42.9-42.9-23.53,23.53h41.61s16.61,16.62,16.61,16.62h-119.22v-.1s76.43-76.43,76.43-76.43l67.34,67.34v29.21h-107.68s0,14.53,0,14.53l-14.53-14.53Z"/>
        <path d="M446.43,26.71l-58.78,59.16v-38.1c18.63-18.63,29.08-29.08,47.72-47.72h13.81s23.74,0,23.74,0h.77v20.29c-2.49,2.48-3.88,3.88-6.36,6.36h-20.89Z"/>
        <path d="M381.12,110.67v-12.97s66.02-66.82,66.02-66.82h22.12c3.25-3.25,5.07-5.06,8.31-8.31V0h51.66s0,0,0,0h33.5c-6.38,6.38-9.96,9.96-16.34,16.34h-15.5s-78.55,79.72-78.55,79.72l35.36,35.36h0s0,0,0,0h0s-91.76,0-91.76,0h0s-13.99,0-13.99,0l13.67-13.67-.17-7.08h-14.35Z"/>
      </g>
    </g>
  </g>
</svg>