<?xml version="1.0" encoding="UTF-8"?>
<svg id="Layer_2" data-name="Layer 2" xmlns="http://www.w3.org/2000/svg" viewBox="0 0 688.78 141.82">
  <g id="_Слой_1" data-name="Слой 1">
    <g>
      <polygon points="208.57 111.18 252.66 67.09 192.39 67.09 148.37 111.18 208.57 111.18"/>
      <path d="M142.88,111.18l18.6-18.6h-19.06c-5.29,0-10.36-2.12-14.07-5.82l-14.48-14.48-12.99,12.91-2.96-2.96,19.1-19.1h163.96c7.27-7.27,11.34-11.34,18.6-18.6h-163.97V0l-44.51,44.51H30.37v.03H0l44.35,44.35c9.99.06,18.15.11,26.03.16l22.13,22.13h50.37Z"/>
      <path d="M133.31,117.35l-1.83-1.83h-34.63l19.23,19.23c4.5,4.5,10.6,7.04,16.96,7.06,5.15.02,10.17-1.62,14.32-4.66l19.07-13.98h-19.06c-5.27,0-10.33-2.09-14.06-5.82Z"/>
      <path d="M299.59,56.51h-.01v10.57h-41.16l-55.75,55.75,19.43,18.99h21.81l55.68-58.88v.51h22.31c7.93-7.93,12.38-12.38,20.3-20.3v-18.61h-42.62v11.97Z"/>
      <path d="M389.2,67.08v-10.57h-.01v-11.97h-42.62v18.61c7.93,7.93,12.38,12.38,20.3,20.3h22.31v-.51l55.68,58.88h21.81l19.43-18.99-55.75-55.75h-41.16Z"/>
      <path d="M688.78,44.54h-30.37v-.03h-60.73L553.16,0v44.51h-163.97c7.27,7.27,11.34,11.34,18.6,18.6h163.96l19.1,19.1-2.96,2.96-12.99-12.91-14.48,14.48c-3.71,3.71-8.77,5.82-14.07,5.82h-19.06l18.6,18.6h50.37l22.13-22.13c7.88-.05,16.04-.1,26.03-.16l44.35-44.35Z"/>
      <polygon points="496.39 67.09 436.12 67.09 480.21 111.18 540.41 111.18 496.39 67.09"/>
      <path d="M555.47,117.35c-3.73,3.73-8.79,5.82-14.06,5.82h-19.07l19.07,13.98c4.15,3.04,9.17,4.68,14.32,4.66,6.36-.02,12.46-2.56,16.96-7.06l19.23-19.23h-34.63l-1.83,1.83Z"/>
    </g>
  </g>
</svg>