<?xml version="1.0" encoding="UTF-8"?>
<svg id="Layer_2" data-name="Layer 2" xmlns="http://www.w3.org/2000/svg" viewBox="0 0 745.95 145.38">
  <g id="_Слой_1" data-name="Слой 1">
    <g>
      <path d="M288.05,128.88h-60.43l-27.71-27.71H60.43l-36.88-36.88h190.5l28.23-28.23V14.08h-15.19v15.68l-19.33,19.33H9.32c-8.28,0-12.43,10.01-6.57,15.87l48.67,48.67c1.74,1.74,4.11,2.72,6.57,2.72h135.63l27.71,27.71h73.02l39.11-39.12-10.74-10.74-34.67,34.67Z"/>
      <path d="M252.41,65.75v-15.19h-18.57l-23.9,23.9c-5.83,5.83-5.83,15.27,0,21.1l28.08,28.08h24.51l15.98-15.98-10.74-10.74-11.53,11.53h-11.92l-23.44-23.44,19.26-19.26h12.28Z"/>
      <path d="M282.29,15.19h3.41l18.2,18.2-17.17,17.17h-10.11v15.19h16.4l32.36-32.36-27.74-27.74c-3.62-3.62-8.53-5.66-13.65-5.66h0c-5.12,0-10.03,2.03-13.65,5.66l-5.6,5.61,10.74,10.74,6.81-6.81Z"/>
      <path d="M538.2,49.09l-19.33-19.33v-15.68h-15.19v21.98l28.23,28.23h190.5l-36.88,36.88h-139.48l-27.71,27.71h-60.43l-34.67-34.67-10.74,10.74,39.11,39.12h73.02l27.71-27.71h135.63c2.47,0,4.83-.98,6.57-2.72l48.67-48.67c5.86-5.86,1.71-15.87-6.57-15.87h-198.43Z"/>
      <path d="M443.04,104.87h20.74l25.34-25.34V31.03l1.73-1.73,8.21-.03v-15.19h-14.48l-10.66,10.66v48.51l-16.44,16.44h-8.15l-24.55-24.55,10.72-10.72-18.42-18.42-10.74,10.73-10.74-10.73-13.37,13.37c-5.11,5.11-13.4,5.11-18.51,0l-13.37-13.37-10.74,10.73-10.73-10.73-18.42,18.42,10.72,10.72-24.55,24.55h-8.15l-16.44-16.44V24.73l-10.66-10.66h-14.48v15.19h8.18l1.76,1.76v48.5l25.34,25.34h20.74l18.35-18.35,34.27,34.27v24.6h15.19v-30.89l-49.44-49.44,18.33-18.33,6.13,6.13c5.11,5.11,5.11,13.4,0,18.51l-5.86,5.86,10.74,10.74,13.1-13.1c5.11-5.11,13.4-5.11,18.51,0l13.1,13.1,10.74-10.74-5.86-5.86c-5.11-5.11-5.11-13.4,0-18.51l6.13-6.13,18.33,18.33-49.44,49.44v30.89h15.19v-24.6l34.27-34.27,18.35,18.35Z"/>
      <path d="M489.72,108.46l-11.53-11.53-10.74,10.74,15.98,15.98h24.51l28.08-28.08c5.83-5.83,5.83-15.27,0-21.1l-23.9-23.9h-18.57v15.19h12.28l19.26,19.26-23.45,23.44h-11.92Z"/>
      <path d="M469.32,65.75v-15.19h-10.11l-17.17-17.17,18.21-18.2h3.41l6.81,6.81,10.74-10.74-5.6-5.61c-3.62-3.62-8.53-5.66-13.65-5.66h0c-5.12,0-10.03,2.03-13.65,5.66l-27.74,27.74,32.36,32.36h16.4Z"/>
    </g>
  </g>
</svg>