<?xml version="1.0" encoding="UTF-8"?>
<svg id="Layer_2" data-name="Layer 2" xmlns="http://www.w3.org/2000/svg" viewBox="0 0 566.06 111.62">
  <g id="_Слой_1" data-name="Слой 1">
    <g>
      <path d="M158,85.92h-22.24l-31.13-31.13h25.62c8.05,0,12.56,0,20.61,0l7.87-7.87-17.83-17.83H42.59l82.53,82.53h43.53l14.79-14.79-18.17-18.17-7.27,7.26Z"/>
      <path d="M25.7,29.09c-10.04,10.04-15.66,15.66-25.7,25.7h24.44l13.98,13.97c14.19,0,22.15,0,36.34,0L35.09,29.09h-9.39Z"/>
      <polygon points="179.61 25.7 213.85 25.7 239.62 51.47 271.8 51.47 294.25 51.47 326.44 51.47 352.21 25.7 386.44 25.7 403.77 43.02 421.94 24.85 397.09 0 341.56 0 315.79 25.77 294.25 25.77 271.8 25.77 250.26 25.77 224.49 0 168.97 0 144.12 24.85 162.29 43.02 179.61 25.7"/>
      <path d="M425.17,29.09l-17.83,17.83,7.87,7.87c8.05,0,12.56,0,20.61,0h25.62l-31.13,31.13h-22.24l-7.27-7.26-18.17,18.17,14.79,14.79h43.53l82.53-82.53h-98.3Z"/>
      <path d="M540.36,29.09h-9.39l-39.67,39.67c14.19,0,22.15,0,36.34,0l13.98-13.97h24.44c-10.04-10.04-15.66-15.66-25.7-25.7Z"/>
      <path d="M396.99,75.09l-12.33-12.33.02-.02-5.84-5.84h-36.34l18.17,18.17-14.69,14.69-33.01-33.01h-59.88l-33.01,33.01-14.69-14.69,18.17-18.17h-36.34l-5.84,5.84.02.02-12.33,12.33,32.84,32.84-3.68,3.68h36.34l29.15-29.15h38.6l29.15,29.15h36.34l-3.68-3.68,32.84-32.84Z"/>
    </g>
  </g>
</svg>