<?xml version="1.0" encoding="UTF-8"?>
<svg id="Layer_2" data-name="Layer 2" xmlns="http://www.w3.org/2000/svg" viewBox="0 0 520.22 111.69">
  <g id="_Слой_1" data-name="Слой 1">
    <g>
      <path d="M342.13,65.38h-77.77l-4.25,4.25-4.25-4.25h-77.77l-42.23,42.19-4.13,4.13h256.74l-4.13-4.13-42.23-42.19ZM245.91,107.56h-70l13.91-13.87,47.68-.04c2.79,2.83,5.58,5.62,8.41,8.45v5.46ZM274.3,107.56v-5.46c2.83-2.83,5.62-5.62,8.41-8.45l47.68.04,13.91,13.87h-70Z"/>
      <path d="M519.97.27v-.27H.24v.27h-.24v84.31c10.59,10.59,16.52,16.52,27.11,27.11h98.44l28.31-28.31H39.28c-13.66-13.66-21.33-21.33-34.99-34.99V4.29h.12l12.78,12.78v8.82l26.25,26.25,4.13,4.13h17.47v-.04h14.48l.05-9.13h.11V4.29h4.04v51.81l23.22,23.26h51.12L233.13,4.29h6.11l-56.95,56.95h40.04l33-33h9.55l33,33h40.04l-56.95-56.95h6.11l75.07,75.07h51.12l23.22-23.26V4.29h4.04v42.81h.11l.05,9.13h14.48v.04h17.47l4.13-4.13,26.25-26.25v-8.82l12.78-12.78h.12v44.1c-13.66,13.66-21.33,21.33-34.99,34.99h-114.58l28.31,28.31h98.44c10.59-10.59,16.52-16.52,27.11-27.11V.27h-.24ZM75.55,18.93l-8.62,8.62h-8.05l-13.39-13.39V4.29h30.05v14.64ZM147.95,51.04h-29.28l-14.92-14.96-.16.12-15.73-15.73V4.29h106.86l-46.76,46.76ZM432.37,20.47l-15.73,15.73-.16-.12-14.92,14.96h-29.28l-46.76-46.76h106.86v16.18ZM474.71,14.16l-13.39,13.39h-8.05l-8.62-8.62V4.29h30.05v9.87Z"/>
    </g>
  </g>
</svg>