<?xml version="1.0" encoding="UTF-8"?>
<svg id="Layer_2" data-name="Layer 2" xmlns="http://www.w3.org/2000/svg" viewBox="0 0 690.36 117.79">
  <g id="_Слой_1" data-name="Слой 1">
    <g>
      <polygon points="112.17 94.36 107.37 94.36 83.7 70.7 135.4 70.7 135.4 47.46 60.46 47.46 56.11 43.11 279.77 43.11 306.44 16.44 290 0 270.14 19.86 0 19.86 97.74 117.61 135.41 117.61 135.41 74.92 112.17 74.92 112.17 94.36"/>
      <polygon points="209.7 47.24 209.7 50.88 166.21 94.36 162.98 94.36 162.98 47.28 139.74 47.28 139.74 117.61 175.84 117.61 246.21 47.24 209.7 47.24"/>
      <polygon points="420.22 19.86 400.36 0 383.92 16.43 410.59 43.1 634.24 43.1 629.89 47.46 554.95 47.46 554.95 70.7 606.65 70.7 582.99 94.36 578.18 94.36 578.18 74.92 554.94 74.92 554.94 117.6 592.61 117.6 690.36 19.86 420.22 19.86"/>
      <polygon points="527.37 94.36 524.14 94.36 480.66 50.88 480.66 47.23 444.15 47.23 514.52 117.6 550.61 117.6 550.61 47.28 527.37 47.28 527.37 94.36"/>
      <polygon points="408.83 47.4 380.97 19.54 364.54 35.98 399.21 70.65 428.74 70.65 452.46 94.36 417.19 94.36 361.61 38.79 345.18 55.22 363.79 73.83 363.59 73.83 345.18 92.24 326.77 73.83 326.56 73.83 345.18 55.22 328.74 38.79 273.17 94.36 237.9 94.36 261.61 70.65 291.15 70.65 325.82 35.98 309.38 19.54 281.52 47.41 251.98 47.41 181.79 117.61 282.79 117.61 303.32 97.08 317.14 97.08 325.34 105.27 325.34 117.79 348.58 117.79 348.58 117.79 365.02 117.79 365.02 105.27 373.21 97.08 387.03 97.08 407.56 117.6 508.57 117.6 438.37 47.4 408.83 47.4"/>
    </g>
  </g>
</svg>