<?xml version="1.0" encoding="UTF-8"?>
<svg id="Layer_2" data-name="Layer 2" xmlns="http://www.w3.org/2000/svg" viewBox="0 0 529.71 125.74">
  <g id="_Слой_1" data-name="Слой 1">
    <path d="M525.58,0c-13.14,0-21.73,0-35.91,0l-18.03,18.03-173.25-1.19c-2.8-2.82-4.38-4.41-7.18-7.23V.72h-52.72v8.88c-2.8,2.82-4.38,4.41-7.18,7.23l-173.25,1.19L40.04,0c-14.19,0-22.77,0-35.91,0H0l.16,76.48h18.89l49.18,49.18,11.73-11.73h0s8.3-8.3,8.3-8.3L30.78,48.17v.02s0-.01,0-.01H4.29l-.13-18.97h13.36l43.44,43.44,52.74,52.74h51.12l23.22-23.26v-55.79h4.06v45.26h32.7l13.39,13.39v8.03l-12.73,12.73h12.8l26.6-.14,26.6.14h12.8l-12.73-12.73v-8.03l13.39-13.39h32.7v-45.26h4.06v55.79l23.22,23.26h51.12l52.74-52.74,43.44-43.44h13.36l-.13,18.97h-26.51s0,0,0,0l-57.47,57.47,8.3,8.3h0s11.73,11.73,11.73,11.73l49.18-49.18h18.89l.16-76.48h-4.13ZM183.91,66.49l-15.73,15.73-.16-.12-14.92,14.96h-29.28l-46.39-46.39h-32.56L4.13,9.95v-5.83l42.21,42.22h137.57v20.15ZM236.52,63.29h-27.48l-12.8-12.8v-4.14h52.23l14.32-14.32v57.54l-26.27-26.27ZM333.47,50.48l-12.8,12.8h-27.48l-26.27,26.27v-57.54l14.32,14.32h52.23v4.14ZM525.58,9.95l-40.73,40.73h-32.56l-46.39,46.39h-29.28l-14.92-14.96-.16.12-15.73-15.73v-20.15h137.57l42.21-42.22v5.83Z"/>
  </g>
</svg>