<?xml version="1.0" encoding="UTF-8"?>
<svg id="Layer_2" data-name="Layer 2" xmlns="http://www.w3.org/2000/svg" viewBox="0 0 695.3 139.2">
  <g id="_Слой_1" data-name="Слой 1">
    <g>
      <path d="M155.83,115.21h.01s1.17,0,1.17,0l58.95-58.94h0s12.8-12.8,12.8-12.8l-25.77-.16h-86.39l-18.33-18.33h-26.78l30.31,30.31,6.03,6.24h76.93l-35.34,35.34-15.44-.12L37.4.16l-4.67-.08H0c7.12,7.17,11.08,11.16,18.2,18.32h11.53l78.59,78.59h-62.75l17.62,18.22h92.63Z"/>
      <path d="M256.52,55.1l43.38,43.38v.3h-23.73l-19.9,19.9h49.75c4.77-4.77,7.44-7.44,12.2-12.2v-16.44l-34.93-34.93h-26.78Z"/>
      <path d="M251.06,0h-18.44v46.92c-17.18,17.18-52.77,52.77-55.54,55.54-7.14,7.14-11.14,11.14-18.27,18.28H61.04l-18.4,18.4h18.4v.07h107.15c7.73-7.73,42.01-42.01,64.43-64.43v43.92h18.44V15.5l69.72,69.72,26.83.06L262.33,0h-11.28Z"/>
      <polygon points="181.33 18.22 201.22 38.11 228.06 38.17 208.11 18.22 208.08 18.22 226.14 .16 200.37 0 47.11 0 64.73 18.22 181.33 18.22"/>
      <polygon points="347.65 85.26 347.65 85.23 347.62 85.26 347.65 85.26"/>
      <polygon points="287.71 18.2 287.79 18.2 347.65 78.06 347.65 50.7 315.16 18.2 347.65 18.2 347.65 0 269.5 0 287.71 18.2"/>
      <path d="M479.37,56.27l58.95,58.94h1.17s.01,0,.01,0h92.63l17.62-18.22h-62.75l78.57-78.57h11.53c7.12-7.17,11.08-11.16,18.2-18.32h0s-32.74,0-32.74,0l-4.67.08-96.57,96.57-15.44.12-35.34-35.34h76.93l6.03-6.24,30.31-30.31h-26.78l-18.33,18.33h-86.39l-25.77.16,12.8,12.8h0Z"/>
      <path d="M395.42,98.78v-.3l43.38-43.38h-26.78l-34.93,34.93v16.44c4.77,4.77,7.44,7.44,12.2,12.2h49.75l-19.9-19.9h-23.73Z"/>
      <path d="M634.28,120.73h-97.76c-7.14-7.14-11.14-11.14-18.27-18.28-2.77-2.77-38.36-38.36-55.54-55.54V0h-29.72l-85.28,85.28,26.83-.06L444.26,15.5v103.18h0s18.44.01,18.44.01v-43.92c22.42,22.42,56.7,56.7,64.43,64.43h107.15v-.07h18.4l-18.4-18.4Z"/>
      <polygon points="467.26 38.17 494.1 38.11 513.99 18.22 630.59 18.22 648.22 0 494.95 0 469.18 .16 487.24 18.22 487.21 18.22 467.26 38.17"/>
      <polygon points="407.61 18.2 425.83 0 347.67 0 347.67 18.2 380.17 18.2 347.67 50.7 347.67 78.06 407.53 18.2 407.61 18.2"/>
    </g>
  </g>
</svg>