<?xml version="1.0" encoding="UTF-8"?>
<svg id="Layer_2" data-name="Layer 2" xmlns="http://www.w3.org/2000/svg" viewBox="0 0 580.83 115.08">
  <g id="_Слой_1" data-name="Слой 1">
    <path d="M516.22,49.92h-40.08l-30.73-29.93h40.95L466.36,0l-152.98.29,19.71,19.7h84.45l49.64,49.63h40.76l-25.11,25.11h-4.52l-65.19-64.86h-70.15l19.85,19.85h-50.93l-18.78-18.44-2.68-2.68-.03.02-.03-.02-2.68,2.68-18.78,18.44h-50.93l19.85-19.85h-70.15l-65.19,64.86h-4.52l-25.11-25.11h40.76l49.64-49.63h84.45L267.44.29l-152.98-.29-19.99,19.99h40.95l-30.73,29.93h-40.08L0,114.8l27.59.28,31.26-31.63,31.47,31.46h164.88v.02h35.21s35.21,0,35.21,0h0s164.88-.02,164.88-.02l31.47-31.46,31.26,31.63,27.59-.28-64.61-64.88ZM224.27,94.73h-49.2l14.78-14.78-30.43.07-14.71,14.71h-14.26l45.48-45.25h13.85l-20.29,20.47h27.13l.03-.02h52.42l-24.8,24.8ZM325.62,94.73h-73.49l3.08-3.08h0s1.07-1.07,1.07-1.07l34.13-34.13,34.13,34.13,1.07,1.07h0s3.08,3.08,3.08,3.08h-3.08ZM436.11,94.73l-14.71-14.71-30.43-.07,14.78,14.78h-49.2l-24.8-24.8h52.42l.03.02h27.13l-20.29-20.47h13.85l45.48,45.25h-14.26Z"/>
  </g>
</svg>