<?xml version="1.0" encoding="UTF-8"?>
<svg id="Layer_2" data-name="Layer 2" xmlns="http://www.w3.org/2000/svg" viewBox="0 0 507.05 122.6">
  <g id="_Слой_1" data-name="Слой 1">
    <g>
      <g>
        <polygon points="19.84 65.43 57.25 27.91 87.92 27.91 53.34 62.51 49.12 62.51 44.17 57.56 44.17 43.92 23.32 64.77 40.9 82.35 61.55 82.35 117.97 25.93 31.29 25.93 0 57.21 0 88.38 34.22 122.6 62.27 122.6 19.84 80.17 19.84 65.43"/>
        <path d="M187.18,0l-25.93,25.93h-40.74v.21l-48.81,48.81,14.03,14.03,43.21-43.21h12.47l-56.4,56.4h-12.42l11.48-11.48-14.03-14.03-7.65,7.65h-31.76s-3.77,0-3.77,0c7.72,7.72,12.06,12.06,19.75,19.75v.08h64.47L187.18,28.05V0Z"/>
        <path d="M227.2,66.75h25.23v-19.79h-5.44c-7.73,7.73-12.06,12.06-19.79,19.79Z"/>
        <path d="M209,24.81V1.89c-7.75,7.75-12.09,12.09-19.84,19.84v7.16l-18.07,18.07c10.91,0,17.05,0,27.92,0l.04-.04s.01.01.02.02l-.06.02-28.27,28.27h-4.22l-11.85-11.85-14.03,14.03,17.65,17.66h20.66l28.31-28.31h17.17l21.75-21.75h6.09v-18.2h.15v-1.98h-43.44ZM216.23,46.91h-13.4s-3.64,0-3.64,0l.02-.02-.06.02h-.09l9.94-9.81v-10.31h27.34l-20.11,20.11Z"/>
      </g>
      <g>
        <polygon points="487.22 65.43 449.8 27.91 419.14 27.91 453.71 62.51 457.94 62.51 462.88 57.56 462.88 43.92 483.73 64.77 466.15 82.35 445.5 82.35 389.08 25.93 475.77 25.93 507.05 57.21 507.05 88.38 472.83 122.6 444.78 122.6 487.22 80.17 487.22 65.43"/>
        <path d="M319.88,0l25.93,25.93h12.47c10.96,0,17.1,0,28.05,0h.21v.21s48.81,48.81,48.81,48.81l-14.03,14.03-43.21-43.21h-12.47s56.4,56.4,56.4,56.4h12.42s-11.48-11.48-11.48-11.48l14.03-14.03,7.65,7.65h31.76s3.77,0,3.77,0c-7.72,7.72-12.06,12.06-19.75,19.75v.08h-36.42s-10.96,0-10.96,0c-5.38,0-10.31,0-17.09,0l-76.1-76.1c0-10.96,0-17.1,0-28.05Z"/>
        <path d="M279.85,66.75h-25.23v-19.79h5.44c7.73,7.73,12.06,12.06,19.79,19.79Z"/>
        <path d="M254.62,24.81v1.98s.15,0,.15,0v18.2s6.09,0,6.09,0l21.75,21.75h17.17s28.31,28.31,28.31,28.31h20.66s17.65-17.66,17.65-17.66l-14.03-14.03-11.85,11.85h-4.22s-28.27-28.27-28.27-28.27l-.06-.02s.01-.01.02-.02l.04.04c10.87,0,17.01,0,27.92,0l-18.07-18.07v-7.16c-7.75-7.75-12.09-12.09-19.84-19.84v22.93h-43.44ZM270.71,26.8h27.34v10.31s9.94,9.81,9.94,9.81h-.09l-.06-.02.02.02h-3.64s-13.4,0-13.4,0l-20.11-20.11Z"/>
      </g>
    </g>
  </g>
</svg>