<?xml version="1.0" encoding="UTF-8"?>
<svg id="Layer_2" data-name="Layer 2" xmlns="http://www.w3.org/2000/svg" viewBox="0 0 618.61 114.56">
  <g id="_Слой_1" data-name="Слой 1">
    <g>
      <path d="M263.52,86.88l-20.29-20.29c-4.9-4.9-43.88-44.83-44.24-45.2-.17,13.13-.26,20.48-.43,33.61,1.54,1.58,6.41,6.49,7.99,8.1h-41.86s0,11.63,0,11.63c4.74,4.74,7.4,7.4,12.14,12.14h86.7Z"/>
      <path d="M580.82.51h-.05s.05-.13.05-.13h-.05V.04l-542.98-.04.05.13h0s-.05,0-.05,0L0,37.92v28.77c9.22,9.22,14.39,14.39,23.6,23.6h.17v-19.69h39.38l19.23-19.23h24.52v-23.77h-34.36l-19.23,19.23h-28.6l22.93-22.93h99.83l21.49-21.49h5.84l-36.59,36.59-.31.25v33.5l-39.36,39.36h-6.31c15.94-15.94,25.59-25.59,42.02-42.02v-31.38c-4.34-4.34-6.77-6.77-11.11-11.11h-12.66v33.34c-11.42,11.42-17.94,17.94-29.35,29.35h-45.47s-11.88,0-11.88,0l23.69,23.69h0v.52h443.91l.07.07,7.2-.07h72.51v-.13h0l23.69-23.69h-11.88s0,0,0,0h-45.47c-11.42-11.42-17.94-17.94-29.35-29.35V27.98h-12.66c-4.34,4.34-6.77,6.77-11.11,11.11v31.38c16.29,16.29,25.92,25.92,41.64,41.64h-6.31l-38.97-38.97v-33.5l-.31-.25L443.43,2.41h5.84l21.87,21.87h99.83l22.93,22.93h-28.6l-19.23-19.23h-34.36v23.77h24.52l19.23,19.23h39.38v19.69h.17c9.22-9.22,14.39-14.39,23.6-23.6v-28.77L580.82.51ZM288.23,24.05h42.53c-7.02,7.02-11.95,11.95-19.83,19.83v57.62c4.22,4.22,6.89,6.89,10.61,10.61h-24.86c3.93-3.93,6.63-6.63,10.99-10.99v-57.62c-7.73-7.73-12.63-12.63-19.44-19.44ZM333.14,21.68h-47.28c-.58-.58-12.88-12.66-19.48-19.26h86.24c-6.81,6.81-19.02,18.8-19.48,19.26ZM161.08,81.42l.3-30.96.35-1.35,27.75-27.75h9.52s-18.93-18.94-18.93-18.94h4.76l21.18,21.36,77.9.29v3.55h-74.23c9.28,9.28,14.49,14.49,23.77,23.77h50.46v60.74h-4.07v-21.91h-121.98c-8.64,8.64-13.72,13.72-21.91,21.91h-6.64l31.78-30.7ZM429.13,21.74l27.75,27.75.35,1.36.3,30.96,31.38,30.31h-6.63c-7.96-7.96-13.03-13.03-21.53-21.53h-121.98v21.53h-4.07v-60.36h50.46c9.28-9.28,14.49-14.49,23.77-23.77h0s-74.23,0-74.23,0v-3.83h77.9l21.56-21.74h4.77l-19.32,19.32h9.52Z"/>
      <path d="M355.09,87.26h86.7c4.74-4.74,7.4-7.4,12.14-12.14v-11.63h-41.86c1.57-1.61,6.44-6.52,7.99-8.1-.17-13.13-.26-20.48-.43-33.62-.36.37-39.34,40.3-44.24,45.2l-20.29,20.29Z"/>
    </g>
  </g>
</svg>