<?xml version="1.0" encoding="UTF-8"?>
<svg id="Layer_2" data-name="Layer 2" xmlns="http://www.w3.org/2000/svg" viewBox="0 0 731.68 127.23">
  <g id="_Слой_1" data-name="Слой 1">
    <g>
      <path d="M281.9.7H112.59c-8.25,8.25-12.87,12.87-21.12,21.12v31.48H31.43v-6.25l15.62-15.62h39.77V0h-52.8L0,34.03v44.24l37.95,37.95v10.85h31.43v-23.88l-37.95-37.95v-7.45h117.02v-.03h16.8v-30.03h-43.76V5.19h70.42l-22.17,22.17v31.19l42.75,42.75v25.92h29.95l-.06-38.4-42.68-42.68v-6.37L234.28,5.19h12.28c9.01,9.01,15.29,15.29,25.26,25.26v78.47c11.73-11.73,18.3-18.3,30.03-30.03V.7h-19.95Z"/>
      <path d="M306.34.7v74.33c11.73-11.73,18.3-18.3,30.03-30.03v-14.83c11.37-11.37,17.94-17.94,29.48-29.48h-59.5Z"/>
      <path d="M235.77,9.69l-31.86,31.86v3.41l20.52,20.52,38.06-38.06-17.73-17.73h-9Z"/>
      <polygon points="151.08 95.64 86.42 95.64 73.84 95.64 68.26 95.64 73.84 101.22 73.84 127.08 164.1 127.08 198.27 92.91 176.04 70.69 151.08 95.64"/>
      <path d="M697.65,0h-52.8v31.43h39.77l15.62,15.62v6.25h-60.03v-31.48c-8.25-8.25-12.88-12.87-21.12-21.12h-189.26v78.2c11.73,11.73,18.3,18.3,30.03,30.03V30.46c9.97-9.97,16.25-16.25,25.26-25.26h12.28l34.58,34.58v6.37l-42.68,42.68-.06,38.4h29.95v-25.92l42.75-42.75v-31.19l-22.17-22.17h70.42v22.55h-43.76v30.03h16.8v.03h117.02v7.45l-37.95,37.95v23.88h31.43v-10.85l37.95-37.95v-44.24L697.65,0Z"/>
      <path d="M365.84.7c11.53,11.53,18.11,18.11,29.48,29.48v14.83c11.73,11.73,18.3,18.3,30.03,30.03V.7h-59.5Z"/>
      <path d="M527.77,44.96v-3.41l-31.86-31.86h-9l-17.73,17.73,38.06,38.06,20.52-20.52Z"/>
      <polygon points="657.85 95.64 645.26 95.64 580.6 95.64 555.64 70.69 533.42 92.91 567.59 127.08 657.85 127.08 657.85 101.22 663.43 95.64 657.85 95.64"/>
    </g>
  </g>
</svg>