<?xml version="1.0" encoding="UTF-8"?>
<svg id="Layer_2" data-name="Layer 2" xmlns="http://www.w3.org/2000/svg" viewBox="0 0 509.8 130.21">
  <g id="_Слой_1" data-name="Слой 1">
    <g>
      <polygon points="105.6 18.39 105.6 37.48 114.83 46.7 114.74 46.7 154.1 86.06 146.36 86.06 78.69 18.39 .09 18.39 0 53.87 19.17 53.87 19.17 37.48 70.79 37.48 138.46 105.15 180.87 105.15 180.87 85.84 132.51 37.48 140.4 37.48 233.16 130.21 233.24 130.18 252.75 130.18 252.75 122.84 148.31 18.39 105.6 18.39"/>
      <path d="M182.76,19.09h53.36C228.67,11.63,224.49,7.45,217.04,0h-48.09l-16.42,16.42,16.45,16.45,13.78-13.78Z"/>
      <path d="M327.16,19.09h-53.36c7.45-7.45,11.63-11.63,19.09-19.09h48.09s16.42,16.42,16.42,16.42l-16.45,16.45-13.78-13.78Z"/>
      <path d="M136.64,109.42l-51.2-51.2H1.14s-.77-.77-.77-.77c7.44,7.46,12.36,12.4,19.8,19.85h57.37s33.48,33.48,33.48,33.48l-.03.03,17.69,17.69h77.35s3.46,0,3.46,0l7.81-7.81-11.27-11.27h-69.38Z"/>
      <polygon points="404.2 18.39 404.2 37.48 394.97 46.7 395.06 46.7 355.7 86.06 363.43 86.06 431.11 18.39 509.71 18.39 509.8 53.87 490.62 53.87 490.62 37.48 439.01 37.48 371.34 105.15 328.93 105.15 328.93 85.84 377.29 37.48 369.4 37.48 276.64 130.21 276.56 130.18 257.04 130.18 257.04 122.84 361.49 18.39 404.2 18.39"/>
      <path d="M373.16,109.42l51.2-51.2h84.3s.77-.77.77-.77c-7.44,7.46-12.36,12.4-19.8,19.85h-57.37s-33.48,33.48-33.48,33.48l.03.03-17.69,17.69h-77.35s-3.46,0-3.46,0l-7.81-7.81,11.27-11.27h69.38Z"/>
      <polygon points="316.8 57.2 249.94 57.2 212.48 57.2 193.28 57.2 212.48 76.4 249.94 76.4 297.6 76.4 316.8 57.2"/>
    </g>
  </g>
</svg>