<?xml version="1.0" encoding="UTF-8"?>
<svg id="Layer_2" data-name="Layer 2" xmlns="http://www.w3.org/2000/svg" viewBox="0 0 770.74 134.22">
  <g id="_Слой_1" data-name="Слой 1">
    <g>
      <path d="M143.72,59.93c6.04-6.04,9.43-9.43,15.48-15.48h33.23v-19.24h-42.54c-9.92,9.92-15.48,15.48-25.4,25.4v26.08c-1.96,1.96-3.07,3.07-5.03,5.03h-24.03l-32.91,32.91h-17.82l-17.5-17.5,28.02-28.02h57.35l8.38,8.43v-8.51h0v-19.16H47.25L0,97.15l36.73,36.73h33.75l32.91-32.91h24.24c6.28-6.28,9.81-9.81,16.09-16.09v-24.95Z"/>
      <path d="M162.07,52.64c-4.34,4.34-6.78,6.78-11.12,11.12v10.28l.04,13.47-13.27,13.27h18.32s0,0,0,0h22.65,0s0,0,0,0l-8.51-8.51v-20.41h22.24v-.08h.1v-27.66l-8.51,8.51h-21.95Z"/>
      <path d="M250.12,0l-.06,12.77V0h-53.4v72.48l61.08,61.08h27.2s-69.05-69.05-69.05-69.05V19.24h28.14l6.08,6.11h0v19.24h66.08v55.18c-5.68,5.68-8.87,8.87-14.55,14.55l-55.67-55.67-.21-27.26c-2.37-2.37-2.7-2.69-5.07-5.06l-18.16-.1v18.21c2.39,2.39,1.81,1.81,4.2,4.2v3.29l-.07,14.61,67,67.01h16.74c9.77-9.77,15.25-15.25,25.01-25.01V25.35h-85.31V0Z"/>
      <path d="M627.02,59.93c-6.04-6.04-9.43-9.43-15.48-15.48h-33.23v-19.24h42.54c9.92,9.92,15.48,15.48,25.4,25.4v26.08c1.96,1.96,3.07,3.07,5.03,5.03h24.03s32.91,32.91,32.91,32.91h17.82s17.5-17.5,17.5-17.5l-28.02-28.02h-57.35s-8.38,8.43-8.38,8.43v-8.51h0v-19.16h73.7s47.25,47.25,47.25,47.25l-36.73,36.73h-33.75s-32.91-32.91-32.91-32.91h-24.24c-6.28-6.28-9.81-9.81-16.09-16.09v-24.95Z"/>
      <path d="M608.67,52.64c4.34,4.34,6.78,6.78,11.12,11.12v10.28s-.04,13.47-.04,13.47l13.27,13.27h-18.32s0,0,0,0h-14.14s-8.51,0-8.51,0h0s0,0,0,0l8.51-8.51v-20.41s-22.24,0-22.24,0v-.08h-.1v-27.66s8.51,8.51,8.51,8.51h21.95Z"/>
      <path d="M520.62,0l.06,12.77V0h53.4v72.48s-61.08,61.08-61.08,61.08h-27.2s69.05-69.05,69.05-69.05V19.24s-28.14,0-28.14,0l-6.08,6.11h0v19.24h-66.08s0,55.18,0,55.18c5.68,5.68,8.87,8.87,14.55,14.55l55.67-55.67.21-27.26c2.37-2.37,2.7-2.69,5.07-5.06l18.16-.1v18.21c-2.39,2.39-1.81,1.81-4.2,4.2v3.29s.07,14.61.07,14.61l-67,67.01h-16.74c-9.77-9.77-15.25-15.25-25.01-25.01V25.35h85.31s0-25.35,0-25.35Z"/>
      <path d="M387.02,34.84c3.76,3.76,5.86,5.86,9.62,9.62h15.35v57.37c-5.14,5.14-8.01,8.01-13.15,13.15h-26.89c-5.14-5.14-8.01-8.01-13.15-13.15v-57.37h15.35c3.76-3.76,5.86-5.86,9.62-9.62-3.76-3.76-5.86-5.86-9.62-9.62h-34.59v85.43c9.2,9.2,14.36,14.36,23.56,23.56h44.54c9.2-9.2,14.36-14.36,23.56-23.56V25.22h-34.59c-3.76,3.76-5.86,5.86-9.62,9.62Z"/>
    </g>
  </g>
</svg>