<?xml version="1.0" encoding="UTF-8"?>
<svg id="Layer_2" data-name="Layer 2" xmlns="http://www.w3.org/2000/svg" viewBox="0 0 521.98 144.07">
  <g id="_Слой_1" data-name="Слой 1">
    <g>
      <path d="M295.77,57.41c2.8,2.8,5.6,5.6,9.22,9.22h20.04l2.14,2.12v20.14l30.74,30.74h25.16l22.26-22.26,12.97,12.97,13.34-12.61-14.1-14.04c-6.8-6.78-17.82-6.78-24.62.02l-17.49,17.49h-9.9l-19.94-19.94v-20.14l-12.94-12.92h-46.1c3.59,3.59,6.4,6.4,9.22,9.22Z"/>
      <path d="M439.31,131.35l3.97,3.97c2.32,2.32,3.63,5.47,3.63,8.75h0s18.43,0,18.43,0h0c0-8.17-3.25-16-9.04-21.76l-3.62-3.61-13.36,12.64Z"/>
      <path d="M358.26,18.43h4.14l22.09,22.09-20.83,20.83h-12.26v18.43h19.9l39.26-39.26-33.66-33.66c-4.39-4.39-10.35-6.86-16.57-6.86h0c-6.21,0-12.17,2.47-16.57,6.86l-35.72,35.72c10.18,0,15.88,0,26.06,0l24.15-24.15Z"/>
      <path d="M510.68,47.35h-93.08l-3.12-2.93-13.08,12.99,4.89,4.78c2.36,2.3,5.52,3.6,8.82,3.6h78.32l-28.08,28.08h-21.55l-33.62,31.78h-53.66l-77.46-77.46h0s-6.03,0-6.03,0h-30.08s-77.46,77.45-77.46,77.45h-53.66l-33.62-31.78h-21.55l-28.08-28.08h78.32c3.3,0,6.46-1.29,8.82-3.6l4.89-4.78-13.08-12.99-3.12,2.93H11.3c-10.05,0-15.08,12.15-7.98,19.26l42.38,42.38c2.11,2.12,4.98,3.3,7.98,3.3h16.88l33.62,31.78h68.93l70.66-70.66c4.57-4.57,10.76-7.13,17.22-7.13h0c6.46,0,12.66,2.57,17.22,7.13l70.66,70.66h68.93l33.62-31.78h16.88c2.99,0,5.86-1.19,7.98-3.3l42.38-42.38c7.11-7.11,2.07-19.26-7.98-19.26Z"/>
      <path d="M176.38,61.11v20.14l-19.94,19.94h-9.9l-17.49-17.49c-6.8-6.8-17.82-6.8-24.62-.02l-14.1,14.04,13.34,12.61,12.97-12.97,22.26,22.26h25.16l30.74-30.74v-20.14l2.14-2.12h20.04c3.61-3.61,6.41-6.41,9.22-9.22,2.82-2.82,5.62-5.62,9.22-9.22h-46.1l-12.94,12.92Z"/>
      <path d="M56.64,144.07h0s18.43,0,18.43,0h0c0-3.28,1.3-6.43,3.63-8.75l3.97-3.97-13.36-12.64-3.62,3.61c-5.79,5.76-9.04,13.59-9.04,21.76Z"/>
      <path d="M170.58,79.78v-18.43h-12.26l-20.83-20.83,22.09-22.09h4.14l24.15,24.15c10.18,0,15.88,0,26.06,0L178.21,6.86c-4.39-4.39-10.35-6.86-16.57-6.86h0c-6.21,0-12.17,2.47-16.57,6.86l-33.66,33.66,39.26,39.26h19.9Z"/>
    </g>
  </g>
</svg>