<?xml version="1.0" encoding="UTF-8"?>
<svg id="Layer_2" data-name="Layer 2" xmlns="http://www.w3.org/2000/svg" viewBox="0 0 643.47 78.96">
  <g id="_Слой_1" data-name="Слой 1">
    <g>
      <path d="M306.09,61.23l-17.44-17.44h-12.87V0h-66.06l-24.81,24.81v.08h-10.96l-18.64,18.64h-24.79v6.94l-17.58.1.06,10.55h-62.86l-12.4-12.4v-21.49h63.21v16.29h29.93v-17.73h-12.19V9.5H0v46.57l22.79,22.79h108.05l-.1-17.59h31.86v17.59h95.81v-17.34h22.9l17.44,17.44h19.45v-17.73h-12.1ZM181.28,42.63h69.68v-17.73h-41.06l7.16-7.16h40.98v43.39h-95.25l18.5-18.5Z"/>
      <path d="M325.28,61.23v17.73s19.45,0,19.45,0l17.44-17.44h22.9v17.34s95.81,0,95.81,0v-17.59h31.86s-.1,17.59-.1,17.59h108.05s22.79-22.79,22.79-22.79V9.5s-118.68,0-118.68,0v16.29h-12.19s0,17.73,0,17.73h29.93s0-16.29,0-16.29h63.21v21.49s-12.4,12.4-12.4,12.4h-62.86s.06-10.55.06-10.55l-17.58-.1v-6.94s-24.79,0-24.79,0l-18.64-18.64h-10.96v-.08L433.76,0h-66.06s0,43.79,0,43.79h-12.87s-17.44,17.44-17.44,17.44h-12.1ZM480.68,61.13h-95.25V17.73h40.98s7.16,7.16,7.16,7.16h-41.06s0,17.73,0,17.73h69.68s18.5,18.5,18.5,18.5Z"/>
    </g>
  </g>
</svg>