<?xml version="1.0" encoding="UTF-8"?>
<svg id="Layer_2" data-name="Layer 2" xmlns="http://www.w3.org/2000/svg" viewBox="0 0 645.98 99.63">
  <g id="_Слой_1" data-name="Слой 1">
    <g>
      <polygon points="196.71 32.24 196.71 37.57 218.5 37.57 218.5 23.22 195.42 .14 81.17 .14 81.17 21.93 186.4 21.93 196.71 32.24"/>
      <path d="M272.93,14.47V0h-21.79v5.44l-32.25,32.25h30.81l23.22-23.22Z"/>
      <polygon points="226.71 99.06 257.48 99.06 279.4 77.1 279.4 68.51 257.17 68.51 226.71 99.06"/>
      <polygon points="302.21 0 301.93 .28 299.02 .28 299.02 26.34 283.01 42.35 153.93 42.35 153.93 64.14 292.03 64.14 320.81 35.36 320.81 .28 302.49 .28 302.21 0"/>
      <polygon points="149.58 59.66 116.63 26.72 85.82 26.72 158.38 99.28 158.38 68.51 149.58 68.51 149.58 59.66"/>
      <path d="M70.17,47.95l51.35,51.35v-30.81l-20.54-20.54h-30.81Z"/>
      <path d="M17.48,49.53l5.81-5.81h57.88v-21.79H14.26L0,36.2l.23,13.33h17.25Z"/>
      <path d="M35.82,77.84l-13.81-13.82v-5.72l-4.44-4.44H.22v19.18l26.58,26.58h88.86l-21.79-21.79h-58.05Z"/>
      <path d="M188.11,68.51l-25.36,25.36v5.19c9.07,0,15.43,0,25.63-.04l30.73-30.72h-30.99v.22Z"/>
      <polygon points="449.27 32.24 459.58 21.93 564.81 21.93 564.81 .14 450.55 .14 427.47 23.22 427.47 37.57 449.27 37.57 449.27 32.24"/>
      <path d="M427.09,37.7l-32.25-32.25V0h-21.79v14.46l23.22,23.22h30.81Z"/>
      <polygon points="366.58 68.51 366.58 77.1 388.5 99.06 419.27 99.06 388.81 68.51 366.58 68.51"/>
      <polygon points="492.04 42.35 362.97 42.35 346.96 26.34 346.96 .28 344.04 .28 343.77 0 343.49 .28 325.17 .28 325.17 35.36 353.94 64.14 492.04 64.14 492.04 42.35"/>
      <polygon points="529.34 26.72 496.4 59.66 496.4 68.51 487.59 68.51 487.59 99.28 560.16 26.72 529.34 26.72"/>
      <path d="M544.99,47.95l-20.54,20.54v30.81l51.35-51.35h-30.81Z"/>
      <path d="M622.69,43.72l5.81,5.81h17.26l.23-13.33-14.26-14.27h-66.9v21.79h57.88Z"/>
      <path d="M623.97,58.31v5.72l-13.81,13.82h-58.05l-21.79,21.79h88.86l26.58-26.58v-19.18h-17.35c-1.73,1.73-2.71,2.7-4.44,4.44Z"/>
      <path d="M457.86,68.29h-30.99l30.73,30.72c10.2.04,16.56.04,25.63.04v-5.19l-25.36-25.36v-.22Z"/>
    </g>
  </g>
</svg>