<?xml version="1.0" encoding="UTF-8"?>
<svg id="Layer_2" data-name="Layer 2" xmlns="http://www.w3.org/2000/svg" viewBox="0 0 815.55 103.27">
  <g id="_Слой_1" data-name="Слой 1">
    <path d="M811.72,81l-64.36-64.36-.02.02v-.43h-106.78l-14.01-14.01c-1.28-1.28-2.92-1.95-4.68-1.95h-.02l.02-.03L351.66.06l-.06-.06h-94.57s0,0,0,0H13.14c-3.53-.06-6.81,1.34-9.31,3.83-5.11,5.05-5.11,13.32,0,18.43l64.36,64.36.02-.02v.43h106.78l14.01,14.01c1.28,1.28,2.92,1.95,4.68,1.95h.02l-.02.03,270.15.12.12.12h338.46c3.53.06,6.81-1.34,9.31-3.83,5.11-5.05,5.11-13.32,0-18.43ZM741.34,81.24c2.07,0,4.14.85,5.6,2.37,4.85,4.79,1.7,12.8-4.8,13.44h-275.81l-15.04-15.04h124.09c6.18,0,11.19-5.01,11.19-11.19,0-4.94-3.23-9.09-7.67-10.57h32.69l21.05,20.99h108.7ZM74.21,22.02c-2.07,0-4.14-.85-5.6-2.37-5.05-4.99-1.46-13.57,5.6-13.57h176.74l-.12.12h98.4l15.04,15.04h-124.09c-6.18,0-11.19,5.01-11.19,11.19,0,4.94,3.23,9.09,7.67,10.57h-32.69l-21.05-20.99h-108.7ZM197.9,97.06l-32.45-32.41h-75.24l5.23-5.22.85-.85h72.02l32.36,32.42h91.25l21.96-22.02c2.8-2.8,4.38-6.63,4.38-10.65,0-3.47-1.22-6.69-3.22-9.25h70.5l-19.47,19.53h-44.35c-.97,1.7-2.13,3.29-3.53,4.68l-17.7,17.7h125.74v-16.49l-33.03-33.03-.06.06-35.34-35.34h259.85l32.45,32.41h75.24l-5.23,5.22-.85.85h-72.02l-32.36-32.42h-91.25l-21.96,22.02c-2.8,2.8-4.38,6.63-4.38,10.65,0,3.47,1.22,6.69,3.22,9.25h-70.5l19.47-19.53h44.35c.97-1.7,2.13-3.29,3.53-4.68l17.7-17.7h-125.74v16.49l33.03,33.03.06-.06,35.34,35.34H197.9Z"/>
  </g>
</svg>