<?xml version="1.0" encoding="UTF-8"?>
<svg id="Layer_2" data-name="Layer 2" xmlns="http://www.w3.org/2000/svg" viewBox="0 0 689.01 119.25">
  <g id="_Слой_1" data-name="Слой 1">
    <g>
      <path d="M120.36,55.25h31.97l-30.97,30.97h20.78s.02,0,.02,0l45.66-45.66h-73.55c-.69,0-1.35.27-1.83.76l-64.75,62.47c-.49.49-1.15.76-1.83.76h-16.49v-34.81L84.39,14.7h61.73l20.91,20.91h20.79L152.21,0H58.09L0,58.09v61.15h51.94c.69,0,1.35-.27,1.83-.76l64.75-62.47c.49-.49,1.14-.76,1.83-.76Z"/>
      <polygon points="226.13 90.42 88.84 90.42 60.01 119.25 218.08 119.25 281.93 55.35 288.13 55.35 283.79 59.68 257.2 86.27 298.76 86.27 344.5 40.58 275.93 40.58 226.13 90.42"/>
      <path d="M179.11,55.27l-11.29,11.29h20.79l11.29-11.29h34.47l-16.24,16.24h-55.36c-5.74,5.74-8.96,8.96-14.7,14.7h76.15l45.64-45.64h-76.06c-5.74,5.74-8.96,8.96-14.7,14.7h0Z"/>
      <path d="M630.91,0h-94.12l-35.61,35.61h20.79l20.91-20.91h61.73l55.03,55.03v34.81h-16.49c-.69,0-1.35-.27-1.83-.76l-64.75-62.47c-.49-.49-1.15-.76-1.83-.76h-73.55l45.66,45.66s.01,0,.02,0h20.78l-30.97-30.97h31.97c.69,0,1.35.27,1.83.76l64.75,62.47c.49.49,1.15.76,1.83.76h51.94v-61.15L630.91,0Z"/>
      <polygon points="462.87 90.42 413.08 40.58 344.5 40.58 390.25 86.27 431.8 86.27 405.21 59.68 400.88 55.35 407.07 55.35 470.93 119.25 629 119.25 600.16 90.42 462.87 90.42"/>
      <path d="M540.94,86.22c-5.74-5.74-8.96-8.96-14.7-14.7h-55.36l-16.24-16.24h34.47l11.29,11.29h20.79l-11.29-11.29h0c-5.74-5.74-8.96-8.96-14.7-14.7h-76.06l45.64,45.64h76.15Z"/>
    </g>
  </g>
</svg>