<?xml version="1.0" encoding="UTF-8"?>
<svg id="Layer_2" data-name="Layer 2" xmlns="http://www.w3.org/2000/svg" viewBox="0 0 646.87 140.81">
  <g id="_Слой_1" data-name="Слой 1">
    <g>
      <path d="M274.22,16.9c-3.5-8.45-11.66-13.9-20.86-13.9-6.01,0-11.67,2.34-15.92,6.6l-14.14,14.14h0s-50.86,50.86-50.86,50.86c-.7.7-1.68,1.11-2.67,1.11-2.19,0-3.12-1.46-3.48-2.33-.36-.87-.73-2.56.82-4.11l31.37-31.37c6.37-6.37,8.26-15.87,4.81-24.19C199.82,5.38,191.77,0,182.76,0c-5.93,0-11.51,2.31-15.7,6.5l-95.94,95.94c-6.45,6.45-8.36,16.07-4.87,24.5,3.49,8.43,11.64,13.88,20.77,13.88,6,0,11.65-2.34,15.89-6.58l15.31-15.31c.63-.63,1.47-.98,2.36-.98h102.8v-18.75h-102.8c-5.9,0-11.44,2.3-15.61,6.47l-15.31,15.31c-.7.7-1.66,1.09-2.64,1.09-2.17,0-3.09-1.44-3.45-2.3s-.73-2.53.81-4.07L180.33,19.76c.65-.65,1.52-1.01,2.44-1.01,2,0,2.86,1.33,3.19,2.13.33.8.67,2.34-.75,3.76l-31.37,31.37c-6.46,6.46-8.38,16.09-4.88,24.54,3.5,8.45,11.66,13.9,20.8,13.9,6.01,0,11.67-2.34,15.92-6.6l42.03-42.03h0s22.97-22.97,22.97-22.97c.7-.7,1.68-1.11,2.73-1.11,2.19,0,3.12,1.46,3.48,2.33s.73,2.56-.82,4.11l-25.48,25.48v64.22h18.75v-56.45l19.99-19.99c6.46-6.46,8.38-16.09,4.88-24.54Z"/>
      <path d="M138.46,0L24.08,114.38l-5.36-5.36,63.18-63.18h-26.53L5.5,95.71c-7.33,7.33-7.33,19.2,0,26.51l5.38,5.38c3.66,3.66,8.46,5.49,13.25,5.49s9.58-1.84,13.25-5.49L164.99,0h-26.53Z"/>
      <path d="M479.8,6.5C475.61,2.31,470.03,0,464.1,0c-9.01,0-17.06,5.38-20.51,13.7-3.45,8.32-1.56,17.82,4.81,24.19l31.37,31.37c1.55,1.55,1.18,3.24.82,4.11s-1.29,2.33-3.48,2.33c-.99,0-1.96-.4-2.67-1.11l-50.86-50.86h0s-14.14-14.14-14.14-14.14c-4.26-4.25-9.91-6.6-15.92-6.6-9.2,0-17.37,5.46-20.86,13.9-3.5,8.45-1.58,18.08,4.88,24.54l19.99,19.99v56.45h18.75V53.66l-25.48-25.48c-1.55-1.55-1.18-3.24-.82-4.11.36-.87,1.29-2.33,3.48-2.33,1.05,0,2.02.4,2.73,1.11l22.97,22.98h0s42.03,42.03,42.03,42.03c4.26,4.25,9.91,6.6,15.92,6.6,9.14,0,17.31-5.46,20.81-13.9,3.5-8.45,1.58-18.08-4.88-24.54l-31.37-31.37c-1.42-1.42-1.08-2.96-.75-3.76.33-.79,1.18-2.13,3.19-2.13.92,0,1.79.36,2.44,1.01l95.94,95.94c1.53,1.53,1.16,3.21.81,4.07s-1.28,2.3-3.45,2.3c-.98,0-1.94-.4-2.64-1.09l-15.31-15.31c-4.17-4.17-9.71-6.47-15.61-6.47h-102.8v18.75h102.8c.89,0,1.73.35,2.36.98l15.31,15.31c4.25,4.25,9.89,6.58,15.89,6.58,9.12,0,17.28-5.45,20.77-13.88,3.49-8.43,1.58-18.04-4.87-24.5L479.8,6.5Z"/>
      <path d="M354.13,105.85l-14.63,14.63c-1.28,1.29-3.34,1.61-4.82.54-1.87-1.35-2.02-3.97-.47-5.53l53.38-53.38-13.26-13.25-50.91,50.91-50.91-50.91-13.25,13.25,53.38,53.38c1.56,1.56,1.41,4.18-.47,5.53-1.48,1.07-3.54.75-4.82-.54l-14.63-14.63c-4.2-4.18-9.9-6.54-15.82-6.54h-19.97v18.75h19.97c.96,0,1.89.38,2.57,1.07l14.76,14.76c4.37,4.37,10.11,6.54,15.84,6.54,4.7,0,9.4-1.49,13.35-4.44,3.95,2.95,8.65,4.44,13.35,4.44,5.74,0,11.47-2.17,15.84-6.54l14.76-14.76c.68-.69,1.61-1.07,2.57-1.07h19.97v-18.75h-19.97c-5.92,0-11.62,2.36-15.82,6.54Z"/>
      <path d="M641.37,95.71l-49.87-49.87h-26.53l63.18,63.18-5.36,5.36L508.41,0h-26.53l127.6,127.6c3.67,3.66,8.47,5.49,13.25,5.49s9.6-1.84,13.25-5.49l5.38-5.38c7.33-7.31,7.33-19.18,0-26.51Z"/>
      <path d="M319.63,22.49c0-2.1,1.7-3.8,3.8-3.8s3.8,1.7,3.8,3.8v62.82l18.75-18.75V18.75C345.98,8.39,337.59,0,327.24,0h0s-7.6,0-7.6,0h0c-10.35,0-18.75,8.39-18.75,18.75v47.81l18.75,18.75V22.49Z"/>
    </g>
  </g>
</svg>