<?xml version="1.0" encoding="UTF-8"?>
<svg id="Layer_2" data-name="Layer 2" xmlns="http://www.w3.org/2000/svg" viewBox="0 0 692.29 158.11">
  <g id="_Слой_1" data-name="Слой 1">
    <g>
      <g>
        <polygon points="44.75 0 0 44.75 15.64 60.39 33.68 42.35 33.68 157.58 55.81 157.58 55.81 42.35 73.6 60.14 89.25 44.5 44.75 0"/>
        <polygon points="191.67 .52 160.38 .52 178.54 18.68 281.25 121.39 323.2 121.39 323.2 135.46 293.44 135.46 293.44 157.58 345.33 157.58 345.33 99.26 290.41 99.26 191.67 .52"/>
        <path d="M53.57.52c8.18,8.18,13,13,21.39,21.39h67.36l135.67,135.67h9.67v-21.62L152.21.52H53.57Z"/>
        <path d="M294.49,69.86h-25.34c8.71,8.71,13.59,13.59,22.31,22.31h25.33v-32.31l-37.02-37.02h61.55V.52h-115.4l68.57,68.57v.77Z"/>
        <path d="M179.83,135.44l-38.42-38.42V29.24l-1.52-1.52h-20.61v47.17l-6.75-6.75h0s-19.42-19.42-19.42-19.42l-15.64,15.64,46.51,46.51.13.15,46.55,46.55h99.13c-8.64-8.64-13.49-13.49-22.13-22.13h-67.84Z"/>
      </g>
      <g>
        <polygon points="647.55 158.11 692.29 113.36 676.65 97.71 658.61 115.75 658.61 .52 636.48 .52 636.48 115.75 618.69 97.96 603.05 113.61 647.55 158.11"/>
        <polygon points="500.62 157.58 531.91 157.58 513.76 139.42 411.05 36.72 369.09 36.72 369.09 22.65 398.85 22.65 398.85 .52 346.96 .52 346.96 58.84 401.88 58.84 500.62 157.58"/>
        <path d="M638.84,157.58c-8.18-8.18-13-13-21.39-21.39h-67.47L414.32.52h-9.67v21.62l135.44,135.44h98.76Z"/>
        <path d="M397.8,88.25h25.34c-8.71-8.71-13.59-13.59-22.31-22.31h-25.33v32.31l37.02,37.02h-61.55v22.31h115.4l-68.57-68.57v-.77Z"/>
        <path d="M512.46,22.67l38.42,38.42v67.78l1.52,1.52h20.61v-47.17l6.75,6.75h0s19.42,19.42,19.42,19.42l15.64-15.64-46.51-46.51-.13-.15L521.63.54h-99.13c8.64,8.64,13.49,13.49,22.13,22.13h67.84Z"/>
      </g>
    </g>
  </g>
</svg>