<?xml version="1.0" encoding="UTF-8"?>
<svg id="Layer_2" data-name="Layer 2" xmlns="http://www.w3.org/2000/svg" viewBox="0 0 776.85 130.23">
  <g id="_Слой_1" data-name="Слой 1">
    <g>
      <path d="M325.58.15h-88.15l38.06,38.06h46.71l26.07,26.08v22.22c-2.11,2.11-3.29,3.29-5.39,5.39h-17l-25.57-25.57-.08.08L233.53.09h-96.04v-.04H57.72l87.36,87.36v38.94h-12.91l-2-2v-48.01L53.83,0H0l130.17,130.17h14.91v.06h96.66L137.5,25.99V3.91h57.51c-2.11,2.11-4.01,4.01-6.64,6.65v62.42l57.26,57.26h44.88l34.11-34.12,33.96,33.85.02-.02c.07.07.13.13.19.19h16.49c4.39-4.39,6.85-6.85,11.23-11.23V48.46L338.21.15h-12.63ZM287.66,79.01l-12.99,12.99h-13.2l-34.87-34.86V3.91h5.35l55.71,55.37v19.73Z"/>
      <path d="M723.02,0l-76.34,76.34v48.01c-.78.78-1.22,1.22-2,2h-12.91v-38.94L719.13.05h-79.77v.04h-96.03l-66.71,66.34-.08-.08-25.57,25.57h-17c-2.1-2.1-3.28-3.28-5.39-5.39v-22.22l26.07-26.08h46.71L539.42.15h-100.78l-48.3,48.3v70.45c4.39,4.39,6.85,6.85,11.23,11.23h16.49c.07-.07.13-.13.19-.19l.02.02,33.96-33.85,34.11,34.12h44.88l57.26-57.26V10.56c-2.63-2.63-4.54-4.54-6.65-6.65h57.51v22.08l-104.24,104.24h96.66v-.06h14.91L776.85,0h-53.83ZM550.25,57.13l-34.87,34.86h-13.2l-12.99-12.99v-19.73l55.71-55.37h5.35v53.23Z"/>
    </g>
  </g>
</svg>