<?xml version="1.0" encoding="UTF-8"?>
<svg id="Layer_2" data-name="Layer 2" xmlns="http://www.w3.org/2000/svg" viewBox="0 0 673.59 125.89">
  <g id="_Слой_1" data-name="Слой 1">
    <g>
      <path d="M671.89,92.44l-64.37-64.37h-36.38l.1.1h-33.33c-3.38,0-5.07-4.08-2.68-6.47l11.83-11.83c3.64-3.64,1.06-9.86-4.08-9.86h-23.49c-1.53,0-3,.61-4.08,1.69l-60.67,60.67-.44.59c.1.2.83-.19.98-.05l53.56-.19h96.96l5.07,5.07h-139.43c-1.09,0-2.1.4-2.86,1.17-11.93,11.92-35.21,35.21-49.98,49.98-2.56,2.56-.74,6.92,2.88,6.92h50.47c1.49,0,2.9-.58,3.95-1.63,5.61-5.61,13.56-13.56,21.92-21.92h170.01c5.14,0,7.72-6.22,4.08-9.86Z"/>
      <path d="M452.39,77.94l2.99-3c2.64-2.65.76-7.16-2.97-7.16h0c-3.74,0-5.61-4.52-2.97-7.17l52.35-52.35c2.9-2.9.85-7.86-3.25-7.86h-36.31l-67.37,67.37h-7.25l57.81-57.81c3.64-3.64,1.06-9.86-4.08-9.86h-39.33c-1.53,0-3,.61-4.08,1.69l-34.58,34.58c-9.8,9.8-26.55,2.86-26.55-11V0h-66.97v.04s0,0,0-.01l-48.62,47.93-2.99,3c-2.64,2.65-.76,7.16,2.97,7.16h0c3.74,0,5.61,4.52,2.97,7.17l-52.35,52.35c-2.9,2.9-.85,7.86,3.25,7.86h36.31l67.62-67.62c4.22-.11,7.47-.22,7.47-.22l-58.27,58.27c-3.64,3.64-1.06,9.86,4.08,9.86h39.33c1.53,0,3-.61,4.08-1.69l34.58-34.58c9.8-9.8,26.55-2.86,26.55,11v25.38h66.97v-.04s0,0,0,.01l48.62-47.93Z"/>
      <path d="M218.56,63.68c-.1-.2-.24-.4-.39-.54l-53.4.04h-96.96l-5.07-5.07h139.43c1.09,0,2.1-.4,2.86-1.17,11.93-11.92,35.21-35.21,49.98-49.98,2.56-2.56.74-6.92-2.88-6.92h-50.47c-1.49,0-2.9.58-3.95,1.63-5.61,5.61-13.56,13.56-21.92,21.92H5.79c-5.14,0-7.72,6.22-4.08,9.86l64.37,64.37h36.38l-.1-.1h33.33c3.38,0,5.07,4.08,2.68,6.47l-11.83,11.83c-3.64,3.64-1.06,9.86,4.08,9.86h23.49c1.53,0,3-.61,4.08-1.69l60.51-60.51h-.15Z"/>
    </g>
  </g>
</svg>