<?xml version="1.0" encoding="UTF-8"?>
<svg id="Layer_2" data-name="Layer 2" xmlns="http://www.w3.org/2000/svg" viewBox="0 0 568.92 154.73">
  <g id="_Слой_1" data-name="Слой 1">
    <g>
      <path d="M100.53,89.47l57.59,57.59h19.05c8.95-8.95,13.97-13.97,22.93-22.93v-22.33c-6.91-6.91-10.79-10.79-17.71-17.7v32.77c-4.88,4.88-7.61,7.61-12.49,12.49h-23.03l-57.59-57.59h-23.05c-2.01,2.01-3.14,3.14-5.16,5.16v22.76h17.7v-10.22h21.76Z"/>
      <path d="M214.97,35.2H68.03l.08-.08h-25.04L0,78.2v45.01c4.74,4.74,7.4,7.4,12.14,12.14h54.48c4.74-4.74,7.4-7.4,12.14-12.14h-17.7v8.89h-22.38v-8.81h-17.6v8.81h-3.37v-46.57l47.38-47.38h117.25v12.74c6.91,6.91,10.79,10.79,17.71,17.7v-15.69h7.6l71.33,71.32v27.19l-100.6-100.32H56.5l-35.43,35.44v12.99h17.7v-5.66l25.06-25.06h107.19l83.18,82.9h-124.31l-49.11-49.11H20.9v17.71h71.74l34.36,34.36h.02s0,0,0,0h130.16l.02.02c9.77,0,15.25-.01,25.01-.02h0s0,0,0,0v-52.5l-3.12-2.84-64.12-64.12Z"/>
      <path d="M199.98,17.7h10.12l31.99,31.99v8.37l17.71,17.7v-33.4L217.42,0h-20.13c-5.87,5.87-9.16,9.16-15.03,15.03v17.23h17.7v-14.55Z"/>
      <path d="M507.86,99.74v-22.76c-2.01-2.01-3.14-3.14-5.16-5.16h-23.05l-57.59,57.59h-23.03c-4.88-4.88-7.61-7.61-12.49-12.49v-32.76c-6.91,6.91-10.79,10.79-17.7,17.7v22.33c8.95,8.95,13.97,13.97,22.93,22.93h19.05l57.59-57.59h21.76v10.22h17.7Z"/>
      <path d="M525.84,35.17h-25.04l.08.08h-146.94l-64.12,64.12-3.12,2.84v52.5h0,0c9.77.01,15.25.02,25.01.02l.02-.02h130.16s.02,0,.02,0l34.36-34.36h71.74v-17.7h-59.89l-49.11,49.11h-124.31l83.18-82.9h107.19l25.06,25.06v5.66h17.7v-12.99l-35.43-35.44h-121.86l-100.6,100.32v-27.19l71.33-71.32h7.6v15.69c6.91-6.91,10.79-10.79,17.7-17.7v-12.74h117.25l47.38,47.38v46.57h-3.37v-8.81h-17.6v8.81h-22.38v-8.89h-17.7c4.74,4.74,7.4,7.4,12.14,12.14h54.48c4.74-4.74,7.4-7.4,12.14-12.14v-45.01l-43.08-43.08Z"/>
      <path d="M326.83,49.75l31.99-31.99h10.12v14.55h17.7V15.08c-5.87-5.87-9.16-9.16-15.03-15.03h-20.13l-42.37,42.37v33.4l17.7-17.7v-8.37Z"/>
    </g>
  </g>
</svg>