<?xml version="1.0" encoding="UTF-8"?>
<svg id="Layer_2" data-name="Layer 2" xmlns="http://www.w3.org/2000/svg" viewBox="0 0 831.27 124.52">
  <g id="_Слой_1" data-name="Слой 1">
    <g>
      <path d="M112.01,67.15c-23.59,23.59-61.84,23.59-85.43,0L0,40.57l30.88,53.67c19.83,34.46,66.96,40.7,95.07,12.59l12.78-12.78-26.73-26.89h0Z"/>
      <path d="M355.1,57.06l26.73,26.44-31.18-53.5c-20.02-34.35-67.18-40.33-95.14-12.06l-12.71,12.85,26.87,26.75c23.46-23.72,61.71-23.93,85.43-.47Z"/>
      <polygon points="176.47 32.93 267.68 124.14 329.6 124.17 238.36 32.93 176.47 32.93"/>
      <polygon points="292.64 80.4 336.4 124.16 415.64 124.16 371.83 80.4 292.64 80.4"/>
      <path d="M128.16,51.01l-12.78,12.78,26.73,26.89h0c23.59-23.59,61.84-23.59,85.43,0l-57.37-57.37c-15.07.15-30.21,5.9-42,17.69Z"/>
      <circle cx="181.86" cy="99.91" r="22.01" transform="translate(19.96 229.7) rotate(-67.5)"/>
      <path d="M719.26,67.15c23.59,23.59,61.84,23.59,85.43,0l26.58-26.58-30.88,53.67c-19.83,34.46-66.96,40.7-95.07,12.59l-12.78-12.78,26.73-26.89h0Z"/>
      <path d="M476.18,57.06l-26.73,26.44,31.18-53.5c20.02-34.35,67.18-40.33,95.14-12.06l12.71,12.85-26.87,26.75c-23.46-23.72-61.71-23.93-85.43-.47Z"/>
      <polygon points="654.8 32.93 563.59 124.14 501.67 124.17 592.91 32.93 654.8 32.93"/>
      <polygon points="538.63 80.4 494.87 124.16 415.64 124.16 459.44 80.4 538.63 80.4"/>
      <path d="M703.11,51.01l12.78,12.78-26.73,26.89h0c-23.59-23.59-61.84-23.59-85.43,0l57.37-57.37c15.07.15,30.21,5.9,42,17.69Z"/>
      <circle cx="649.41" cy="99.91" r="22.01" transform="translate(11.2 256.12) rotate(-22.5)"/>
      <circle cx="411.61" cy="24.54" r="22.01" transform="translate(1.38 66.25) rotate(-9.22)"/>
    </g>
  </g>
</svg>