<?xml version="1.0" encoding="UTF-8"?>
<svg id="Layer_2" data-name="Layer 2" xmlns="http://www.w3.org/2000/svg" viewBox="0 0 487.37 159.91">
  <g id="_Слой_1" data-name="Слой 1">
    <g>
      <path d="M93.27,131.35h78.32v-48.72h-71.36v10.78h60.57v27.16h-63.69c-1.92-1.92-3-3-4.93-4.93v-34.37c0-18.09,14.66-32.75,32.75-32.75h79.96l10.78-10.78H81.4v81.74c4.63,4.63,7.23,7.23,11.87,11.87Z"/>
      <path d="M130.83,138.31h-40.61l-17.75-17.75H25.79c-8.28,0-15.01-4.04-15.01-12.32s6.73-14.74,15.01-14.74h47.95v-10.78H25.79c-14.22,0-25.79,11.3-25.79,25.52s11.57,23.1,25.79,23.1h42.21l17.75,17.75h45.08v-10.78Z"/>
      <path d="M183.07,27.77c.69-9.48,8.6-16.98,18.24-16.98h5.81c9.02,0,14.65,5.84,16.92,11.3,2.26,5.47,2.41,13.58-3.97,19.96l-40.71,40.71v48.54h10.78v-44.07l37.55-37.55c8.48-8.48,10.9-20.63,6.31-31.71-4.59-11.08-14.89-17.96-26.88-17.96h-5.81c-16.04,0-29.09,13.05-29.09,29.09v1.8h10.85v-3.13Z"/>
      <polygon points="226.15 59.66 229.15 62.66 229.15 67.57 207.71 89.01 207.78 78.07 196.77 89.08 196.55 137.64 179.07 137.64 167.61 149.11 130.83 149.11 130.83 159.89 172.07 159.89 183.54 148.43 207.33 148.43 207.6 105.64 240.83 72.41 240.83 57.82 234.41 51.4 226.15 59.66"/>
      <path d="M387.15,93.43v-10.78h-71.36v48.72h78.32c4.63-4.63,7.23-7.23,11.87-11.87V37.76h-134.27l10.78,10.78h79.96c18.09,0,32.75,14.66,32.75,32.75v34.37c-1.92,1.92-3,3-4.93,4.93h-63.69v-27.16h60.57Z"/>
      <path d="M297.22,87.24v44.07h10.78v-48.54l-40.71-40.71c-6.38-6.38-6.23-14.49-3.97-19.96,2.26-5.46,7.9-11.3,16.92-11.3h5.81c9.65,0,17.56,7.51,18.24,16.98v3.13h10.85v-1.8C315.15,13.07,302.1.02,286.06.02h-5.81c-11.99,0-22.29,6.88-26.88,17.96-4.59,11.08-2.17,23.23,6.31,31.71l37.55,37.55Z"/>
      <path d="M461.58,82.74h-47.95v10.78h47.95c8.28,0,15.01,6.46,15.01,14.74s-6.73,12.32-15.01,12.32h-46.68l-17.75,17.75h-40.61v10.78h45.08l17.75-17.75h42.21c14.22,0,25.79-8.88,25.79-23.1s-11.57-25.52-25.79-25.52Z"/>
      <polygon points="308.3 137.67 290.82 137.67 290.6 89.1 279.6 78.09 279.66 89.03 258.22 67.59 258.22 62.68 261.22 59.68 252.96 51.42 246.54 57.84 246.54 72.43 279.77 105.66 280.04 148.45 303.83 148.45 315.3 159.91 356.54 159.91 356.54 149.13 319.76 149.13 308.3 137.67"/>
    </g>
  </g>
</svg>