<?xml version="1.0" encoding="UTF-8"?>
<svg id="Layer_2" data-name="Layer 2" xmlns="http://www.w3.org/2000/svg" viewBox="0 0 659 178.86">
  <g id="_Слой_1" data-name="Слой 1">
    <g>
      <path d="M197.95,96.07h-19.38v28.35h36.49l-27.03,27.02-63.29-63.29v-42.48c0-4.83-3.92-8.75-8.75-8.75h-10.63v59.26l82.67,82.67,73.82-73.82h-63.9v-8.97Z"/>
      <path d="M19.38,28.22c0-4.87,3.96-8.84,8.84-8.84h82.82l36.46,36.46h26.84v-19.38h-18.81L119.07,0H28.22C12.66,0,0,12.66,0,28.22s12.66,28.22,28.22,28.22h73.31v-19.38H28.22c-4.87,0-8.84-3.96-8.84-8.84Z"/>
      <rect x="178.28" y="36.41" width="19.38" height="55.76"/>
      <polygon points="332.24 82.76 348.77 99.28 357.18 90.87 362.48 85.57 318.96 42.06 318.96 19.44 331.82 19.44 380.25 67.87 393.96 54.16 339.84 .05 299.58 .05 299.58 50.09 332.24 82.76"/>
      <polygon points="295.7 50.93 295.7 23.52 265.05 54.16 278.76 67.87 295.7 50.93"/>
      <rect x="299.96" y="74.47" width="23.37" height="19.39" transform="translate(31.77 245.02) rotate(-45)"/>
      <polygon points="332.24 49.86 345.95 63.57 358.2 51.3 340.04 33.13 340.04 42.06 332.24 49.86"/>
      <polygon points="359.42 .05 345.32 .05 359.42 14.15 359.42 .05"/>
      <path d="M534.26,88.16l-63.29,63.29-27.03-27.02h36.49v-28.35h-19.38v8.97h-63.9l73.82,73.82,82.67-82.67v-59.26h-10.63c-4.83,0-8.75,3.92-8.75,8.75v42.48Z"/>
      <path d="M630.78,0h-90.85l-36.46,36.46h-18.81v19.38h26.84l36.46-36.46h82.82c4.87,0,8.84,3.96,8.84,8.84s-3.96,8.84-8.84,8.84h-73.31v19.38h73.31c15.56,0,28.22-12.66,28.22-28.22s-12.66-28.22-28.22-28.22Z"/>
      <rect x="461.34" y="36.41" width="19.38" height="55.76"/>
      <path d="M425.32,55.79h32.11v-19.38h-40.12l-37.06,36.95-21.79,21.72-9.7,9.68-16.52,16.46-2.74,2.74-87.82-87.54h-40.12v19.38h32.11l34.39,34.28c5.53,5.51,1.62,14.95-6.18,14.95h0v10.63c0,4.83,3.92,8.75,8.75,8.75h59.32,0s58.4,0,58.4,0c4.83,0,8.75-3.92,8.75-8.75v-10.63h0c-7.8,0-11.7-9.44-6.18-14.95l34.39-34.28Z"/>
    </g>
  </g>
</svg>