<?xml version="1.0" encoding="UTF-8"?>
<svg id="Layer_2" data-name="Layer 2" xmlns="http://www.w3.org/2000/svg" viewBox="0 0 615.28 129.62">
  <g id="_Слой_1" data-name="Слой 1">
    <g>
      <path d="M595.52,80.26l-45.23-45.31h-36.12v19.26c0,.33-.33.66-.66.66h-18.94v13.21l-44.01,44.01v17.52h10.13l53.48-53.39v-21.18l43.89,43.9s.08,0,.17.08l.58.58h56.47v-19.35h-19.77Z"/>
      <polygon points="486.27 8.68 422.4 72.55 422.4 129.62 442.25 129.62 442.25 108.66 486.27 64.65 486.27 8.68"/>
      <path d="M321.35,80.22h46.67s27.65-27.66,27.65-27.66l-13.79-13.79,10.55-10.46,19.68,19.68v23.59l19.84-19.85v-11.96l-.04-.04v-.41L392.6,0l-1.89,1.89s-.01,0-.02,0l-23.09,23.08h0s-.01.02-.01.02h.03s13.76,13.77,13.76,13.77l-21.59,21.59h-13.29c-.17,0-15.28,0-15.53-.09v-15.78h-33.63v19.85h24v15.87Z"/>
      <polygon points="329.53 94.01 329.53 107.88 315.66 107.88 297.31 126.23 297.06 126.48 293.99 129.55 349.96 129.55 371.3 108.21 414.48 108.21 414.48 88.37 335.18 88.37 329.53 94.01"/>
      <polygon points="35.54 94.01 35.54 107.88 21.67 107.88 3.32 126.23 3.07 126.48 0 129.55 55.97 129.55 77.31 108.21 120.49 108.21 120.49 88.37 41.19 88.37 35.54 94.01"/>
      <path d="M321.26,80.26h-19.77l-45.22-45.31h-36.12v19.26c0,.33-.33.66-.66.66h-18.93v13.21l-44.01,44.01v17.52h10.13l53.48-53.39v-21.18l43.89,43.9s.08,0,.17.08l.58.58h56.47v-19.35Z"/>
      <polygon points="192.24 8.68 128.37 72.55 128.37 129.62 148.23 129.62 148.23 108.66 192.24 64.65 192.24 8.68"/>
      <path d="M27.32,80.22h46.67s27.65-27.66,27.65-27.66l-13.78-13.79,10.54-10.46,19.68,19.68v23.59l19.85-19.85v-11.96l-.04-.04v-.41L98.57,0l-1.9,1.89s-.01,0-.02,0l-23.09,23.08h0s-.01.02-.01.02h.03s13.76,13.77,13.76,13.77l-21.59,21.59h-13.29c-.17,0-15.28,0-15.53-.09v-15.78H3.32v19.85h24v15.87Z"/>
    </g>
  </g>
</svg>