<?xml version="1.0" encoding="UTF-8"?>
<svg id="Layer_2" data-name="Layer 2" xmlns="http://www.w3.org/2000/svg" viewBox="0 0 631.17 122.77">
  <g id="_Слой_1" data-name="Слой 1">
    <g>
      <path d="M173.24.31c-11.81,0-23.14,4.69-31.5,13.05L45.71,109.39h31.2c11.81-.02,23.13-4.71,31.48-13.06L204.41.31h-31.17Z"/>
      <path d="M90.66,58.98L149.34.31h-.19l.13-.13H45.86l-.04.04v-.04C15.32,1.79-6.37,31.22,1.7,61.14l12.92,47.93v-30.14c0-.4,0-.8.01-1.2.58-23.71,20.33-42.47,44.05-42.47h6.09l-23.75,23.75,49.64-.02Z"/>
      <path d="M145.02,65.13l28.25-19.13c21.02-13.69,45.5-17.79,63.11-10.4l29.78,29.78-121.41.02-8.67,8.68h156.49l.02-.02h10.82s5.08,0,5.08,0h0s7.11,0,7.11,0h7.11s0,0,0,0h15.9s.02,0,.02,0h156.49l-8.67-8.68-121.41-.02,29.78-29.78c17.6-7.4,42.08-3.29,63.11,10.4l28.25,19.13-40.82-40.85c-26.86-26.86-52.56-32.33-75.26-11.9l-26.81,26.81-27.67,27.67-27.67-27.67-26.81-26.81c-22.7-20.43-48.4-14.96-75.26,11.9l-40.82,40.85Z"/>
      <path d="M457.92.31h-31.17l96.02,96.02c8.35,8.35,19.67,13.04,31.48,13.05h31.2S489.42,13.35,489.42,13.35c-8.35-8.35-19.68-13.05-31.5-13.05Z"/>
      <path d="M585.34.18v.04s-.04-.04-.04-.04h-103.42l.13.13h-.19l58.68,58.68,49.64.02-23.75-23.75h6.09c23.72,0,43.47,18.76,44.05,42.47,0,.4.01.8.01,1.2v30.14l12.92-47.93c8.06-29.92-13.63-59.35-44.13-60.96Z"/>
      <path d="M336.88,93.28c0,1.35-.15,2.68-.42,3.98-.21,1.05-.5,2.1-.87,3.11-2.72,7.42-9.31,12.69-16.97,13.83-.28.04-.57.06-.85.09-2,.3-4.37,0-4.37,0-.28-.03-.57-.05-.85-.09-7.65-1.15-14.25-6.42-16.97-13.83-.37-1.02-.66-2.06-.87-3.11-.27-1.3-.41-2.63-.42-3.98-6.54-3.64-13.97-5.59-21.58-5.59H123.86l1.41,1.41,20.67,20.65c8.35,8.35,19.67,13.03,31.48,13.03h276.34c11.8,0,23.13-4.68,31.48-13.03l20.67-20.65,1.41-1.41h-148.85c-7.62,0-15.04,1.96-21.58,5.59Z"/>
      <path d="M315.48,110.65s.07,0,.1,0c.03,0,.07,0,.1,0h.04c.38-.02.76-.03,1.15-.06.78-.07,1.54-.18,2.28-.34,5.95-1.26,10.8-5.55,12.87-11.18.38-1.04.66-2.14.84-3.28.05-.23.08-.45.1-.67.06-.47.1-.93.1-1.41.02-.24.03-.47.03-.71,0-1.6-.22-3.14-.61-4.61-1-3.68-3.16-6.89-6.07-9.19-.28-.24-.57-.45-.86-.66-.3-.22-.62-.42-.93-.61h-18.07c-.31.19-.63.39-.93.61-.29.21-.58.42-.86.66-2.91,2.3-5.07,5.51-6.07,9.19-.39,1.47-.61,3.02-.61,4.61,0,.24,0,.47.03.71,0,.47.05.94.1,1.41.03.23.06.45.1.67.17,1.14.46,2.23.84,3.28,2.07,5.62,6.91,9.91,12.87,11.18.74.16,1.5.28,2.28.34.39.03.76.04,1.15.05h0s.04,0,.04,0Z"/>
      <path d="M126.71,83.82h152.09c2.3-2.3,3.59-3.59,5.89-5.89h-152.09c-2.3,2.3-3.59,3.59-5.89,5.89Z"/>
      <path d="M504.76,83.82c-2.3-2.3-3.59-3.59-5.89-5.89h-152.09c2.3,2.3,3.59,3.59,5.89,5.89h152.09Z"/>
    </g>
  </g>
</svg>