<?xml version="1.0" encoding="UTF-8"?>
<svg id="Layer_2" data-name="Layer 2" xmlns="http://www.w3.org/2000/svg" viewBox="0 0 684.68 180.6">
  <g id="_Слой_1" data-name="Слой 1">
    <g>
      <path d="M24.95,65.76h0l89.41,89.41h-37.2c-28.86,0-52.25-23.39-52.25-52.25V31.82H.22v71.1c0,42.49,34.45,76.94,76.94,76.94h96.82L59.88,65.76c-13.64,0-21.29,0-34.93,0Z"/>
      <path d="M279.51,148.01v-36.56h-24.7v36.56c0,17.56,14.29,31.85,31.85,31.85h55.64v-24.7h-55.64c-3.95,0-7.16-3.21-7.16-7.16Z"/>
      <path d="M342.1,148.07v-29.88c0-17.56-14.29-31.85-31.85-31.85h-30.37v24.7h30.37c3.95,0,7.16,3.21,7.16,7.16v29.88h24.7Z"/>
      <path d="M367.29,65.76h0l89.41,89.41h-37.2c-28.86,0-52.25-23.39-52.25-52.25V31.82h-24.7v71.1c0,42.49,34.45,76.94,76.94,76.94h96.82l-114.1-114.11c-13.64,0-21.29,0-34.93,0Z"/>
      <path d="M678.18,0c-16.58,0-30.81,10.21-36.75,24.67V0h-305.59c-16.58,0-30.81,10.21-36.75,24.67V0H0v24.7h113.04c-4.54,2.14-8.72,5.08-12.36,8.75-16.82,16.96-16.76,44.5.13,61.4l73.04,73.04c8.48,8.48,19.62,12.72,30.76,12.72s22.28-4.24,30.76-12.72c8.28-8.28,13.07-19.86,13.14-31.77l-24.7-.14c-.03,5.47-2.18,10.74-5.9,14.46-7.33,7.34-19.27,7.33-26.6,0l-73.04-73.04c-7.3-7.3-7.33-19.21-.06-26.54,3.55-3.58,8.28-5.56,13.32-5.57h.04c5.02,0,9.74,1.96,13.3,5.51l61.52,61.52,17.44-17.44v34.12h24.7V54.99h-24.7v39.82l-61.5-61.5c-3.61-3.61-7.74-6.51-12.22-8.62h148.97c-1.9,4.64-2.96,9.71-2.96,15.03,0,8.28-6.74,15.02-15.02,15.02h-26.29v24.7h26.29c21.9,0,39.72-17.82,39.72-39.72,0-8.28,6.74-15.03,15.02-15.03h119.54c-4.54,2.14-8.72,5.08-12.36,8.75-16.82,16.96-16.76,44.5.13,61.4l73.04,73.04c8.48,8.48,19.62,12.72,30.76,12.72s22.28-4.24,30.76-12.72c8.28-8.28,13.07-19.86,13.14-31.77l-24.7-.14c-.03,5.47-2.18,10.74-5.9,14.46-7.33,7.34-19.27,7.33-26.6,0l-73.04-73.04c-7.3-7.3-7.33-19.21-.06-26.54,3.55-3.58,8.28-5.56,13.32-5.57h.04c5.02,0,9.74,1.96,13.3,5.51l61.52,61.52,17.44-17.44v34.12h24.7V54.99h-24.7v39.82l-61.5-61.5c-3.61-3.61-7.74-6.51-12.22-8.62h148.97c-1.9,4.64-2.96,9.71-2.96,15.03,0,8.28-6.74,15.02-15.02,15.02h-26.29v24.7h26.29c21.9,0,39.72-17.82,39.72-39.72,0-8.28,6.74-15.03,15.02-15.03h6.5V0h-6.5Z"/>
      <path d="M621.85,148.01v-36.56h-24.7v36.56c0,17.56,14.29,31.85,31.85,31.85h55.64v-24.7h-55.64c-3.95,0-7.16-3.21-7.16-7.16Z"/>
      <path d="M684.44,148.07v-29.88c0-17.56-14.29-31.85-31.85-31.85h-30.37v24.7h30.37c3.95,0,7.16,3.21,7.16,7.16v29.88h24.7Z"/>
    </g>
  </g>
</svg>