<?xml version="1.0" encoding="UTF-8"?>
<svg id="Layer_2" data-name="Layer 2" xmlns="http://www.w3.org/2000/svg" viewBox="0 0 523.54 154.64">
  <g id="_Слой_1" data-name="Слой 1">
    <g>
      <polygon points="49.45 64.35 78.36 64.35 78.36 43.87 0 43.87 69.25 113.12 143.82 113.12 143.82 92.64 77.73 92.64 49.45 64.35"/>
      <path d="M168.45,67.54v-23.67h-31.62L92.96,0H16.95L.26,16.69v23.08h20.48v-14.6l4.7-4.7h59.04l23.39,23.39h-25.41v20.48h65.52v90.19h41.44l62.29-62.3h-.07l3.54-3.54,34.13,34.13v27.71h-91.8l-4.31,4.1h116.59v-40.28l-46.81-46.81h-94.53ZM246.06,92.25h-73.52v20.48h53.04l-21.34,21.34h-35.79v-62.43h69.66l14.28,14.28-6.33,6.33Z"/>
      <polygon points="294.32 64.35 323.24 64.35 323.24 43.87 244.88 43.87 314.12 113.12 357.56 113.12 357.56 92.64 322.61 92.64 294.32 64.35"/>
      <path d="M476.73,67.54h-94.53v-23.67h-.49L340.71,0h-175.99l-16.69,16.69v23.08h20.48v-14.6l4.7-4.7h159.02l20.53,23.39h-25.41v20.48h34.39v90.19h41.44l62.29-62.3h-.07l3.54-3.54,34.13,34.13v27.71h-91.8l-4.31,4.1h116.59v-40.28l-46.81-46.81ZM459.8,92.25h-73.52v20.48h53.04l-21.34,21.34h-35.79v-62.43h69.66l14.28,14.28-6.33,6.33Z"/>
    </g>
  </g>
</svg>