<?xml version="1.0" encoding="UTF-8"?>
<svg id="Layer_2" data-name="Layer 2" xmlns="http://www.w3.org/2000/svg" viewBox="0 0 491.45 172.57">
  <g id="_Слой_1" data-name="Слой 1">
    <g>
      <path d="M206.1,171.8l113.16-113.16c-13.34,0-22.54,0-33.48,0v-.12h-95.04l-65.2,65.25c.02,18.75.03,29.26.04,48.01l48.13-48.16h32.53l-.15.15c0,18.76,0,29.28,0,48.04ZM207.67,89.65l23.95-23.96h32.57l-23.96,23.96h-32.55Z"/>
      <path d="M342.47,92.64h100.27c1.49-.95,2.92-1.9,4.42-2.92l1.7-1.22c.54-.41,1.09-.81,1.56-1.22,1.02-.82,2.11-1.63,3.13-2.51,1.77-1.43,3.4-2.99,5.03-4.55,6.52-6.32,12.03-13.66,16.44-21.54h-147.1l-23.77,24.25-85.04,85.09-3.4,4.01h25.47s76.47.01,76.47.01v-7.8h-46.74l71.55-71.59Z"/>
      <path d="M453.32,93.55c-16.51,12.39-36.86,19.8-58.96,20.16h-63.68l-5.54,5.72-38.13,38.13h48.04l36.3-36.31h.45s6.59,0,6.59,0c1.07,0,2.12-.12,3.18-.16l-36.47,36.47h48.04l59.73-59.73v9.82l-56.52,56.58h-71.89v7.8h110.12s2.02-.01,2.02-.01l45.48-45.55,9.22-9.01v-62.19h-6.84c-7.05,15.18-17.84,28.33-31.14,38.28Z"/>
      <path d="M65.82,0l-17.63,17.62H0v48.5l125.84.12-58.32,58.32v47.98l.03.03,114.14-114.14H33.97v-6.84h28.29l17.63-17.62h385.99c9.89,0,17.9,8.01,17.9,17.9h7.67V0H65.82Z"/>
    </g>
  </g>
</svg>