<?xml version="1.0" encoding="UTF-8"?>
<svg id="Layer_2" data-name="Layer 2" xmlns="http://www.w3.org/2000/svg" viewBox="0 0 597.53 153.15">
  <g id="_Слой_1" data-name="Слой 1">
    <g>
      <path d="M67.12,130.57v-50.54h-22.18v-27.02c0-4.23,3.44-7.66,7.66-7.66h79.57v-22.4H52.6c-16.58,0-30.06,13.49-30.06,30.06v27.48h22.18v50.07h22.4Z"/>
      <polygon points="22.4 125.52 22.4 80.03 0 80.03 0 134.8 18.22 153.01 44.67 153.01 44.67 130.61 27.49 130.61 22.4 125.52"/>
      <path d="M87.23,50.01c-11.09,0-20.1,9.02-20.1,20.1v9.92h22.4v-7.62h69.94v-22.22l30.33,30.33h27.77l17.24-17.24-15.84-15.84-10.68,10.68h-9.21L140.96,0h-31.67l50.01,50.01h-72.06Z"/>
      <polygon points="159.46 99.23 159.46 76.83 101.48 76.83 75.71 102.6 75.71 130.68 67.01 130.68 67.01 153.08 98.11 153.08 98.11 111.88 110.76 99.23 159.46 99.23"/>
      <path d="M205.85,98.54h-46.36v32.2h-57.02v22.4h63.44c8.83,0,15.98-7.15,15.98-15.98v-16.22h33.24l38.66-38.66-15.84-15.84-32.1,32.1Z"/>
      <path d="M209.45,18.84l-21.49,21.49,13.35,13.35c1.94,0,3.03,0,4.97,0l12.78-12.78,55.05,55.24v18.37h22.4v-27.63L228.73,18.85c-5.32-5.33-13.95-5.34-19.28-.02Z"/>
      <polygon points="575.13 80.03 575.13 125.52 570.03 130.61 552.86 130.61 552.86 153.01 579.31 153.01 597.53 134.8 597.53 80.03 575.13 80.03"/>
      <path d="M574.98,80.5v-27.48c0-16.58-13.49-30.06-30.06-30.06h-79.57v22.4h79.57c4.23,0,7.66,3.44,7.66,7.66v27.02h-22.18v50.54h22.4v-50.07h22.18Z"/>
      <polygon points="521.82 102.6 496.05 76.83 438.06 76.83 438.06 99.23 486.77 99.23 499.42 111.88 499.42 153.08 530.51 153.08 530.51 130.68 521.82 130.68 521.82 102.6"/>
      <path d="M389.24,58.12l-10.68-10.68-15.84,15.84,17.24,17.24h27.77l30.33-30.33v22.22h69.94v7.62h22.4v-9.92c0-11.09-9.02-20.1-20.1-20.1h-72.06L488.24,0h-31.67l-58.12,58.12h-9.21Z"/>
      <path d="M438.03,98.54h-46.36l-32.1-32.1-15.84,15.84,38.66,38.66h33.24v16.22c0,8.83,7.16,15.98,15.98,15.98h63.44v-22.4h-57.02v-32.2Z"/>
      <path d="M391.24,53.67c1.94,0,3.03,0,4.97,0l13.35-13.35-21.49-21.49c-5.32-5.32-13.96-5.32-19.28.02l-67.8,68.02v27.63h22.4v-18.37l55.05-55.24,12.78,12.78Z"/>
    </g>
  </g>
</svg>