<?xml version="1.0" encoding="UTF-8"?>
<svg id="Layer_2" data-name="Layer 2" xmlns="http://www.w3.org/2000/svg" viewBox="0 0 542.82 141.83">
  <g id="_Слой_1" data-name="Слой 1">
    <g>
      <path d="M237.94,67.1h.01s-71.81-.01-71.81-.01l-25.41,25.48h-28.53c-5.29,0-6.39-2.12-10.09-5.82l-14.48-14.48-12.99,12.91-2.96-2.96,19.09-19.09h153.49l-18.6-18.6h-116.3,0V0h0s-44.51,44.51-44.51,44.51H30.37v.03H0l22.55,22.55h-.38l44.09,44.09h55.93l18.39-18.39h28.57c13.78,0,20.68,16.66,10.94,26.4h0s59,0,59,0l29.76-31.47-20.62-20.62h-10.29Z"/>
      <path d="M105.24,115.53h-34.63l19.17,19.17c4.52,4.52,10.63,7.07,17.02,7.11h94.47c9.95.01,19.49-3.94,26.52-10.97l7.67-7.67h-111.74c-6.93,0-13.57-2.75-18.47-7.65Z"/>
      <path d="M469.37,67.1h.01s-71.81-.01-71.81-.01l-25.41,25.48h-28.53c-5.29,0-6.39-2.12-10.09-5.82l-14.48-14.48-12.99,12.91-2.96-2.96,19.09-19.09h153.49l-18.6-18.6h-116.3,0V0h0s-44.51,44.51-44.51,44.51h-34.49v.03h-30.37l66.26,66.64h55.93l18.39-18.39h28.57c13.78,0,20.68,16.66,10.94,26.4h0s56.64,0,56.64,0l31.73-31.87-20.22-20.22h-10.29Z"/>
      <path d="M336.67,115.53h-34.63l19.17,19.17c4.52,4.52,10.63,7.07,17.02,7.11h91.68c9.95.01,19.49-3.94,26.52-10.97l7.67-7.67h-108.96c-6.93,0-13.57-2.75-18.47-7.65Z"/>
      <polygon points="462.71 44.53 502.77 84.58 542.82 44.53 462.71 44.53"/>
    </g>
  </g>
</svg>