<?xml version="1.0" encoding="UTF-8"?>
<svg id="Layer_2" data-name="Layer 2" xmlns="http://www.w3.org/2000/svg" viewBox="0 0 566.76 113.98">
  <g id="_Слой_1" data-name="Слой 1">
    <path d="M560.48,69.73l-16.5-16.5,22.78-22.78-9.44-9.44s0-.01,0-.02l-21-21-80.38.02.05.05h-7.38l-.05-.05-75.96.03.02.02h-178.52l.02-.02-75.96-.03-.05.05h-7.38l.05-.05-80.38-.02L9.43,21s0,.01,0,.02L0,30.45l22.78,22.78-16.5,16.5v44.25h554.19v-44.25ZM68.44,89.97H30.87v-10.06l25.06-25.03,26.21-26.24h-45.56l4.77-4.79h45.64L108.3,2.53h7.38L47.91,70.3v14.88h20.53v4.79ZM97.88,111.61h-4.84v-38.73h0v-12.94l35.33-35.31h6.39l-36.88,36.88v50.09ZM162.3,111.61l-13.79-13.79-13.79,13.79h-12.24v-39.91L191.66,2.53h6.84l-9.77,9.88v26.02l-35.78,35.8v21.05c6.47,6.47,10.44,10.44,16.32,16.32h-6.98ZM218.25,111.61h-5.05v-22.13h-35.65v-5.07l35.78-35.8V2.53h30.46l-25.54,25.53v83.54ZM323.92,89.49v9.26l-12.86,12.86h-6.85c1.96-1.96,3.59-3.59,5.97-5.97V31.89c-9.51-9.51-14.83-14.84-24.34-24.34v104.06h-4.92V7.55c-9.51,9.51-14.83,14.83-24.34,24.34v73.75c2.38,2.38,4.01,4.01,5.97,5.97h-6.85l-12.86-12.86v-60.5L278.56,2.53h9.64l35.72,35.72v51.23ZM389.21,89.48h-35.65v22.13h-5.05V28.07l-25.54-25.53h30.46v46.08l35.78,35.8v5.07ZM444.29,111.61h-12.24l-13.79-13.79-13.79,13.79h-6.98c5.88-5.88,9.85-9.85,16.32-16.32v-21.05l-35.78-35.8V12.42l-9.77-9.88h6.84l69.19,69.17v39.91ZM473.73,111.61h-4.84v-50.09l-36.88-36.88h6.39l35.33,35.31v12.94h0v38.73ZM535.89,89.97h-37.57v-4.79h20.53v-14.88L451.08,2.53h7.38l21.32,21.32h45.64l4.77,4.79h-45.56l26.21,26.24,25.06,25.03v10.06Z"/>
  </g>
</svg>