<?xml version="1.0" encoding="UTF-8"?>
<svg id="Layer_2" data-name="Layer 2" xmlns="http://www.w3.org/2000/svg" viewBox="0 0 622.16 134.23">
  <g id="_Слой_1" data-name="Слой 1">
    <g>
      <polygon points="581.58 23.64 507.05 23.64 507.05 26.9 533 52.85 564.52 52.85 622.16 110.55 622.16 64.22 581.58 23.64"/>
      <polygon points="365.98 76.47 377.47 64.97 317.4 64.97 314.14 64.97 343.34 94.18 410.41 94.18 450.33 134.23 450.33 87.9 438.9 76.47 365.98 76.47"/>
      <path d="M530.49,58.75l-35.13-35.13h-8.06l-6.69,6.69v26.24h22.15l5.33,5.33h-27.49v14.51h-33.36l9,9v8.77h141.17l-35.43-35.43h-31.52Z"/>
      <path d="M474.57,27.26c3.65-3.65,5.7-5.7,9.35-9.35h91.46c-6.94-6.94-10.83-10.83-17.77-17.77h-83.04v-.14l-35.01,35.03h-23.73c-13.87,13.87-21.65,21.65-35.52,35.52h94.26V27.26Z"/>
      <polygon points="89.16 52.85 115.1 26.9 115.1 23.64 40.58 23.64 0 64.22 0 110.55 57.64 52.85 89.16 52.85"/>
      <polygon points="244.69 64.97 256.18 76.47 183.26 76.47 171.82 87.9 171.82 134.23 211.75 94.18 278.81 94.18 308.02 64.97 304.76 64.97 244.69 64.97"/>
      <path d="M141.55,76.41v-14.51h-27.49l5.33-5.33h22.16v-26.24c-2.61-2.61-4.09-4.09-6.69-6.69h-8.06l-35.13,35.13h-31.52l-35.43,35.43h141.17v-8.77l9-9h-33.35Z"/>
      <path d="M147.58,27.26v43.28h94.26c-13.87-13.87-21.65-21.65-35.52-35.52h-23.73L147.58,0v.14h-83.04c-6.94,6.94-10.83,10.83-17.77,17.77h91.46c3.65,3.65,5.7,5.7,9.35,9.35Z"/>
    </g>
  </g>
</svg>