<?xml version="1.0" encoding="UTF-8"?>
<svg id="Layer_2" data-name="Layer 2" xmlns="http://www.w3.org/2000/svg" viewBox="0 0 567.61 148.55">
  <g id="_Слой_1" data-name="Слой 1">
    <g>
      <g>
        <polygon points="137.69 114.12 137.67 114.14 121.52 97.98 121.54 97.96 137.69 114.12"/>
        <path d="M60.77,86.22l-31,31h32.68l54.1-54.1H40.5l-7.83-7.83,31.44-31.4c6.06,0,7.77,0,13.82,0l5.03,5.03h30l-13.73-13.73L84.05,0h-28.8L0,55.29l30.93,30.93h29.84Z"/>
        <polygon points="210.32 62.13 210.32 61.81 165.7 61.81 189.12 85.23 210.32 85.23 210.32 62.13"/>
        <polygon points="281.33 61.97 243.55 61.97 243.55 85.07 258.22 85.07 258.22 126.74 238.61 126.74 238.61 33.78 162.75 33.78 162.75 33.87 137.65 33.87 161.67 57.89 215.51 57.78 215.51 126.74 197.62 126.74 210.59 113.77 130.6 33.78 126.71 33.78 126.71 33.74 61.32 33.74 39.73 55.34 42.55 58.16 53.01 58.16 53.04 58.08 122.23 58.08 177.91 113.77 143.13 148.55 281.33 148.55 281.33 61.97"/>
        <path d="M170.86,113.62l-35.59,34.93h-55.11c8.12-8.13,13.19-13.2,20.43-20.43v-.05l9.09-9.09,11.78,11.78,16.42-16.41-.22-.22.02-.02-16.15-16.15-.02.02-16.41,16.42-34.16,34.15h-13.65c-9.01-9-17.47-17.24-26.48-26.25h33.69l57.52-57.51,48.83,48.83Z"/>
      </g>
      <g>
        <polygon points="429.92 114.12 429.94 114.14 446.09 97.98 446.07 97.96 429.92 114.12"/>
        <path d="M506.84,86.22l31,31h-32.68s-54.1-54.1-54.1-54.1h76.05s7.83-7.83,7.83-7.83l-31.44-31.4c-6.06,0-7.77,0-13.82,0l-5.03,5.03h-30s13.73-13.73,13.73-13.73L483.56,0h28.8s55.24,55.29,55.24,55.29l-30.93,30.93h-29.84Z"/>
        <polygon points="357.29 62.13 357.29 61.81 401.91 61.81 378.48 85.23 357.29 85.23 357.29 62.13"/>
        <polygon points="286.28 61.97 324.06 61.97 324.06 85.07 309.39 85.07 309.39 126.74 329 126.74 329 33.78 404.86 33.78 404.86 33.87 429.96 33.87 405.93 57.89 352.1 57.78 352.1 126.74 369.99 126.74 357.02 113.77 437.01 33.78 440.9 33.78 440.9 33.74 506.29 33.74 527.88 55.34 525.06 58.16 514.6 58.16 514.57 58.08 445.38 58.08 389.69 113.77 424.48 148.55 286.28 148.55 286.28 61.97"/>
        <path d="M396.75,113.62l35.59,34.93h55.11c-8.12-8.13-13.19-13.2-20.43-20.43v-.05l-9.09-9.09-11.78,11.78-16.42-16.41.22-.22-.02-.02,16.15-16.15.02.02,16.41,16.42,34.16,34.15h13.65c9.01-9,17.47-17.24,26.48-26.25h-33.69s-57.52-57.51-57.52-57.51l-48.83,48.83Z"/>
      </g>
    </g>
  </g>
</svg>