<?xml version="1.0" encoding="UTF-8"?>
<svg id="Layer_2" data-name="Layer 2" xmlns="http://www.w3.org/2000/svg" viewBox="0 0 582.15 142.5">
  <g id="_Слой_1" data-name="Слой 1">
    <g>
      <polygon points="294.13 142.5 370.15 142.5 370.15 142.5 390.67 121.98 447.72 121.98 447.72 95.01 294.13 95.01 294.13 142.5"/>
      <polygon points="562.92 .01 562.86 72.42 518.18 115.44 480.33 115.44 480.33 95.26 506.78 95.26 506.78 43.74 462.99 0 445.53 0 445.53 26.9 451.76 26.9 452.32 27.51 479.72 54.86 479.77 54.91 479.77 62.45 417.9 62.45 417.9 89.42 479.77 89.42 479.77 95.26 453.32 95.26 453.32 142.4 529.35 142.4 543.52 128.22 562.92 108.6 562.92 142.4 582.15 142.4 582.15 .01 562.92 .01"/>
      <path d="M390.78,89.45v-26.18c0-.45.39-.83.83-.83h26.18v-17.79l17.79-17.79h4.39V.02h-15.73l-33.46,33.46v28.73L328.64.02h-35.07v41.29l48.13,48.13h49.08Z"/>
      <polygon points="0 142.5 76.02 142.5 96.53 121.98 153.59 121.98 153.59 95.01 0 95.01 0 142.5"/>
      <polygon points="268.73 72.42 224.05 115.44 186.2 115.44 186.2 95.26 212.65 95.26 212.65 43.74 168.86 0 151.4 0 151.4 26.9 157.63 26.9 158.19 27.51 185.59 54.86 185.64 54.91 185.64 62.45 123.77 62.45 123.77 89.42 185.64 89.42 185.64 95.26 159.19 95.26 159.19 142.4 235.22 142.4 249.39 128.22 268.79 108.6 268.79 142.4 288.02 142.4 288.02 .01 268.79 .01 268.73 72.42"/>
      <path d="M96.65,89.45v-26.18c0-.45.39-.83.83-.83h26.18v-17.79l17.79-17.79h4.39V.02h-15.73l-33.46,33.46v28.73L34.46.02H0v41.85l47.58,47.58h49.08Z"/>
    </g>
  </g>
</svg>