<?xml version="1.0" encoding="UTF-8"?>
<svg id="Layer_2" data-name="Layer 2" xmlns="http://www.w3.org/2000/svg" viewBox="0 0 673.9 119.25">
  <g id="_Слой_1" data-name="Слой 1">
    <g>
      <polygon points="267.13 27.61 267.13 0 212.79 0 212.7 .08 206.16 .08 206.25 0 189.27 0 109.24 80.05 85.78 80.05 46.63 119.19 70.1 119.19 70.04 119.25 86.99 119.25 194.16 12.09 200.7 12.09 127.72 85.07 166.79 85.07 224.22 27.61 267.13 27.61"/>
      <polygon points="106.44 75.07 106.44 75.07 107.39 75.07 182.47 0 181.51 0 165.5 0 165.49 0 118.03 47.46 111.77 47.46 159.24 0 119.25 0 0 119.25 39.81 119.25 83.99 75.07 106.44 75.07"/>
      <polygon points="588.12 80.05 564.66 80.05 484.63 0 467.65 0 467.73 .08 461.19 .08 461.11 0 406.77 0 406.77 27.61 449.68 27.61 507.11 85.07 546.18 85.07 473.19 12.09 479.73 12.09 586.9 119.25 603.85 119.25 603.79 119.19 627.26 119.19 588.12 80.05"/>
      <polygon points="350.94 32.42 350.94 27.69 402.05 27.69 402.05 .08 350.56 .08 323.33 .08 271.85 .08 271.85 27.69 322.95 27.69 322.95 32.42 226.22 32.42 173.57 85.07 212.61 85.07 253.21 44.56 420.69 44.48 461.28 85.07 500.32 85.07 447.67 32.42 350.94 32.42"/>
      <polygon points="554.64 0 514.66 0 562.12 47.46 555.87 47.46 508.41 0 508.39 0 492.38 0 491.43 0 566.5 75.07 567.46 75.07 567.46 75.07 589.91 75.07 634.08 119.25 673.9 119.25 554.64 0"/>
    </g>
  </g>
</svg>