<?xml version="1.0" encoding="UTF-8"?>
<svg id="Layer_2" data-name="Layer 2" xmlns="http://www.w3.org/2000/svg" viewBox="0 0 922.79 129.99">
  <g id="_Слой_1" data-name="Слой 1">
    <g>
      <path d="M283.52,38.52h-20.57v42.87L181.56,0l.31,29.33h-20.33v28.89L115.5,12.18H0v38.61l41.42,41.39h89.74l37.79,37.8h8.45v.02h106.12v-2.19h0V38.52ZM197.1,127.8l38.16-38.16-14.54-14.54-34.3,34.3h-8.94L105.47,37.4h-29.09l52.58,52.58h-60.68l-13.33-13.33L20.57,42.27v-9.52h86.41l72.64,72.14h2.49V29.64l98.16,98.16h-83.17Z"/>
      <path d="M332.75,105.06V33.58c-6.29,6.29-12.61,12.61-20.57,20.57v50.92h20.57Z"/>
      <polygon points="222.62 34.52 312.18 34.52 312.18 48.13 347.72 12.59 199.92 12.59 222.01 34.68 222.62 34.52"/>
      <path d="M807.3,12.18l-46.04,46.04v-28.89h-20.33l.31-29.33-81.4,81.4v-42.87h-20.57v89.28h0v2.19h106.12v-.02h8.45l37.79-37.8h89.74l41.42-41.39V12.18h-115.5ZM902.23,42.27l-34.39,34.39-13.33,13.33h-60.68l52.58-52.58h-29.09l-72,72h-8.94l-34.3-34.3-14.54,14.54,38.16,38.16h-83.17l98.16-98.16v75.24h2.49s72.64-72.13,72.64-72.13h86.41v9.52Z"/>
      <path d="M614.64,109.4h-30.41l-76.08-76.08h81.93c.08.08-12.87-12.87-20.91-20.91h-215.57c-8.04,8.04-20.99,20.99-20.91,20.91h81.93l-76.08,76.08h-30.41V38.62h-20.57v91.35h59.5s0,0,0,0h112.34v-1.1h0V23.69c-6.29,6.29-12.61,12.61-20.57,20.57v83.52h-89.58L461.4,15.65l112.13,112.13h-89.58V44.26c-7.96-7.96-14.28-14.28-20.57-20.57v105.18h0v1.1h112.34s0,0,0,0h59.49V38.62h-20.57v70.78Z"/>
      <path d="M590.04,105.06h20.57v-50.92c-7.96-7.96-14.28-14.28-20.57-20.57v71.48Z"/>
      <polygon points="610.61 34.52 700.18 34.52 700.79 34.68 722.88 12.59 575.07 12.59 610.61 48.13 610.61 34.52"/>
    </g>
  </g>
</svg>