<?xml version="1.0" encoding="UTF-8"?>
<svg id="Layer_2" data-name="Layer 2" xmlns="http://www.w3.org/2000/svg" viewBox="0 0 642.57 180.6">
  <g id="_Слой_1" data-name="Слой 1">
    <g>
      <g>
        <path d="M6.11,144.84l26.28-26.28c4.93-4.93,11.49-7.65,18.47-7.65h39.22v20.67h-39.22c-1.46,0-2.83.57-3.86,1.6l-26.28,26.28c-.06.07-.09.1-.09.1.02,0,.06.08.1.14.02,0,.05,0,.09,0h141.27s16.68-15.89,16.68-15.89l7.93,8.01v13.54s-9.27,9.27-15.02,15.01H21.31c-7.97,0-15.47-4.29-19.06-11.4-4.1-8.13-2.49-17.77,3.85-24.12Z"/>
        <path d="M114.61,65.55c-1.86,1.86-2.89,4.33-2.89,6.97,0,2.63,1.02,5.11,2.89,6.97,8.89,8.89,11.43,21.64,6.62,33.26-4.81,11.62-15.62,18.84-28.2,18.84v-20.67c6.11,0,8.51-4.66,9.1-6.08.59-1.43,2.18-6.42-2.14-10.74-5.76-5.76-8.94-13.43-8.94-21.58s3.17-15.82,8.94-21.58l42.84-42.84,14.61,14.61-42.84,42.84Z"/>
        <path d="M144.99,68.23l26.69-26.69c1.14-1.14,1.76-2.64,1.76-4.25,0-1.61-.63-3.12-1.76-4.25l-.09-.09-12.01-12.31-14.67-14.58c8.08-8.08,21.24-8.08,29.32,0l.09.09,12.03,12.32c5.01,5.03,7.76,11.71,7.76,18.81,0,7.13-2.77,13.82-7.81,18.86l-26.69,26.69c-2.34,2.34-2.34,6.16,0,8.5l50.73,50.73v38.53h-20.67v-29.97s-44.68-44.68-44.68-44.68c-10.4-10.4-10.4-27.33,0-37.73Z"/>
        <path d="M282,115.52c2.85,2.85,6.65,4.42,10.68,4.42h27.13v20.67h-27.13c-9.56,0-18.54-3.72-25.29-10.48l-20.61-20.61,14.61-14.61,20.61,20.61Z"/>
        <path d="M218.82,81.58c-3.09-3.09-8.11-3.09-11.19,0l-26.78,26.78-14.61-14.61,26.78-26.78c11.14-11.14,29.28-11.14,40.42,0l9.21,9.21-14.61,14.61-9.21-9.21Z"/>
        <polygon points="266.41 56.36 319.81 56.36 319.81 77.03 274.97 77.03 212.19 139.81 197.58 125.19 266.41 56.36"/>
      </g>
      <g>
        <path d="M636.47,144.84l-26.28-26.28c-4.93-4.93-11.49-7.65-18.47-7.65h-39.22v20.67h39.22c1.46,0,2.83.57,3.86,1.6l26.28,26.28c.06.07.09.1.09.1-.02,0-.06.08-.1.14-.02,0-.05,0-.09,0h-141.27l-16.68-15.89-7.93,8.01v13.54s9.27,9.27,15.02,15.01h150.38c7.97,0,15.47-4.29,19.06-11.4,4.1-8.13,2.49-17.77-3.85-24.12Z"/>
        <path d="M527.96,65.55c1.86,1.86,2.89,4.33,2.89,6.97s-1.02,5.11-2.89,6.97c-8.89,8.89-11.43,21.64-6.62,33.26,4.81,11.62,15.62,18.84,28.2,18.84v-20.67c-6.11,0-8.51-4.66-9.1-6.08-.59-1.43-2.18-6.42,2.14-10.74,5.76-5.76,8.94-13.43,8.94-21.58s-3.17-15.82-8.94-21.58l-42.84-42.84-14.61,14.61,42.84,42.84Z"/>
        <path d="M497.59,68.23l-26.69-26.69c-1.14-1.14-1.76-2.64-1.76-4.25s.63-3.12,1.76-4.25l.09-.09,12.01-12.31,14.67-14.58c-8.08-8.08-21.24-8.08-29.32,0l-.09.09-12.03,12.32c-5.01,5.03-7.76,11.71-7.76,18.81s2.77,13.82,7.81,18.86l26.69,26.69c2.34,2.34,2.34,6.16,0,8.5l-50.73,50.73v38.53h20.67v-29.97l44.68-44.68c10.4-10.4,10.4-27.33,0-37.73Z"/>
        <path d="M360.58,115.52c-2.85,2.85-6.65,4.42-10.68,4.42h-27.13v20.67h27.13c9.56,0,18.54-3.72,25.29-10.48l20.61-20.61-14.61-14.61-20.61,20.61Z"/>
        <path d="M423.75,81.58c3.09-3.09,8.11-3.09,11.19,0l26.78,26.78,14.61-14.61-26.78-26.78c-11.14-11.14-29.28-11.14-40.42,0l-9.21,9.21,14.61,14.61,9.21-9.21Z"/>
        <polygon points="376.16 56.36 322.76 56.36 322.76 77.03 367.6 77.03 430.38 139.81 445 125.19 376.16 56.36"/>
      </g>
    </g>
  </g>
</svg>