<?xml version="1.0" encoding="UTF-8"?>
<svg id="Layer_2" data-name="Layer 2" xmlns="http://www.w3.org/2000/svg" viewBox="0 0 604.51 92.71">
  <g id="_Слой_1" data-name="Слой 1">
    <g>
      <path d="M165.55,40.95h-88.71c-1.21,0-2.37.48-3.23,1.34l-42.62,42.62c-2.88,2.88-.84,7.8,3.23,7.8h89.55c1.23,0,2.4-.49,3.26-1.37l41.78-42.62c2.83-2.89.79-7.77-3.26-7.77Z"/>
      <path d="M186.45,40.93c-1.21,0-2.38.48-3.23,1.34l-42.64,42.64c-2.88,2.88-.84,7.8,3.23,7.8h22.62c1.23,0,2.4-.5,3.27-1.37l44.89-45.84c-.29-1.51-.39-3.02-.39-4.57h-27.75Z"/>
      <path d="M231.87,14.06l-11.8-11.8c-1.31-1.31-3.09-2.05-4.95-2.06L136.58,0c-1.87,0-3.66.74-4.98,2.06l-11.35,11.35c-.86.86-2.02,1.34-3.23,1.34H47.21c-1.21,0-2.37.48-3.23,1.34L1.35,58.67c-2.88,2.88-.84,7.8,3.23,7.8h36.03c1.21,0,2.38-.48,3.23-1.34l27.74-27.74c.86-.86,2.02-1.34,3.23-1.34h58.41c1.21,0,2.38-.48,3.23-1.34l11.63-11.64c.86-.86,2.02-1.34,3.23-1.34h49.26c1.21,0,2.38.48,3.23,1.34l11.17,11.18c2.09-9.1,8.47-16.55,16.89-20.2Z"/>
      <path d="M267.95,40.95c0-13.5-10.94-24.44-24.43-24.44s-24.43,10.94-24.43,24.44,10.94,24.43,24.43,24.43,24.43-10.94,24.43-24.43Z"/>
      <path d="M530.9,42.29c-.86-.86-2.02-1.34-3.23-1.34h-88.71c-4.05,0-6.1,4.88-3.26,7.77l41.78,42.62c.86.88,2.04,1.37,3.26,1.37h89.55c4.07,0,6.11-4.92,3.23-7.8l-42.62-42.62Z"/>
      <path d="M421.28,42.26c-.86-.86-2.02-1.34-3.23-1.34h-27.75c0,1.56-.1,3.07-.39,4.57l44.89,45.84c.86.88,2.04,1.37,3.27,1.37h22.62c4.07,0,6.11-4.92,3.23-7.8l-42.64-42.64Z"/>
      <path d="M603.16,58.67l-42.63-42.59c-.86-.86-2.02-1.34-3.23-1.34h-69.8c-1.21,0-2.37-.48-3.23-1.34l-11.35-11.35C471.59.74,469.8,0,467.93,0l-78.54.2c-1.86,0-3.64.74-4.95,2.06l-11.8,11.8c8.42,3.65,14.8,11.1,16.89,20.2l11.17-11.18c.86-.86,2.02-1.34,3.23-1.34h49.26c1.21,0,2.38.48,3.23,1.34l11.63,11.64c.86.86,2.02,1.34,3.23,1.34h58.41c1.21,0,2.37.48,3.23,1.34l27.74,27.74c.86.86,2.02,1.34,3.23,1.34h36.03c4.07,0,6.11-4.92,3.23-7.8Z"/>
      <path d="M360.99,16.51c-13.5,0-24.43,10.94-24.43,24.44s10.94,24.43,24.43,24.43,24.43-10.94,24.43-24.43-10.94-24.44-24.43-24.44Z"/>
      <path d="M340.28,61.88c-11.54-11.54-11.6-30.25-.12-41.85l15.17-15.34V.12h-28.14c-1.21,0-2.37.48-3.23,1.34-12.18,12.18-31.93,12.18-44.11,0-.86-.86-2.02-1.34-3.23-1.34h-28.13v4.57l16.5,16.68c10.75,10.86,10.7,28.37-.11,39.17l-24.36,24.36c-2.88,2.88-.84,7.8,3.23,7.8h22.62c1.23,0,2.4-.49,3.27-1.37l10.1-10.21c12.21-12.34,32.15-12.34,44.35,0l10.1,10.21c.86.88,2.04,1.37,3.27,1.37h22.62c4.07,0,6.11-4.92,3.23-7.8l-23.02-23.02Z"/>
    </g>
  </g>
</svg>