<?xml version="1.0" encoding="UTF-8"?>
<svg id="Layer_2" data-name="Layer 2" xmlns="http://www.w3.org/2000/svg" viewBox="0 0 354.27 132.31">
  <g id="_Слой_1" data-name="Слой 1">
    <g>
      <polygon points="147.45 102.46 95.43 50.43 89.19 56.67 89.19 69.01 135.05 114.86 159.73 114.86 147.31 102.45 147.45 102.46"/>
      <polygon points="103.75 114.86 95.16 114.86 84.55 104.25 84.45 80.51 84.45 70.53 73.45 81.53 67 81.53 67.1 111.48 87.93 132.31 116.18 132.31 133.56 114.93 133.41 114.93 133.56 114.86 103.75 114.86"/>
      <polygon points="265.08 56.67 258.85 50.43 206.82 102.46 206.96 102.45 194.54 114.86 219.23 114.86 265.08 69.01 265.08 56.67"/>
      <polygon points="269.82 70.53 269.82 80.51 269.73 104.25 259.11 114.86 250.53 114.86 220.71 114.86 220.87 114.93 220.71 114.93 238.09 132.31 266.34 132.31 287.18 111.48 287.27 81.53 280.82 81.53 269.82 70.53"/>
      <path d="M348.07,97.33l-.85-.85v-48.35l-27.69-27.69h-96.85L202.44.2l-.16.16.16-.36h-24.88l12.54,12.54,38.02,38.02h-14.31l-1.87-1.87v-9.3l-19.11-19.11h-10.37l-5.32,5.32-5.32-5.32h-10.37l-19.11,19.11v9.3l-1.87,1.87h-14.31l38.02-38.02,12.54-12.54h-24.88l.16.36-.16-.16-20.24,20.24H34.74L7.05,48.14v48.35l-.85.85H0v17.45h13.43l12.09-12.09v-46.91l16.87-16.87h28.12l6.56-6.56v-9.87s15.7,0,15.7,0l-26.08,26.08v9.3l-1.87,1.87H29.89s0,0,0,0h0v30.31c9.67,9.67,15.29,15.19,24.96,24.86h8.05v-17.45c-6-6-9.56-9.46-15.56-15.45v-4.67h24.59l.22-.22,12.18-12v-.17h.01s-.01-.09-.01-.09v-9.04l16.7-16.87h7.46l6.56-6.56-9.87-9.87h24.37l-28.08,28.08h23.66v17.87l46.43,46.43h0s0,0,0,0h11.13s46.43-46.44,46.43-46.44v-17.87h23.66l-28.08-28.08h24.37l-9.87,9.87,6.56,6.56h7.46l16.7,16.87v9.11s0,.01,0,.01v.17l12.18,12,.22.22h24.59v4.67c-6,6-9.56,9.46-15.56,15.45v17.45h8.05c9.67-9.67,15.29-15.19,24.96-24.86v-30.31h0s-.3,0-.3,0h-34.65l-1.87-1.87v-9.3l-26.08-26.08h15.7v9.87s6.56,6.56,6.56,6.56h28.12l16.87,16.87v46.91l12.09,12.09h13.43v-17.45h-6.2ZM222.6,72.08h-24.84l-20.63,20.63-20.63-20.63h-24.84l-4.07-4.07h20.11l12.09-12.09v-9.3l8.89-8.89h16.92l8.89,8.89v9.3l12.09,12.09h20.11l-4.07,4.07Z"/>
    </g>
  </g>
</svg>