<?xml version="1.0" encoding="UTF-8"?>
<svg id="Layer_2" data-name="Layer 2" xmlns="http://www.w3.org/2000/svg" viewBox="0 0 705.31 116.87">
  <g id="_Слой_1" data-name="Слой 1">
    <g>
      <g>
        <path d="M178.31.09l-.02.02-24.47,24.47h-10.91l-40.72,40.72v32.27l19.22,19.23h-41.7v-.03s0,0,0,0c-4.74-4.75-7.4-7.41-12.15-12.16v-53.66L118.41.11l.02-.02h59.88Z"/>
        <polygon points="256.68 1.23 257.54 .43 257.54 9.66 233.05 34.14 233.05 24.58 213.33 24.58 237.7 .11 237.81 0 257.91 0 256.68 1.23"/>
        <path d="M137.93,82.18l-19.23-19.23c-2.02,0-4.19,0-6.36,0l-4.44,4.44v28.09l21.32,21.32h78.1l13.02-13.01v-48.96l-27.36,27.36h-55.06Z"/>
        <path d="M335,.11l-22.9,22.89h-10.91l-40.72,40.73v32.26l20.88,20.88h-41.7v-.02c-4.75-4.75-9.05-9.05-13.8-13.8v-53.66L275.12.11h59.88Z"/>
        <path d="M110.73.09l-.02.02-24.46,24.47h-10.91l-40.73,40.72v32.27l19.23,19.23H12.15v-.03s0,0,0,0c-4.75-4.75-7.41-7.41-12.15-12.16v-53.66L50.84.11l.02-.02h59.86Z"/>
        <path d="M336.51,116.87l-20.88-20.88v-30.56l11.32-11.32h0l25.59-25.59c-23.38,0-25.58,0-48.96,0l-22.57,22.57v57.47c4.75,4.75,3.53,3.53,8.28,8.28l47.22.03Z"/>
        <polygon points="129.4 49.39 188.76 49.39 213.33 24.81 153.88 24.81 129.4 49.39"/>
      </g>
      <g>
        <path d="M526.99.09l.02.02,24.47,24.47h10.91s40.72,40.72,40.72,40.72v32.27s-19.22,19.23-19.22,19.23h41.7s-.01-.03-.01-.03h.01c4.74-4.75,7.4-7.41,12.15-12.16v-53.66S586.89.11,586.89.11l-.02-.02h-59.88Z"/>
        <polygon points="448.63 1.23 447.76 .43 447.76 9.66 472.25 34.14 472.25 24.58 491.97 24.58 467.6 .11 467.49 0 447.4 0 448.63 1.23"/>
        <path d="M567.37,82.18l19.23-19.23c2.02,0,4.19,0,6.36,0l4.44,4.44v28.09s-21.32,21.32-21.32,21.32h-1.65s-76.45,0-76.45,0l-13.02-13.01v-48.96s27.36,27.36,27.36,27.36h55.06Z"/>
        <path d="M370.31.11l22.9,22.89h10.91s40.72,40.73,40.72,40.73v32.26s-20.88,20.88-20.88,20.88h41.7s0-.02,0-.02c4.75-4.75,9.05-9.05,13.8-13.8v-53.66S430.19.11,430.19.11h-59.88Z"/>
        <path d="M594.58.09l.02.02,24.46,24.47h10.91s40.73,40.72,40.73,40.72v32.27s-19.23,19.23-19.23,19.23h41.7s-.01-.03-.01-.03h.01c4.75-4.75,7.41-7.41,12.15-12.16v-53.66S654.46.11,654.46.11l-.02-.02h-59.86Z"/>
        <path d="M368.8,116.87l20.88-20.88v-30.56s-11.32-11.32-11.32-11.32h0l-25.59-25.59c23.38,0,25.58,0,48.96,0l22.57,22.57v57.47c-4.75,4.75-3.53,3.53-8.28,8.28l-47.22.03Z"/>
        <polygon points="575.91 49.39 516.55 49.39 491.98 24.81 551.43 24.81 575.91 49.39"/>
      </g>
    </g>
  </g>
</svg>