<?xml version="1.0" encoding="UTF-8"?>
<svg id="Layer_2" data-name="Layer 2" xmlns="http://www.w3.org/2000/svg" viewBox="0 0 576.24 140.81">
  <g id="_Слой_1" data-name="Слой 1">
    <g>
      <path d="M209.68,16.9c-3.5-8.45-11.66-13.9-20.86-13.9-6.01,0-11.67,2.34-15.92,6.6l-22.98,22.98,13.26,13.26,22.97-22.98c.7-.7,1.68-1.11,2.73-1.11,2.19,0,3.12,1.46,3.48,2.33.36.87.73,2.56-.82,4.11l-25.48,25.48v64.22h18.75v-56.45l19.99-19.99c6.46-6.46,8.38-16.09,4.88-24.54Z"/>
      <path d="M40.44,105.66l-15.31,15.31c-.7.7-1.66,1.09-2.64,1.09-2.17,0-3.09-1.44-3.45-2.3-.36-.86-.73-2.53.81-4.07L115.79,19.76c.65-.65,1.52-1.01,2.44-1.01,2,0,2.86,1.33,3.19,2.13.33.8.67,2.34-.75,3.76l-31.37,31.37c-6.46,6.46-8.38,16.09-4.88,24.54,3.5,8.45,11.66,13.9,20.81,13.9,6.01,0,11.67-2.34,15.92-6.6l36.95-36.95-13.26-13.26-36.95,36.95c-.7.7-1.68,1.11-2.67,1.11-2.19,0-3.12-1.46-3.48-2.33-.36-.87-.73-2.56.82-4.11l31.37-31.37c6.37-6.37,8.26-15.87,4.81-24.19-3.45-8.32-11.5-13.7-20.51-13.7-5.93,0-11.51,2.31-15.7,6.5L6.59,102.44C.14,108.89-1.77,118.51,1.72,126.94c3.49,8.43,11.64,13.88,20.77,13.88,6,0,11.65-2.34,15.89-6.58l15.31-15.31c.63-.63,1.47-.98,2.36-.98h102.8v-18.75H56.05c-5.9,0-11.44,2.3-15.61,6.47Z"/>
      <path d="M210.57,99.98c5.73,0,11.46-2.18,15.83-6.55l9.64-9.64c.68-.68,1.61-1.07,2.57-1.07h19.95v-18.75h-19.95c-5.94,0-11.63,2.36-15.83,6.56l-9.51,9.51c-1.28,1.28-3.34,1.6-4.81.54-1.87-1.35-2.03-3.98-.47-5.54l59.03-59.03,12.41-12.41c-10.35,0-16.16,0-26.51,0l-57.66,57.66c-4.12,4.12-6.81,9.56-7.05,15.38-.27,6.34,2.08,12.34,6.54,16.8,4.36,4.36,10.1,6.54,15.83,6.54Z"/>
      <path d="M258.07,99.19h-26.85c-5.57,5.34-12.9,8.29-20.66,8.29-6.54,0-12.77-2.08-17.9-5.94v16.35h73.3c-.08-.06-.13-.11-.21-.19-4.93-4.93-7.67-11.51-7.69-18.5Z"/>
      <path d="M387.37,21.74c1.05,0,2.02.4,2.73,1.11l22.97,22.98,13.26-13.26-22.98-22.98c-4.26-4.25-9.91-6.6-15.92-6.6-9.2,0-17.37,5.46-20.86,13.9-3.5,8.45-1.58,18.08,4.88,24.54l19.99,19.99v56.45h18.75V53.66l-25.48-25.48c-1.55-1.55-1.18-3.24-.82-4.11.36-.87,1.29-2.33,3.48-2.33Z"/>
      <path d="M569.65,102.44L473.71,6.5c-4.19-4.19-9.77-6.5-15.7-6.5-9.01,0-17.06,5.38-20.51,13.7-3.45,8.32-1.56,17.82,4.81,24.19l31.37,31.37c1.55,1.55,1.18,3.24.82,4.11-.36.87-1.29,2.33-3.48,2.33-.99,0-1.96-.4-2.67-1.11l-36.95-36.95-13.26,13.26,36.95,36.95c4.26,4.26,9.91,6.6,15.92,6.6,9.14,0,17.31-5.46,20.81-13.9,3.5-8.45,1.58-18.08-4.88-24.54l-31.37-31.37c-1.42-1.42-1.08-2.96-.75-3.76.33-.79,1.18-2.13,3.19-2.13.92,0,1.79.36,2.44,1.01l95.94,95.94c1.53,1.53,1.16,3.21.81,4.07-.36.86-1.28,2.3-3.45,2.3-.98,0-1.94-.4-2.64-1.09l-15.31-15.31c-4.17-4.17-9.71-6.47-15.61-6.47h-102.8v18.75h102.8c.89,0,1.73.35,2.36.98l15.31,15.31c4.25,4.25,9.89,6.58,15.89,6.58,9.12,0,17.28-5.45,20.77-13.88,3.49-8.43,1.58-18.04-4.87-24.5Z"/>
      <path d="M323.33,3.6c-10.35,0-16.16,0-26.51,0l12.41,12.41,59.03,59.03c1.56,1.56,1.4,4.2-.47,5.54-1.47,1.06-3.53.74-4.81-.54l-9.51-9.51c-4.2-4.2-9.89-6.56-15.83-6.56h-19.95v18.75h19.95c.96,0,1.89.38,2.57,1.07l9.64,9.64c4.36,4.36,10.1,6.55,15.83,6.55s11.46-2.18,15.83-6.54c4.46-4.46,6.8-10.46,6.54-16.8-.24-5.81-2.94-11.26-7.05-15.38L323.33,3.6Z"/>
      <path d="M345.03,99.19h-26.85c-.02,7.31-3.04,13.93-7.91,18.69h73.32v-16.35c-5.14,3.86-11.36,5.94-17.9,5.94-7.76,0-15.09-2.94-20.66-8.29Z"/>
      <path d="M310.67,90.23h0v-33.75h0v-28.42l-18.75-18.75v89.88h-7.6V9.31l-18.75,18.75v71.07c0,10.35,8.39,18.75,18.75,18.75h0s7.6,0,7.6,0h0c10.35,0,18.75-8.39,18.75-18.75v-8.91Z"/>
    </g>
  </g>
</svg>