<?xml version="1.0" encoding="UTF-8"?>
<svg id="Layer_2" data-name="Layer 2" xmlns="http://www.w3.org/2000/svg" viewBox="0 0 575.52 131.97">
  <g id="_Слой_1" data-name="Слой 1">
    <g>
      <path d="M159.18,0c-9.72,0-19.04,3.86-25.91,10.73L58.27,85.73c-6.14,6.14-14.48,9.6-23.17,9.6h0c-8.69,0-17.02-3.45-23.16-9.6L0,73.79v21.54c0,20.24,16.41,36.64,36.64,36.64h27.21L195.83,0h-36.65Z"/>
      <path d="M366.73,36.92c-20.24,0-31.59,0-51.83,0l-51.26,51.26c-4.58,4.58-10.79,7.15-17.27,7.15h-19.56c-14.31,14.31-22.33,22.33-36.64,36.64h62.62c12.08,0,23.67-4.8,32.21-13.34l81.72-81.71Z"/>
      <path d="M314.72,36.76c-14.31-14.31-22.33-22.33-36.64-36.64h-15.65l-131.68,131.67c20.24,0,31.58,0,51.82,0l95.04-95.03h37.11Z"/>
      <path d="M217.97.11c-9.72,0-19.04,3.86-25.91,10.73l-120.94,120.94h0c20.24,0,31.58,0,51.82,0L254.37.36l-36.4-.25Z"/>
      <path d="M523.7,36.92l-58.41,58.41h-29.67c-14.31,14.31-22.33,22.33-36.64,36.64h62.62c12.08,0,23.67-4.8,32.21-13.34l81.71-81.71c-20.24,0-31.59,0-51.83,0Z"/>
      <path d="M523.51,36.76c-14.31-14.31-22.33-22.33-36.64-36.64h-15.65l-131.68,131.67c20.24,0,31.58,0,51.82,0l95.04-95.03h37.11Z"/>
      <path d="M426.77.11c-9.72,0-19.04,3.86-25.91,10.73l-120.94,120.94h0c20.24,0,31.58,0,51.82,0L463.17.36l-36.4-.25Z"/>
    </g>
  </g>
</svg>