<?xml version="1.0" encoding="UTF-8"?>
<svg id="Layer_2" data-name="Layer 2" xmlns="http://www.w3.org/2000/svg" viewBox="0 0 555.91 129.88">
  <g id="_Слой_1" data-name="Слой 1">
    <g>
      <path d="M554.44,101l-55.57-55.57h-31.41l.09.09h-29.36c-2.7,0-4.05-3.26-2.14-5.17,3.14-3.14.92-8.51-3.52-8.51h-20.28c-1.33,0-2.6.53-3.54,1.47l-11.5,11.58c-3.84,3.87-3.84,10.11,0,13.97,4.53,4.54,10.2,10.23,13.57,13.59,1.86,1.86,4.37,2.89,6.99,2.89h79.6l4.37,4.37h-44.57l29.8,29.8h63.94c4.44,0,6.66-5.37,3.52-8.51Z"/>
      <path d="M325.66,69.32c-2.21,2.21-.65,6,2.48,6h32.46l46.99-46.99c2.5-2.5.73-6.78-2.81-6.78h-31.34l-47.78,47.78Z"/>
      <path d="M433.94,79.71h-54.03c-9.94,9.94-21.41,21.41-34.59,34.59-2.21,2.21-.64,5.99,2.49,5.99h43.52c1.3,0,2.55-.51,3.47-1.43,4.84-4.84,2.14-2.14,9.35-9.35h76.68c-11.64-11.64-18.16-18.16-29.8-29.8h-17.08Z"/>
      <path d="M364.94,85.89c0-3.42-2.77-6.18-6.18-6.18h-31.4c-6.77,0-10.16-8.19-5.37-12.97l58.23-58.23c3.14-3.14.92-8.51-3.53-8.51h-37.45c-1.32,0-2.59.52-3.52,1.46l-68.09,68.09c-1.37,1.37-1.37,3.59,0,4.97l25.34,25.34c2.87,2.88,2.88,7.54,0,10.41l-13.6,13.62c-2.21,2.21-.64,6,2.49,5.99l38.06-.03c1.95,0,3.79-.75,5.18-2.11,7.31-7.2,31.17-30.71,38-37.44,1.18-1.16,1.84-2.75,1.84-4.4Z"/>
      <path d="M287.84,101l-55.57-55.57h-31.41l.09.09h-29.36c-2.7,0-4.05-3.26-2.14-5.17h0c3.14-3.14.92-8.51-3.52-8.51h-20.28c-1.33,0-2.6.53-3.54,1.47l-11.5,11.58c-3.84,3.87-3.84,10.11,0,13.97,4.53,4.54,10.21,10.23,13.57,13.59,1.86,1.86,4.37,2.89,7,2.89h79.6l4.37,4.37h-44.57l29.8,29.8h63.94c4.44,0,6.66-5.37,3.52-8.51Z"/>
      <path d="M59.05,69.32c-2.21,2.21-.65,6,2.48,6h32.46l46.99-46.99c2.5-2.5.73-6.78-2.81-6.78h-31.34l-47.78,47.78Z"/>
      <path d="M167.34,79.71h-54.03c-9.94,9.94-21.41,21.41-34.59,34.59-2.21,2.21-.64,5.99,2.49,5.99h43.52c1.31,0,2.55-.51,3.47-1.43,4.84-4.84,2.14-2.14,9.35-9.35h76.68c-11.64-11.64-18.16-18.16-29.8-29.8h-17.08Z"/>
      <path d="M98.34,85.89c0-3.42-2.77-6.18-6.18-6.18h-31.4c-6.77,0-10.16-8.19-5.37-12.97L113.61,8.51c3.14-3.14.92-8.51-3.52-8.51h-37.45c-1.32,0-2.59.52-3.53,1.46L1.03,69.55c-1.37,1.37-1.37,3.59,0,4.97l25.34,25.34c2.88,2.88,2.88,7.54,0,10.41l-13.6,13.62c-2.21,2.21-.64,6,2.49,5.99l38.06-.03c1.95,0,3.79-.75,5.18-2.11,7.31-7.2,31.17-30.71,38-37.44,1.18-1.16,1.84-2.75,1.84-4.4Z"/>
    </g>
  </g>
</svg>