<?xml version="1.0" encoding="UTF-8"?>
<svg id="Layer_2" data-name="Layer 2" xmlns="http://www.w3.org/2000/svg" viewBox="0 0 436.58 119.93">
  <g id="_Слой_1" data-name="Слой 1">
    <g>
      <g>
        <path d="M.42,57.25l17.84-17.84c12.28-12.28,30.35-15.25,45.44-8.91l7.11,7.1,41.09.02-4.04-4.04h.01s-22.98-22.98-22.98-22.98C65.43-6.9,34.46-2.21,21.21,20.8L.24,57.25h-.24l.15.15-.15.27.21-.21,62.45,62.45,42.53.02-62.68-62.68H.42Z"/>
        <polygon points="82.19 60.92 147.63 60.94 155.19 53.49 74.75 53.49 82.19 60.92"/>
        <polygon points="82.11 49.2 216.63 49.22 209.17 41.76 74.67 41.76 82.11 49.2"/>
        <circle cx="201.59" cy="104.81" r="15.12"/>
        <path d="M104.53,22.3c0-10.6,8.63-19.23,19.23-19.23.65,0,1.29.03,1.92.1l-3.03-3.03h-42.51l24.55,24.55c-.1-.78-.15-1.57-.15-2.38Z"/>
        <path d="M136.03,37.86h24.77s-17.25-17.24-17.25-17.24c.06.63.1,1.27.1,1.92,0,6.24-2.99,11.8-7.62,15.31Z"/>
        <circle cx="123.93" cy="22.3" r="15.12"/>
        <path d="M201.59,85.58c.42,0,.84.02,1.25.05l-12.76-12.76c-19.46-17.51-50.43-12.82-63.67,10.2l-21.21,36.87,18.26-18.26c.35-.35.7-.68,1.05-1.01,15.27-14.25,39.25-13.37,54.02,1.4l3.87,3.87c-.02-.37-.03-.74-.03-1.12,0-10.6,8.63-19.23,19.23-19.23Z"/>
      </g>
      <g>
        <path d="M436.16,57.25l-17.84-17.84c-12.28-12.28-30.35-15.25-45.44-8.91l-7.11,7.1-41.09.02,4.04-4.04h-.01s22.98-22.98,22.98-22.98c19.46-17.51,50.43-12.82,63.67,10.2l20.97,36.45h.24l-.15.15.15.27-.21-.21-62.45,62.45-42.53.02,62.68-62.68h42.09Z"/>
        <polygon points="354.39 60.92 288.95 60.94 281.39 53.49 361.83 53.49 354.39 60.92"/>
        <polygon points="354.48 49.2 219.95 49.22 227.41 41.76 361.91 41.76 354.48 49.2"/>
        <circle cx="234.99" cy="104.81" r="15.12"/>
        <path d="M332.05,22.3c0-10.6-8.63-19.23-19.23-19.23-.65,0-1.29.03-1.92.1l3.03-3.03h42.51s-24.55,24.55-24.55,24.55c.1-.78.15-1.57.15-2.38Z"/>
        <path d="M300.56,37.86h-24.77s17.25-17.24,17.25-17.24c-.06.63-.1,1.27-.1,1.92,0,6.24,2.99,11.8,7.62,15.31Z"/>
        <circle cx="312.66" cy="22.3" r="15.12"/>
        <path d="M234.99,85.58c-.42,0-.84.02-1.25.05l12.76-12.76c19.46-17.51,50.43-12.82,63.67,10.2l21.21,36.87-18.26-18.26c-.35-.35-.7-.68-1.05-1.01-15.27-14.25-39.25-13.37-54.02,1.4l-3.87,3.87c.02-.37.03-.74.03-1.12,0-10.6-8.63-19.23-19.23-19.23Z"/>
      </g>
    </g>
  </g>
</svg>