<?xml version="1.0" encoding="UTF-8"?>
<svg id="Layer_2" data-name="Layer 2" xmlns="http://www.w3.org/2000/svg" viewBox="0 0 694.71 129.83">
  <g id="_Слой_1" data-name="Слой 1">
    <g>
      <path d="M272.1,65.18h-38.77l-56.14,56.14c-2.99,2.99-.87,8.1,3.36,8.1h37.44l57.08-57.08c2.64-2.64.77-7.16-2.97-7.16Z"/>
      <path d="M197.88,93.21c-.1-.2-.25-.41-.41-.56l-27.54-27.49h-100l-5.22-5.22h53.25l-35.6-35.6H5.97c-5.31,0-7.96,6.41-4.21,10.17l66.39,66.39h37.52l-.1-.1h43.81l-18.88,18.88c-3.75,3.75-1.1,10.17,4.21,10.17h24.23c1.58,0,3.09-.63,4.21-1.74l34.88-34.88h-.15Z"/>
      <path d="M145.71,59.93h64.55c11.87-11.87,36.99-36.99,52.73-52.73,2.64-2.64.76-7.16-2.97-7.16h-51.99c-1.56,0-3.04.6-4.14,1.71-5.78,5.78-13.97,13.97-22.58,22.58h-91.6c13.9,13.9,21.7,21.7,35.6,35.6h20.4Z"/>
      <path d="M365.21,44.06v-25.53c-6.97-6.97-10.88-10.88-17.86-17.86-6.97,6.97-10.88,10.88-17.86,17.86v25.53c6.97,6.97,10.88,10.88,17.86,17.86,6.97-6.97,10.88-10.88,17.86-17.86Z"/>
      <path d="M324.3,46.04v-29.66l9.19-9.22c2.64-2.65.76-7.16-2.97-7.16h-52.23v.04s0,0,0-.01l-50.14,49.43v10.48h44.9c8.09,0,12.14,9.78,6.42,15.5l-44.13,44.13c-3.75,3.75-1.1,10.17,4.21,10.17h44.73c1.58,0,3.09-.63,4.21-1.74l55.91-55.91c1.64-1.64,1.64-4.29,0-5.93l-20.09-20.1Z"/>
      <path d="M688.75,24.33h-76.39l-35.6,35.6h53.25l-5.22,5.22h-100l-27.54,27.49c-.16.16-.31.36-.42.57l.25.25h-.12l34.62,34.62c1.12,1.12,2.63,1.74,4.21,1.74h24.23c5.31,0,7.96-6.41,4.21-10.17l-18.88-18.88h43.81l-.1.1h37.52l66.39-66.39c3.75-3.75,1.1-10.17-4.21-10.17Z"/>
      <path d="M461.38,65.18h-38.77c-3.74,0-5.61,4.52-2.97,7.16l57.08,57.08h37.44c4.23,0,6.35-5.11,3.36-8.1l-56.14-56.14Z"/>
      <path d="M484.45,59.93h84.96c13.9-13.9,21.7-21.7,35.6-35.6h-91.6c-8.61-8.61-16.8-16.8-22.58-22.58-1.1-1.1-2.58-1.71-4.14-1.71h-51.99c-3.74,0-5.62,4.51-2.97,7.16,15.75,15.75,40.87,40.86,52.73,52.73Z"/>
      <path d="M415.26,75.43c-5.72-5.72-1.67-15.5,6.42-15.5h44.9v-10.48L416.44.02s-.01,0-.02.01v-.04s-52.23,0-52.23,0c-3.73,0-5.61,4.51-2.97,7.16l9.19,9.22v29.66l-20.09,20.1c-1.64,1.64-1.64,4.29,0,5.93l55.91,55.91c1.12,1.12,2.63,1.74,4.21,1.74h44.74c5.31,0,7.96-6.42,4.21-10.17l-44.13-44.13Z"/>
    </g>
  </g>
</svg>