<?xml version="1.0" encoding="UTF-8"?>
<svg id="Layer_2" data-name="Layer 2" xmlns="http://www.w3.org/2000/svg" viewBox="0 0 706.19 178.86">
  <g id="_Слой_1" data-name="Слой 1">
    <g>
      <polygon points="591.59 59.84 591.59 35.01 577.14 35.01 528.73 83.37 528.73 85.11 562.09 85.11 574.4 85.11 568.25 78.96 587.42 59.84 591.59 59.84"/>
      <path d="M596.54,35v24.83h49.7l-30.25,30.25h-94.04c-3.74,3.74-5.84,5.84-9.59,9.59v21.24c6.85,6.85,10.69,10.69,17.53,17.53h72.84l103.45-103.45h-109.64Z"/>
      <path d="M404.35,75.38c6.66-6.66,10.39-10.39,17.05-17.05h26.33c13.08-13.08,20.42-20.42,33.5-33.5h.08V0h-41.34c-2.36,2.36-3.69,3.68-6.05,6.05v12.74c-2.36,2.36-3.68,3.69-6.05,6.05h-51.82c-8,8-12.48,12.48-20.48,20.48v61.21l53.58,53.58h35.11l-39.92-39.91v-44.8Z"/>
      <path d="M531.71,143.41v10.63h-16.17l-41.14-41.17h33.02v-15.29c4.87-4.87,7.6-7.6,12.46-12.46L605,0h-118.53v24.83h42.26v16.34l-22.2,22.19h-83.22c-5.55,5.55-8.66,8.66-14.21,14.21v40.02l61.23,61.28h75.59c4.14-4.14,6.47-6.47,10.61-10.61v-14.94l9.91-9.91h-34.73Z"/>
      <polygon points="144.09 85.11 177.46 85.11 177.46 83.37 129.04 35.01 114.59 35.01 114.59 59.84 118.77 59.84 137.93 78.96 131.78 85.11 144.09 85.11"/>
      <path d="M193.82,120.92v-21.24c-3.74-3.74-5.84-5.84-9.59-9.59h-94.04l-30.25-30.25h49.7v-24.83H0l103.45,103.45h72.84c6.85-6.85,10.69-10.69,17.53-17.53Z"/>
      <path d="M330.13,24.83h-51.82c-2.36-2.36-3.69-3.68-6.05-6.05V6.05c-2.36-2.36-3.68-3.69-6.05-6.05h-41.34v24.83h.08c13.08,13.08,20.42,20.42,33.5,33.5h26.33c6.66,6.66,10.39,10.39,17.05,17.05v44.8l-39.92,39.91h35.11l53.58-53.58v-61.21c-8-8-12.48-12.48-20.48-20.48Z"/>
      <path d="M297.08,112.87v-35.3c-5.55-5.55-8.66-8.66-14.21-14.21h-83.22l-22.2-22.19v-16.34h42.26V0h-118.53l85.11,85.11c4.87,4.87,7.6,7.6,12.46,12.46v15.29h33.02l-41.14,41.17h-16.17v-10.63h-34.74l9.91,9.91v14.94c4.14,4.14,6.47,6.47,10.61,10.61h75.59l61.23-61.28v-4.72Z"/>
    </g>
  </g>
</svg>