<?xml version="1.0" encoding="UTF-8"?>
<svg id="Layer_2" data-name="Layer 2" xmlns="http://www.w3.org/2000/svg" viewBox="0 0 602.85 174">
  <g id="_Слой_1" data-name="Слой 1">
    <g>
      <path d="M277.09,56.64h-6.59v86.62c-11.54-2.33-22.27-7.57-31.32-15.32v-32.27h-73.22c-25.82,0-50.58,10.28-68.81,28.58l-1.5,1.5c-13.01,13.06-30.69,20.4-49.13,20.4h-18.67V33.81H0v140.19h46.39c25.92,0,50.78-10.32,69.07-28.69l1.39-1.39c13.01-13.06,30.69-20.4,49.13-20.4h.24c18.35,0,35.62,7.04,48.71,19.85,18.68,18.28,43.37,29.11,69.5,29.11h13.92v-94.59c0-11.74-9.52-21.26-21.26-21.26Z"/>
      <path d="M71.92,27.88c7.91,0,14.34,6.43,14.34,14.34,0,23.26,18.93,42.19,42.2,42.19h136.61v-27.85h-136.61c-7.91,0-14.35-6.43-14.35-14.34,0-5.04-.94-9.86-2.56-14.34h170.26c12.73,0,23.06,10.32,23.06,23.06h27.85C332.71,22.82,309.92.03,281.81.03H21.3C9.56.03.04,9.55.04,21.29v6.59h71.89Z"/>
      <path d="M581.56,56.64h-6.59v86.62c-11.54-2.33-22.27-7.57-31.32-15.32v-32.27h-73.22c-25.82,0-50.58,10.28-68.81,28.58l-1.5,1.5c-13.01,13.06-30.69,20.4-49.13,20.4h-18.67V56.56h-27.85v117.44h46.39c25.92,0,50.78-10.32,69.07-28.69l1.39-1.39c13.01-13.06,30.69-20.4,49.13-20.4h.24c18.35,0,35.62,7.04,48.71,19.85,18.68,18.28,43.37,29.11,69.5,29.11h13.92v-94.59c0-11.74-9.52-21.26-21.26-21.26Z"/>
      <path d="M333.34,27.85h43.05c7.91,0,14.37,6.46,14.37,14.37,0,23.28,18.88,42.22,42.16,42.22h136.62v-27.85h-136.62c-8.08,0-14.26-6.74-14.31-14.82-.06-4.9-1-9.52-2.56-13.92h135.89c12.7,0,23.06,10.36,23.06,23.06h27.85c0-28.07-22.83-50.91-50.9-50.91h-245.67c11.98,5.79,21.67,15.71,27.07,27.85Z"/>
    </g>
  </g>
</svg>