<?xml version="1.0" encoding="UTF-8"?>
<svg id="Layer_2" data-name="Layer 2" xmlns="http://www.w3.org/2000/svg" viewBox="0 0 528.82 90.8">
  <g id="_Слой_1" data-name="Слой 1">
    <g>
      <path d="M266.1,2.29l-.07-2.29h-28.01l-45.47,45.47s-23.76,23.76-34.54,34.54v10.34h21.77L266.1,4.03v-1.74Z"/>
      <polygon points="254.38 51.1 294.51 11.01 294.51 .12 273.4 .12 222.45 51.08 254.38 51.1"/>
      <polygon points="507.71 .12 456.76 51.08 488.69 51.1 528.82 11.01 528.82 .12 507.71 .12"/>
      <path d="M144.12,42.85l-6.37-6.58-2.2,2.2v27.25h33.37l16.04-16.04s.05-.07.09-.12l37.13-37.11L222.06,0h-49.05v27.76l-15.08,15.08h-13.8Z"/>
      <polygon points="72.89 65.65 86.75 65.72 133.01 65.72 133.26 37.53 139.04 31.75 152.4 18.37 157.14 18.37 168.33 29.21 170.71 26.82 170.71 .07 138.46 .07 116.76 21.78 72.89 65.65"/>
      <path d="M68.56,67.95c-11.09,0-16.64-13.41-8.8-21.25l25.05-25.05c2.11-2.11,4.97-3.3,7.95-3.3h23.86L134.68.28h-60.88L8.36,65.72l.29-.19-1.59,1.59c-4.52,4.54-7.06,10.68-7.06,17.08v6.6h155.73v-11.74l11.12-11.12h-98.29Z"/>
      <path d="M205.42,67.95l-22.85,22.85h49.69v-6.6c0-5.87,2.02-11.62,5.59-16.25h-32.43Z"/>
      <path d="M500.67,2.29l-.07-2.29h-28.01l-45.47,45.47s-23.76,23.76-34.54,34.54v10.34h21.77L500.67,4.03v-1.74Z"/>
      <path d="M378.69,42.85l-6.37-6.58-2.2,2.2v27.25h33.37l16.04-16.04s.05-.07.09-.12l37.13-37.11-.14-12.45h-49.05v27.76l-15.08,15.08h-13.8Z"/>
      <polygon points="307.45 65.65 321.32 65.72 367.57 65.72 367.82 37.53 373.6 31.75 386.96 18.37 391.71 18.37 402.89 29.21 405.28 26.82 405.28 .07 373.03 .07 351.32 21.78 307.45 65.65"/>
      <path d="M303.11,67.95c-11.09,0-16.64-13.41-8.8-21.25l25.05-25.05c2.11-2.11,4.97-3.3,7.95-3.3h23.86L369.24.28h-60.87l-61.04,61.04.07.02-5.79,5.79c-4.52,4.54-7.06,10.68-7.06,17.08v6.6h155.73v-11.74l11.12-11.12h-98.29Z"/>
      <polygon points="417.14 90.8 460.58 90.8 460.58 79.31 471.95 67.95 440 67.95 417.14 90.8"/>
    </g>
  </g>
</svg>