<?xml version="1.0" encoding="UTF-8"?>
<svg id="Layer_2" data-name="Layer 2" xmlns="http://www.w3.org/2000/svg" viewBox="0 0 591.41 132.54">
  <g id="_Слой_1" data-name="Слой 1">
    <g>
      <path d="M228.71,57.64l-.2-27.26c-2.37-2.37-3.72-3.71-6.09-6.08l-17.14-.09v19.23c2.4,2.4,1.81,1.81,4.21,4.21v3.29l-.07,14.6,67.01,67.01h16.74v-19.24h-8.77l-55.67-55.66Z"/>
      <path d="M233.77,23.99h0V0l-.05.12v-.12h-52.89v24.08h-46.13c-9.93,9.93-17.59,17.59-27.51,27.52v23.77c-1.97,1.96-3.07,3.06-5.03,5.02h-58.11l17.04,17.05-15.87,15.86h-.12l-26.07-26.08v-44h79.7l8.39,8.43v-8.51h-.01v-19.17H0l.4,71.81,36.73,36.74h16.06l32.9-32.91h24.24c1.76-1.76,3.31-3.31,4.75-4.75,3.72-3.72,6.81-6.81,11.33-11.33v-22.65c4.97-4.97,9.58-9.57,14.42-14.41,1.04-1.04,2.1-2.1,3.18-3.18h35.39v.35l-8.22,8.23h-27.29l-12.18,12.19v22.21s0,.01,0,.01v.42l-12.85,12.85h40.56l-8.51-8.52v-19.92h29.92v.33l61.08,61.08h27.2l-69.05-69.05V19.24h24.65l8.88,8.88v14.97h39.53v51.88l13.25,13.25h6.77V36.18c-4.76-4.77-7.42-7.43-12.18-12.19h-47.2Z"/>
      <path d="M381.93,50.93v-3.29c2.4-2.4,1.81-1.81,4.21-4.21v-19.23l-17.14.09c-2.37,2.37-3.72,3.71-6.09,6.08l-.2,27.26-55.67,55.66h-8.77v19.24h16.74l67.01-67.01-.07-14.6Z"/>
      <path d="M484.3,23.99v19.17h-.01v8.51l8.39-8.43h79.7v44l-26.07,26.08h-.12l-15.87-15.86,17.04-17.05h-58.11c-1.96-1.96-3.06-3.06-5.03-5.02v-23.77c-9.92-9.93-17.58-17.59-27.51-27.52h-46.13V0h-52.89v.12l-.05-.12v23.98h0s-47.2,0-47.2,0c-4.76,4.76-7.42,7.42-12.18,12.19v72.05h6.77l13.25-13.25v-51.88h39.53v-14.97l8.88-8.88h24.65v44.25l-69.05,69.05h27.2l61.08-61.08v-.33h29.92v19.92l-8.51,8.52h40.56l-12.85-12.85v-.42h-.01s.01-3.26.01-3.26v-18.96l-12.18-12.19h-27.29l-8.22-8.23v-.35h35.39c1.07,1.07,2.13,2.13,3.18,3.18,4.84,4.84,9.45,9.44,14.42,14.41v22.65c4.52,4.52,7.62,7.62,11.33,11.33,1.44,1.44,2.99,2.99,4.75,4.75h24.24l32.9,32.91h16.06l36.73-36.74.4-71.81h-107.1Z"/>
    </g>
  </g>
</svg>