<?xml version="1.0" encoding="UTF-8"?>
<svg id="Layer_2" data-name="Layer 2" xmlns="http://www.w3.org/2000/svg" viewBox="0 0 623.9 107.99">
  <g id="_Слой_1" data-name="Слой 1">
    <g>
      <g>
        <path d="M127.86,59.73v11.18c0,2.99-.34,5.95-.96,8.77h22.33v-25.7h-27.11l5.75,5.75Z"/>
        <path d="M113.79,50.55l-33-33H0v25.7h0v16.88C0,73.19,10.63,83.82,23.69,83.82h5.09l23.97,24.17h34.58c20.49,0,37.09-16.61,37.09-37.09v-9.72l-10.63-10.63h0ZM3.44,60.13v-8.47l8.41-8.41h12.93l8.06,8.05h45.41l13.45,13.45v7.61c0,3.3-1.62,6.2-4.1,8.01H23.69c-11.16,0-20.24-9.08-20.24-20.25Z"/>
        <path d="M310.06,30.8l-6.61-6.34-17.62-17.62C281.41,2.43,275.54,0,269.3,0h-11.59C251.47,0,245.6,2.43,241.19,6.84l-18.01,18.01h-83.74v.02h-10.12l-7.46-7.45h-36.32l25.79,25.79v-.14c2.29,2.29,4.71,4.71,7.49,7.48h30.4v-22.26h46.29l4.69,4.69v6.51l-14.51,14.51h-33.03v25.68h43.88l25.47-25.68,3.87-3.87v-23.11l17.74-17.74c3.77-3.76,8.77-5.84,14.09-5.84h11.59c5.32,0,10.33,2.07,14.09,5.84l8.35,8.35v6.83h-8.91c-7.28,7.28-11.36,11.36-18.63,18.63v10.7c-.69.08-1.37.2-2.07.2h-35.21c-10.03,10.03-15.65,15.65-25.68,25.68h78.66c1.87-1.87,3.62-3.62,5.32-5.32,1.17-.85,2.3-1.77,3.34-2.81l21.68-21.68h0l-.17-19.08Z"/>
      </g>
      <g>
        <path d="M496.04,59.73v11.18c0,2.99.34,5.95.96,8.77h-22.33v-25.7h27.11s-5.75,5.75-5.75,5.75Z"/>
        <path d="M510.12,50.55l-10.63,10.63v9.72c0,20.49,16.61,37.09,37.09,37.09h34.58s23.97-24.17,23.97-24.17h5.09c13.06,0,23.68-10.63,23.68-23.69v-16.88h0v-25.7s-27.29,0-27.29,0h-50.48s-3.03,0-3.03,0l-33,33h0ZM600.22,80.38h-63.91c-2.47-1.81-4.1-4.71-4.1-8.01v-7.61s13.45-13.45,13.45-13.45h45.41s8.06-8.05,8.06-8.05h12.93s8.41,8.41,8.41,8.41v8.47c0,11.16-9.08,20.25-20.24,20.25Z"/>
        <path d="M313.85,30.8l6.61-6.34,17.62-17.62C342.49,2.43,348.36,0,354.6,0h11.59c6.24,0,12.11,2.43,16.53,6.84l18.01,18.01h83.74v.02s10.12,0,10.12,0l7.46-7.45c14.18,0,22.14,0,36.32,0l-25.79,25.79v-.14c-2.29,2.29-4.71,4.71-7.49,7.48h-30.4v-22.26s-46.29,0-46.29,0l-4.69,4.69v6.51s14.51,14.51,14.51,14.51h33.03v25.68h-43.88s-25.47-25.68-25.47-25.68l-3.87-3.87v-23.11s-17.74-17.74-17.74-17.74c-3.77-3.76-8.77-5.84-14.09-5.84h-11.59c-5.32,0-10.33,2.07-14.09,5.84l-8.35,8.35v6.83s8.91,0,8.91,0c7.28,7.28,11.36,11.36,18.63,18.63v10.7c.69.08,1.37.2,2.07.2h35.21c10.03,10.03,15.65,15.65,25.68,25.68h-67.7s0,0,0,0h-10.95c-1.87-1.87-3.62-3.62-5.32-5.32-1.17-.85-2.3-1.77-3.34-2.81l-21.68-21.68h0l.17-19.08Z"/>
      </g>
    </g>
  </g>
</svg>