<?xml version="1.0" encoding="UTF-8"?>
<svg id="Layer_2" data-name="Layer 2" xmlns="http://www.w3.org/2000/svg" viewBox="0 0 532.24 161.1">
  <g id="_Слой_1" data-name="Слой 1">
    <g>
      <polygon points="70.37 119.04 70.37 88.92 70.4 88.92 70.4 73 30.47 73 43.27 60.2 32.02 48.95 0 80.96 32.2 113.16 43.45 101.9 30.47 88.92 54.45 88.92 54.45 125.55 89.39 161.1 150.61 161.1 150.61 145.18 96.07 145.18 70.37 119.04"/>
      <polygon points="89.59 109.23 89.59 91.16 134.37 91.16 121.41 104.13 132.67 115.39 164.85 83.2 132.76 51.11 121.5 62.37 134.37 75.25 89.53 75.25 89.53 30.47 102.33 43.27 113.59 32.02 81.57 0 49.38 32.2 60.63 43.45 73.61 30.47 73.61 107.01 73.67 107.01 73.67 117.64 97.47 141.85 150.61 141.85 150.61 125.93 106.3 125.93 89.59 109.23"/>
      <polygon points="189.79 90.24 189.79 103.19 205.71 103.19 205.71 96.84 251.65 50.93 264.46 50.93 264.46 35.01 245.06 35.01 189.79 90.24"/>
      <polygon points="189.79 122.44 209.7 122.44 209.7 125.82 169.79 125.82 169.79 105.48 240.25 35.02 148.9 35.02 135.16 48.76 146.42 60.02 155.5 50.93 201.82 50.93 153.87 98.88 153.87 141.74 225.62 141.74 225.62 106.52 189.79 106.52 189.79 122.44"/>
      <polygon points="500.22 48.95 488.96 60.2 501.76 73 461.84 73 461.84 88.92 461.86 88.92 461.86 119.04 436.17 145.18 381.62 145.18 381.62 161.1 442.84 161.1 477.78 125.55 477.78 88.92 501.76 88.92 488.78 101.9 500.04 113.16 532.24 80.96 500.22 48.95"/>
      <polygon points="399.57 115.39 410.83 104.13 397.86 91.16 442.64 91.16 442.64 109.23 425.94 125.93 381.62 125.93 381.62 141.85 434.76 141.85 458.56 117.64 458.56 107.01 458.62 107.01 458.62 30.47 471.6 43.45 482.86 32.2 450.66 0 418.64 32.02 429.9 43.27 442.7 30.47 442.7 75.25 397.86 75.25 410.74 62.37 399.48 51.11 367.39 83.2 399.57 115.39"/>
      <polygon points="326.52 103.19 342.44 103.19 342.44 90.24 287.17 35.01 267.77 35.01 267.77 50.93 280.58 50.93 326.52 96.84 326.52 103.19"/>
      <polygon points="376.74 50.93 385.82 60.02 397.08 48.76 383.33 35.02 291.99 35.02 362.45 105.48 362.45 125.82 322.53 125.82 322.53 122.44 342.44 122.44 342.44 106.52 306.61 106.52 306.61 141.74 378.37 141.74 378.37 98.88 330.42 50.93 376.74 50.93"/>
    </g>
  </g>
</svg>