<?xml version="1.0" encoding="UTF-8"?>
<svg id="Layer_2" data-name="Layer 2" xmlns="http://www.w3.org/2000/svg" viewBox="0 0 578.29 150.19">
  <g id="_Слой_1" data-name="Слой 1">
    <g>
      <path d="M153.31,25h0s-15.62,15.62-22.33,22.33h-27.31v19.88h35.54l2.91-2.91c1.11-1.1,11.14-11.14,18.22-18.22l32.07,32.06v44.11h19.88v-52.35l-44.92-44.91c-3.88-3.88-10.17-3.88-14.06,0Z"/>
      <polygon points="83.74 47.35 83.71 47.35 19.83 47.35 19.83 67.22 83.74 67.22 83.74 47.35"/>
      <polygon points="176.46 0 162.41 14.06 216.02 67.67 244.07 67.61 176.46 0"/>
      <polygon points="133.65 38.74 153.45 18.94 141.06 18.86 84.09 18.86 69.65 33.29 83.71 47.35 92.32 38.74 133.65 38.74"/>
      <path d="M19.88,91.77v-24.54H0v32.78l17.32,17.32c3.16,3.16,7.45,4.94,11.92,4.94h20.59v-19.88h-19.34l-10.61-10.62Z"/>
      <path d="M86.35,117.32l17.32-17.32v-32.78h-19.88v24.54l-10.61,10.62h-19.37v19.88h20.62c4.47,0,8.76-1.78,11.92-4.94Z"/>
      <path d="M256.31,76.65c-3.31-3.31-7.81-5.18-12.49-5.18h-27.56v19.88h26.65l24.37,24.38v6.53h19.88v-7.45c0-4.69-1.86-9.18-5.17-12.49l-25.67-25.67Z"/>
      <path d="M107.64,71.48v19.88h80.88v-12.18c-3.01-3.01-4.69-4.69-7.7-7.7h-73.18Z"/>
      <path d="M107.53,112.26l-18.05,18.05h-15.71v-4.07s-19.88,0-19.88,0v11.9c0,6.66,5.39,12.05,12.05,12.05h31.77l29.69-29.69v-25.17h-19.88v16.93Z"/>
      <path d="M436.17,64.3l2.91,2.91h35.54v-19.88h-27.31c-6.71-6.71-22.33-22.33-22.33-22.33h0c-3.88-3.88-10.17-3.88-14.06,0l-44.92,44.91v52.35h19.88v-44.11l32.07-32.06c7.08,7.08,17.11,17.11,18.22,18.22Z"/>
      <polygon points="494.54 67.22 558.46 67.22 558.46 47.35 494.58 47.35 494.54 47.35 494.54 67.22"/>
      <polygon points="401.82 0 334.21 67.61 362.26 67.67 415.88 14.06 401.82 0"/>
      <polygon points="485.97 38.74 494.58 47.35 508.63 33.29 494.2 18.86 437.22 18.86 424.84 18.94 444.64 38.74 485.97 38.74"/>
      <path d="M558.41,67.22v24.54l-10.61,10.62h-19.34v19.88h20.59c4.47,0,8.76-1.78,11.92-4.94l17.32-17.32v-32.78h-19.88Z"/>
      <path d="M494.5,91.77v-24.54h-19.88v32.78l17.32,17.32c3.16,3.16,7.45,4.94,11.92,4.94h20.62v-19.88h-19.37l-10.61-10.62Z"/>
      <path d="M321.97,76.65l-25.67,25.67c-3.31,3.31-5.17,7.81-5.17,12.49v7.45h19.88v-6.53l24.37-24.38h26.65v-19.88h-27.56c-4.69,0-9.18,1.86-12.49,5.18Z"/>
      <path d="M470.64,71.48h-73.18c-3.01,3.01-4.69,4.69-7.7,7.7v12.18h80.88v-19.88Z"/>
      <path d="M504.51,130.31h-15.71l-18.05-18.05v-16.93h-19.88v25.17l29.69,29.69h31.77c6.66,0,12.05-5.4,12.05-12.05v-11.9h-19.88v4.07Z"/>
    </g>
  </g>
</svg>