<?xml version="1.0" encoding="UTF-8"?>
<svg id="Layer_2" data-name="Layer 2" xmlns="http://www.w3.org/2000/svg" viewBox="0 0 755.78 182.21">
  <g id="_Слой_1" data-name="Слой 1">
    <g>
      <g>
        <path d="M279.52,91.49l-70.63,70.63-7.35-7.35,72.45-72.45-.11-8.83-42.81-42.92c-2.81-2.81-6.42-4.35-10.39-4.35h-37.04v19.98h34.92l31.65,31.65-66.88,66.88c-19.56-.16,5.77-.28-14.12-.29l-51.36-51.36h17.58c3.97,0,7.7-1.55,10.5-4.35l27.79-27.79c2.8-2.81,4.35-6.54,4.35-10.5V10.88c0-5.97-4.84-10.81-10.81-10.81H0v20.49h158.07v27.76l-24.78,24.78h-27.36c-5.4,0-10.58,2.67-13.29,7.34-3.46,5.96-2.42,13.28,2.32,18.02l61.61,61.61c2.8,2.8,6.52,4.35,10.49,4.35,57.61.04.54.16,16.18.29l13.15,13.15c2.79,2.79,6.57,4.35,10.51,4.35h4.01c3.97,0,7.7-1.54,10.5-4.35l78.61-78.27-20.6-20.49.11,12.38Z"/>
        <path d="M239.06,2.52c-1.45-1.45-3.4-2.26-5.45-2.27l-43.76-.18h-6.23v20.49h42.01c2.06,0,4.03.82,5.48,2.27l82.4,82.4v64.89s-12.1,12.1-12.1,12.1h32.08v-79.12c0-3.97-1.55-7.7-4.35-10.5L239.06,2.52Z"/>
        <polygon points="348.86 20.56 369.61 0 244.61 0 265.17 20.56 348.86 20.56"/>
        <polygon points="315.19 54.2 298.68 54.2 306.94 62.46 321.47 76.99 377.89 20.58 348.82 20.58 315.19 54.2"/>
      </g>
      <g>
        <path d="M476.26,91.49l70.63,70.63,7.35-7.35-72.45-72.45.11-8.83,42.81-42.92c2.81-2.81,6.42-4.35,10.39-4.35h37.04v19.98h-34.92s-31.65,31.65-31.65,31.65l66.88,66.88c19.56-.16-5.77-.28,14.12-.29l51.36-51.36h-17.58c-3.97,0-7.7-1.55-10.5-4.35l-27.79-27.79c-2.8-2.81-4.35-6.54-4.35-10.5v-19.63s0-10.51,0-10.51v-9.42c0-5.97,4.84-10.81,10.81-10.81h42.13s3.5,0,3.5,0h121.61v20.49h-158.07s0,27.76,0,27.76l24.78,24.78h27.36c5.4,0,10.58,2.67,13.29,7.34,3.46,5.96,2.42,13.28-2.32,18.02l-61.61,61.61c-2.8,2.8-6.52,4.35-10.49,4.35-57.61.04-.54.16-16.18.29l-13.15,13.15c-2.79,2.79-6.57,4.35-10.51,4.35h-4.01c-3.97,0-7.7-1.54-10.5-4.35l-78.61-78.27,20.6-20.49-.11,12.38Z"/>
        <path d="M516.72,2.52c1.45-1.45,3.4-2.26,5.45-2.27l43.76-.18h6.23v20.49h-42.01c-2.06,0-4.03.82-5.48,2.27l-82.4,82.4v64.89s12.1,12.1,12.1,12.1h-32.08v-79.12c0-3.97,1.55-7.7,4.35-10.5L516.72,2.52Z"/>
        <polygon points="406.92 20.56 386.17 0 511.17 0 490.61 20.56 406.92 20.56"/>
        <polygon points="440.59 54.2 457.1 54.2 448.84 62.46 434.31 76.99 377.89 20.58 406.96 20.58 440.59 54.2"/>
      </g>
    </g>
  </g>
</svg>