<?xml version="1.0" encoding="UTF-8"?>
<svg id="Layer_2" data-name="Layer 2" xmlns="http://www.w3.org/2000/svg" viewBox="0 0 642.24 161.59">
  <g id="_Слой_1" data-name="Слой 1">
    <g>
      <path d="M141.9,135.01h0S46.45,39.54,46.45,39.54l7.34-7.34h9.37l1.78,1.78v15.36h46.88l-16.29-16.29v-12.41L74.88,0h-34.44L0,40.45v63.11l58.04,58.04h58.89c10.07-10.07,15.71-15.71,25.78-25.78l-.81-.81ZM71.38,129.39l-39.17-39.17v-36.43l11.24-11.24,87.3,86.84h-59.36Z"/>
      <path d="M601.79,0h-34.44l-20.64,20.64v12.41l-16.29,16.29h46.88v-15.36l1.78-1.78h9.37l7.34,7.34-95.46,95.46h0c-.27.28-.51.52-.81.81,10.07,10.07,15.71,15.71,25.78,25.78h58.89l58.04-58.04v-63.11L601.79,0ZM610.04,90.22l-39.17,39.17h-59.36l87.3-86.84,11.24,11.24v36.43Z"/>
      <path d="M495.41,138.2l-2.39-2.39,1.24-1.22,4.74-4.76v-40.85h37.4c7.73-7.73,13.34-13.34,21.02-21.02v-13.48h-58.45c-8.25,8.26-14.28,14.3-20.82,20.84h-32.68c-2.62-2.62-2.37-2.37-4.99-5h35.79l45.77-45.77L497.65.14l-35.66,35.66h-140.87s34.5,34.51,34.5,34.51h50.36v21.01l14.24,14.24h-198.22l14.24-14.24v-21.01h50.36l34.5-34.5h-140.87S144.59.14,144.59.14l-24.4,24.4,45.77,45.77h35.79c-2.62,2.63-2.37,2.38-4.99,5.01h-32.68c-6.54-6.55-12.57-12.58-20.82-20.85h-58.45v13.48c7.68,7.68,13.3,13.3,21.02,21.02h37.4v40.85l4.74,4.76,1.24,1.22-2.39,2.39h-.01s-23.41,23.4-23.41,23.4h54.34v-51.78h286.76v51.78h54.34l-23.41-23.41h-.01Z"/>
    </g>
  </g>
</svg>