<?xml version="1.0" encoding="UTF-8"?>
<svg id="Layer_2" data-name="Layer 2" xmlns="http://www.w3.org/2000/svg" viewBox="0 0 682.73 154.73">
  <g id="_Слой_1" data-name="Слой 1">
    <g>
      <path d="M318.54,133.66h-51.79V54.83l-17.06-17.06h-112.84v-4.57c4.74-4.74,7.4-7.4,12.13-12.13h90.62l78.9,78.9v24.55h21.07v-12.2L227.25,0h-85.3c-4.74,4.74-7.4,7.4-12.13,12.13v25.64h-32.58L1.44,133.58l-1.44,1.4v19.67h171.2l.08.08h9.93l-.08-.08h.08l-21.07-21.07h-.08l-57.21-57.21,6.81-6.81h132.45v-7l-24.99-.03h-110.05l-.04-.04-13.99,13.99.02.02-.06.06,2.37,2.25,54.76,54.76H31.23L105.96,58.84h139.71v41.4h-98.37l-10.36-10.36v-16.69h-7.02v25.41l22.7,22.7h93.05v21.86c4.51,4.51,7.04,7.04,11.56,11.56h70.39c4.68-4.68,7.3-7.3,11.98-11.98v-14.55h-21.07v5.46Z"/>
      <path d="M681.29,133.58l-95.8-95.8h-32.58V12.13c-4.74-4.74-7.4-7.4-12.13-12.13h-85.3l-112.32,112.32v12.2h21.07v-24.55l78.9-78.9h90.62c4.74,4.74,7.4,7.4,12.13,12.13v4.57h-112.84l-17.06,17.06v78.83h-51.79v-5.46h-21.07v14.55c4.68,4.68,7.3,7.3,11.98,11.98h70.39c4.51-4.51,7.04-7.04,11.56-11.56v-21.86h93.05l22.7-22.7v-25.41h-7.02v16.69l-10.36,10.36h-98.37v-41.4h139.71l74.74,74.74h-118.9l54.76-54.76,2.37-2.25-.06-.06.02-.02-13.99-13.99-.04.04h-110.05l-24.99.03v7h132.45l6.81,6.81-57.21,57.21h-.08c-8.23,8.23-12.84,12.84-21.07,21.07h.08l-.08.08h9.93l.08-.08h171.2v-19.67l-1.44-1.4Z"/>
    </g>
  </g>
</svg>