<?xml version="1.0" encoding="UTF-8"?>
<svg id="Layer_2" data-name="Layer 2" xmlns="http://www.w3.org/2000/svg" viewBox="0 0 604.87 178.67">
  <g id="_Слой_1" data-name="Слой 1">
    <g>
      <path d="M197,73.19h-104.27v14.57c12.85,12.85,20.05,20.05,32.9,32.9h118.84l-47.47-47.47Z"/>
      <path d="M24.72,51.6l19.06-19.06h89.24V7.83H33.54L0,41.37v70.01h29.34c9.65-9.65,15.06-15.06,24.72-24.72h-29.34v-35.05Z"/>
      <path d="M229.1.05v42.34l-5.09-5.09v-15.73c-8.24-8.24-12.86-12.86-21.1-21.1h-57.72l-3.61,3.61-3.71,3.98v29.59h-71.25c-4.84,4.84-7.55,7.55-12.39,12.39v36.58h33.56v-18.36h111.25l54.08,54.08v-13.59l-71.08-71.08h-6.99l-12.46-12.46h25.57c4.35,4.35,6.79,6.79,11.14,11.14v11.23l54.52,54.52v-50.67l46.15,46.12V24.64c-9.63-9.62-15.03-15.01-24.66-24.64l-46.2.05Z"/>
      <polygon points="253.12 178.67 253.12 125.61 200.06 125.61 253.12 178.67"/>
      <path d="M360.4,120.66h118.84c12.85-12.85,20.05-20.05,32.9-32.9v-14.57h-104.27l-47.47,47.47Z"/>
      <path d="M571.33,7.83h-99.48v24.72h89.24l19.06,19.06v35.05h-29.34l24.72,24.72h29.34V41.37l-33.54-33.54Z"/>
      <polygon points="351.74 178.67 404.81 125.61 351.74 125.61 351.74 178.67"/>
      <path d="M538.25,37.64h-71.25V8.06l-3.71-3.98-3.61-3.61h-57.72c-8.24,8.24-12.86,12.86-21.1,21.1v15.73l-5.09,5.09V.05l-46.2-.05c-9.63,9.62-15.03,15.01-24.66,24.64v72.89l46.14-46.12v50.67l54.52-54.52v-11.23c4.35-4.35,6.79-6.79,11.14-11.14h25.57l-12.46,12.46h-6.99l-71.08,71.08v13.59l54.08-54.08h111.25v18.36h33.56v-36.58c-4.84-4.84-7.55-7.55-12.39-12.39Z"/>
    </g>
  </g>
</svg>