<?xml version="1.0" encoding="UTF-8"?>
<svg id="Layer_2" data-name="Layer 2" xmlns="http://www.w3.org/2000/svg" viewBox="0 0 696.26 172.84">
  <g id="_Слой_1" data-name="Слой 1">
    <g>
      <path d="M349.25,40.61h-2.22l-28.56-28.56h-24.03v80.38l32.17,32.17v-56.16l21.53-21.53,21.53,21.53v56.16l32.17-32.17V12.05h-24.03l-28.56,28.56ZM326.6,63.26v-17.96h17.96l-17.96,17.96ZM369.67,63.26l-17.96-17.96h17.96v17.96Z"/>
      <path d="M237.6,0l-54.44,54.44-13.85-13.85h-24.17L61.19,124.33v.21c17.77,0,27.52,0,45.28,0l23.13-22.92,24.52-24.44c3.46,0,2.83,0,6.29,0l-66.91,66.92v28.74h32.17v-15.42L283.1,0h-45.5Z"/>
      <path d="M257.93,31.64v60.61h-60.46c-12.57,12.57-19.6,19.6-32.17,32.17h92.63c12.57-12.57,19.6-19.6,32.17-32.15V12.04h-12.57c-7.16,7.16-12.4,12.4-19.6,19.6Z"/>
      <path d="M89.07,128.56h-28.52v12.6l-1.66,1.66h-8.73l-6.84-6.84,89-89h0c.25-.26.48-.48.75-.76-9.39-9.39-14.65-14.65-24.03-24.03h-54.91L0,76.29v58.84l37.71,37.71h32.11l19.25-19.25v-11.57l13.47-13.47h-13.47ZM30.03,122.69v-33.97l36.52-36.52h55.35l-81.39,80.96-10.48-10.48Z"/>
      <path d="M542.13,77.18l24.52,24.44,23.14,22.92c17.77,0,27.52,0,45.28,0v-.21l-83.96-83.74h-24.17l-13.85,13.85L458.65,0h-45.5l157.42,157.42v15.42h32.17v-28.74l-66.92-66.92c3.46,0,2.83,0,6.29,0Z"/>
      <path d="M498.79,92.25h-60.46V31.64c-7.21-7.21-12.44-12.44-19.6-19.6h-12.57v80.23c12.57,12.55,19.6,19.58,32.17,32.15h92.63c-12.57-12.57-19.6-19.6-32.17-32.17Z"/>
      <path d="M587.23,22.18c-9.39,9.39-14.65,14.65-24.03,24.03l.75.75h0s89,89.01,89,89.01l-6.84,6.84h-8.73l-1.66-1.66v-12.6h-41.99l13.47,13.47v11.57l19.25,19.25h32.11l37.71-37.71v-58.84l-54.11-54.11h-54.91ZM666.23,122.69l-10.48,10.48-81.39-80.96h55.35l36.52,36.52v33.97Z"/>
    </g>
  </g>
</svg>