<?xml version="1.0" encoding="UTF-8"?>
<svg id="Layer_2" data-name="Layer 2" xmlns="http://www.w3.org/2000/svg" viewBox="0 0 632.69 143.04">
  <g id="_Слой_1" data-name="Слой 1">
    <g>
      <g>
        <path d="M308.22,57.69h-20.81l-46.03-46.03h-29.19s-159.13,0-159.13,0L41.4,0H.34l99.4,99.4h24.15l54.43-54.43h-65.23l12.08,12.09-13.31,13.31h-.1L57.2,15.81h101.83c9.72,9.72,15.17,15.17,24.89,24.89h45.43l46.03,46.03h24.69v8.53h-61.25c-8.9-8.9-15.01-15.01-24.88-24.88h-13.93l25.49-25.49c-16.03,0-25.02,0-41.06,0l-54.52,54.52h170.15v6.23c-3.27,3.27-5.11,5.11-8.38,8.38H60.73l-30.03-30.03v14.61h-.04v20.85c3.2,3.2,20.41,20.41,23.61,23.61h250.31c9.57-9.57,14.94-13.69,24.51-23.26v-41.2c-8.15-8.15-12.73-12.73-20.88-20.88Z"/>
        <path d="M93.72,99.64h0L0,5.92v41.06l52.66,52.66h41.06Z"/>
      </g>
      <g>
        <path d="M611.81,57.69h-20.81l-46.03-46.03h-29.19s-159.13,0-159.13,0l-11.66-11.66h-41.06l99.4,99.4h24.15l54.43-54.43h-65.23l12.08,12.09-13.31,13.31h-.1l-54.56-54.56h101.83c9.72,9.72,15.17,15.17,24.89,24.89h45.43l46.03,46.03h24.69v8.53h-61.25c-8.9-8.9-15.01-15.01-24.88-24.88h-13.93l25.49-25.49c-16.03,0-25.02,0-41.06,0l-54.52,54.52h170.15v6.23c-3.27,3.27-5.11,5.11-8.38,8.38h-230.95l-30.03-30.03v14.61h-.04v20.85c3.2,3.2,20.41,20.41,23.61,23.61h250.31c9.57-9.57,14.94-13.69,24.51-23.26v-41.2c-8.15-8.15-12.73-12.73-20.88-20.88Z"/>
        <path d="M397.32,99.64h0L303.6,5.92v41.06l52.66,52.66h41.06Z"/>
      </g>
    </g>
  </g>
</svg>