<?xml version="1.0" encoding="UTF-8"?>
<svg id="Layer_2" data-name="Layer 2" xmlns="http://www.w3.org/2000/svg" viewBox="0 0 466.78 103.27">
  <g id="_Слой_1" data-name="Слой 1">
    <g>
      <path d="M48.26,63.9l.43-.43h22.1l3.69-4.09h-24.21l-3.09-3.09h30.76l23.58,23.58h46.14l11.12-11.12c1.43-1.43,2.23-3.37,2.23-5.38,0-1.77-.63-3.39-1.65-4.68h35.7l-9.87,9.87h-22.45c-.49.86-1.08,1.66-1.79,2.37l-8.96,8.96h53.25l1.71.31,24.88-24.88v-18.87c0-5.36-6.49-8.05-10.28-4.26l-23.43,23.43h-94.99l-10.64-10.64h-22.6l25.73-25.73v24.5l8.93,8.93h15.17V6.59c0-1.82-.74-3.45-1.94-4.65-1.17-1.2-2.83-1.94-4.65-1.94s-3.48.71-4.71,1.97c-2.71,2.73-7.05,7.13-10.09,10.19l-21.73,21.73v-.06H14.08v.04c-2.73-.02-5.43-.03-7.47-.04-2.43-.02-4.72,1.31-5.91,3.58-1.37,2.61-.62,5.86,1.47,7.94l32.31,32.31,13.77-13.77h0Z"/>
      <path d="M383.1,66.55l-16.41,16.39H100.09l-16.41-16.39h-33.7l-11.36,11.33h30.5l24.41,24.41c.65.65,1.48.99,2.37.99h7.97c1.48,0,2.77-.95,3.2-2.34v-6.66h38.97v-8.26h174.7v8.26h38.97v6.66c.43,1.38,1.72,2.34,3.2,2.34h7.97c.89,0,1.72-.34,2.37-.99l24.41-24.41h30.5l-11.36-11.33h-33.7Z"/>
      <path d="M466.08,37.41c-1.19-2.27-3.48-3.6-5.91-3.58-2.04.01-4.74.03-7.47.04v-.04h-62.56v.06l-21.73-21.73c-3.04-3.07-7.38-7.46-10.09-10.19-1.23-1.26-2.92-1.97-4.71-1.97s-3.48.74-4.65,1.94c-1.2,1.2-1.94,2.83-1.94,4.65v46.08h15.17l8.93-8.93v-24.5l25.73,25.73h-22.6l-10.64,10.64h-94.99l-23.43-23.43c-3.79-3.79-10.28-1.11-10.28,4.26v18.87l24.88,24.88,1.71-.31h53.25l-8.96-8.96c-.71-.71-1.29-1.51-1.79-2.37h-22.45l-9.87-9.87h35.7c-1.02,1.29-1.65,2.91-1.65,4.68,0,2.02.8,3.96,2.23,5.38l11.12,11.12h46.14l23.58-23.58h30.76l-3.09,3.09h-24.21l3.69,4.09h22.1l.43.43h0s13.77,13.77,13.77,13.77l32.31-32.31c2.09-2.09,2.84-5.33,1.47-7.94ZM430.92,44.96h-29.71l-8.06-8.06h45.83l-8.06,8.06Z"/>
    </g>
  </g>
</svg>