<?xml version="1.0" encoding="UTF-8"?>
<svg id="Layer_2" data-name="Layer 2" xmlns="http://www.w3.org/2000/svg" viewBox="0 0 530.4 117.72">
  <g id="_Слой_1" data-name="Слой 1">
    <g>
      <path d="M509.66,115.43h-94.65L530.4.05h-122.26c-8.04,8.04-14.55,14.55-20.91,20.91h93.17l-76.08,76.08h-14.11l-20.57,20.57,160.59.02V9.6c-6.29,6.29-12.61,12.61-20.57,20.57v85.27Z"/>
      <polygon points="380 97.15 380 0 359.43 .1 359.43 117.62 359.43 117.72 380 97.15"/>
      <path d="M300.53,97.05c8.06,8.02,12.6,12.54,20.66,20.57h38.24l-20.57-20.57h-38.34Z"/>
      <path d="M290.02,57.46V20.42c7.91-7.91,12.41-12.41,20.37-20.37h0s-35.53,0-35.53,0v.03s-5.41-.03-5.41-.03v64.33l-.23,1.37,31.31,31.31v-29.09l-10.51-10.51Z"/>
      <polygon points="463.34 28.07 387.13 28.07 387.04 48.64 442.77 48.64 463.34 28.07"/>
      <polygon points="297.03 48.68 352.4 48.68 352.4 28.11 297.1 28.11 297.03 48.68"/>
      <path d="M126.08,97.03L50,20.96h93.17c-6.36-6.36-12.87-12.87-20.91-20.91H0l115.39,115.39H20.74V30.17C12.78,22.21,6.46,15.89.17,9.6v108.03s160.59-.02,160.59-.02l-20.57-20.57h-14.11Z"/>
      <polygon points="150.39 0 150.39 97.15 170.96 117.72 170.96 117.62 170.96 .1 150.39 0"/>
      <path d="M170.96,117.62h38.24c8.06-8.02,12.6-12.54,20.66-20.57h-38.34l-20.57,20.57Z"/>
      <path d="M260.95.05l-5.41.03v-.03h-35.53c7.97,7.97,12.47,12.47,20.37,20.37v37.04l-10.51,10.51v29.09l31.31-31.31-.23-1.37V.05Z"/>
      <polygon points="87.62 48.64 143.36 48.64 143.26 28.07 67.05 28.07 87.62 48.64"/>
      <polygon points="233.3 28.11 178 28.11 178 48.68 233.36 48.68 233.3 28.11"/>
    </g>
  </g>
</svg>