<?xml version="1.0" encoding="UTF-8"?>
<svg id="Layer_2" data-name="Layer 2" xmlns="http://www.w3.org/2000/svg" viewBox="0 0 587.46 135.81">
  <g id="_Слой_1" data-name="Слой 1">
    <g>
      <path d="M262.63,13.04l7.55,7.55v17.58l-21.95,21.95h-53.66c8.36,8.36,13.05,13.05,21.41,21.41h41.11l34.49-34.49V13.04h-28.96Z"/>
      <path d="M150.67,60.12l-28.47,28.47,15.14,15.14,22.2-22.2h19.71l54.29,54.29c0-11.82,0-18.45,0-30.27l-45.42-45.42h-37.45Z"/>
      <path d="M163.43,55.75V21.86l19.78-19.78c-11.82,0-18.45,0-30.27,0l-10.92,10.92v49.5l6.74-6.74h14.67Z"/>
      <rect x="25.51" y="18.73" width="112.16" height="21.41"/>
      <polygon points="109.25 44.63 25.56 44.63 25.56 66.04 100.38 66.04 119.41 85.06 134.55 69.92 109.25 44.63"/>
      <polygon points="25.61 86.78 21.41 90.98 21.41 12.57 33.98 0 21.41 0 0 0 0 112.52 30.14 112.52 47.02 95.65 47.02 70.32 25.61 70.32 25.61 86.78"/>
      <path d="M392.89,60.12h-53.66l-21.95-21.95v-17.58l7.55-7.55h-28.96v34l34.49,34.49h41.11c8.36-8.36,13.05-13.05,21.41-21.41Z"/>
      <path d="M399.34,60.12l-45.42,45.42v30.27l54.29-54.29h19.71l22.2,22.2,15.14-15.14-28.47-28.47h-37.45Z"/>
      <path d="M424.03,55.75h14.67l6.74,6.74V12.99l-10.92-10.92c-11.82,0-18.45,0-30.27,0l19.78,19.78v33.89Z"/>
      <rect x="449.79" y="18.73" width="112.16" height="21.41"/>
      <polygon points="561.9 44.63 478.21 44.63 452.91 69.92 468.05 85.06 487.08 66.04 561.9 66.04 561.9 44.63"/>
      <polygon points="566.05 0 553.48 0 566.05 12.57 566.05 90.98 561.85 86.78 561.85 70.32 540.44 70.32 540.44 95.65 557.32 112.52 587.46 112.52 587.46 0 566.05 0"/>
    </g>
  </g>
</svg>