<?xml version="1.0" encoding="UTF-8"?>
<svg id="Layer_2" data-name="Layer 2" xmlns="http://www.w3.org/2000/svg" viewBox="0 0 554.99 142.84">
  <g id="_Слой_1" data-name="Слой 1">
    <g>
      <path d="M61.21,15.04L0,76.25v66.59h22.29v-.55l.15.55,48.81-48.82c4.65,4.65,7.26,7.26,11.91,11.91h84.22L76.49,15.04h-15.29ZM134.31,83.57h-63.05v.22-.22s-48.95,48.95-48.95,48.95l.06-47,48.11-48.11h17.67l46.16,46.16Z"/>
      <path d="M158.75,15.46h-.11v-.03h-43.03L100.17,0h-31.62l106.04,106.04h31.62l-.03-.03h43.11L158.75,15.46ZM196.72,83.65v12.9l-58.75-58.74h24.9l45.84,45.84h-12Z"/>
      <path d="M241.19,90.75v-10.69l-57.64-57.64h67.84v83.61l22.36-22.36V.05h-123.26l90.7,90.7Z"/>
      <path d="M493.78,15.04h-15.29l-90.89,90.89h84.22c4.65-4.65,7.26-7.26,11.91-11.91l48.81,48.82.15-.55v.55h22.29v-66.59l-61.21-61.21ZM483.74,83.57v.22s0-.22,0-.22h-63.05l46.16-46.16h17.67l48.11,48.11.06,47-48.95-48.95Z"/>
      <path d="M454.82,0l-15.44,15.44h-43.02v.03h-.12l-90.54,90.55h43.11l-.03.03h31.62L486.44,0h-31.62ZM358.27,96.55v-12.9h-12l45.84-45.84h24.9l-58.75,58.74Z"/>
      <path d="M313.8,80.06v10.69L404.5.05h-123.26v83.61c8.73,8.73,13.63,13.63,22.36,22.36V22.41h67.84l-57.64,57.64Z"/>
    </g>
  </g>
</svg>