<?xml version="1.0" encoding="UTF-8"?>
<svg id="Layer_2" data-name="Layer 2" xmlns="http://www.w3.org/2000/svg" viewBox="0 0 782.92 133.88">
  <g id="_Слой_1" data-name="Слой 1">
    <g>
      <path d="M450.95,96.22l-17.66-17.66h-39.05l29.1,29.1c10.24,10.24,15.99,15.99,26.23,26.23h36.47c10.78-10.78,16.83-16.83,27.62-27.62h-52.65c-3.92-3.92-6.12-6.12-10.05-10.05Z"/>
      <polygon points="463.7 100.74 474.75 100.74 575.49 0 497.5 0 467.68 29.77 441.51 55.88 433.77 55.84 463.76 25.85 460.89 22.98 394.22 22.98 394.22 73.07 435.59 73.07 463.7 100.74"/>
      <polygon points="674.8 50.32 647.13 22.7 560.58 22.7 533.07 50.32 591.33 50.32 596.85 55.84 527.66 55.84 482.7 100.74 519.16 100.74 519.16 110.85 696.56 111.07 635.81 50.32 674.8 50.32"/>
      <path d="M782.92,111.49l-39.2-39.2-18.58-18.58-16.99-16.99h-39.05l19.17,19.17h-39.58l55.99,55.43h.01s-.01.16-.01.16h78.25Z"/>
      <path d="M331.97,96.22c-3.92,3.92-6.12,6.12-10.05,10.05h-52.65c10.78,10.78,16.83,16.83,27.62,27.62h36.47c10.24-10.24,15.99-15.99,26.23-26.23l29.1-29.1h-39.05l-17.66,17.66Z"/>
      <polygon points="319.16 25.85 349.15 55.84 341.41 55.88 315.24 29.77 285.41 0 207.43 0 308.17 100.74 319.22 100.74 347.33 73.07 388.7 73.07 388.7 22.98 322.03 22.98 319.16 25.85"/>
      <polygon points="255.26 55.84 186.06 55.84 191.59 50.32 249.84 50.32 222.34 22.7 135.79 22.7 108.12 50.32 147.11 50.32 86.35 111.07 263.76 110.85 263.76 100.74 300.22 100.74 255.26 55.84"/>
      <path d="M134.23,55.9h-39.58l19.11-19.12h-39.05l-16.94,16.94-18.58,18.58L0,111.49h78.25v-.18s0,.01,0,.01l55.99-55.43Z"/>
    </g>
  </g>
</svg>