<?xml version="1.0" encoding="UTF-8"?>
<svg id="Layer_2" data-name="Layer 2" xmlns="http://www.w3.org/2000/svg" viewBox="0 0 797.85 184.07">
  <g id="_Слой_1" data-name="Слой 1">
    <g>
      <path d="M215.34,80.86h-45.83l-36.21-36.21H58.75s0,0,0,0h-1.07l104.28,104.28v35.13h47.52v-22.02h-13.96c-6.37,0-11.53-5.16-11.53-11.53v-23.55c0-3.06,1.21-5.99,3.38-8.15l11.5-11.5h-36.9v38.49l-79.13-79.13h41.34l36.21,36.21h45.83l81.19,81.19h72.81v-22.02h-63.69l-81.19-81.19Z"/>
      <path d="M259.58,162.04l-17.61-17.61c0,9.72-7.88,17.61-17.61,17.61h-9.01v22.02h66.26c-8.6-8.6-13.42-13.42-22.02-22.02h0Z"/>
      <path d="M764.54,0h-92.45l-44.2,44.2h-90.07l-80.23,80.23h-117.34l-80.23-80.23h-90.07L125.76,0H33.31C14.52,0-.69,15.65.02,34.6c.68,18.03,16.07,32.02,34.1,32.02h40.72l-22.02-22.02h-19.52c-6.84,0-12.28-6.12-11.14-13.17.89-5.51,5.89-9.41,11.47-9.41h82.99l44.2,44.2h90.07l46.49,46.49c4.61,4.61,1.35,12.5-5.18,12.5h-26.53l22.02,22.02h75.35l-21.29-20.29h21.34v20.27c6,0,10.86,4.86,10.86,10.86v3.97h-9.35v22.02h31.37v-25.99c0-15.76-11.09-28.92-25.88-31.13h57.64c-14.8,2.21-25.88,15.37-25.88,31.13v25.99h31.37v-22.02h-9.35v-3.97c0-6,4.86-10.86,10.86-10.86v-20.27h21.34l-21.29,20.29h75.35l22.02-22.02h-26.53c-6.52,0-9.79-7.89-5.18-12.5l46.49-46.49h90.07l44.2-44.2h82.99c5.58,0,10.57,3.91,11.47,9.41,1.14,7.05-4.3,13.17-11.14,13.17h-19.52c-.42,0-.65,0-1.06,0l-108.07,108.07v-45.36h-36.9l11.5,11.5c2.16,2.16,3.38,5.1,3.38,8.15v23.55c0,6.37-5.16,11.53-11.53,11.53h-13.96v22.02h47.52v-28.26l89.18-89.18h38.65c18.04,0,33.42-14,34.1-32.02.72-18.95-14.49-34.6-33.29-34.6Z"/>
      <path d="M637.46,102.88l36.21-36.21h43.41c8.6-8.6,13.42-13.42,22.02-22.02h-74.55l-36.21,36.21h-45.83l-81.19,81.19h-63.69v22.02h72.81l81.19-81.19h45.83Z"/>
      <path d="M555.88,144.44l-17.61,17.61h0c-8.6,8.6-13.42,13.42-22.02,22.02h66.26v-22.02h-9.01c-9.72,0-17.61-7.88-17.61-17.61Z"/>
    </g>
  </g>
</svg>