<?xml version="1.0" encoding="UTF-8"?>
<svg id="Layer_2" data-name="Layer 2" xmlns="http://www.w3.org/2000/svg" viewBox="0 0 641.29 160.95">
  <g id="_Слой_1" data-name="Слой 1">
    <g>
      <polygon points="76.8 62.22 99.75 85.17 40.28 140.95 28.37 129.04 28.43 128.98 0 100.55 76.71 27.73 122.32 73.73 127.57 68.48 82.49 21.91 82.5 21.9 82.5 21.9 104.39 0 104.48 21.19 152.94 69.65 123.88 98.71 76.71 51.56 23.83 100.55 40.91 117.63 75.93 85.17 76.8 62.22"/>
      <g>
        <path d="M246.76,160.95l147.27-.41-73.43-73.43-73.84,73.84ZM287.54,144l33.06-33.06,32.88,32.88-65.94.18Z"/>
        <polygon points="641.29 100.55 564.58 27.73 518.97 73.73 513.73 68.48 558.81 21.91 558.8 21.9 558.8 21.9 536.9 0 536.82 21.19 488.36 69.65 517.42 98.71 564.58 51.56 617.46 100.55 600.39 117.63 565.36 85.17 564.5 62.22 541.54 85.17 601.02 140.95 612.93 129.04 612.86 128.98 641.29 100.55"/>
        <polygon points="517.51 109.16 462.23 53.88 427.27 53.88 400.88 27.49 417.58 10.67 321.37 10.7 338.06 27.51 361.17 27.51 377.08 27.51 420.3 70.73 455.26 70.73 505.6 121.07 483.64 143.03 447.06 142.91 390.78 86.63 330.45 86.63 375.74 129.59 399.37 129.59 373.36 103.4 383.73 103.4 440.09 159.76 490.61 159.87 536.22 114.28 584.08 158.25 596 146.34 536.22 90.45 517.51 109.16"/>
        <polygon points="345.41 34.95 362.12 51.8 366.45 51.8 449.66 135 480.42 135 494.27 121.17 451.95 78.87 427.94 78.67 467.44 118.15 456.63 118.15 373.44 34.97 373.28 34.97 373.28 34.95 345.41 34.95"/>
        <polygon points="265.56 129.59 310.85 86.63 250.51 86.63 194.24 142.91 157.66 143.03 135.69 121.07 186.04 70.73 220.99 70.73 264.22 27.51 280.13 27.51 303.23 27.51 319.92 10.7 223.72 10.67 240.41 27.49 214.02 53.88 179.07 53.88 123.79 109.16 105.08 90.45 45.3 146.34 57.22 158.25 105.08 114.28 150.69 159.87 201.21 159.76 257.56 103.4 267.93 103.4 241.93 129.59 265.56 129.59"/>
        <polygon points="189.34 78.87 147.02 121.17 160.88 135 191.64 135 274.85 51.8 279.17 51.8 295.89 34.95 268.01 34.95 268.01 34.97 267.85 34.97 184.66 118.15 173.86 118.15 213.36 78.67 189.34 78.87"/>
      </g>
    </g>
  </g>
</svg>