<?xml version="1.0" encoding="UTF-8"?>
<svg id="Layer_2" data-name="Layer 2" xmlns="http://www.w3.org/2000/svg" viewBox="0 0 639.26 157.47">
  <g id="_Слой_1" data-name="Слой 1">
    <g>
      <g>
        <path d="M81.36,114.18h.38c5.93-5.93,9.6-9.6,14.92-14.92,1.67-1.67,3.95-2.62,6.31-2.62h30.2v18.04l-24.51,24.51h-30.83l-.1-60.39h-31.56L.04,32.66v42.64c0,5.15,4.17,9.32,9.32,9.32h17.2v-.1l12.18,12.18h21.09l.09,51.98c0,4.65,3.78,8.41,8.42,8.41h47.73l35-35v-43.37h-60.81c-4.93,0-8.92,3.99-8.92,8.92v26.53Z"/>
        <path d="M251.57,80.02l63.84,63.84-12.67,12.67-58.58-58.59h-2.83v15.93l43.6,43.61h-69.74l-35.1-35.1h-25.27V43.75H42.82l-12.44,12.45L0,25.83h164.32c4.65,0,8.42,3.77,8.42,8.42v70.2h14.77l35.1,35.1h19.06l-18.26-18.27v-14.77h.01v-26.53h12.62l.04.04h15.49Z"/>
        <path d="M317.84,116.09v25.34l-109.02-109.02c-1.71-1.71-3.82-2.48-5.89-2.48-.28,0-.56.01-.83.04-5.82.58-8.14,7.92-4.01,12.05l34.18,34.18h-12.62v12.72l-43.13-43.14V8.42C176.52,3.77,180.29,0,184.94,0h13.3C200.48,0,202.62.88,204.21,2.47l113.63,113.62Z"/>
      </g>
      <g>
        <path d="M557.9,114.18h-.38c-5.93-5.93-9.6-9.6-14.92-14.92-1.67-1.67-3.95-2.62-6.31-2.62h-30.2s0,18.04,0,18.04l24.51,24.51h30.83s.1-60.39.1-60.39h31.56s46.13-46.12,46.13-46.12v42.64c0,5.15-4.17,9.32-9.32,9.32h-17.2v-.1l-12.18,12.18h-21.09s-.09,51.98-.09,51.98c0,4.65-3.78,8.41-8.42,8.41h-47.73s-35-35-35-35v-43.37h60.81c4.93,0,8.92,3.99,8.92,8.92v26.53Z"/>
        <path d="M387.68,80.02l-63.84,63.84,12.67,12.67,58.58-58.59h2.83v15.93s-43.6,43.61-43.6,43.61h69.74s35.1-35.1,35.1-35.1h25.27s0-78.62,0-78.62h112.01s12.44,12.45,12.44,12.45l30.37-30.36h-164.32c-4.65,0-8.42,3.77-8.42,8.42v70.2h-14.77s-35.1,35.1-35.1,35.1h-19.06s18.26-18.27,18.26-18.27v-14.77s-.01,0-.01,0v-26.53s-12.62,0-12.62,0l-.04.04h-15.49Z"/>
        <path d="M321.42,116.09v25.34s109.02-109.02,109.02-109.02c1.71-1.71,3.82-2.48,5.89-2.48.04,0,.09,0,.13,0,6.16.1,9.04,7.76,4.68,12.12l-34.16,34.16h12.62v12.72s43.13-43.14,43.13-43.14V8.42C462.73,3.77,458.96,0,454.31,0h-13.31c-2.23,0-4.37.88-5.96,2.47l-113.63,113.62Z"/>
      </g>
    </g>
  </g>
</svg>