<?xml version="1.0" encoding="UTF-8"?>
<svg id="Layer_2" data-name="Layer 2" xmlns="http://www.w3.org/2000/svg" viewBox="0 0 583.04 102.84">
  <g id="_Слой_1" data-name="Слой 1">
    <g>
      <polygon points="167.05 27.29 167.05 32.93 185.58 32.93 185.58 19.62 165.96 0 68.83 0 68.83 18.52 158.28 18.52 167.05 27.29"/>
      <path d="M231.84,13.29V1h-18.52v4.62l-27.41,27.41h26.19l19.74-19.74Z"/>
      <polygon points="147.53 102.84 173.68 102.84 209.95 66.53 209.95 59.24 191.06 59.24 147.53 102.84"/>
      <polygon points="110.82 67.16 30.28 67.16 18.54 55.42 18.54 38.14 19.63 37.05 68.83 37.05 68.83 55.52 229.56 55.52 254.02 31.06 254.02 1.23 235.5 1.23 235.5 23.39 221.89 37 68.83 37 68.83 18.52 11.96 18.52 0 30.82 .01 38.07 .01 63.09 22.61 85.69 129.34 85.69 110.82 67.16"/>
      <path d="M159.74,59.05v.19l-43.61,43.61s17.52,0,26.19-.04l43.76-43.76h-26.34Z"/>
      <polygon points="280.63 20.49 287.63 13.45 299.78 13.45 287.55 1.23 257.73 1.23 257.73 19.75 279.89 19.75 280.63 20.49"/>
      <path d="M302.41,77.14c2.96-2.96,5.85-5.85,9.6-9.59v-28.16h-12.3l-6.22,6.22v12.93c-.07.07-.15.15-.22.22-3.19,3.22-5.08,5.11-8.37,8.41h-74.21c7.26,7.22,11.3,11.26,18.52,18.52h64.65c3.33-3.33,5.97-5.97,8.56-8.56Z"/>
      <polygon points="415.99 75.55 415.99 69.91 397.46 69.91 397.46 83.22 417.08 102.84 514.21 102.84 514.21 84.32 424.76 84.32 415.99 75.55"/>
      <path d="M351.19,89.55v12.29h18.52v-4.62l27.41-27.41h-26.19l-19.74,19.74Z"/>
      <polygon points="435.51 0 409.36 0 373.08 36.31 373.08 43.61 391.98 43.61 435.51 0"/>
      <polygon points="583.02 64.88 583.02 39.75 560.42 17.15 453.69 17.15 472.22 35.68 552.76 35.68 564.5 47.42 564.5 64.7 563.41 65.79 514.21 65.79 514.21 47.32 353.48 47.32 329.01 71.78 329.01 101.61 347.54 101.61 347.54 79.45 361.15 65.84 514.21 65.84 514.21 84.32 571.08 84.32 583.04 72.02 583.02 64.88"/>
      <path d="M423.29,43.79v-.19L466.9,0s-17.52,0-26.19.04l-43.76,43.76h26.34Z"/>
      <polygon points="302.41 82.36 295.37 89.4 283.26 89.4 295.48 101.63 325.31 101.63 325.31 83.1 303.15 83.1 302.41 82.36"/>
      <path d="M271.03,35.31v28.16h12.34c2.3-2.3,3.96-3.96,6.19-6.22v-12.97c.07-.07.15-.15.22-.19,3.19-3.22,5.08-5.11,8.37-8.41h74.21c-7.26-7.22-11.3-11.3-18.52-18.52h-64.65c-7.11,7.08-11.08,11.08-18.15,18.15Z"/>
    </g>
  </g>
</svg>