<?xml version="1.0" encoding="UTF-8"?>
<svg id="Layer_2" data-name="Layer 2" xmlns="http://www.w3.org/2000/svg" viewBox="0 0 713.41 143.84">
  <g id="_Слой_1" data-name="Слой 1">
    <g>
      <polygon points="314.25 28.74 314.24 28.72 314.24 28.72 285.51 0 285.4 29.35 252.97 61.78 334.83 143.64 371.58 143.64 285.73 57.78 314.25 28.74"/>
      <polygon points="207.85 58.67 269.51 120.31 260.22 120.31 198.5 58.59 170.92 58.57 146.87 82.63 189.54 82.63 250.57 143.64 287.49 143.64 306.67 124.49 241.11 58.95 207.85 58.67"/>
      <polygon points="253.36 52.26 276.51 28.93 158.67 28.93 163.32 28.95 158.45 28.95 67.08 120.31 56.77 120.31 148.06 29.04 114.8 29.32 19.61 124.49 38.79 143.64 76.74 143.64 168.13 52.26 253.36 52.26"/>
      <polygon points="218.26 120.57 109.07 120.57 85.81 143.84 188.09 143.84 187.93 143.79 241.49 143.79 218.26 120.57"/>
      <polygon points="73.54 28.8 0 102.34 15.99 118.68 105.87 28.8 73.54 28.8"/>
      <polygon points="627.55 57.78 656.08 28.74 656.06 28.72 656.06 28.72 627.34 0 627.23 29.35 594.8 61.78 676.66 143.64 713.41 143.64 627.55 57.78"/>
      <polygon points="549.67 58.67 611.34 120.31 602.05 120.31 540.33 58.59 512.75 58.57 488.7 82.63 531.37 82.63 592.4 143.64 629.32 143.64 648.5 124.49 582.93 58.95 549.67 58.67"/>
      <polygon points="595.19 52.26 618.33 28.93 500.5 28.93 505.15 28.95 500.28 28.95 408.91 120.31 398.59 120.31 489.88 29.04 456.62 29.32 361.43 124.49 380.61 143.64 418.57 143.64 509.96 52.26 595.19 52.26"/>
      <polygon points="560.09 120.57 450.9 120.57 427.63 143.84 529.92 143.84 529.76 143.79 583.31 143.79 560.09 120.57"/>
      <polygon points="447.7 28.8 415.37 28.8 341.7 104.36 357.69 120.7 447.7 28.8"/>
    </g>
  </g>
</svg>