<?xml version="1.0" encoding="UTF-8"?>
<svg id="Layer_2" data-name="Layer 2" xmlns="http://www.w3.org/2000/svg" viewBox="0 0 794.7 160.33">
  <g id="_Слой_1" data-name="Слой 1">
    <g>
      <path d="M333.59,14.41l-46.07,46.07,10.13,10.13L368.17.09h-145.45L76.98,145.83H22.53c-4.53,0-8.21-3.68-8.21-8.21,0-2.18.87-4.27,2.4-5.81l18.99-18.99-.36.51L129.84,18.85h-20.4l-33.71,33.71h-33.42c-6.45,0-9.68-7.8-5.12-12.35l20.03-20.03c3.68-3.68,8.67-5.75,13.87-5.75h129.2L214.59.13h-14.29v-.03H65.17c-5.2,0-10.19,2.07-13.87,5.75l-23.9,23.9c-13.7,13.7-4,37.13,15.38,37.13h18.63L6.6,121.69c-4.23,4.23-6.6,9.96-6.6,15.93h0c0,12.44,10.09,22.53,22.53,22.53h60.38L228.65,14.41h104.94Z"/>
      <polygon points="301.26 74.1 311.39 84.22 395.46 .15 375.21 .15 301.26 74.1"/>
      <path d="M357.95,69.93c0,25.68-31.05,38.55-49.22,20.39l-44.17-44.17h-59.29l-113.35,113.35h116.52l69.83-69.83-10.13-10.13-65.64,65.64h-76.02l84.71-84.71h47.42l39.97,39.97c18.16,18.16,8.94,45.57-16.74,45.57h-30.89l41.82-41.82-10.13-10.13-66.27,66.27h155.61v-.95l.12.95.26-129.5-14.44,14.44v24.66Z"/>
      <path d="M788.1,121.6l-54.81-54.81h18.63c19.38,0,29.08-23.43,15.38-37.13l-23.9-23.9c-3.68-3.68-8.67-5.75-13.87-5.75h-135.13v.03h-14.29l14.29,14.29h129.2c5.2,0,10.19,2.07,13.87,5.75l20.03,20.03c4.56,4.56,1.33,12.35-5.12,12.35h-33.42l-33.71-33.71h-20.4l94.49,94.49-.36-.51,18.99,18.99c1.54,1.54,2.4,3.63,2.4,5.81,0,4.53-3.68,8.21-8.21,8.21h-54.45L571.98,0h-145.45l70.52,70.52,10.13-10.13-46.07-46.07h104.94l145.74,145.74h60.38c12.44,0,22.53-10.09,22.53-22.53,0-5.98-2.37-11.71-6.6-15.93Z"/>
      <polygon points="493.43 74.01 419.49 .06 399.23 .06 483.31 84.13 493.43 74.01"/>
      <path d="M530.12,46.06l-44.17,44.17c-18.16,18.16-49.21,5.3-49.21-20.39v-24.66l-14.44-14.44.26,129.5.12-.95v.95h155.61l-66.27-66.27-10.13,10.13,41.82,41.82h-30.89c-25.68,0-34.9-27.41-16.74-45.57l39.97-39.97h47.42l84.71,84.71h-76.02l-65.64-65.64-10.13,10.13,69.83,69.83h116.52l-113.35-113.35h-59.29Z"/>
    </g>
  </g>
</svg>