<?xml version="1.0" encoding="UTF-8"?>
<svg id="Layer_2" data-name="Layer 2" xmlns="http://www.w3.org/2000/svg" viewBox="0 0 606.05 107.39">
  <g id="_Слой_1" data-name="Слой 1">
    <g>
      <path d="M475.36,38.01l-37.86,37.86h-34.54c-9.17,0-16.51,7.91-15.57,17.33.82,8.16,8.29,14.07,16.51,14.07h46.59l37.86-37.86h41.69v-31.33c-.25-.06-.5-.06-.82-.06h-53.88Z"/>
      <path d="M299.73,53.53c0,8.67,7.03,15.7,15.7,15.7h33.92v-31.4h-33.92c-8.67,0-15.7,7.03-15.7,15.7Z"/>
      <path d="M514.47,0h-50.09c-3.03,0-5.93,1.2-8.08,3.34l-31.14,31.14c-2.14,2.14-5.05,3.34-8.08,3.34h-61.47v31.4h79.21l4.6-4.6s23.74-23.74,33.62-33.62c7.96-.11,24.17-.03,41.23.17,8.58.1,15.65-6.76,15.78-15.35.14-8.71-6.88-15.84-15.59-15.84Z"/>
      <path d="M299.73,38.2c-.25-.06-.5-.06-.82-.06h-47.53l-37.86,37.86h-34.54c-9.23,0-16.58,7.91-15.63,17.33.82,8.16,8.29,14.07,16.51,14.07h46.65l37.86-37.86h36.1c-4.33-3.96-7.03-9.67-7.03-16.01,0-5.96,2.39-11.36,6.28-15.32Z"/>
      <path d="M75.72,53.66c0,8.67,7.03,15.7,15.7,15.7h33.92v-31.4h-33.92c-8.67,0-15.7,7.03-15.7,15.7Z"/>
      <path d="M215.42,64.76s23.74-23.74,33.62-33.62c7.96-.11,24.17-.03,41.23.17,8.58.1,15.65-6.76,15.78-15.35.14-8.71-6.88-15.84-15.59-15.84h-50.09c-3.03,0-5.93,1.2-8.08,3.34l-31.14,31.14c-2.14,2.14-5.05,3.34-8.08,3.34h-61.47v31.4h79.21l4.6-4.6Z"/>
      <path d="M333.65.02h-27.95c.13.12.25.25.38.38,4.14,4.21,6.34,9.8,6.28,15.7-.13,5.96-2.64,11.43-6.72,15.32h28.01c8.67,0,15.7-7.03,15.7-15.7S342.32.02,333.65.02Z"/>
      <path d="M109.64.02h-34.08c.13.12.25.25.38.38h-.44v31.02h34.14c8.67,0,15.7-7.03,15.7-15.7S118.31.02,109.64.02Z"/>
      <circle cx="571.44" cy="34.75" r="34.61"/>
      <circle cx="34.61" cy="34.75" r="34.61"/>
    </g>
  </g>
</svg>