<?xml version="1.0" encoding="UTF-8"?>
<svg id="Layer_2" data-name="Layer 2" xmlns="http://www.w3.org/2000/svg" viewBox="0 0 604.14 151.75">
  <g id="_Слой_1" data-name="Слой 1">
    <g>
      <path d="M143.97,53.4v-21.12l-15.5-15.5H0v122.68h184.6l-12.29,12.29c8.4,0,13.11,0,21.51,0l19.76-19.75-19.76-19.75c-8.4,0-13.11,0-21.51,0l12.01,12.01h-61.64V32.49l6.09,6.09v30.03h29.99l69.47,69.47c8.4,0,13.11,0,21.51,0l-84.67-84.67h-21.08ZM15.21,31.99h38.53v42.98L15.21,113.5V31.99ZM25.96,124.25l35.38-35.38,35.37,35.38H25.96ZM107.47,113.5l-38.52-38.53V31.99h38.52v81.5Z"/>
      <path d="M283.82,112.11L171.71,0h-51.49l53.43,53.43c8.4,0,13.11,0,21.51,0l-38.22-38.22h8.47l107.65,107.65h-17.18v15.21h43.14v-43.15h-15.21v17.18Z"/>
      <path d="M489.07,16.78h-13.4l-15.5,15.5v21.12h-21.08l-84.67,84.67c8.4,0,13.11,0,21.51,0l69.47-69.47h29.99v-30.03l6.09-6.09v91.76h-61.64l12.01-12.01c-8.4,0-13.11,0-21.51,0l-19.76,19.75,19.76,19.75c8.4,0,13.11,0,21.51,0l-12.29-12.29h184.6V16.78h-115.07ZM496.67,31.99h38.52v42.98l-38.52,38.53V31.99ZM507.43,124.25l35.37-35.38,35.38,35.38h-70.75ZM588.93,113.5l-38.53-38.53V31.99h38.53v81.51Z"/>
      <path d="M438.73,15.21h8.47l-38.22,38.22c8.4,0,13.11,0,21.51,0L483.91,0h-51.49l-112.11,112.11v-17.18h-15.21v43.15h43.14v-15.21h-17.18L438.73,15.21Z"/>
    </g>
  </g>
</svg>