<?xml version="1.0" encoding="UTF-8"?>
<svg id="Layer_2" data-name="Layer 2" xmlns="http://www.w3.org/2000/svg" viewBox="0 0 637.46 130.51">
  <g id="_Слой_1" data-name="Слой 1">
    <g>
      <path d="M336.86,7.55c-2.93-2.93-4.57-4.57-7.5-7.5h-9.04l-1.49-.05h-14.53l-84.51,84.24-.06-.06-18.43,18.43h-12.25c-1.52-1.52-2.37-2.37-3.89-3.89v-16.01L267.82.06h-38.97l-71.25,71.24v50.78c3.16,3.16,4.93,4.93,8.09,8.09h11.89s.09-.09.14-.14h.01s24.48-24.38,24.48-24.38l24.59,24.59h32.34l77.7-77.7V7.55ZM309.3,41.13l-61.56,61.56h-9.51l-9.36-9.36v-14.22L305.44,2.76h3.86v38.36Z"/>
      <path d="M223.92,2.13l2.13-2.13h-37.08l-27.19,27.19h33.19l-75.43,75.43h-12.33c-1.52-1.52-2.37-2.37-3.88-3.88v-16.02L185.98.06h-38.97l-6.82,6.82-6.88-6.88h-42.04L0,91.27c0,15.22,0,23.75,0,38.97L102.69,27.56h16.82l-43.74,43.74v50.78c3.16,3.16,4.93,4.93,8.09,8.09h11.89c5.71-5.71,10.09-10.09,14.54-14.54l.07.07L223.92,2.13h0Z"/>
      <path d="M629.96.32h-9.04l-1.49-.05h-14.53l-84.51,84.24-.06-.06-18.43,18.43h-12.25c-1.52-1.52-2.37-2.37-3.89-3.89v-16.01L568.42.32h-38.97l-71.25,71.24v50.78c3.16,3.16,4.93,4.93,8.09,8.09h11.89s.09-.09.14-.14h.01s24.48-24.38,24.48-24.38l24.59,24.59h32.34l77.7-77.7V7.82c-2.93-2.93-4.57-4.57-7.5-7.5ZM609.9,41.39l-61.56,61.56h-9.51l-9.36-9.36v-14.22L606.04,3.03h3.86v38.36Z"/>
      <path d="M524.52,2.4l2.13-2.13h-37.08l-27.19,27.19h33.19l-75.43,75.43h-12.33c-1.52-1.52-2.37-2.37-3.88-3.88v-16.02L486.58.32h-38.97l-6.82,6.82-6.88-6.88h-42.04l-91.27,91.27c0,15.22,0,23.75,0,38.97l102.69-102.68h16.82l-43.74,43.74v50.78c3.16,3.16,4.93,4.93,8.09,8.09h11.89c5.71-5.71,10.09-10.09,14.54-14.54l.07.07L524.52,2.4h0Z"/>
    </g>
  </g>
</svg>