<?xml version="1.0" encoding="UTF-8"?>
<svg id="Layer_2" data-name="Layer 2" xmlns="http://www.w3.org/2000/svg" viewBox="0 0 821.12 117.11">
  <g id="_Слой_1" data-name="Слой 1">
    <g>
      <path d="M251.5,53.46c-10.5-10.5-16.39-16.39-26.89-26.89H46.53l63.09,63.08h-7.94L38.03,26.01H0s90.54,90.54,90.54,90.54l.3-.3c.1.1.2.2.3.3h83.39l-63.08-63.08h140.05Z"/>
      <path d="M219.02,59.19l30.47,30.47h-93.89c10.5,10.5,16.39,16.39,26.89,26.89l131.82-.1-57.25-57.25h-38.03Z"/>
      <path d="M360.56,26.89h.12C350.17,16.39,344.28,10.5,333.78,0h-127.89l116.58,116.58h38.03s-89.69-89.69-89.69-89.69h89.69v90.22h26.49v-63.79c-10.33-10.32-16.12-16.12-26.43-26.43Z"/>
      <path d="M513.6,53.46h140.05c-10.5-10.5-16.39-16.39-26.88-26.88h-178.08l63.08,63.08h-7.94l-63.08-63.08h-37.98l-.14-.14,90.06,90.11.31-.3c.09.1.2.2.3.3h83.39l-32.56-32.56-30.53-30.53Z"/>
      <path d="M398.8,20.33L419.13,0h-77.21c10.35,10.35,16.14,16.14,26.49,26.49h24.24v90.62h26.49V51.01l-30.68-30.68h10.35Z"/>
      <path d="M621.01,59.19l30.47,30.47h-93.89c10.5,10.5,16.39,16.39,26.89,26.89l131.82-.1-57.25-57.25h-38.03Z"/>
      <path d="M762.54,26.89h.12c-10.5-10.5-16.39-16.39-26.89-26.89h-127.89l116.58,116.58h38.03s-89.69-89.69-89.69-89.69h89.69v90.22h26.49v-63.79c-10.33-10.32-16.12-16.12-26.43-26.43Z"/>
      <path d="M800.79,20.33l20.33-20.33h-77.21c10.35,10.35,16.14,16.14,26.49,26.49h24.24v90.62h26.49V51.01l-30.68-30.68h10.35Z"/>
    </g>
  </g>
</svg>