<?xml version="1.0" encoding="UTF-8"?>
<svg id="Layer_2" data-name="Layer 2" xmlns="http://www.w3.org/2000/svg" viewBox="0 0 563.35 110.69">
  <g id="_Слой_1" data-name="Слой 1">
    <g>
      <path d="M542.61,11.33L531.28,0h0s-172.39,0-172.39,0h-31.19l-44.99,44.99v38.16h43.86l-14.53-14.53v-11.48l3.7-3.7h97.88l-27.83,27.82h-13.48l-8.15-8.15v-19.62l-9.81,9.81-20.74,20.74,23.6,23.61h-151.09l23.6-23.61-20.74-20.74-9.81-9.81v19.62l-8.15,8.15h-13.48l-27.83-27.82h97.87l3.7,3.7v11.48l-14.53,14.53h43.86v-38.16L235.65,0H32.07s-11.33,11.33-11.33,11.33L0,32.07l41.59,41.59h42.44l37.02,37.02c16.2,0,25.28,0,41.49,0L96.18,44.33h-42.44l-21.67-21.67V2.93h84.42l-10.04,10.04-9.99,9.99c-.01,7.19-.02,11.23-.03,18.43l34.85,35.08,34.13,34.13h37.8s156.95-.01,156.95-.01h.01s37.78.01,37.78.01l34.13-34.13,34.85-35.08c-.01-7.19-.02-11.24-.03-18.43l-9.99-9.99-10.04-10.04h84.42v19.72l-21.67,21.67h-42.44l-66.35,66.36c16.2,0,25.28,0,41.49,0l37.02-37.02h42.44l41.59-41.59-20.74-20.74ZM119.33,23.04V2.93h82.2c-9.68,9.68-15.98,15.98-26.4,26.4h48.37l21.17,21.17h-97.87l-27.47-27.47ZM444.02,23.04l-27.47,27.47h-97.88l21.17-21.17h48.37c-10.43-10.43-16.72-16.72-26.4-26.4h82.2v20.11Z"/>
      <polygon points="324.41 0 238.94 0 281.82 42.59 324.41 0"/>
    </g>
  </g>
</svg>