<?xml version="1.0" encoding="UTF-8"?>
<svg id="Layer_2" data-name="Layer 2" xmlns="http://www.w3.org/2000/svg" viewBox="0 0 682.15 136.15">
  <g id="_Слой_1" data-name="Слой 1">
    <g>
      <g>
        <path d="M185.25,102.87h-4.5L77.89,0c0,18.2,0,28.4,0,46.6l89.22,89.22h51.09V40.73h-32.95v62.14Z"/>
        <path d="M218.34,1.87c-12.87,12.87-20.08,20.08-32.95,32.95h35.71l25.97,25.97v42.08h-23.25v32.95h56.19V47.14L234.76,1.87h-16.41Z"/>
        <path d="M326.93,62.83c5.47-5.47,8.54-8.53,14.01-14L293.98,1.87l-50.93.08,32.87,32.87h4.42l28,28h18.6Z"/>
        <polygon points="86.8 103.12 86.8 135.81 158.74 135.81 126.27 103.12 86.8 103.12"/>
        <polygon points="0 .15 0 23.45 48.05 71.51 48.05 103.13 11.5 103.13 11.5 136.07 81 136.07 81 57.86 23.3 .15 0 .15"/>
        <path d="M340.81,135.95l-49.07-49.07h-5.69v39.34c2.98,2.98,6.75,6.75,9.73,9.73h45.03,0"/>
      </g>
      <g>
        <path d="M496.9,102.94h4.5S604.26.08,604.26.08c0,18.2,0,28.4,0,46.6l-89.22,89.22h-51.09V40.81h32.95v62.14Z"/>
        <path d="M463.81,1.95c12.87,12.87,20.08,20.08,32.95,32.95h-35.71s-25.97,25.97-25.97,25.97v42.08s23.25,0,23.25,0v32.95h-56.19V47.22S447.4,1.95,447.4,1.95h16.41Z"/>
        <path d="M355.22,62.9c-5.47-5.47-8.54-8.53-14.01-14L388.17,1.95l50.93.08-32.87,32.87h-4.42s-28,28-28,28h-18.6Z"/>
        <polygon points="595.35 103.19 595.35 135.89 523.41 135.89 555.88 103.19 595.35 103.19"/>
        <polygon points="682.15 .23 682.15 23.53 634.1 71.58 634.1 103.2 670.66 103.2 670.66 136.15 601.15 136.15 601.15 57.93 658.85 .23 682.15 .23"/>
        <path d="M341.35,136.03l49.07-49.07h5.69s0,39.34,0,39.34c-2.98,2.98-6.75,6.75-9.73,9.73h-45.03s0,0,0,0"/>
      </g>
    </g>
  </g>
</svg>