<?xml version="1.0" encoding="UTF-8"?>
<svg id="Layer_2" data-name="Layer 2" xmlns="http://www.w3.org/2000/svg" viewBox="0 0 571.21 111.54">
  <g id="_Слой_1" data-name="Слой 1">
    <g>
      <polygon points="49.75 0 0 49.89 31.87 49.89 49.59 32.05 49.43 63 49.36 63 49.36 66.56 4.71 111.46 36.57 111.46 49.36 98.58 49.36 111.54 72 111.54 72 66.86 72.28 22.53 95.56 22.53 75.13 42.97 75.17 74.79 149.96 0 49.75 0"/>
      <polygon points="154.44 0 74.73 79.71 74.78 111.54 186.31 0 154.44 0"/>
      <polygon points="79.1 111.54 110.97 111.54 159.66 62.84 159.62 31.02 79.1 111.54"/>
      <polygon points="162.75 111.54 185.92 111.54 185.92 4.69 162.75 27.86 162.75 111.54"/>
      <polygon points="521.46 0 571.21 49.89 539.34 49.89 521.63 32.05 521.78 63 521.85 63 521.85 66.56 566.51 111.46 534.64 111.46 521.85 98.58 521.85 111.54 499.21 111.54 499.21 66.86 498.93 22.53 475.65 22.53 496.08 42.97 496.04 74.79 421.25 0 521.46 0"/>
      <polygon points="416.77 0 496.48 79.71 496.44 111.54 384.9 0 416.77 0"/>
      <polygon points="492.11 111.54 460.24 111.54 411.55 62.84 411.59 31.02 492.11 111.54"/>
      <polygon points="408.46 111.54 385.3 111.54 385.3 4.69 408.46 27.86 408.46 111.54"/>
      <path d="M336.98,111.46h45.08V.53h-58.6l-37.8,37.8L247.88.53h-58.6v110.93h73.29c9-9,14.05-14.05,23.05-23.05h-73.82l-.07-3.4,28.07-.07,45.87-46.51,46.25,46.58,27.62.07.02,3.33h-73.93s22.96,22.96,22.96,22.96l28.4.09ZM211.81,80.76V23.07h26.73l15.31,15.31-42.04,42.38ZM359.53,23.07v57.69l-42.04-42.38,15.31-15.31h26.73Z"/>
    </g>
  </g>
</svg>