<?xml version="1.0" encoding="UTF-8"?>
<svg id="Layer_2" data-name="Layer 2" xmlns="http://www.w3.org/2000/svg" viewBox="0 0 509.01 119.76">
  <g id="_Слой_1" data-name="Слой 1">
    <g>
      <polygon points="260.24 72.56 274.83 57.97 274.81 57.97 285.62 47.15 313.74 47.15 336.89 24 336.89 21.1 270.4 21.1 234.19 57.3 234.19 57.31 233.52 57.97 233.37 57.97 233.23 58.26 223.26 68.23 163.51 68.23 153.31 78.43 153.31 119.76 188.93 84.03 234.19 84.03 234.19 98.64 260.24 72.56"/>
      <polygon points="506.11 57.97 452.51 57.97 462.76 68.23 397.7 68.23 387.49 78.43 387.49 119.76 423.12 84.03 482.96 84.03 509.01 57.97 506.11 57.97"/>
      <path d="M360.48,68.17v-12.95h-24.53l4.76-4.76h19.77v-23.41c-2.33-2.33-3.65-3.65-5.97-5.97h-7.19l-31.34,31.34h-28.12l-31.61,31.61h125.96v-7.82l8.03-8.03h-29.76Z"/>
      <path d="M365.87,24.32v38.62h84.1c-12.37-12.38-19.31-19.31-31.69-31.69h-21.17L365.87,0v.12h-74.09c-6.19,6.19-9.67,9.66-15.86,15.86h81.6c3.26,3.26,5.09,5.09,8.34,8.34Z"/>
      <polygon points="79.55 47.15 102.7 24 102.7 21.1 36.21 21.1 0 57.3 0 98.64 51.43 47.15 79.55 47.15"/>
      <path d="M126.3,68.17v-12.95h-24.53l4.76-4.76h19.77v-23.41c-2.33-2.33-3.65-3.65-5.97-5.97h-7.19l-31.34,31.34h-28.12l-31.61,31.61h125.96v-7.82l8.03-8.03h-29.76Z"/>
      <path d="M131.68,24.32v38.62h89.63l31.68-31.68h-90.07L131.68,0v.13H57.59l-15.86,15.85h81.6c3.26,3.26,5.09,5.09,8.34,8.34Z"/>
    </g>
  </g>
</svg>