<?xml version="1.0" encoding="UTF-8"?>
<svg id="Layer_2" data-name="Layer 2" xmlns="http://www.w3.org/2000/svg" viewBox="0 0 607.52 130">
  <g id="_Слой_1" data-name="Слой 1">
    <path d="M532.26,15.83l.06.1-15.93-15.93h-51.81l-8.47,8.47L447.71.07h-48.02l71.36,71.36v19.74c-1.87,1.87-2.92,2.92-4.79,4.79h-15.2l-62.45-62.45h40.9L396.01,0h-184.49l-33.51,33.51h40.9l-62.45,62.45h-15.2c-1.87-1.87-2.92-2.92-4.79-4.79v-19.74L207.83.07h-48.02l-8.4,8.4-8.47-8.47h-51.81l-15.93,15.93.06-.1L0,91.09v38.91h9.15v-.75s0,0,0,0v.75L79.17,59.98h23.34v36.51h-56.46l-33.51,33.51h56.59l33.38-33.38v23.33c3.9,3.9,6.08,6.08,9.98,9.98h65.55v.08l.08-.08h251.29l.08.08v-.08h44.78v-.03h6.09s.02.02.03.03h14.65c3.9-3.89,6.08-6.08,9.98-9.98v-23.33l33.38,33.38h56.59l-33.51-33.51h-56.46v-36.51h23.34l70.02,70.02h9.15v-38.91l-75.26-75.26ZM103.37,56.51h-20.73l22.55-22.55h20.73l-22.55,22.55ZM474.27,126.42h-44.78v-43.81L352.82,5.95h-2.52v1.04s-.02,0-.04.02v43.77s75.64,75.64,75.64,75.64h-244.29l75.64-75.64V7.01s-.03,0-.04-.02v-1.04h-2.52l-76.66,76.66v43.81h-47.4c5.37-5.37,9.89-9.89,14.42-14.42l.08.08L253.75,3.47h33.03v56.84l-15.86,15.86h-5.86l-7.81-7.81v-14.34l-31.13,31.23,24.88,24.88h33.99l18.78-18.78,18.78,18.78h33.99l24.88-24.88-.03-.03.08.03-31.13-31.23v14.29l-7.86,7.86h-5.86l-15.86-15.86V3.47h33.03l108.61,108.6.08-.08c4.53,4.53,9.05,9.05,14.42,14.42h-2.62ZM504.15,56.51l-22.55-22.55h20.73l22.55,22.55h-20.73Z"/>
  </g>
</svg>