<?xml version="1.0" encoding="UTF-8"?>
<svg id="Layer_2" data-name="Layer 2" xmlns="http://www.w3.org/2000/svg" viewBox="0 0 632.88 156.87">
  <g id="_Слой_1" data-name="Слой 1">
    <g>
      <circle cx="316.85" cy="43.58" r="43.58"/>
      <path d="M267.12,135.82l-31.41-31.41,25.21-25.21v-19.52c-2.89-2.89-4.5-4.5-7.39-7.39h-112.76l21.04,21.05h75.19l-22.59,22.59h-33.24c-8.22,8.22-12.83,12.83-21.05,21.05h58.4l39.88,39.88h57.62c-8.22-8.22-12.83-12.83-21.05-21.05h-27.85Z"/>
      <polygon points="132.95 82.97 102.48 52.5 60.45 52.5 44.01 36.06 55.8 24.26 2.15 24.26 2.15 45.32 23.49 45.32 52.35 74.17 94.38 74.17 97.43 77.22 4.1 77.22 4.1 98.27 111.38 98.27 111.38 117.01 150.77 117.01 132.95 99.19 132.95 82.97"/>
      <polygon points="156.81 72.65 84.16 0 21.07 0 0 21.07 75.46 21.07 135.76 81.37 135.76 97.55 156.85 118.64 156.85 91.31 156.81 91.32 156.81 72.65"/>
      <path d="M451.7,95.94h-33.24l-22.59-22.59h75.19l21.04-21.05h-112.76c-2.89,2.89-4.5,4.5-7.39,7.39v19.52l25.21,25.21-31.41,31.41h-27.85c-8.22,8.22-12.83,12.83-21.05,21.05h57.62l39.88-39.88h58.4c-8.22-8.22-12.83-12.83-21.05-21.05Z"/>
      <polygon points="588.87 36.06 572.42 52.5 530.39 52.5 499.93 82.97 499.93 99.19 482.1 117.01 521.49 117.01 521.49 98.27 628.78 98.27 628.78 77.22 535.45 77.22 538.5 74.17 580.53 74.17 609.38 45.32 630.73 45.32 630.73 24.26 577.08 24.26 588.87 36.06"/>
      <polygon points="497.12 81.37 557.41 21.07 632.88 21.07 611.81 0 548.71 0 476.07 72.65 476.07 91.32 476.03 91.31 476.03 118.64 497.12 97.55 497.12 81.37"/>
    </g>
  </g>
</svg>