<?xml version="1.0" encoding="UTF-8"?>
<svg id="Layer_2" data-name="Layer 2" xmlns="http://www.w3.org/2000/svg" viewBox="0 0 644.35 154.73">
  <g id="_Слой_1" data-name="Слой 1">
    <g>
      <path d="M307.42,46.96h-20.01s-84.51,0-84.51,0l16.8,16.8h34.19c3.63,3.63,5.67,5.67,9.31,9.31v41.05l-19.12,19.12-66.7.02-22.18-22.18h85.61c3.16-7.62,3.39-8.18,6.54-15.8l-59.2-59.2h73.95l8.49,8.49h7.22l-25.31-25.29h-81.15L152.08,0h-17.73l-44.8,44.8h7.92l28-28h19.65l3.07,3.07,27.76,27.76,27.81,27.81,18.83,18.84H24.75l29.87-29.87h15.33s-27.41,27.4-27.41,27.4h3.78s.09,0,.35,0h3.78l27.41-27.41,110.77-.07-16.71-16.71-113.85.02v-.02h-10.41L0,95.27c3.16,7.62,3.39,8.18,6.54,15.8h124.9l26.98,26.98,104.61-.02.07-.07c6.54,6.54,10.22,10.22,16.77,16.77h23.09l18.01-18.01V60.51l-13.56-13.56ZM304.18,129.75l-8.18,8.18h-32.87l16.86-16.86v-48.01c3.63-3.63,5.67-5.67,9.31-9.31h14.88v66Z"/>
      <path d="M323.37,60.51v76.2s18.01,18.01,18.01,18.01h23.09c6.55-6.55,10.23-10.23,16.77-16.77l.07.07,104.61.02,26.98-26.98h124.9c3.16-7.62,3.39-8.18,6.54-15.8l-47.66-47.66h-10.41s0,.02,0,.02l-113.85-.02-16.71,16.71,110.77.07,27.41,27.41c2.24,0,3.3,0,3.78,0,.27,0,.36,0,.35,0h3.78s-27.41-27.41-27.41-27.41h15.33s29.87,29.88,29.87,29.88h-197.85s18.83-18.84,18.83-18.84l27.81-27.81,27.76-27.76,3.07-3.07h19.65s28,28,28,28h7.92S509.99,0,509.99,0h-17.73s-19.27,19.27-19.27,19.27h-81.15s-25.31,25.29-25.31,25.29h7.22s8.49-8.49,8.49-8.49h73.95s-59.2,59.2-59.2,59.2c3.16,7.62,3.39,8.18,6.54,15.8h85.61s-22.18,22.18-22.18,22.18l-66.7-.02-19.12-19.12v-41.05c3.63-3.63,5.67-5.67,9.31-9.31h34.19s16.8-16.8,16.8-16.8h-84.51s0,0,0,0h-20.01c-5.29,5.29-8.26,8.26-13.56,13.56ZM340.17,63.75h14.88c3.63,3.63,5.67,5.67,9.31,9.31v48.01s16.86,16.86,16.86,16.86h-32.87s-8.18-8.18-8.18-8.18V63.75Z"/>
    </g>
  </g>
</svg>