<?xml version="1.0" encoding="UTF-8"?>
<svg id="Layer_2" data-name="Layer 2" xmlns="http://www.w3.org/2000/svg" viewBox="0 0 816.53 152.49">
  <g id="_Слой_1" data-name="Слой 1">
    <g>
      <path d="M777.9,56.82h-35.76l-75.12,75.12h-7.4l-9.26-9.26.04-.04-61.48-61.48h28.11l57.3,57.3,14.48-14.48-.03-.03.13-.13-46.08-46.07-.17-.17h0l-.51-.51h-140.97c-9.08-9.08-14.81-14.81-24.44-24.44h-49.99c-6.17,6.17-10.28,10.28-15.49,15.49h-6.01c-5.22-5.22-9.32-9.32-15.49-15.49h-49.99c-9.63,9.63-15.36,15.36-24.44,24.44h-140.97l-.51.51h0l-.17.17-46.08,46.07.13.13-.03.03,14.48,14.48,57.3-57.3h28.11l-61.48,61.48.04.04-9.26,9.26h-7.4L74.39,56.82h-35.76L0,95.45v24.68l32.2,32.2h76.13l13.4-13.4-14.48-14.48-7.4,7.4h-59.16l-20.2-20.2v-7.72l26.63-26.63h18.79l75.12,75.12h24.36l42.88-42.88h40.96l42.94,42.94h45.21v-4.1h-20.34l-59.32-59.33h-52.29l27.91-27.91h98.42c7.69,7.69,12,12,19.7,19.7v33.73l33.8,33.8h-43.57v4.1h133.17v-4.1h-43.57l33.8-33.8v-33.73c7.69-7.69,12-12,19.7-19.7h98.42l27.91,27.91h-52.29l-59.32,59.33h-20.34v4.1h45.21l42.94-42.94h40.96l42.88,42.88h24.36l75.12-75.12h18.79l26.63,26.63v7.72l-20.2,20.2h-59.16l-7.4-7.4-14.48,14.48,13.4,13.4h76.13l32.2-32.2v-24.68l-38.63-38.63ZM406.22,132.01h-8.38l-25.9-25.9v-29.35c-7.69-7.69-12-12-19.7-19.7h-16.42c1.27-1.27,2.39-2.39,3.96-3.96h63.03c1.33,1.33,2.08,2.08,3.41,3.41v75.5ZM464.29,57.06c-7.69,7.69-12,12-19.7,19.7v29.35l-25.9,25.9h-8.38V56.51c1.33-1.33,2.08-2.08,3.41-3.41h63.03c1.57,1.57,2.69,2.69,3.96,3.96h-16.42Z"/>
      <polygon points="641.08 26.85 647.45 20.48 676.65 20.48 724.69 68.52 739.17 54.04 685.13 0 638.96 0 620.6 18.37 620.6 52.98 641.08 52.98 641.08 26.85"/>
      <polygon points="139.88 20.48 169.08 20.48 175.45 26.85 175.45 52.98 195.93 52.98 195.93 18.37 177.57 0 131.4 0 77.36 54.04 91.84 68.52 139.88 20.48"/>
    </g>
  </g>
</svg>